<?xml version="1.0" standalone="no"?>
<!DOCTYPE svg PUBLIC "-//W3C//DTD SVG 1.1//EN" "http://www.w3.org/Graphics/SVG/1.1/DTD/svg11.dtd" >
<svg>
<metadata>
Created by FontForge 20090622 at Wed Jun 13 18:56:44 2018
 By deploy user
Copyright &#194;&#169; 2012 S-Core. All rights reserved.
</metadata>
<defs>
<font id="CoreSansN-35Light" horiz-adv-x="1000" >
  <font-face 
    font-family="Core Sans N"
    font-weight="300"
    font-stretch="normal"
    units-per-em="1000"
    panose-1="2 11 3 3 3 3 2 2 2 4"
    ascent="800"
    descent="-200"
    x-height="518"
    cap-height="700"
    bbox="-421 -310 1000 999"
    underline-thickness="24"
    underline-position="-183"
    unicode-range="U+000D-U+FB04"
  />
<missing-glyph horiz-adv-x="300" 
 />
    <glyph glyph-name="f_f" unicode="ff" horiz-adv-x="631" 
d="M413 551q0 90 40 134.5t113 44.5q42 0 72 -9l-7 -55q-13 5 -29 7.5t-32 2.5q-51 0 -74 -30.5t-23 -103.5v-24h151v-52h-151v-466h-60v466h-231v-466h-60v466h-110v52h110v34q0 178 167 178q20 0 43 -3t43 -9l-7 -55q-17 7 -36 10t-39 3q-60 0 -85.5 -30.5t-25.5 -103.5
v-24h231v33z" />
    <glyph glyph-name="f_i" unicode="fi" horiz-adv-x="562" 
d="M122 551q0 90 40 134.5t113 44.5q42 0 72 -9l-7 -55q-13 5 -29 7.5t-32 2.5q-51 0 -74 -30.5t-23 -103.5v-24h151v-52h-151v-466h-60v466h-110v52h110v33zM477 0h-60v518h60v-518zM447 730q20 0 29 -12t9 -41t-9 -41t-29 -12t-29 12t-9 41t9 41t29 12z" />
    <glyph glyph-name="f_l" unicode="fl" horiz-adv-x="554" 
d="M417 730h60v-730h-60v730zM122 551q0 90 40 134.5t113 44.5q42 0 72 -9l-7 -55q-13 5 -29 7.5t-32 2.5q-51 0 -74 -30.5t-23 -103.5v-24h151v-52h-151v-466h-60v466h-110v52h110v33z" />
    <glyph glyph-name="f_f_i" unicode="ffi" horiz-adv-x="853" 
d="M413 551q0 90 40 134.5t113 44.5q42 0 72 -9l-7 -55q-13 5 -29 7.5t-32 2.5q-51 0 -74 -30.5t-23 -103.5v-24h151v-52h-151v-466h-60v466h-231v-466h-60v466h-110v52h110v34q0 178 167 178q20 0 43 -3t43 -9l-7 -55q-17 7 -36 10t-39 3q-60 0 -85.5 -30.5t-25.5 -103.5
v-24h231v33zM768 0h-60v518h60v-518zM738 730q20 0 29 -12t9 -41t-9 -41t-29 -12t-29 12t-9 41t9 41t29 12z" />
    <glyph glyph-name="f_f_l" unicode="ffl" horiz-adv-x="845" 
d="M413 551q0 90 40 134.5t113 44.5q42 0 72 -9l-7 -55q-13 5 -29 7.5t-32 2.5q-51 0 -74 -30.5t-23 -103.5v-24h151v-52h-151v-466h-60v466h-231v-466h-60v466h-110v52h110v34q0 178 167 178q20 0 43 -3t43 -9l-7 -55q-17 7 -36 10t-39 3q-60 0 -85.5 -30.5t-25.5 -103.5
v-24h231v33zM708 730h60v-730h-60v730z" />
    <glyph glyph-name=".notdef" horiz-adv-x="300" 
 />
    <glyph glyph-name="NULL" horiz-adv-x="0" 
 />
    <glyph glyph-name="NULL" horiz-adv-x="0" 
 />
    <glyph glyph-name="nonmarkingreturn" unicode="&#xd;" horiz-adv-x="237" 
 />
    <glyph glyph-name="space" unicode=" " horiz-adv-x="300" 
 />
    <glyph glyph-name="exclam" unicode="!" horiz-adv-x="260" 
d="M96 482v218h68v-218l-14 -313h-40zM173 44q0 -31 -10.5 -43.5t-32.5 -12.5t-32.5 12.5t-10.5 43.5t10.5 43.5t32.5 12.5t32.5 -12.5t10.5 -43.5z" />
    <glyph glyph-name="quotedbl" unicode="&#x22;" horiz-adv-x="435" 
d="M264 700h69v-49l-12 -228h-50zM102 700h69v-49l-13 -228h-49z" />
    <glyph glyph-name="numbersign" unicode="#" horiz-adv-x="684" 
d="M503 700h62l-30 -173h112v-54h-121l-41 -232h121v-54h-130l-32 -187h-62l32 187h-204l-33 -187h-62l33 187h-111v54h119l41 232h-119v54h128l30 173h62l-30 -173h205zM218 241h205l41 232h-205z" />
    <glyph glyph-name="dollar" unicode="$" horiz-adv-x="536" 
d="M300 777v-65q43 -1 79 -7.5t68 -19.5l-5 -64q-34 17 -69 24t-73 9v-270q49 -18 85 -38.5t59 -45t34 -54.5t11 -68q0 -78 -49 -126.5t-140 -59.5v-67h-51v63q-54 0 -103 12t-87 34l5 67q42 -27 89 -41t96 -14v290q-102 33 -149.5 80t-47.5 124q0 72 53 117t144 53v67h51z
M423 176q0 48 -28 81t-95 61v-268q61 10 92 43t31 83zM118 541q0 -46 30 -79.5t101 -59.5v250q-64 -8 -97.5 -37.5t-33.5 -73.5z" />
    <glyph glyph-name="percent" unicode="%" horiz-adv-x="885" 
d="M82 526q0 39 11 72.5t31 57.5t49 37.5t65 13.5t65 -13.5t49.5 -37.5t31 -57.5t10.5 -72.5t-10.5 -72t-31 -57.5t-49.5 -38t-65 -13.5t-65 13.5t-49 38t-31 57.5t-11 72zM143 526q0 -59 25 -92.5t70 -33.5t70 33.5t25 92.5t-25 93t-70 34t-70 -34t-25 -93zM492 173
q0 39 10.5 72.5t31 57.5t49 37.5t64.5 13.5t65 -13.5t49.5 -37.5t31 -57.5t10.5 -72.5t-10.5 -72t-31 -57.5t-49.5 -38t-65 -13.5t-64.5 13.5t-49 38t-31 57.5t-10.5 72zM553 173q0 -59 24.5 -92.5t69.5 -33.5t70 33.5t25 92.5t-25 93t-70 34t-69.5 -34t-24.5 -93zM658 700
h69l-499 -700h-70z" />
    <glyph glyph-name="ampersand" unicode="&#x26;" horiz-adv-x="642" 
d="M668 0h-82l-97 94q-39 -52 -97.5 -79.5t-133.5 -27.5q-44 0 -83 12t-68.5 35.5t-47 57.5t-17.5 79q0 69 37.5 118.5t116.5 88.5q-53 52 -76.5 93.5t-23.5 86.5q0 35 13 63.5t36.5 48.5t55 31t68.5 11q80 0 128.5 -44t48.5 -118q0 -57 -36 -102.5t-115 -82.5l179 -175
q16 37 24.5 82.5t9.5 101.5h61q-1 -69 -13 -126.5t-35 -104.5zM104 169q0 -27 10.5 -50.5t30.5 -40.5t49 -27t66 -10q59 0 106.5 23t79.5 71l-209 203q-73 -34 -103 -75.5t-30 -93.5zM384 550q0 48 -31 78.5t-85 30.5q-51 0 -80.5 -28.5t-29.5 -72.5q0 -15 4 -30.5t15 -33
t29.5 -39.5t47.5 -50q73 35 101.5 70t28.5 75z" />
    <glyph glyph-name="quotesingle" unicode="'" horiz-adv-x="262" 
d="M97 700h68v-49l-12 -228h-50z" />
    <glyph glyph-name="parenleft" unicode="(" horiz-adv-x="343" 
d="M102 310q0 121 40.5 230.5t110.5 209.5h58q-69 -101 -108.5 -213t-39.5 -227q0 -116 39.5 -228t108.5 -212h-58q-70 99 -110.5 209t-40.5 231z" />
    <glyph glyph-name="parenright" unicode=")" horiz-adv-x="343" 
d="M241 310q0 -121 -40.5 -231t-110.5 -209h-58q69 100 108.5 212t39.5 228q0 115 -39.5 227t-108.5 213h58q70 -100 110.5 -209.5t40.5 -230.5z" />
    <glyph glyph-name="asterisk" unicode="*" horiz-adv-x="525" 
d="M463 253l-32 -55l-142 87l5 -166h-63l5 166l-142 -87l-32 55l147 79l-147 79l32 55l142 -87l-5 166h63l-5 -167l142 88l32 -55l-147 -79z" />
    <glyph glyph-name="plus" unicode="+" horiz-adv-x="612" 
d="M275 304h-213v56h213v213h62v-213h213v-56h-213v-213h-62v213z" />
    <glyph glyph-name="comma" unicode="," horiz-adv-x="292" 
d="M189 44q0 -56 -13 -94.5t-51 -73.5l-18 23q33 40 36 89q-20 1 -30 13.5t-10 42.5q0 31 10.5 43.5t32.5 12.5t32.5 -12.5t10.5 -43.5z" />
    <glyph glyph-name="hyphen" unicode="-" horiz-adv-x="399" 
d="M62 301v62h275v-62h-275z" />
    <glyph glyph-name="period" unicode="." horiz-adv-x="292" 
d="M189 44q0 -31 -10.5 -43.5t-32.5 -12.5t-32.5 12.5t-10.5 43.5t10.5 43.5t32.5 12.5t32.5 -12.5t10.5 -43.5z" />
    <glyph glyph-name="slash" unicode="/" horiz-adv-x="479" 
d="M57 -110h-65l430 858h65z" />
    <glyph glyph-name="zero" unicode="0" horiz-adv-x="584" 
d="M43 350q0 80 16.5 146.5t48 114.5t78 74.5t106.5 26.5t106.5 -26.5t78 -74.5t48 -114.5t16.5 -146.5t-16.5 -146.5t-48 -114.5t-78 -74.5t-106.5 -26.5t-106.5 26.5t-78 74.5t-48 114.5t-16.5 146.5zM109 350q0 -70 12 -126.5t35 -96t57.5 -60.5t78.5 -21t78 21
t57.5 60.5t35.5 96t12 126.5t-12 126.5t-35.5 96t-57.5 60.5t-78 21t-78 -21t-57.5 -60.5t-35.5 -96t-12 -126.5z" />
    <glyph glyph-name="one" unicode="1" horiz-adv-x="584" 
d="M158 523l-34 47l189 130h57v-700h-64v626z" />
    <glyph glyph-name="two" unicode="2" horiz-adv-x="584" 
d="M70 0v58l125 113.5t122 125.5t81.5 116.5t25.5 108.5q0 63 -45 97.5t-118 34.5q-42 0 -82 -10.5t-75 -30.5l-6 61q33 18 77.5 28t89.5 10q47 0 88 -12t71.5 -36t48 -60t17.5 -84q0 -65 -28.5 -123.5t-88.5 -126.5q-54 -61 -110 -116t-105 -98h336v-56h-424z" />
    <glyph glyph-name="three" unicode="3" horiz-adv-x="584" 
d="M162 395q55 1 101 10.5t79 28t51.5 45.5t18.5 63q0 49 -39 80.5t-123 31.5q-43 0 -85 -9t-77 -28l-7 59q35 17 79.5 26.5t91.5 9.5q109 0 167.5 -46t58.5 -118q0 -39 -13.5 -69.5t-37.5 -52.5t-56.5 -37t-71.5 -22q89 -17 139 -64t50 -125q0 -42 -16.5 -76.5t-48 -60
t-77.5 -39.5t-106 -14q-45 0 -90 6.5t-83 22.5l5 64q36 -18 80 -26.5t86 -8.5q91 0 137.5 37t46.5 95q0 76 -66 116.5t-194 44.5v56z" />
    <glyph glyph-name="four" unicode="4" horiz-adv-x="584" 
d="M39 161v61l352 478h64v-483h90v-56h-90v-161h-64v161h-352zM110 217h281v384z" />
    <glyph glyph-name="five" unicode="5" horiz-adv-x="584" 
d="M113 700h376v-56h-312v-234q22 8 50 12t54 4q52 0 94.5 -14t73 -41t47.5 -67.5t17 -93.5q0 -48 -17.5 -88.5t-50.5 -70t-80.5 -46.5t-108.5 -17q-45 0 -88 7t-81 24l6 66q38 -21 76 -30t84 -9q90 0 142 44t52 125q0 80 -47 116.5t-132 36.5q-41 0 -81.5 -7.5t-73.5 -20.5
v360z" />
    <glyph glyph-name="six" unicode="6" horiz-adv-x="584" 
d="M307 -12q-54 0 -100.5 20t-80 62t-52.5 106.5t-19 154.5q0 100 21.5 172t59.5 118.5t90.5 68.5t115.5 22q37 0 75 -6.5t67 -20.5l-6 -64q-31 17 -66 25t-71 8q-99 0 -153 -69t-65 -221q33 38 83 61.5t100 23.5t91.5 -16.5t71.5 -46.5t47 -72.5t17 -95.5
q0 -52 -17.5 -94.5t-48 -72.5t-72 -46.5t-88.5 -16.5zM467 217q0 77 -41.5 125.5t-124.5 48.5q-57 0 -102 -27t-76 -72q3 -65 17.5 -111.5t38.5 -76.5t56.5 -44t70.5 -14q36 0 66 12.5t51 35.5t32.5 54t11.5 69z" />
    <glyph glyph-name="seven" unicode="7" horiz-adv-x="584" 
d="M229 0h-69l268 644h-358v56h424v-61z" />
    <glyph glyph-name="eight" unicode="8" horiz-adv-x="584" 
d="M293 -12q-53 0 -97.5 12.5t-77 37t-50.5 60t-18 80.5q0 67 45.5 115.5t119.5 77.5q-66 30 -101 71.5t-35 97.5q0 35 15.5 66t43.5 54.5t67.5 37.5t87.5 14q50 0 89.5 -13.5t67 -37t42 -54.5t14.5 -66q0 -59 -39 -102t-104 -71q91 -39 130.5 -84.5t39.5 -103.5
q0 -45 -17.5 -80.5t-49 -60t-75.5 -38t-98 -13.5zM469 175q0 25 -8.5 46t-29.5 41t-57.5 39.5t-92.5 41.5q-80 -28 -122 -71t-42 -95q0 -30 13.5 -54.5t37 -42t55.5 -26.5t70 -9t70 9.5t55.5 26.5t37 41t13.5 53zM146 543q0 -28 9 -49t28 -37.5t48 -31.5t69 -31
q68 26 104 62.5t36 87.5q0 46 -38.5 78t-108.5 32q-32 0 -59 -9t-46.5 -24t-30.5 -35t-11 -43z" />
    <glyph glyph-name="nine" unicode="9" horiz-adv-x="584" 
d="M277 712q54 0 100.5 -20t80 -62t52.5 -106.5t19 -154.5q0 -100 -21.5 -172t-59.5 -118.5t-90.5 -68.5t-115.5 -22q-37 0 -75 6.5t-67 20.5l6 64q31 -17 66 -25t71 -8q99 0 153 69t65 221q-33 -38 -83 -61.5t-100 -23.5t-91.5 16.5t-71.5 46.5t-47 72.5t-17 95.5
q0 52 17.5 94.5t48 72.5t72 46.5t88.5 16.5zM117 483q0 -77 41.5 -125.5t124.5 -48.5q57 0 102 27t76 72q-3 65 -17.5 111.5t-38.5 76.5t-56.5 44t-70.5 14q-36 0 -66 -12.5t-51 -35.5t-32.5 -54.5t-11.5 -68.5z" />
    <glyph glyph-name="colon" unicode=":" horiz-adv-x="292" 
d="M189 44q0 -31 -10.5 -43.5t-32.5 -12.5t-32.5 12.5t-10.5 43.5t10.5 43.5t32.5 12.5t32.5 -12.5t10.5 -43.5zM189 474q0 -31 -10.5 -43.5t-32.5 -12.5t-32.5 12.5t-10.5 43.5t10.5 43.5t32.5 12.5t32.5 -12.5t10.5 -43.5z" />
    <glyph glyph-name="semicolon" unicode=";" horiz-adv-x="292" 
d="M189 474q0 -31 -10.5 -43.5t-32.5 -12.5t-32.5 12.5t-10.5 43.5t10.5 43.5t32.5 12.5t32.5 -12.5t10.5 -43.5zM189 44q0 -56 -13 -94.5t-51 -73.5l-18 23q33 40 36 89q-20 1 -30 13.5t-10 42.5q0 31 10.5 43.5t32.5 12.5t32.5 -12.5t10.5 -43.5z" />
    <glyph glyph-name="less" unicode="&#x3c;" horiz-adv-x="612" 
d="M62 361l488 222v-63l-416 -188l416 -188v-63l-488 222v58z" />
    <glyph glyph-name="equal" unicode="=" horiz-adv-x="612" 
d="M62 414v56h488v-56h-488zM62 194v56h488v-56h-488z" />
    <glyph glyph-name="greater" unicode="&#x3e;" horiz-adv-x="612" 
d="M550 303l-488 -222v63l416 188l-416 188v63l488 -222v-58z" />
    <glyph glyph-name="question" unicode="?" horiz-adv-x="520" 
d="M281 393q57 41 79 77.5t22 76.5q0 49 -38 78t-119 29q-43 0 -86.5 -10.5t-80.5 -31.5l-6 60q36 17 82.5 28.5t85.5 11.5q52 0 94 -12t72 -33.5t46 -52.5t16 -69q0 -54 -29.5 -98.5t-93.5 -92.5q-23 -17 -37 -33t-22.5 -34t-11.5 -40t-3 -49v-24h-64v27q0 34 5 61.5
t16 50.5t29 42.5t44 37.5zM261 44q0 -31 -10.5 -43.5t-32.5 -12.5t-32.5 12.5t-10.5 43.5t10.5 43.5t32.5 12.5t32.5 -12.5t10.5 -43.5z" />
    <glyph glyph-name="at" unicode="@" horiz-adv-x="971" 
d="M668 191q0 -45 19 -70.5t53 -25.5q30 0 54 16t41 43t26 63.5t9 77.5q0 78 -28.5 145t-80.5 116.5t-123.5 77.5t-156.5 28q-80 0 -149.5 -29.5t-120.5 -82t-80.5 -123.5t-29.5 -153q0 -83 30 -153.5t83 -122.5t124.5 -81t155.5 -29q141 0 248 74l22 -46
q-60 -37 -125.5 -57.5t-144.5 -20.5q-95 0 -177 33t-142 91.5t-94 138.5t-34 173q0 94 33.5 174.5t92 139t138 91.5t170.5 33q96 0 177 -31.5t140 -87t92.5 -132t33.5 -166.5q0 -53 -13 -97.5t-37.5 -77.5t-59 -51.5t-77.5 -18.5q-45 0 -73 25t-39 70q-38 -44 -88 -67
t-113 -23q-37 0 -69 12.5t-56 34.5t-37.5 53t-13.5 68q0 61 23 111t60.5 86t86 56t98.5 20q127 0 191 -98zM428 109q52 0 98 21t82 72l34 186q-40 56 -128 56q-40 0 -76.5 -16.5t-65 -46t-45.5 -68.5t-17 -84q0 -56 32.5 -88t85.5 -32z" />
    <glyph glyph-name="A" unicode="A" horiz-adv-x="640" 
d="M489 191h-338l-74 -191h-70l277 700h72l277 -700h-70zM173 247h294l-147 382z" />
    <glyph glyph-name="B" unicode="B" horiz-adv-x="618" 
d="M82 700h231q53 0 95 -13.5t71.5 -37.5t45 -57.5t15.5 -73.5q0 -56 -24 -93.5t-70 -56.5q65 -20 97.5 -64.5t32.5 -108.5q0 -92 -65.5 -143.5t-188.5 -51.5h-240v700zM509 195q0 76 -51 108t-153 32h-159v-279h169q194 0 194 139zM474 517q0 60 -43.5 93.5t-124.5 33.5
h-160v-253h153q90 0 132.5 28.5t42.5 97.5z" />
    <glyph glyph-name="C" unicode="C" horiz-adv-x="603" 
d="M47 350q0 80 25.5 146.5t72 114.5t113 74.5t149.5 26.5q39 0 79 -7t72 -22l-6 -62q-31 17 -67.5 25t-74.5 8q-70 0 -125 -22t-93.5 -62t-58.5 -96t-20 -124q0 -69 20.5 -125.5t59 -96t94 -61t125.5 -21.5q37 0 74.5 8.5t69.5 26.5l5 -63q-35 -17 -75 -23.5t-77 -6.5
q-83 0 -150 26t-114 73.5t-72.5 114.5t-25.5 148z" />
    <glyph glyph-name="D" unicode="D" horiz-adv-x="672" 
d="M559 350q0 76 -23 131.5t-65 91.5t-102.5 53.5t-135.5 17.5h-87v-588h87q75 0 135.5 17.5t102.5 53.5t65 91.5t23 131.5zM625 350q0 -87 -28 -152.5t-78.5 -109.5t-121.5 -66t-156 -22h-159v700h159q85 0 156 -22t121.5 -66t78.5 -109.5t28 -152.5z" />
    <glyph glyph-name="E" unicode="E" horiz-adv-x="557" 
d="M82 700h424v-56h-360v-254h335v-56h-335v-278h369v-56h-433v700z" />
    <glyph glyph-name="F" unicode="F" horiz-adv-x="530" 
d="M82 700h424v-56h-360v-252h335v-56h-335v-336h-64v700z" />
    <glyph glyph-name="G" unicode="G" horiz-adv-x="698" 
d="M427 46q39 0 71 4t64 14v255h-208v56h272v-351q-45 -19 -93.5 -27.5t-107.5 -8.5q-86 0 -156 27t-119.5 75.5t-76 115t-26.5 144.5t26 144t74 114.5t115.5 76t150.5 27.5q56 0 106.5 -9.5t91.5 -27.5l-5 -65q-42 23 -91 33.5t-100 10.5q-68 0 -123.5 -23t-95 -63.5
t-61.5 -96t-22 -121.5q0 -67 22 -122.5t63 -96t99 -63t130 -22.5z" />
    <glyph glyph-name="H" unicode="H" horiz-adv-x="693" 
d="M82 700h64v-299h401v299h64v-700h-64v345h-401v-345h-64v700z" />
    <glyph glyph-name="I" unicode="I" horiz-adv-x="238" 
d="M151 700v-700h-64v700h64z" />
    <glyph glyph-name="J" unicode="J" horiz-adv-x="435" 
d="M289 700h64v-475q0 -66 -14.5 -111t-41.5 -73t-64 -40.5t-82 -12.5q-36 0 -73 8t-66 25l6 64q30 -20 64.5 -29.5t67.5 -9.5q66 0 102.5 41t36.5 138v475z" />
    <glyph glyph-name="K" unicode="K" horiz-adv-x="581" 
d="M146 700v-316l322 316h81l-328 -327l372 -373h-85l-362 360v-360h-64v700h64z" />
    <glyph glyph-name="L" unicode="L" horiz-adv-x="556" 
d="M82 700h64v-644h388v-56h-452v700z" />
    <glyph glyph-name="M" unicode="M" horiz-adv-x="836" 
d="M389 240l-243 367v-607h-64v700h73l263 -398l263 398h73v-700h-64v607l-243 -367h-58z" />
    <glyph glyph-name="N" unicode="N" horiz-adv-x="700" 
d="M82 700h79l393 -616v616h64v-700h-78l-393 616v-616h-65v700z" />
    <glyph glyph-name="O" unicode="O" horiz-adv-x="706" 
d="M659 350q0 -77 -20.5 -143t-60 -115t-96.5 -76.5t-129 -27.5t-129 27.5t-96.5 76.5t-60 115t-20.5 143t20.5 143t60 115t96.5 76.5t129 27.5t129 -27.5t96.5 -76.5t60 -115t20.5 -143zM593 350q0 68 -16.5 124t-47.5 96t-75.5 62t-100.5 22t-100.5 -22t-75.5 -62
t-47.5 -96t-16.5 -124t16.5 -124t47.5 -96t75.5 -62t100.5 -22t100.5 22t75.5 62t47.5 96t16.5 124z" />
    <glyph glyph-name="P" unicode="P" horiz-adv-x="583" 
d="M546 487q0 -52 -18.5 -92t-53 -67t-83 -41t-108.5 -14h-137v-273h-64v700h201q60 0 108.5 -14t83 -41t53 -67t18.5 -91zM480 487q0 81 -51.5 119t-151.5 38h-131v-315h131q100 0 151.5 38t51.5 120z" />
    <glyph glyph-name="Q" unicode="Q" horiz-adv-x="706" 
d="M659 350q0 -71 -18 -133.5t-51.5 -110t-83 -78t-112.5 -37.5q7 -50 40 -70.5t93 -20.5q24 0 47.5 3.5t41.5 10.5l7 -54q-18 -5 -45 -8.5t-53 -3.5q-37 0 -70 7.5t-58.5 24.5t-42 43.5t-20.5 65.5q-68 4 -121.5 33t-90.5 77t-56 112.5t-19 138.5q0 77 20.5 143t60 115
t96.5 76.5t129 27.5t129 -27.5t96.5 -76.5t60 -115t20.5 -143zM593 350q0 68 -16.5 124t-47.5 96t-75.5 62t-100.5 22t-100.5 -22t-75.5 -62t-47.5 -96t-16.5 -124t16.5 -124t47.5 -96t75.5 -62t100.5 -22t100.5 22t75.5 62t47.5 96t16.5 124z" />
    <glyph glyph-name="R" unicode="R" horiz-adv-x="600" 
d="M548 500q0 -75 -43 -121t-118 -65l201 -314h-72l-191 303q-13 -1 -25.5 -1.5t-25.5 -0.5h-128v-301h-64v700h211q57 0 104 -13.5t80.5 -39t52 -63t18.5 -84.5zM482 500q0 69 -50 106.5t-144 37.5h-142v-287h142q94 0 144 37.5t50 105.5z" />
    <glyph glyph-name="S" unicode="S" horiz-adv-x="536" 
d="M442 621q-37 18 -74.5 25.5t-80.5 7.5q-82 0 -125.5 -31t-43.5 -82q0 -49 35.5 -84t118.5 -63q57 -19 98 -40t67.5 -46.5t39 -57.5t12.5 -72q0 -88 -63.5 -139t-180.5 -51q-50 0 -99 12t-87 34l5 67q42 -27 89 -41t95 -14q88 0 131.5 35t43.5 95q0 28 -9 50.5t-29.5 42
t-53.5 36t-81 31.5q-103 33 -150.5 80t-47.5 124q0 39 17 71t47.5 54.5t74 34.5t97.5 12q48 0 86 -6.5t73 -20.5z" />
    <glyph glyph-name="T" unicode="T" horiz-adv-x="534" 
d="M235 644h-223v56h510v-56h-223v-644h-64v644z" />
    <glyph glyph-name="U" unicode="U" horiz-adv-x="708" 
d="M354 -12q-60 0 -110 18.5t-86 54t-56 88t-20 121.5v430h64v-424q0 -117 54.5 -173.5t153.5 -56.5t153.5 56.5t54.5 173.5v424h64v-430q0 -69 -20 -121.5t-56 -88t-86 -54t-110 -18.5z" />
    <glyph glyph-name="V" unicode="V" horiz-adv-x="670" 
d="M22 700h70l243 -626l243 626h70l-277 -700h-72z" />
    <glyph glyph-name="W" unicode="W" horiz-adv-x="986" 
d="M530 700l167 -613l199 613h68l-230 -700h-74l-167 607l-167 -607h-74l-230 700h68l199 -613l167 613h74z" />
    <glyph glyph-name="X" unicode="X" horiz-adv-x="655" 
d="M365 355l273 -355h-75l-236 306l-235 -306h-75l273 355l-265 345h75l227 -296l228 296h75z" />
    <glyph glyph-name="Y" unicode="Y" horiz-adv-x="654" 
d="M327 339l233 361h72l-273 -422v-278h-64v278l-273 422h72z" />
    <glyph glyph-name="Z" unicode="Z" horiz-adv-x="557" 
d="M441 644h-394v56h468v-62l-410 -582h420v-56h-493v62z" />
    <glyph glyph-name="bracketleft" unicode="[" horiz-adv-x="391" 
d="M122 750h247v-53h-183v-774h183v-53h-247v880z" />
    <glyph glyph-name="backslash" unicode="\" horiz-adv-x="479" 
d="M-8 748h66l429 -858h-66z" />
    <glyph glyph-name="bracketright" unicode="]" horiz-adv-x="391" 
d="M269 -130h-247v53h183v774h-183v53h247v-880z" />
    <glyph glyph-name="asciicircum" unicode="^" horiz-adv-x="612" 
d="M340 700l224 -331h-74l-184 275l-184 -275h-74l224 331h68z" />
    <glyph glyph-name="underscore" unicode="_" horiz-adv-x="500" 
d="M0 -114h500v-56h-500v56z" />
    <glyph glyph-name="grave" unicode="`" horiz-adv-x="404" 
d="M292 568h-56l-137 154v8h73z" />
    <glyph glyph-name="a" unicode="a" horiz-adv-x="533" 
d="M227 -12q-39 0 -74 10t-60.5 30t-40.5 50t-15 69q0 78 57 123t166 45h146v34q0 72 -34.5 99.5t-111.5 27.5q-48 0 -90.5 -10.5t-79.5 -29.5l-7 56q35 17 81.5 27.5t97.5 10.5q103 0 153.5 -41.5t50.5 -146.5v-342h-60v62q-29 -35 -74.5 -54.5t-104.5 -19.5zM232 42
q57 0 101 18.5t73 60.5v142h-145q-84 0 -123 -31.5t-39 -82.5q0 -55 37.5 -81t95.5 -26z" />
    <glyph glyph-name="b" unicode="b" horiz-adv-x="570" 
d="M286 -12q-45 0 -85.5 16t-68.5 43v-47h-60v730h60v-260q28 28 68.5 44t85.5 16q51 0 95 -18.5t76.5 -54t51.5 -85.5t19 -113t-19 -113t-51.5 -85.5t-76.5 -54t-95 -18.5zM278 42q39 0 73.5 14.5t60 42t40 68t14.5 92.5t-14.5 92.5t-40 68t-60 42t-73.5 14.5
q-42 0 -81 -16t-65 -47v-308q26 -31 65 -47t81 -16z" />
    <glyph glyph-name="c" unicode="c" horiz-adv-x="499" 
d="M42 259q0 62 20.5 112t56.5 85.5t86 54.5t109 19q39 0 76 -7t67 -21l-6 -60q-29 18 -64 26t-72 8q-45 0 -83.5 -14.5t-67 -42.5t-44.5 -68.5t-16 -91.5t16 -91.5t44.5 -68t67.5 -42.5t86 -15q38 0 74.5 9t63.5 29l6 -60q-29 -16 -66 -24t-78 -8q-61 0 -112 19t-87.5 54.5
t-56.5 85.5t-20 112z" />
    <glyph glyph-name="d" unicode="d" horiz-adv-x="570" 
d="M284 -12q-51 0 -95 18.5t-76.5 54t-51.5 85.5t-19 113t19 113t51.5 85.5t76.5 54t95 18.5q45 0 85.5 -16t68.5 -44v260h60v-730h-60v47q-28 -27 -68.5 -43t-85.5 -16zM292 42q42 0 81 16t65 47v308q-26 31 -65 47t-81 16q-39 0 -73.5 -14.5t-60 -42t-40 -68t-14.5 -92.5
t14.5 -92.5t40 -68t60 -42t73.5 -14.5z" />
    <glyph glyph-name="e" unicode="e" horiz-adv-x="540" 
d="M303 42q45 0 83 10.5t69 33.5l6 -59q-32 -20 -73 -29.5t-87 -9.5q-65 0 -113.5 21t-80.5 57.5t-48.5 86.5t-16.5 108q0 61 16.5 111t46.5 85t72.5 54t94.5 19q53 0 96 -19.5t73 -55t46 -84.5t16 -107v-13t-1 -17h-395q2 -42 15 -77.5t37.5 -61t60.5 -39.5t83 -14z
M438 287q-1 43 -13.5 77.5t-34 59.5t-51.5 38.5t-67 13.5q-73 0 -117 -50t-48 -139h331z" />
    <glyph glyph-name="f" unicode="f" horiz-adv-x="340" 
d="M122 551q0 90 40 134.5t113 44.5q42 0 72 -9l-7 -55q-13 5 -29 7.5t-32 2.5q-51 0 -74 -30.5t-23 -103.5v-24h151v-52h-151v-466h-60v466h-110v52h110v33z" />
    <glyph glyph-name="g" unicode="g" horiz-adv-x="570" 
d="M284 530q45 0 85.5 -16t68.5 -43v47h60v-484q0 -62 -13.5 -106.5t-42 -73t-72 -41.5t-103.5 -13q-46 0 -91.5 10t-81.5 28l4 64q35 -24 80 -36t90 -12q86 0 128 38t42 130v31q-28 -28 -68.5 -44t-85.5 -16q-51 0 -95 18t-76.5 52.5t-51.5 84.5t-19 113t19 113t51.5 84.5
t76.5 53t95 18.5zM292 476q-39 0 -73.5 -14t-60 -41.5t-40 -67.5t-14.5 -92t14.5 -92t40 -67t60 -41t73.5 -14q42 0 81 16t65 47v303q-26 31 -65 47t-81 16z" />
    <glyph glyph-name="h" unicode="h" horiz-adv-x="572" 
d="M284 476q-45 0 -85 -18t-67 -49v-409h-60v730h60v-262q29 28 71.5 45t88.5 17q100 0 156.5 -59t56.5 -171v-300h-60v298q0 178 -161 178z" />
    <glyph glyph-name="i" unicode="i" horiz-adv-x="230" 
d="M145 0h-60v518h60v-518zM115 730q20 0 29 -12t9 -41t-9 -41t-29 -12t-29 12t-9 41t9 41t29 12z" />
    <glyph glyph-name="j" unicode="j" horiz-adv-x="225" 
d="M145 518v-549q0 -90 -36.5 -129.5t-109.5 -39.5q-30 0 -57 9l6 54q20 -10 48 -10q46 0 67.5 27t21.5 87v551h60zM115 730q20 0 29 -12t9 -41t-9 -41t-29 -12t-29 12t-9 41t9 41t29 12z" />
    <glyph glyph-name="k" unicode="k" horiz-adv-x="497" 
d="M132 730v-428l256 216h83l-266 -227l285 -291h-81l-277 278v-278h-60v730h60z" />
    <glyph glyph-name="l" unicode="l" horiz-adv-x="214" 
d="M77 730h60v-730h-60v730z" />
    <glyph glyph-name="m" unicode="m" horiz-adv-x="859" 
d="M278 530q56 0 92 -23t57 -58q32 37 77.5 59t100.5 22q42 0 76 -13.5t59 -41.5t38.5 -69.5t13.5 -97.5v-308h-60v309q0 84 -34.5 125.5t-98.5 41.5q-45 0 -83.5 -20.5t-67.5 -54.5q8 -23 11 -47t3 -47v-307h-60v309q0 84 -34.5 125.5t-97.5 41.5q-39 0 -77 -18.5
t-61 -48.5v-409h-60v518h60v-50q25 26 64.5 44t81.5 18z" />
    <glyph glyph-name="n" unicode="n" horiz-adv-x="572" 
d="M284 476q-45 0 -85 -18t-67 -49v-409h-60v518h60v-50q29 28 71.5 45t88.5 17q100 0 156.5 -59t56.5 -171v-300h-60v298q0 178 -161 178z" />
    <glyph glyph-name="o" unicode="o" horiz-adv-x="576" 
d="M42 259q0 59 18 108.5t50.5 85.5t77.5 56.5t100 20.5t100 -20.5t77.5 -56.5t50.5 -85.5t18 -108.5t-18 -108.5t-50.5 -85.5t-77.5 -56.5t-100 -20.5t-100 20.5t-77.5 56.5t-50.5 85.5t-18 108.5zM104 259q0 -50 13.5 -90t38 -68t58.5 -43.5t74 -15.5t74 15.5t58.5 43.5
t38 68t13.5 90q0 49 -13.5 89.5t-38 68.5t-58.5 43.5t-74 15.5t-74 -15.5t-58.5 -43.5t-38 -68.5t-13.5 -89.5z" />
    <glyph glyph-name="p" unicode="p" horiz-adv-x="570" 
d="M286 530q51 0 95 -18.5t76.5 -54t51.5 -85.5t19 -113t-19 -113t-51.5 -85.5t-76.5 -54t-95 -18.5q-45 0 -85.5 16t-68.5 44v-241h-60v711h60v-47q28 27 68.5 43t85.5 16zM278 476q-42 0 -81 -16t-65 -47v-308q26 -31 65 -47t81 -16q39 0 73.5 14.5t60 42t40 68t14.5 92.5
t-14.5 92.5t-40 68t-60 42t-73.5 14.5z" />
    <glyph glyph-name="q" unicode="q" horiz-adv-x="570" 
d="M284 530q45 0 85.5 -16t68.5 -43v47h60v-711h-60v241q-28 -28 -68.5 -44t-85.5 -16q-51 0 -95 18.5t-76.5 54t-51.5 85.5t-19 113t19 113t51.5 85.5t76.5 54t95 18.5zM292 476q-39 0 -73.5 -14.5t-60 -42t-40 -68t-14.5 -92.5t14.5 -92.5t40 -68t60 -42t73.5 -14.5
q42 0 81 16t65 47v308q-26 31 -65 47t-81 16z" />
    <glyph glyph-name="r" unicode="r" horiz-adv-x="360" 
d="M286 476q-51 0 -89.5 -27t-64.5 -79v-370h-60v518h60v-75q24 38 65.5 62.5t93.5 24.5q17 0 33.5 -2t28.5 -7l-7 -57q-24 12 -60 12z" />
    <glyph glyph-name="s" unicode="s" horiz-adv-x="457" 
d="M212 -12q-43 0 -87 11t-78 33l5 64q35 -27 77.5 -40.5t81.5 -13.5q66 0 101.5 24.5t35.5 67.5q0 37 -31 62.5t-105 45.5q-83 21 -122.5 59t-39.5 94q0 32 13.5 57t38 42.5t58 26.5t74.5 9q39 0 76.5 -8t69.5 -22l-6 -61q-32 20 -67.5 28.5t-73.5 8.5q-58 0 -89.5 -21.5
t-31.5 -57.5q0 -35 29.5 -60.5t98.5 -44.5q96 -26 133 -65t37 -91q0 -72 -53 -110t-145 -38z" />
    <glyph glyph-name="t" unicode="t" horiz-adv-x="367" 
d="M17 518h97v155h60v-155h166v-52h-166v-288q0 -75 22.5 -105.5t75.5 -30.5q15 0 29 2t28 6l8 -55q-32 -7 -69 -7q-78 0 -116 41t-38 132v305h-97v52z" />
    <glyph glyph-name="u" unicode="u" horiz-adv-x="572" 
d="M288 42q45 0 85 18t67 49v409h60v-518h-60v50q-29 -28 -71.5 -45t-88.5 -17q-100 0 -156.5 59t-56.5 171v300h60v-298q0 -178 161 -178z" />
    <glyph glyph-name="v" unicode="v" horiz-adv-x="516" 
d="M226 0l-209 518h67l174 -442l174 442h67l-209 -518h-64z" />
    <glyph glyph-name="w" unicode="w" horiz-adv-x="780" 
d="M420 518l134 -432l141 432h68l-178 -518h-61l-134 422l-134 -422h-61l-178 518h68l141 -432l134 432h60z" />
    <glyph glyph-name="x" unicode="x" horiz-adv-x="503" 
d="M251 220l-167 -220h-72l203 267l-191 251h72l155 -204l156 204h72l-192 -251l204 -267h-72z" />
    <glyph glyph-name="y" unicode="y" horiz-adv-x="526" 
d="M441 518h68l-285 -711h-66l77 193l-218 518h68l182 -443z" />
    <glyph glyph-name="z" unicode="z" horiz-adv-x="463" 
d="M27 58l327 408h-313v52h385v-57l-327 -409h337v-52h-409v58z" />
    <glyph glyph-name="braceleft" unicode="{" horiz-adv-x="371" 
d="M168 186q0 45 -26.5 69t-59.5 29v51q33 5 59.5 29t26.5 70v177q0 139 126 139h55v-53h-51q-35 0 -51 -19t-16 -49v-186q0 -57 -17.5 -87.5t-66.5 -45.5q42 -13 63 -40t21 -74v-205q0 -32 16 -50t51 -18h51v-53h-55q-56 0 -91 29t-35 89v198z" />
    <glyph glyph-name="bar" unicode="|" horiz-adv-x="280" 
d="M112 769h56v-969h-56v969z" />
    <glyph glyph-name="braceright" unicode="}" horiz-adv-x="371" 
d="M203 8q0 -70 -32 -104t-94 -34h-55v53h51q35 0 51 18.5t16 49.5v185q0 57 17.5 87.5t66.5 46.5q-42 13 -63 39.5t-21 73.5v206q0 32 -16.5 50t-50.5 18h-51v53h55q62 0 94 -34.5t32 -104.5v-177q0 -46 26.5 -70t59.5 -29v-51q-33 -5 -59.5 -29t-26.5 -69v-178z" />
    <glyph glyph-name="asciitilde" unicode="~" horiz-adv-x="612" 
d="M288 310q-32 26 -55 37t-43 11q-33 0 -49.5 -23t-16.5 -80h-62q0 83 35.5 120t94.5 37q31 0 62.5 -13t69.5 -44q32 -26 54.5 -37t42.5 -11q33 0 50 23t17 80h62q0 -83 -36 -120t-95 -37q-31 0 -62 13t-69 44z" />
    <glyph glyph-name="uni00A0" unicode="&#xa0;" horiz-adv-x="300" 
 />
    <glyph glyph-name="exclamdown" unicode="&#xa1;" horiz-adv-x="260" 
d="M112 348h39l14 -313v-218h-67v218zM173 473q0 -31 -10.5 -43.5t-32.5 -12.5t-32.5 12.5t-10.5 43.5t10.5 43.5t32.5 12.5t32.5 -12.5t10.5 -43.5z" />
    <glyph glyph-name="cent" unicode="&#xa2;" horiz-adv-x="539" 
d="M338 637v-107q38 -1 74 -7.5t65 -20.5l-6 -60q-28 17 -62.5 25t-70.5 9v-434q38 0 74.5 9t63.5 29l6 -60q-29 -16 -66 -24t-78 -8v-107h-42v110q-53 6 -96 27.5t-73.5 56t-47.5 81t-17 103.5t17.5 103.5t48.5 81t74 56t94 27.5v110h42zM124 259q0 -91 47 -146.5
t125 -67.5v428q-38 -6 -69.5 -23t-54 -44.5t-35.5 -64.5t-13 -82z" />
    <glyph glyph-name="sterling" unicode="&#xa3;" horiz-adv-x="578" 
d="M42 336v52h79v121q0 103 55 153t158 50q48 0 91 -10t76 -29l-5 -62q-36 23 -74.5 33t-82.5 10q-78 0 -116 -33.5t-38 -111.5v-121h232v-52h-232v-86q0 -63 -15.5 -110.5t-50.5 -83.5h427v-56h-504v53q42 36 60.5 81.5t18.5 106.5v95h-79z" />
    <glyph glyph-name="currency" unicode="&#xa4;" horiz-adv-x="693" 
d="M346 107q-40 0 -75 12t-64 35l-82 -82l-43 44l84 83q-20 28 -30.5 61.5t-10.5 71.5t11.5 72.5t31.5 62.5l-3 -2l-83 84l43 44l82 -84q29 23 64 35.5t75 12.5t75 -12.5t63 -35.5l83 84l43 -44l-83 -85q19 -28 29.5 -61t10.5 -71t-10.5 -71.5t-30.5 -61.5l84 -83l-43 -44
l-83 82q-28 -23 -63 -35t-75 -12zM346 168q34 0 63.5 12.5t51 34.5t34 52t12.5 65t-12.5 65t-34 52t-51 34.5t-63.5 12.5t-63.5 -12.5t-51 -34.5t-34 -52t-12.5 -65t12.5 -65t34 -52t51 -34.5t63.5 -12.5z" />
    <glyph glyph-name="yen" unicode="&#xa5;" horiz-adv-x="580" 
d="M322 285v-75h206v-44h-206v-166h-64v166h-206v44h206v75h-206v44h182l-213 371h68l201 -354l201 354h68l-213 -371h182v-44h-206z" />
    <glyph glyph-name="brokenbar" unicode="&#xa6;" horiz-adv-x="280" 
d="M168 222v-322h-56v322h56zM168 688v-322h-56v322h56z" />
    <glyph glyph-name="section" unicode="&#xa7;" horiz-adv-x="511" 
d="M239 -100q-43 0 -87.5 10.5t-80.5 30.5l6 66q36 -26 78 -38.5t84 -12.5q67 0 100.5 25t33.5 67q0 37 -29 63.5t-100 44.5q-84 21 -127 59.5t-43 95.5q0 50 31 84t81 49q-57 19 -85 52t-28 78q0 65 50 101.5t138 36.5q42 0 81 -8.5t70 -23.5l-7 -62q-32 20 -70 29t-75 9
q-57 0 -88 -22t-31 -60q0 -35 31 -59t100 -43q92 -26 130 -65.5t38 -94.5q0 -48 -29.5 -81t-82.5 -47q60 -19 86.5 -55.5t26.5 -78.5q0 -70 -52 -110t-150 -40zM254 212q62 7 90 36.5t28 65.5q0 37 -28 64.5t-88 41.5q-57 -10 -85.5 -39t-28.5 -67q0 -35 27 -61t85 -41z" />
    <glyph glyph-name="dieresis" unicode="&#xa8;" horiz-adv-x="404" 
d="M303 702q20 0 29 -12t9 -41t-9 -41t-29 -12t-29 12t-9 41t9 41t29 12zM101 702q20 0 29 -12t9 -41t-9 -41t-29 -12t-29 12t-9 41t9 41t29 12z" />
    <glyph glyph-name="copyright" unicode="&#xa9;" horiz-adv-x="834" 
d="M216 348q0 49 16.5 89t45.5 68.5t68.5 44t84.5 15.5q34 0 65.5 -5.5t60.5 -19.5l-5 -50q-26 15 -56 22t-61 7q-78 0 -122 -47.5t-44 -123.5t44 -123.5t122 -47.5q31 0 61 7t56 22l5 -50q-29 -14 -60.5 -19.5t-65.5 -5.5q-45 0 -84.5 15.5t-68.5 44t-45.5 68.5t-16.5 89z
M55 350q0 75 28.5 141t77.5 115t115 77.5t141 28.5t141 -28.5t115 -77.5t77.5 -115t28.5 -141t-28.5 -141t-77.5 -115t-115 -77.5t-141 -28.5t-141 28.5t-115 77.5t-77.5 115t-28.5 141zM91 350q0 -68 25 -127.5t69 -104t103.5 -70.5t128.5 -26t128.5 26t103.5 70.5t69 104
t25 127.5q0 67 -25 127t-69 104.5t-103.5 70.5t-128.5 26t-128.5 -26t-103.5 -70.5t-69 -104.5t-25 -127z" />
    <glyph glyph-name="ordfeminine" unicode="&#xaa;" horiz-adv-x="436" 
d="M186 319q-26 0 -50 7t-42.5 22t-29.5 37.5t-11 52.5q0 63 46.5 93.5t126.5 30.5h82v8q0 51 -21 71t-77 20q-30 0 -62.5 -6.5t-58.5 -20.5l-5 47q25 12 59 19.5t69 7.5q82 0 117 -33.5t35 -111.5v-237h-56v43q-20 -25 -52 -37.5t-70 -12.5zM194 365q34 0 64 12.5t50 41.5
v98h-81q-57 0 -87.5 -20t-30.5 -57q0 -36 23.5 -55.5t61.5 -19.5z" />
    <glyph glyph-name="guillemotleft" unicode="&#xab;" horiz-adv-x="535" 
d="M72 326l212 196v-62l-162 -148l162 -149v-62l-212 196v29zM261 326l212 196v-62l-162 -148l162 -149v-62l-212 196v29z" />
    <glyph glyph-name="logicalnot" unicode="&#xac;" horiz-adv-x="612" 
d="M57 441h488v-280h-62v224h-426v56z" />
    <glyph glyph-name="uni00AD" unicode="&#xad;" horiz-adv-x="399" 
d="M62 304v56h275v-56h-275z" />
    <glyph glyph-name="registered" unicode="&#xae;" horiz-adv-x="834" 
d="M55 350q0 75 28.5 141t77.5 115t115 77.5t141 28.5t141 -28.5t115 -77.5t77.5 -115t28.5 -141t-28.5 -141t-77.5 -115t-115 -77.5t-141 -28.5t-141 28.5t-115 77.5t-77.5 115t-28.5 141zM91 350q0 -68 25 -127.5t69 -104t103.5 -70.5t128.5 -26t128.5 26t103.5 70.5
t69 104t25 127.5q0 67 -25 127t-69 104.5t-103.5 70.5t-128.5 26t-128.5 -26t-103.5 -70.5t-69 -104.5t-25 -127zM577 434q0 -85 -84 -112l106 -181h-58l-100 171q-9 -1 -19 -1.5t-20 -0.5h-78v-169h-53v417h145q75 0 118 -32t43 -92zM523 434q0 78 -110 78h-89v-156h89
q57 0 83.5 20.5t26.5 57.5z" />
    <glyph glyph-name="macron" unicode="&#xaf;" horiz-adv-x="404" 
d="M60 671h284v-52h-284v52z" />
    <glyph glyph-name="degree" unicode="&#xb0;" horiz-adv-x="404" 
d="M335 583q0 -28 -10 -51.5t-28 -41t-42.5 -27t-52.5 -9.5t-52.5 9.5t-42.5 27t-28 41t-10 51.5t10 51.5t28 40.5t42.5 27t52.5 10t52.5 -10t42.5 -27t28 -40.5t10 -51.5zM283 583q0 35 -23.5 58t-57.5 23t-57.5 -23t-23.5 -58t23.5 -58t57.5 -23t57.5 23t23.5 58z" />
    <glyph glyph-name="plusminus" unicode="&#xb1;" horiz-adv-x="612" 
d="M275 367h-213v55h213v211h62v-211h213v-55h-213v-211h-62v211zM62 47v55h488v-55h-488z" />
    <glyph glyph-name="twosuperior" unicode="&#xb2;" horiz-adv-x="398" 
d="M53 236v46q45 35 87.5 79t79.5 89q31 37 44.5 68.5t13.5 57.5q0 42 -25.5 62.5t-69.5 20.5q-29 0 -58 -8.5t-55 -24.5l-4 54q24 13 55.5 20.5t63.5 7.5q71 0 110.5 -34t39.5 -98q0 -35 -15 -70t-54 -84q-33 -41 -68.5 -76.5t-66.5 -61.5h207v-48h-285z" />
    <glyph glyph-name="threesuperior" unicode="&#xb3;" horiz-adv-x="398" 
d="M103 503q43 0 74 7t50.5 19t28.5 27t9 31q0 35 -26 53t-71 18q-26 0 -54.5 -6t-54.5 -20l-5 51q23 11 54.5 18t62.5 7q69 0 110 -30.5t41 -87.5q0 -39 -25 -68.5t-75 -41.5q54 -14 80 -45.5t26 -76.5q0 -60 -44 -95t-120 -35q-29 0 -60 5.5t-58 16.5l5 55
q27 -15 55.5 -21t56.5 -6q56 0 82 23.5t26 56.5q0 20 -9 37.5t-28.5 30t-52 20t-78.5 7.5v50z" />
    <glyph glyph-name="acute" unicode="&#xb4;" horiz-adv-x="404" 
d="M232 730h73v-8l-137 -154h-56z" />
    <glyph glyph-name="mu" unicode="&#xb5;" horiz-adv-x="584" 
d="M292 -12q-48 0 -88.5 17t-69.5 46v-244h-62v711h62v-404q29 -33 70 -53t88 -20t88 20t70 53v404h62v-518h-62v51q-29 -29 -70 -46t-88 -17z" />
    <glyph glyph-name="paragraph" unicode="&#xb6;" horiz-adv-x="540" 
d="M262 310q-48 0 -89.5 12t-73 36t-49.5 60.5t-18 86.5q0 51 18.5 87.5t50 60.5t73 35.5t88.5 11.5h196v-831h-56v777h-53v-777h-57v441h-30z" />
    <glyph glyph-name="periodcentered" unicode="&#xb7;" horiz-adv-x="292" 
d="M189 330q0 -31 -10.5 -43.5t-32.5 -12.5t-32.5 12.5t-10.5 43.5t10.5 43.5t32.5 12.5t32.5 -12.5t10.5 -43.5z" />
    <glyph glyph-name="cedilla" unicode="&#xb8;" horiz-adv-x="404" 
d="M113 -186q11 -5 24.5 -7t27.5 -2q34 0 52 13t18 36q0 24 -25.5 41t-76.5 19l48 86h57l-35 -63q41 -8 64 -31t23 -53q0 -42 -29.5 -66.5t-93.5 -24.5q-14 0 -27.5 1.5t-26.5 5.5v45z" />
    <glyph glyph-name="onesuperior" unicode="&#xb9;" horiz-adv-x="398" 
d="M99 567l-28 44l121 90h48v-465h-56v394z" />
    <glyph glyph-name="ordmasculine" unicode="&#xba;" horiz-adv-x="436" 
d="M395 514q0 -43 -13 -78.5t-36.5 -61t-56 -40t-71.5 -14.5t-71.5 14.5t-56 40t-36.5 61t-13 78.5t13 78.5t36.5 61t56 40t71.5 14.5t71.5 -14.5t56 -40t36.5 -61t13 -78.5zM339 514q0 70 -35 109t-86 39t-86 -39t-35 -109t35 -109t86 -39t86 39t35 109z" />
    <glyph glyph-name="guillemotright" unicode="&#xbb;" horiz-adv-x="535" 
d="M463 297l-212 -196v62l162 149l-162 148v62l212 -196v-29zM274 297l-212 -196v62l162 149l-162 148v62l212 -196v-29z" />
    <glyph glyph-name="onequarter" unicode="&#xbc;" horiz-adv-x="950" 
d="M99 567l-28 44l121 90h48v-465h-56v394zM290 -15h-56l393 730h56zM557 104v46l226 315h55v-313h54v-48h-54v-102h-56v102h-225zM617 152h165v229z" />
    <glyph glyph-name="onehalf" unicode="&#xbd;" horiz-adv-x="950" 
d="M99 567l-28 44l121 90h48v-465h-56v394zM251 -15h-56l393 730h56zM594 1v46q45 35 87.5 79t79.5 89q31 37 44.5 68.5t13.5 57.5q0 42 -25.5 62.5t-69.5 20.5q-29 0 -58 -8.5t-55 -24.5l-4 54q24 13 55.5 20.5t63.5 7.5q71 0 110.5 -34t39.5 -98q0 -35 -15 -70t-54 -84
q-33 -41 -68.5 -76.5t-66.5 -61.5h207v-48h-285z" />
    <glyph glyph-name="threequarters" unicode="&#xbe;" horiz-adv-x="950" 
d="M319 -15h-56l393 730h56zM557 104v46l226 315h55v-313h54v-48h-54v-102h-56v102h-225zM617 152h165v229zM103 503q43 0 74 7t50.5 19t28.5 27t9 31q0 35 -26 53t-71 18q-26 0 -54.5 -6t-54.5 -20l-5 51q23 11 54.5 18t62.5 7q69 0 110 -30.5t41 -87.5q0 -39 -25 -68.5
t-75 -41.5q54 -14 80 -45.5t26 -76.5q0 -60 -44 -95t-120 -35q-29 0 -60 5.5t-58 16.5l5 55q27 -15 55.5 -21t56.5 -6q56 0 82 23.5t26 56.5q0 20 -9 37.5t-28.5 30t-52 20t-78.5 7.5v50z" />
    <glyph glyph-name="questiondown" unicode="&#xbf;" horiz-adv-x="520" 
d="M239 124q-57 -41 -79 -77.5t-22 -76.5q0 -49 38 -78t119 -29q43 0 86.5 10.5t80.5 31.5l6 -60q-36 -17 -82.5 -28.5t-85.5 -11.5q-52 0 -94 11.5t-72 33.5t-46 53t-16 69q0 54 29.5 98.5t93.5 92.5q22 16 36.5 32.5t23 34.5t11.5 40t3 49v24h64v-27q0 -34 -5 -61.5
t-16 -50.5t-29 -42.5t-44 -37.5zM259 473q0 31 10.5 43.5t32.5 12.5t32.5 -12.5t10.5 -43.5t-10.5 -43.5t-32.5 -12.5t-32.5 12.5t-10.5 43.5z" />
    <glyph glyph-name="Agrave" unicode="&#xc0;" horiz-adv-x="640" 
d="M489 191h-338l-74 -191h-70l277 700h72l277 -700h-70zM173 247h294l-147 382zM354 762h-56l-137 154v8h73z" />
    <glyph glyph-name="Aacute" unicode="&#xc1;" horiz-adv-x="640" 
d="M489 191h-338l-74 -191h-70l277 700h72l277 -700h-70zM173 247h294l-147 382zM405 924h73v-8l-137 -154h-56z" />
    <glyph glyph-name="Acircumflex" unicode="&#xc2;" horiz-adv-x="640" 
d="M489 191h-338l-74 -191h-70l277 700h72l277 -700h-70zM173 247h294l-147 382zM350 924l137 -166h-62l-105 120l-105 -120h-62l137 166h60z" />
    <glyph glyph-name="Atilde" unicode="&#xc3;" horiz-adv-x="640" 
d="M489 191h-338l-74 -191h-70l277 700h72l277 -700h-70zM173 247h294l-147 382zM478 907q0 -38 -6.5 -64.5t-18 -42.5t-27.5 -23t-35 -7q-26 0 -44.5 13.5t-34 29.5l-28.5 29.5t-26 13.5q-15 0 -28 -17.5t-13 -66.5h-55q0 38 6.5 64.5t18.5 42.5t28 23t35 7q25 0 44 -13.5
t34 -29.5l28 -29.5t27 -13.5q15 0 27.5 17.5t12.5 66.5h55z" />
    <glyph glyph-name="Adieresis" unicode="&#xc4;" horiz-adv-x="640" 
d="M489 191h-338l-74 -191h-70l277 700h72l277 -700h-70zM173 247h294l-147 382zM421 896q20 0 29 -12t9 -41t-9 -41t-29 -12t-29 12t-9 41t9 41t29 12zM219 896q20 0 29 -12t9 -41t-9 -41t-29 -12t-29 12t-9 41t9 41t29 12z" />
    <glyph glyph-name="Aring" unicode="&#xc5;" horiz-adv-x="640" 
d="M489 191h-338l-74 -191h-70l277 700h72l277 -700h-70zM173 247h294l-147 382zM320 947q45 0 74.5 -29.5t29.5 -73.5t-29.5 -73.5t-74.5 -29.5t-74.5 29.5t-29.5 73.5t29.5 73.5t74.5 29.5zM320 786q26 0 41.5 17.5t15.5 40.5t-15.5 40.5t-41.5 17.5t-41.5 -17.5
t-15.5 -40.5t15.5 -40.5t41.5 -17.5z" />
    <glyph glyph-name="AE" unicode="&#xc6;" horiz-adv-x="842" 
d="M183 193l-101 -193h-75l370 700h414v-56h-309v-254h284v-56h-284v-278h318v-56h-382v193h-235zM212 249h206v394z" />
    <glyph glyph-name="Ccedilla" unicode="&#xc7;" horiz-adv-x="603" 
d="M294 -186q11 -5 24.5 -7t27.5 -2q34 0 52 13t18 36q0 24 -25.5 41t-76.5 19l43 77q-72 8 -129.5 37t-97.5 75.5t-61.5 109t-21.5 137.5q0 80 25.5 146.5t72 114.5t113 74.5t149.5 26.5q39 0 79 -7t72 -22l-6 -62q-31 17 -67.5 25t-74.5 8q-70 0 -125 -22t-93.5 -62
t-58.5 -96t-20 -124q0 -69 20.5 -125.5t59 -96t94 -61t125.5 -21.5q37 0 74.5 8.5t69.5 26.5l5 -63q-35 -16 -74 -22.5t-75 -7.5l-28 -51q41 -8 64 -31t23 -53q0 -42 -29.5 -66.5t-93.5 -24.5q-14 0 -27.5 1.5t-26.5 5.5v45z" />
    <glyph glyph-name="Egrave" unicode="&#xc8;" horiz-adv-x="557" 
d="M82 700h424v-56h-360v-254h335v-56h-335v-278h369v-56h-433v700zM348 762h-56l-137 154v8h73z" />
    <glyph glyph-name="Eacute" unicode="&#xc9;" horiz-adv-x="557" 
d="M82 700h424v-56h-360v-254h335v-56h-335v-278h369v-56h-433v700zM351 924h73v-8l-137 -154h-56z" />
    <glyph glyph-name="Ecircumflex" unicode="&#xca;" horiz-adv-x="557" 
d="M82 700h424v-56h-360v-254h335v-56h-335v-278h369v-56h-433v700zM322 924l137 -166h-62l-105 120l-105 -120h-62l137 166h60z" />
    <glyph glyph-name="Edieresis" unicode="&#xcb;" horiz-adv-x="557" 
d="M82 700h424v-56h-360v-254h335v-56h-335v-278h369v-56h-433v700zM394 896q20 0 29 -12t9 -41t-9 -41t-29 -12t-29 12t-9 41t9 41t29 12zM192 896q20 0 29 -12t9 -41t-9 -41t-29 -12t-29 12t-9 41t9 41t29 12z" />
    <glyph glyph-name="Igrave" unicode="&#xcc;" horiz-adv-x="238" 
d="M151 700v-700h-64v700h64zM160 762h-56l-137 154v8h73z" />
    <glyph glyph-name="Iacute" unicode="&#xcd;" horiz-adv-x="238" 
d="M151 700v-700h-64v700h64zM198 924h73v-8l-137 -154h-56z" />
    <glyph glyph-name="Icircumflex" unicode="&#xce;" horiz-adv-x="238" 
d="M151 700v-700h-64v700h64zM150 924l137 -166h-62l-105 120l-105 -120h-62l137 166h60z" />
    <glyph glyph-name="Idieresis" unicode="&#xcf;" horiz-adv-x="238" 
d="M151 700v-700h-64v700h64zM221 896q20 0 29 -12t9 -41t-9 -41t-29 -12t-29 12t-9 41t9 41t29 12zM19 896q20 0 29 -12t9 -41t-9 -41t-29 -12t-29 12t-9 41t9 41t29 12z" />
    <glyph glyph-name="Eth" unicode="&#xd0;" horiz-adv-x="677" 
d="M630 350q0 -87 -28 -152.5t-78.5 -109.5t-121.5 -66t-156 -22h-159v324h-70v52h70v324h159q85 0 156 -22t121.5 -66t78.5 -109.5t28 -152.5zM564 350q0 76 -23 131.5t-65 91.5t-102.5 53.5t-135.5 17.5h-87v-268h175v-52h-175v-268h87q75 0 135.5 17.5t102.5 53.5
t65 91.5t23 131.5z" />
    <glyph glyph-name="Ntilde" unicode="&#xd1;" horiz-adv-x="700" 
d="M82 700h79l393 -616v616h64v-700h-78l-393 616v-616h-65v700zM511 907q0 -38 -6.5 -64.5t-18 -42.5t-27.5 -23t-35 -7q-26 0 -44.5 13.5t-34 29.5l-28.5 29.5t-26 13.5q-15 0 -28 -17.5t-13 -66.5h-55q0 38 6.5 64.5t18.5 42.5t28 23t35 7q25 0 44 -13.5t34 -29.5
l28 -29.5t27 -13.5q15 0 27.5 17.5t12.5 66.5h55z" />
    <glyph glyph-name="Ograve" unicode="&#xd2;" horiz-adv-x="706" 
d="M659 350q0 -77 -20.5 -143t-60 -115t-96.5 -76.5t-129 -27.5t-129 27.5t-96.5 76.5t-60 115t-20.5 143t20.5 143t60 115t96.5 76.5t129 27.5t129 -27.5t96.5 -76.5t60 -115t20.5 -143zM593 350q0 68 -16.5 124t-47.5 96t-75.5 62t-100.5 22t-100.5 -22t-75.5 -62
t-47.5 -96t-16.5 -124t16.5 -124t47.5 -96t75.5 -62t100.5 -22t100.5 22t75.5 62t47.5 96t16.5 124zM414 762h-56l-137 154v8h73z" />
    <glyph glyph-name="Oacute" unicode="&#xd3;" horiz-adv-x="706" 
d="M659 350q0 -77 -20.5 -143t-60 -115t-96.5 -76.5t-129 -27.5t-129 27.5t-96.5 76.5t-60 115t-20.5 143t20.5 143t60 115t96.5 76.5t129 27.5t129 -27.5t96.5 -76.5t60 -115t20.5 -143zM593 350q0 68 -16.5 124t-47.5 96t-75.5 62t-100.5 22t-100.5 -22t-75.5 -62
t-47.5 -96t-16.5 -124t16.5 -124t47.5 -96t75.5 -62t100.5 -22t100.5 22t75.5 62t47.5 96t16.5 124zM412 924h73v-8l-137 -154h-56z" />
    <glyph glyph-name="Ocircumflex" unicode="&#xd4;" horiz-adv-x="706" 
d="M659 350q0 -77 -20.5 -143t-60 -115t-96.5 -76.5t-129 -27.5t-129 27.5t-96.5 76.5t-60 115t-20.5 143t20.5 143t60 115t96.5 76.5t129 27.5t129 -27.5t96.5 -76.5t60 -115t20.5 -143zM593 350q0 68 -16.5 124t-47.5 96t-75.5 62t-100.5 22t-100.5 -22t-75.5 -62
t-47.5 -96t-16.5 -124t16.5 -124t47.5 -96t75.5 -62t100.5 -22t100.5 22t75.5 62t47.5 96t16.5 124zM383 924l137 -166h-62l-105 120l-105 -120h-62l137 166h60z" />
    <glyph glyph-name="Otilde" unicode="&#xd5;" horiz-adv-x="706" 
d="M659 350q0 -77 -20.5 -143t-60 -115t-96.5 -76.5t-129 -27.5t-129 27.5t-96.5 76.5t-60 115t-20.5 143t20.5 143t60 115t96.5 76.5t129 27.5t129 -27.5t96.5 -76.5t60 -115t20.5 -143zM593 350q0 68 -16.5 124t-47.5 96t-75.5 62t-100.5 22t-100.5 -22t-75.5 -62
t-47.5 -96t-16.5 -124t16.5 -124t47.5 -96t75.5 -62t100.5 -22t100.5 22t75.5 62t47.5 96t16.5 124zM510 907q0 -38 -6.5 -64.5t-18 -42.5t-27.5 -23t-35 -7q-26 0 -44.5 13.5t-34 29.5l-28.5 29.5t-26 13.5q-15 0 -28 -17.5t-13 -66.5h-55q0 38 6.5 64.5t18.5 42.5t28 23
t35 7q25 0 44 -13.5t34 -29.5l28 -29.5t27 -13.5q15 0 27.5 17.5t12.5 66.5h55z" />
    <glyph glyph-name="Odieresis" unicode="&#xd6;" horiz-adv-x="706" 
d="M659 350q0 -77 -20.5 -143t-60 -115t-96.5 -76.5t-129 -27.5t-129 27.5t-96.5 76.5t-60 115t-20.5 143t20.5 143t60 115t96.5 76.5t129 27.5t129 -27.5t96.5 -76.5t60 -115t20.5 -143zM593 350q0 68 -16.5 124t-47.5 96t-75.5 62t-100.5 22t-100.5 -22t-75.5 -62
t-47.5 -96t-16.5 -124t16.5 -124t47.5 -96t75.5 -62t100.5 -22t100.5 22t75.5 62t47.5 96t16.5 124zM454 896q20 0 29 -12t9 -41t-9 -41t-29 -12t-29 12t-9 41t9 41t29 12zM252 896q20 0 29 -12t9 -41t-9 -41t-29 -12t-29 12t-9 41t9 41t29 12z" />
    <glyph glyph-name="multiply" unicode="&#xd7;" horiz-adv-x="612" 
d="M347 333l164 -164l-41 -42l-164 165l-164 -165l-41 42l164 164l-164 165l41 41l164 -165l164 165l41 -41z" />
    <glyph glyph-name="Oslash" unicode="&#xd8;" horiz-adv-x="706" 
d="M659 350q0 -77 -20.5 -143t-60 -115t-96.5 -76.5t-129 -27.5q-84 0 -147 37l-71 -125h-62l89 156q-56 49 -85.5 125t-29.5 169q0 77 20.5 143t60 115t96.5 76.5t129 27.5q45 0 84.5 -11.5t72.5 -32.5l75 132h62l-94 -165q51 -49 78.5 -122.5t27.5 -162.5zM113 350
q0 -77 21 -137.5t59 -101.5l287 505q-53 38 -127 38q-56 0 -100.5 -22t-75.5 -62t-47.5 -96t-16.5 -124zM593 350q0 72 -18.5 130t-53.5 99l-285 -502q51 -31 117 -31q56 0 100.5 22t75.5 62t47.5 96t16.5 124z" />
    <glyph glyph-name="Ugrave" unicode="&#xd9;" horiz-adv-x="708" 
d="M354 -12q-60 0 -110 18.5t-86 54t-56 88t-20 121.5v430h64v-424q0 -117 54.5 -173.5t153.5 -56.5t153.5 56.5t54.5 173.5v424h64v-430q0 -69 -20 -121.5t-56 -88t-86 -54t-110 -18.5zM392 762h-56l-137 154v8h73z" />
    <glyph glyph-name="Uacute" unicode="&#xda;" horiz-adv-x="708" 
d="M354 -12q-60 0 -110 18.5t-86 54t-56 88t-20 121.5v430h64v-424q0 -117 54.5 -173.5t153.5 -56.5t153.5 56.5t54.5 173.5v424h64v-430q0 -69 -20 -121.5t-56 -88t-86 -54t-110 -18.5zM419 924h73v-8l-137 -154h-56z" />
    <glyph glyph-name="Ucircumflex" unicode="&#xdb;" horiz-adv-x="708" 
d="M354 -12q-60 0 -110 18.5t-86 54t-56 88t-20 121.5v430h64v-424q0 -117 54.5 -173.5t153.5 -56.5t153.5 56.5t54.5 173.5v424h64v-430q0 -69 -20 -121.5t-56 -88t-86 -54t-110 -18.5zM384 924l137 -166h-62l-105 120l-105 -120h-62l137 166h60z" />
    <glyph glyph-name="Udieresis" unicode="&#xdc;" horiz-adv-x="708" 
d="M354 -12q-60 0 -110 18.5t-86 54t-56 88t-20 121.5v430h64v-424q0 -117 54.5 -173.5t153.5 -56.5t153.5 56.5t54.5 173.5v424h64v-430q0 -69 -20 -121.5t-56 -88t-86 -54t-110 -18.5zM455 896q20 0 29 -12t9 -41t-9 -41t-29 -12t-29 12t-9 41t9 41t29 12zM253 896
q20 0 29 -12t9 -41t-9 -41t-29 -12t-29 12t-9 41t9 41t29 12z" />
    <glyph glyph-name="Yacute" unicode="&#xdd;" horiz-adv-x="654" 
d="M327 339l233 361h72l-273 -422v-278h-64v278l-273 422h72zM398 924h73v-8l-137 -154h-56z" />
    <glyph glyph-name="Thorn" unicode="&#xde;" horiz-adv-x="583" 
d="M146 700v-129h137q60 0 108.5 -14t83 -41t53 -67t18.5 -91q0 -52 -18.5 -92t-53 -67t-83 -41t-108.5 -14h-137v-144h-64v700h64zM480 358q0 81 -51.5 119t-151.5 38h-131v-315h131q100 0 151.5 38t51.5 120z" />
    <glyph glyph-name="germandbls" unicode="&#xdf;" horiz-adv-x="563" 
d="M259 392q84 0 127 37t43 102q0 54 -37 88.5t-101 34.5q-69 0 -107 -42t-38 -134v-478h-64v472q0 119 53.5 179.5t157.5 60.5q45 0 82 -14t64 -38t41.5 -57t14.5 -71q0 -67 -36.5 -107.5t-94.5 -57.5q71 -17 114 -65t43 -123q0 -88 -52 -139.5t-153 -51.5q-35 0 -66.5 8
t-55.5 22l7 65q23 -17 52.5 -27t62.5 -10q72 0 105.5 37.5t33.5 95.5q0 72 -51 116t-145 44v53z" />
    <glyph glyph-name="agrave" unicode="&#xe0;" horiz-adv-x="533" 
d="M227 -12q-39 0 -74 10t-60.5 30t-40.5 50t-15 69q0 78 57 123t166 45h146v34q0 72 -34.5 99.5t-111.5 27.5q-48 0 -90.5 -10.5t-79.5 -29.5l-7 56q35 17 81.5 27.5t97.5 10.5q103 0 153.5 -41.5t50.5 -146.5v-342h-60v62q-29 -35 -74.5 -54.5t-104.5 -19.5zM232 42
q57 0 101 18.5t73 60.5v142h-145q-84 0 -123 -31.5t-39 -82.5q0 -55 37.5 -81t95.5 -26zM321 588h-56l-137 154v8h73z" />
    <glyph glyph-name="aacute" unicode="&#xe1;" horiz-adv-x="533" 
d="M227 -12q-39 0 -74 10t-60.5 30t-40.5 50t-15 69q0 78 57 123t166 45h146v34q0 72 -34.5 99.5t-111.5 27.5q-48 0 -90.5 -10.5t-79.5 -29.5l-7 56q35 17 81.5 27.5t97.5 10.5q103 0 153.5 -41.5t50.5 -146.5v-342h-60v62q-29 -35 -74.5 -54.5t-104.5 -19.5zM232 42
q57 0 101 18.5t73 60.5v142h-145q-84 0 -123 -31.5t-39 -82.5q0 -55 37.5 -81t95.5 -26zM318 750h73v-8l-137 -154h-56z" />
    <glyph glyph-name="acircumflex" unicode="&#xe2;" horiz-adv-x="533" 
d="M227 -12q-39 0 -74 10t-60.5 30t-40.5 50t-15 69q0 78 57 123t166 45h146v34q0 72 -34.5 99.5t-111.5 27.5q-48 0 -90.5 -10.5t-79.5 -29.5l-7 56q35 17 81.5 27.5t97.5 10.5q103 0 153.5 -41.5t50.5 -146.5v-342h-60v62q-29 -35 -74.5 -54.5t-104.5 -19.5zM232 42
q57 0 101 18.5t73 60.5v142h-145q-84 0 -123 -31.5t-39 -82.5q0 -55 37.5 -81t95.5 -26zM298 750l137 -166h-62l-105 120l-105 -120h-62l137 166h60z" />
    <glyph glyph-name="atilde" unicode="&#xe3;" horiz-adv-x="533" 
d="M227 -12q-39 0 -74 10t-60.5 30t-40.5 50t-15 69q0 78 57 123t166 45h146v34q0 72 -34.5 99.5t-111.5 27.5q-48 0 -90.5 -10.5t-79.5 -29.5l-7 56q35 17 81.5 27.5t97.5 10.5q103 0 153.5 -41.5t50.5 -146.5v-342h-60v62q-29 -35 -74.5 -54.5t-104.5 -19.5zM232 42
q57 0 101 18.5t73 60.5v142h-145q-84 0 -123 -31.5t-39 -82.5q0 -55 37.5 -81t95.5 -26zM419 733q0 -38 -6.5 -64.5t-18 -42.5t-27.5 -23t-35 -7q-26 0 -44.5 13.5t-34 29.5l-28.5 29.5t-26 13.5q-15 0 -28 -17.5t-13 -66.5h-55q0 38 6.5 64.5t18.5 42.5t28 23t35 7
q25 0 44 -13.5t34 -29.5l28 -29.5t27 -13.5q15 0 27.5 17.5t12.5 66.5h55z" />
    <glyph glyph-name="adieresis" unicode="&#xe4;" horiz-adv-x="533" 
d="M227 -12q-39 0 -74 10t-60.5 30t-40.5 50t-15 69q0 78 57 123t166 45h146v34q0 72 -34.5 99.5t-111.5 27.5q-48 0 -90.5 -10.5t-79.5 -29.5l-7 56q35 17 81.5 27.5t97.5 10.5q103 0 153.5 -41.5t50.5 -146.5v-342h-60v62q-29 -35 -74.5 -54.5t-104.5 -19.5zM232 42
q57 0 101 18.5t73 60.5v142h-145q-84 0 -123 -31.5t-39 -82.5q0 -55 37.5 -81t95.5 -26zM371 722q20 0 29 -12t9 -41t-9 -41t-29 -12t-29 12t-9 41t9 41t29 12zM169 722q20 0 29 -12t9 -41t-9 -41t-29 -12t-29 12t-9 41t9 41t29 12z" />
    <glyph glyph-name="aring" unicode="&#xe5;" horiz-adv-x="533" 
d="M227 -12q-39 0 -74 10t-60.5 30t-40.5 50t-15 69q0 78 57 123t166 45h146v34q0 72 -34.5 99.5t-111.5 27.5q-48 0 -90.5 -10.5t-79.5 -29.5l-7 56q35 17 81.5 27.5t97.5 10.5q103 0 153.5 -41.5t50.5 -146.5v-342h-60v62q-29 -35 -74.5 -54.5t-104.5 -19.5zM232 42
q57 0 101 18.5t73 60.5v142h-145q-84 0 -123 -31.5t-39 -82.5q0 -55 37.5 -81t95.5 -26zM268 772q45 0 74.5 -29.5t29.5 -73.5t-29.5 -73.5t-74.5 -29.5t-74.5 29.5t-29.5 73.5t29.5 73.5t74.5 29.5zM268 611q26 0 41.5 17.5t15.5 40.5t-15.5 40.5t-41.5 17.5t-41.5 -17.5
t-15.5 -40.5t15.5 -40.5t41.5 -17.5z" />
    <glyph glyph-name="ae" unicode="&#xe6;" horiz-adv-x="850" 
d="M215 42q28 0 55.5 8t50 26t38.5 48t21 74v65h-125q-82 0 -119 -29t-37 -84q0 -28 9.5 -48t25.5 -33.5t37 -20t44 -6.5zM622 -12q-78 0 -132.5 38t-77.5 100q-20 -62 -70 -100t-126 -38q-37 0 -69.5 10t-57 30t-38.5 50t-14 70q0 81 53.5 124t161.5 43h129v24
q0 69 -36.5 103t-105.5 34q-38 0 -77 -9t-73 -27l-7 54q35 17 76.5 26.5t83.5 9.5q72 0 119.5 -31t56.5 -91q21 60 68 91t107 31q54 0 95 -19.5t68.5 -54.5t42 -84t14.5 -108v-13t-1 -16h-372q3 -42 16 -77.5t36 -61t56.5 -40t77.5 -14.5q35 0 71 9t64 31l7 -57
q-29 -19 -66.5 -28t-79.5 -9zM750 288q-2 85 -42.5 137t-113.5 52q-72 0 -111.5 -50.5t-42.5 -138.5h310z" />
    <glyph glyph-name="ccedilla" unicode="&#xe7;" horiz-adv-x="499" 
d="M217 -186q11 -5 24.5 -7t27.5 -2q34 0 52 13t18 36q0 24 -25.5 41t-76.5 19l42 76q-53 6 -97 27t-75 56t-48 82t-17 104q0 62 20.5 112t56.5 85.5t86 54.5t109 19q39 0 76 -7t67 -21l-6 -60q-29 18 -64 26t-72 8q-45 0 -83.5 -14.5t-67 -42.5t-44.5 -68.5t-16 -91.5
t16 -91.5t44.5 -68t67.5 -42.5t86 -15q38 0 74.5 9t63.5 29l6 -60q-53 -29 -127 -32l-28 -51q41 -8 64 -31t23 -53q0 -42 -29.5 -66.5t-93.5 -24.5q-14 0 -27.5 1.5t-26.5 5.5v45z" />
    <glyph glyph-name="egrave" unicode="&#xe8;" horiz-adv-x="540" 
d="M303 42q45 0 83 10.5t69 33.5l6 -59q-32 -20 -73 -29.5t-87 -9.5q-65 0 -113.5 21t-80.5 57.5t-48.5 86.5t-16.5 108q0 61 16.5 111t46.5 85t72.5 54t94.5 19q53 0 96 -19.5t73 -55t46 -84.5t16 -107v-13t-1 -17h-395q2 -42 15 -77.5t37.5 -61t60.5 -39.5t83 -14z
M438 287q-1 43 -13.5 77.5t-34 59.5t-51.5 38.5t-67 13.5q-73 0 -117 -50t-48 -139h331zM333 588h-56l-137 154v8h73z" />
    <glyph glyph-name="eacute" unicode="&#xe9;" horiz-adv-x="540" 
d="M303 42q45 0 83 10.5t69 33.5l6 -59q-32 -20 -73 -29.5t-87 -9.5q-65 0 -113.5 21t-80.5 57.5t-48.5 86.5t-16.5 108q0 61 16.5 111t46.5 85t72.5 54t94.5 19q53 0 96 -19.5t73 -55t46 -84.5t16 -107v-13t-1 -17h-395q2 -42 15 -77.5t37.5 -61t60.5 -39.5t83 -14z
M438 287q-1 43 -13.5 77.5t-34 59.5t-51.5 38.5t-67 13.5q-73 0 -117 -50t-48 -139h331zM331 750h73v-8l-137 -154h-56z" />
    <glyph glyph-name="ecircumflex" unicode="&#xea;" horiz-adv-x="540" 
d="M303 42q45 0 83 10.5t69 33.5l6 -59q-32 -20 -73 -29.5t-87 -9.5q-65 0 -113.5 21t-80.5 57.5t-48.5 86.5t-16.5 108q0 61 16.5 111t46.5 85t72.5 54t94.5 19q53 0 96 -19.5t73 -55t46 -84.5t16 -107v-13t-1 -17h-395q2 -42 15 -77.5t37.5 -61t60.5 -39.5t83 -14z
M438 287q-1 43 -13.5 77.5t-34 59.5t-51.5 38.5t-67 13.5q-73 0 -117 -50t-48 -139h331zM301 750l137 -166h-62l-105 120l-105 -120h-62l137 166h60z" />
    <glyph glyph-name="edieresis" unicode="&#xeb;" horiz-adv-x="540" 
d="M303 42q45 0 83 10.5t69 33.5l6 -59q-32 -20 -73 -29.5t-87 -9.5q-65 0 -113.5 21t-80.5 57.5t-48.5 86.5t-16.5 108q0 61 16.5 111t46.5 85t72.5 54t94.5 19q53 0 96 -19.5t73 -55t46 -84.5t16 -107v-13t-1 -17h-395q2 -42 15 -77.5t37.5 -61t60.5 -39.5t83 -14z
M438 287q-1 43 -13.5 77.5t-34 59.5t-51.5 38.5t-67 13.5q-73 0 -117 -50t-48 -139h331zM375 722q20 0 29 -12t9 -41t-9 -41t-29 -12t-29 12t-9 41t9 41t29 12zM173 722q20 0 29 -12t9 -41t-9 -41t-29 -12t-29 12t-9 41t9 41t29 12z" />
    <glyph glyph-name="igrave" unicode="&#xec;" horiz-adv-x="230" 
d="M145 0h-60v518h60v-518zM155 588h-56l-137 154v8h73z" />
    <glyph glyph-name="iacute" unicode="&#xed;" horiz-adv-x="230" 
d="M145 0h-60v518h60v-518zM184 750h73v-8l-137 -154h-56z" />
    <glyph glyph-name="icircumflex" unicode="&#xee;" horiz-adv-x="230" 
d="M145 0h-60v518h60v-518zM146 750l137 -166h-62l-105 120l-105 -120h-62l137 166h60z" />
    <glyph glyph-name="idieresis" unicode="&#xef;" horiz-adv-x="230" 
d="M145 0h-60v518h60v-518zM217 722q20 0 29 -12t9 -41t-9 -41t-29 -12t-29 12t-9 41t9 41t29 12zM15 722q20 0 29 -12t9 -41t-9 -41t-29 -12t-29 12t-9 41t9 41t29 12z" />
    <glyph glyph-name="eth" unicode="&#xf0;" horiz-adv-x="543" 
d="M405 609q48 -51 72 -121t24 -164q0 -77 -14.5 -139.5t-44 -106t-75 -67t-106.5 -23.5q-48 0 -88 17t-69.5 49.5t-45.5 80t-16 108.5q0 122 60.5 188t163.5 66q45 0 90 -19t74 -52q-11 57 -33.5 96t-55.5 68l-214 -65l-14 43l182 55q-30 17 -64 29t-72 23l5 55
q62 -14 112.5 -35t89.5 -51l121 37l14 -43zM266 444q-75 0 -118 -50.5t-43 -150.5q0 -91 40.5 -146.5t115.5 -55.5q40 0 73 16.5t56 51.5t36 88.5t13 127.5v15.5t-1 15.5q-34 43 -79 65.5t-93 22.5z" />
    <glyph glyph-name="ntilde" unicode="&#xf1;" horiz-adv-x="572" 
d="M284 476q-45 0 -85 -18t-67 -49v-409h-60v518h60v-50q29 28 71.5 45t88.5 17q100 0 156.5 -59t56.5 -171v-300h-60v298q0 178 -161 178zM443 733q0 -38 -6.5 -64.5t-18 -42.5t-27.5 -23t-35 -7q-26 0 -44.5 13.5t-34 29.5l-28.5 29.5t-26 13.5q-15 0 -28 -17.5t-13 -66.5
h-55q0 38 6.5 64.5t18.5 42.5t28 23t35 7q25 0 44 -13.5t34 -29.5l28 -29.5t27 -13.5q15 0 27.5 17.5t12.5 66.5h55z" />
    <glyph glyph-name="ograve" unicode="&#xf2;" horiz-adv-x="576" 
d="M42 259q0 59 18 108.5t50.5 85.5t77.5 56.5t100 20.5t100 -20.5t77.5 -56.5t50.5 -85.5t18 -108.5t-18 -108.5t-50.5 -85.5t-77.5 -56.5t-100 -20.5t-100 20.5t-77.5 56.5t-50.5 85.5t-18 108.5zM104 259q0 -50 13.5 -90t38 -68t58.5 -43.5t74 -15.5t74 15.5t58.5 43.5
t38 68t13.5 90q0 49 -13.5 89.5t-38 68.5t-58.5 43.5t-74 15.5t-74 -15.5t-58.5 -43.5t-38 -68.5t-13.5 -89.5zM354 588h-56l-137 154v8h73z" />
    <glyph glyph-name="oacute" unicode="&#xf3;" horiz-adv-x="576" 
d="M42 259q0 59 18 108.5t50.5 85.5t77.5 56.5t100 20.5t100 -20.5t77.5 -56.5t50.5 -85.5t18 -108.5t-18 -108.5t-50.5 -85.5t-77.5 -56.5t-100 -20.5t-100 20.5t-77.5 56.5t-50.5 85.5t-18 108.5zM104 259q0 -50 13.5 -90t38 -68t58.5 -43.5t74 -15.5t74 15.5t58.5 43.5
t38 68t13.5 90q0 49 -13.5 89.5t-38 68.5t-58.5 43.5t-74 15.5t-74 -15.5t-58.5 -43.5t-38 -68.5t-13.5 -89.5zM342 750h73v-8l-137 -154h-56z" />
    <glyph glyph-name="ocircumflex" unicode="&#xf4;" horiz-adv-x="576" 
d="M42 259q0 59 18 108.5t50.5 85.5t77.5 56.5t100 20.5t100 -20.5t77.5 -56.5t50.5 -85.5t18 -108.5t-18 -108.5t-50.5 -85.5t-77.5 -56.5t-100 -20.5t-100 20.5t-77.5 56.5t-50.5 85.5t-18 108.5zM104 259q0 -50 13.5 -90t38 -68t58.5 -43.5t74 -15.5t74 15.5t58.5 43.5
t38 68t13.5 90q0 49 -13.5 89.5t-38 68.5t-58.5 43.5t-74 15.5t-74 -15.5t-58.5 -43.5t-38 -68.5t-13.5 -89.5zM318 750l137 -166h-62l-105 120l-105 -120h-62l137 166h60z" />
    <glyph glyph-name="otilde" unicode="&#xf5;" horiz-adv-x="576" 
d="M42 259q0 59 18 108.5t50.5 85.5t77.5 56.5t100 20.5t100 -20.5t77.5 -56.5t50.5 -85.5t18 -108.5t-18 -108.5t-50.5 -85.5t-77.5 -56.5t-100 -20.5t-100 20.5t-77.5 56.5t-50.5 85.5t-18 108.5zM104 259q0 -50 13.5 -90t38 -68t58.5 -43.5t74 -15.5t74 15.5t58.5 43.5
t38 68t13.5 90q0 49 -13.5 89.5t-38 68.5t-58.5 43.5t-74 15.5t-74 -15.5t-58.5 -43.5t-38 -68.5t-13.5 -89.5zM446 733q0 -38 -6.5 -64.5t-18 -42.5t-27.5 -23t-35 -7q-26 0 -44.5 13.5t-34 29.5l-28.5 29.5t-26 13.5q-15 0 -28 -17.5t-13 -66.5h-55q0 38 6.5 64.5
t18.5 42.5t28 23t35 7q25 0 44 -13.5t34 -29.5l28 -29.5t27 -13.5q15 0 27.5 17.5t12.5 66.5h55z" />
    <glyph glyph-name="odieresis" unicode="&#xf6;" horiz-adv-x="576" 
d="M42 259q0 59 18 108.5t50.5 85.5t77.5 56.5t100 20.5t100 -20.5t77.5 -56.5t50.5 -85.5t18 -108.5t-18 -108.5t-50.5 -85.5t-77.5 -56.5t-100 -20.5t-100 20.5t-77.5 56.5t-50.5 85.5t-18 108.5zM104 259q0 -50 13.5 -90t38 -68t58.5 -43.5t74 -15.5t74 15.5t58.5 43.5
t38 68t13.5 90q0 49 -13.5 89.5t-38 68.5t-58.5 43.5t-74 15.5t-74 -15.5t-58.5 -43.5t-38 -68.5t-13.5 -89.5zM389 722q20 0 29 -12t9 -41t-9 -41t-29 -12t-29 12t-9 41t9 41t29 12zM187 722q20 0 29 -12t9 -41t-9 -41t-29 -12t-29 12t-9 41t9 41t29 12z" />
    <glyph glyph-name="divide" unicode="&#xf7;" horiz-adv-x="612" 
d="M550 360v-56h-488v56h488zM349 533q0 -31 -10.5 -43.5t-32.5 -12.5t-32.5 12.5t-10.5 43.5t10.5 43.5t32.5 12.5t32.5 -12.5t10.5 -43.5zM349 131q0 -31 -10.5 -43.5t-32.5 -12.5t-32.5 12.5t-10.5 43.5t10.5 43.5t32.5 12.5t32.5 -12.5t10.5 -43.5z" />
    <glyph glyph-name="oslash" unicode="&#xf8;" horiz-adv-x="576" 
d="M42 259q0 59 18 108.5t50.5 85.5t77.5 56.5t100 20.5q31 0 59 -7t52 -19l72 124h61l-89 -154q43 -36 67 -91t24 -124q0 -59 -18 -108.5t-50.5 -85.5t-77.5 -56.5t-100 -20.5q-61 0 -111 25l-71 -123h-61l88 152q-43 36 -67 92t-24 125zM104 259q0 -53 15.5 -94.5
t42.5 -70.5l209 362q-37 20 -83 20q-40 0 -74 -15.5t-58.5 -43.5t-38 -68.5t-13.5 -89.5zM472 259q0 53 -15.5 94t-42.5 70l-209 -361q37 -20 83 -20q40 0 74 15.5t58.5 43.5t38 68t13.5 90z" />
    <glyph glyph-name="ugrave" unicode="&#xf9;" horiz-adv-x="572" 
d="M288 42q45 0 85 18t67 49v409h60v-518h-60v50q-29 -28 -71.5 -45t-88.5 -17q-100 0 -156.5 59t-56.5 171v300h60v-298q0 -178 161 -178zM327 588h-56l-137 154v8h73z" />
    <glyph glyph-name="uacute" unicode="&#xfa;" horiz-adv-x="572" 
d="M288 42q45 0 85 18t67 49v409h60v-518h-60v50q-29 -28 -71.5 -45t-88.5 -17q-100 0 -156.5 59t-56.5 171v300h60v-298q0 -178 161 -178zM361 750h73v-8l-137 -154h-56z" />
    <glyph glyph-name="ucircumflex" unicode="&#xfb;" horiz-adv-x="572" 
d="M288 42q45 0 85 18t67 49v409h60v-518h-60v50q-29 -28 -71.5 -45t-88.5 -17q-100 0 -156.5 59t-56.5 171v300h60v-298q0 -178 161 -178zM313 750l137 -166h-62l-105 120l-105 -120h-62l137 166h60z" />
    <glyph glyph-name="udieresis" unicode="&#xfc;" horiz-adv-x="572" 
d="M288 42q45 0 85 18t67 49v409h60v-518h-60v50q-29 -28 -71.5 -45t-88.5 -17q-100 0 -156.5 59t-56.5 171v300h60v-298q0 -178 161 -178zM384 722q20 0 29 -12t9 -41t-9 -41t-29 -12t-29 12t-9 41t9 41t29 12zM182 722q20 0 29 -12t9 -41t-9 -41t-29 -12t-29 12t-9 41
t9 41t29 12z" />
    <glyph glyph-name="yacute" unicode="&#xfd;" horiz-adv-x="526" 
d="M441 518h68l-285 -711h-66l77 193l-218 518h68l182 -443zM335 750h73v-8l-137 -154h-56z" />
    <glyph glyph-name="thorn" unicode="&#xfe;" horiz-adv-x="570" 
d="M286 530q51 0 95 -18.5t76.5 -54t51.5 -85.5t19 -113t-19 -113t-51.5 -85.5t-76.5 -54t-95 -18.5q-45 0 -85.5 16t-68.5 44v-241h-60v923h60v-259q28 27 68.5 43t85.5 16zM278 476q-42 0 -81 -16t-65 -47v-308q26 -31 65 -47t81 -16q39 0 73.5 14.5t60 42t40 68
t14.5 92.5t-14.5 92.5t-40 68t-60 42t-73.5 14.5z" />
    <glyph glyph-name="ydieresis" unicode="&#xff;" horiz-adv-x="526" 
d="M441 518h68l-285 -711h-66l77 193l-218 518h68l182 -443zM365 722q20 0 29 -12t9 -41t-9 -41t-29 -12t-29 12t-9 41t9 41t29 12zM163 722q20 0 29 -12t9 -41t-9 -41t-29 -12t-29 12t-9 41t9 41t29 12z" />
    <glyph glyph-name="Amacron" unicode="&#x100;" horiz-adv-x="640" 
d="M489 191h-338l-74 -191h-70l277 700h72l277 -700h-70zM173 247h294l-147 382zM178 866h284v-52h-284v52z" />
    <glyph glyph-name="amacron" unicode="&#x101;" horiz-adv-x="533" 
d="M227 -12q-39 0 -74 10t-60.5 30t-40.5 50t-15 69q0 78 57 123t166 45h146v34q0 72 -34.5 99.5t-111.5 27.5q-48 0 -90.5 -10.5t-79.5 -29.5l-7 56q35 17 81.5 27.5t97.5 10.5q103 0 153.5 -41.5t50.5 -146.5v-342h-60v62q-29 -35 -74.5 -54.5t-104.5 -19.5zM232 42
q57 0 101 18.5t73 60.5v142h-145q-84 0 -123 -31.5t-39 -82.5q0 -55 37.5 -81t95.5 -26zM127 692h284v-52h-284v52z" />
    <glyph glyph-name="Abreve" unicode="&#x102;" horiz-adv-x="640" 
d="M489 191h-338l-74 -191h-70l277 700h72l277 -700h-70zM173 247h294l-147 382zM320 762q-32 0 -60 9.5t-49.5 29t-34.5 49t-14 69.5h56q2 -54 30 -81t72 -27t72 27t30 81h56q-1 -40 -14 -69.5t-34.5 -49t-49.5 -29t-60 -9.5z" />
    <glyph glyph-name="abreve" unicode="&#x103;" horiz-adv-x="533" 
d="M227 -12q-39 0 -74 10t-60.5 30t-40.5 50t-15 69q0 78 57 123t166 45h146v34q0 72 -34.5 99.5t-111.5 27.5q-48 0 -90.5 -10.5t-79.5 -29.5l-7 56q35 17 81.5 27.5t97.5 10.5q103 0 153.5 -41.5t50.5 -146.5v-342h-60v62q-29 -35 -74.5 -54.5t-104.5 -19.5zM232 42
q57 0 101 18.5t73 60.5v142h-145q-84 0 -123 -31.5t-39 -82.5q0 -55 37.5 -81t95.5 -26zM267 588q-32 0 -60 9.5t-49.5 29t-34.5 49t-14 69.5h56q2 -54 30 -81t72 -27t72 27t30 81h56q-1 -40 -14 -69.5t-34.5 -49t-49.5 -29t-60 -9.5z" />
    <glyph glyph-name="Aogonek" unicode="&#x104;" horiz-adv-x="640" 
d="M173 247h294l-147 382zM563 0l-74 191h-338l-74 -191h-70l277 700h72l277 -700q-40 -35 -58.5 -65.5t-18.5 -59.5q0 -43 56 -43q11 0 22 1t21 6v-52q-11 -3 -25.5 -4.5t-28.5 -1.5q-53 0 -79 23.5t-26 61.5q0 37 22 71.5t54 62.5h-9z" />
    <glyph glyph-name="aogonek" unicode="&#x105;" horiz-adv-x="533" 
d="M406 0v62q-29 -35 -74.5 -54.5t-104.5 -19.5q-39 0 -74 10t-60.5 30t-40.5 50t-15 69q0 78 57 123t166 45h146v34q0 72 -34.5 99.5t-111.5 27.5q-48 0 -90.5 -10.5t-79.5 -29.5l-7 56q35 17 81.5 27.5t97.5 10.5q103 0 153.5 -41.5t50.5 -146.5v-342q-40 -35 -58.5 -65.5
t-18.5 -59.5q0 -43 56 -43q11 0 22 1t21 6v-52q-11 -3 -25.5 -4.5t-28.5 -1.5q-53 0 -79 23.5t-26 61.5q0 37 22 71.5t54 62.5h1zM232 42q57 0 101 18.5t73 60.5v142h-145q-84 0 -123 -31.5t-39 -82.5q0 -55 37.5 -81t95.5 -26z" />
    <glyph glyph-name="Cacute" unicode="&#x106;" horiz-adv-x="603" 
d="M47 350q0 80 25.5 146.5t72 114.5t113 74.5t149.5 26.5q39 0 79 -7t72 -22l-6 -62q-31 17 -67.5 25t-74.5 8q-70 0 -125 -22t-93.5 -62t-58.5 -96t-20 -124q0 -69 20.5 -125.5t59 -96t94 -61t125.5 -21.5q37 0 74.5 8.5t69.5 26.5l5 -63q-35 -17 -75 -23.5t-77 -6.5
q-83 0 -150 26t-114 73.5t-72.5 114.5t-25.5 148zM441 924h73v-8l-137 -154h-56z" />
    <glyph glyph-name="cacute" unicode="&#x107;" horiz-adv-x="499" 
d="M42 259q0 62 20.5 112t56.5 85.5t86 54.5t109 19q39 0 76 -7t67 -21l-6 -60q-29 18 -64 26t-72 8q-45 0 -83.5 -14.5t-67 -42.5t-44.5 -68.5t-16 -91.5t16 -91.5t44.5 -68t67.5 -42.5t86 -15q38 0 74.5 9t63.5 29l6 -60q-29 -16 -66 -24t-78 -8q-61 0 -112 19t-87.5 54.5
t-56.5 85.5t-20 112zM345 750h73v-8l-137 -154h-56z" />
    <glyph glyph-name="Ccircumflex" unicode="&#x108;" horiz-adv-x="603" 
d="M47 350q0 80 25.5 146.5t72 114.5t113 74.5t149.5 26.5q39 0 79 -7t72 -22l-6 -62q-31 17 -67.5 25t-74.5 8q-70 0 -125 -22t-93.5 -62t-58.5 -96t-20 -124q0 -69 20.5 -125.5t59 -96t94 -61t125.5 -21.5q37 0 74.5 8.5t69.5 26.5l5 -63q-35 -17 -75 -23.5t-77 -6.5
q-83 0 -150 26t-114 73.5t-72.5 114.5t-25.5 148zM407 924l137 -166h-62l-105 120l-105 -120h-62l137 166h60z" />
    <glyph glyph-name="ccircumflex" unicode="&#x109;" horiz-adv-x="499" 
d="M42 259q0 62 20.5 112t56.5 85.5t86 54.5t109 19q39 0 76 -7t67 -21l-6 -60q-29 18 -64 26t-72 8q-45 0 -83.5 -14.5t-67 -42.5t-44.5 -68.5t-16 -91.5t16 -91.5t44.5 -68t67.5 -42.5t86 -15q38 0 74.5 9t63.5 29l6 -60q-29 -16 -66 -24t-78 -8q-61 0 -112 19t-87.5 54.5
t-56.5 85.5t-20 112zM323 750l137 -166h-62l-105 120l-105 -120h-62l137 166h60z" />
    <glyph glyph-name="Cdotaccent" unicode="&#x10a;" horiz-adv-x="603" 
d="M47 350q0 80 25.5 146.5t72 114.5t113 74.5t149.5 26.5q39 0 79 -7t72 -22l-6 -62q-31 17 -67.5 25t-74.5 8q-70 0 -125 -22t-93.5 -62t-58.5 -96t-20 -124q0 -69 20.5 -125.5t59 -96t94 -61t125.5 -21.5q37 0 74.5 8.5t69.5 26.5l5 -63q-35 -17 -75 -23.5t-77 -6.5
q-83 0 -150 26t-114 73.5t-72.5 114.5t-25.5 148zM371 896q20 0 29 -12t9 -41t-9 -41t-29 -12t-29 12t-9 41t9 41t29 12z" />
    <glyph glyph-name="cdotaccent" unicode="&#x10b;" horiz-adv-x="499" 
d="M42 259q0 62 20.5 112t56.5 85.5t86 54.5t109 19q39 0 76 -7t67 -21l-6 -60q-29 18 -64 26t-72 8q-45 0 -83.5 -14.5t-67 -42.5t-44.5 -68.5t-16 -91.5t16 -91.5t44.5 -68t67.5 -42.5t86 -15q38 0 74.5 9t63.5 29l6 -60q-29 -16 -66 -24t-78 -8q-61 0 -112 19t-87.5 54.5
t-56.5 85.5t-20 112zM298 722q20 0 29 -12t9 -41t-9 -41t-29 -12t-29 12t-9 41t9 41t29 12z" />
    <glyph glyph-name="Ccaron" unicode="&#x10c;" horiz-adv-x="603" 
d="M47 350q0 80 25.5 146.5t72 114.5t113 74.5t149.5 26.5q39 0 79 -7t72 -22l-6 -62q-31 17 -67.5 25t-74.5 8q-70 0 -125 -22t-93.5 -62t-58.5 -96t-20 -124q0 -69 20.5 -125.5t59 -96t94 -61t125.5 -21.5q37 0 74.5 8.5t69.5 26.5l5 -63q-35 -17 -75 -23.5t-77 -6.5
q-83 0 -150 26t-114 73.5t-72.5 114.5t-25.5 148zM345 758l-137 166h62l105 -120l105 120h62l-137 -166h-60z" />
    <glyph glyph-name="ccaron" unicode="&#x10d;" horiz-adv-x="499" 
d="M42 259q0 62 20.5 112t56.5 85.5t86 54.5t109 19q39 0 76 -7t67 -21l-6 -60q-29 18 -64 26t-72 8q-45 0 -83.5 -14.5t-67 -42.5t-44.5 -68.5t-16 -91.5t16 -91.5t44.5 -68t67.5 -42.5t86 -15q38 0 74.5 9t63.5 29l6 -60q-29 -16 -66 -24t-78 -8q-61 0 -112 19t-87.5 54.5
t-56.5 85.5t-20 112zM263 584l-137 166h62l105 -120l105 120h62l-137 -166h-60z" />
    <glyph glyph-name="Dcaron" unicode="&#x10e;" horiz-adv-x="672" 
d="M559 350q0 76 -23 131.5t-65 91.5t-102.5 53.5t-135.5 17.5h-87v-588h87q75 0 135.5 17.5t102.5 53.5t65 91.5t23 131.5zM625 350q0 -87 -28 -152.5t-78.5 -109.5t-121.5 -66t-156 -22h-159v700h159q85 0 156 -22t121.5 -66t78.5 -109.5t28 -152.5zM235 758l-137 166h62
l105 -120l105 120h62l-137 -166h-60z" />
    <glyph glyph-name="dcaron" unicode="&#x10f;" horiz-adv-x="655" 
d="M284 -12q-51 0 -95 18.5t-76.5 54t-51.5 85.5t-19 113t19 113t51.5 85.5t76.5 54t95 18.5q45 0 85.5 -16t68.5 -44v260h60v-730h-60v47q-28 -27 -68.5 -43t-85.5 -16zM292 42q42 0 81 16t65 47v308q-26 31 -65 47t-81 16q-39 0 -73.5 -14.5t-60 -42t-40 -68t-14.5 -92.5
t14.5 -92.5t40 -68t60 -42t73.5 -14.5zM633 686q0 -56 -13 -94.5t-51 -73.5l-18 23q33 40 36 89q-20 1 -30 13.5t-10 42.5q0 31 10.5 43.5t32.5 12.5t32.5 -12.5t10.5 -43.5z" />
    <glyph glyph-name="Dcroat" unicode="&#x110;" horiz-adv-x="677" 
d="M630 350q0 -87 -28 -152.5t-78.5 -109.5t-121.5 -66t-156 -22h-159v325h-70v52h70v323h159q85 0 156 -22t121.5 -66t78.5 -109.5t28 -152.5zM564 350q0 76 -23 131.5t-65 91.5t-102.5 53.5t-135.5 17.5h-87v-267h175v-52h-175v-269h87q75 0 135.5 17.5t102.5 53.5
t65 91.5t23 131.5z" />
    <glyph glyph-name="dcroat" unicode="&#x111;" horiz-adv-x="575" 
d="M568 601h-70v-601h-60v47q-28 -27 -68.5 -43t-85.5 -16q-51 0 -95 18.5t-76.5 54t-51.5 85.5t-19 113t19 113t51.5 85.5t76.5 54t95 18.5q45 0 85.5 -16t68.5 -44v131h-206v52h206v77h60v-77h70v-52zM292 42q42 0 81 16t65 47v308q-26 31 -65 47t-81 16
q-39 0 -73.5 -14.5t-60 -42t-40 -68t-14.5 -92.5t14.5 -92.5t40 -68t60 -42t73.5 -14.5z" />
    <glyph glyph-name="Emacron" unicode="&#x112;" horiz-adv-x="557" 
d="M82 700h424v-56h-360v-254h335v-56h-335v-278h369v-56h-433v700zM151 866h284v-52h-284v52z" />
    <glyph glyph-name="emacron" unicode="&#x113;" horiz-adv-x="540" 
d="M303 42q45 0 83 10.5t69 33.5l6 -59q-32 -20 -73 -29.5t-87 -9.5q-65 0 -113.5 21t-80.5 57.5t-48.5 86.5t-16.5 108q0 61 16.5 111t46.5 85t72.5 54t94.5 19q53 0 96 -19.5t73 -55t46 -84.5t16 -107v-13t-1 -17h-395q2 -42 15 -77.5t37.5 -61t60.5 -39.5t83 -14z
M438 287q-1 43 -13.5 77.5t-34 59.5t-51.5 38.5t-67 13.5q-73 0 -117 -50t-48 -139h331zM129 692h284v-52h-284v52z" />
    <glyph glyph-name="Ebreve" unicode="&#x114;" horiz-adv-x="557" 
d="M82 700h424v-56h-360v-254h335v-56h-335v-278h369v-56h-433v700zM297 762q-32 0 -60 9.5t-49.5 29t-34.5 49t-14 69.5h56q2 -54 30 -81t72 -27t72 27t30 81h56q-1 -40 -14 -69.5t-34.5 -49t-49.5 -29t-60 -9.5z" />
    <glyph glyph-name="ebreve" unicode="&#x115;" horiz-adv-x="540" 
d="M303 42q45 0 83 10.5t69 33.5l6 -59q-32 -20 -73 -29.5t-87 -9.5q-65 0 -113.5 21t-80.5 57.5t-48.5 86.5t-16.5 108q0 61 16.5 111t46.5 85t72.5 54t94.5 19q53 0 96 -19.5t73 -55t46 -84.5t16 -107v-13t-1 -17h-395q2 -42 15 -77.5t37.5 -61t60.5 -39.5t83 -14z
M438 287q-1 43 -13.5 77.5t-34 59.5t-51.5 38.5t-67 13.5q-73 0 -117 -50t-48 -139h331zM271 588q-32 0 -60 9.5t-49.5 29t-34.5 49t-14 69.5h56q2 -54 30 -81t72 -27t72 27t30 81h56q-1 -40 -14 -69.5t-34.5 -49t-49.5 -29t-60 -9.5z" />
    <glyph glyph-name="Edotaccent" unicode="&#x116;" horiz-adv-x="557" 
d="M82 700h424v-56h-360v-254h335v-56h-335v-278h369v-56h-433v700zM293 896q20 0 29 -12t9 -41t-9 -41t-29 -12t-29 12t-9 41t9 41t29 12z" />
    <glyph glyph-name="edotaccent" unicode="&#x117;" horiz-adv-x="540" 
d="M303 42q45 0 83 10.5t69 33.5l6 -59q-32 -20 -73 -29.5t-87 -9.5q-65 0 -113.5 21t-80.5 57.5t-48.5 86.5t-16.5 108q0 61 16.5 111t46.5 85t72.5 54t94.5 19q53 0 96 -19.5t73 -55t46 -84.5t16 -107v-13t-1 -17h-395q2 -42 15 -77.5t37.5 -61t60.5 -39.5t83 -14z
M438 287q-1 43 -13.5 77.5t-34 59.5t-51.5 38.5t-67 13.5q-73 0 -117 -50t-48 -139h331zM267 722q20 0 29 -12t9 -41t-9 -41t-29 -12t-29 12t-9 41t9 41t29 12z" />
    <glyph glyph-name="Eogonek" unicode="&#x118;" horiz-adv-x="557" 
d="M82 700h424v-56h-360v-254h335v-56h-335v-278h369v-56h-41q-40 -35 -58.5 -65.5t-18.5 -59.5q0 -43 56 -43q11 0 22 1t21 6v-52q-11 -3 -25.5 -4.5t-28.5 -1.5q-53 0 -79 23.5t-26 61.5q0 37 22 71.5t54 62.5h-331v700z" />
    <glyph glyph-name="eogonek" unicode="&#x119;" horiz-adv-x="540" 
d="M303 42q45 0 83 10.5t69 33.5l6 -59q-36 -22 -81 -31q-38 -34 -55 -63.5t-17 -57.5q0 -43 56 -43q11 0 22 1t21 6v-52q-11 -3 -25.5 -4.5t-28.5 -1.5q-53 0 -79 23.5t-26 61.5q0 33 17.5 64.5t45.5 57.5h-10q-65 0 -113.5 21t-80.5 57.5t-48.5 86.5t-16.5 108
q0 61 16.5 111t46.5 85t72.5 54t94.5 19q53 0 96 -19.5t73 -55t46 -84.5t16 -107v-13t-1 -17h-395q2 -42 15 -77.5t37.5 -61t60.5 -39.5t83 -14zM438 287q-1 43 -13.5 77.5t-34 59.5t-51.5 38.5t-67 13.5q-73 0 -117 -50t-48 -139h331z" />
    <glyph glyph-name="Ecaron" unicode="&#x11a;" horiz-adv-x="557" 
d="M82 700h424v-56h-360v-254h335v-56h-335v-278h369v-56h-433v700zM266 758l-137 166h62l105 -120l105 120h62l-137 -166h-60z" />
    <glyph glyph-name="ecaron" unicode="&#x11b;" horiz-adv-x="540" 
d="M303 42q45 0 83 10.5t69 33.5l6 -59q-32 -20 -73 -29.5t-87 -9.5q-65 0 -113.5 21t-80.5 57.5t-48.5 86.5t-16.5 108q0 61 16.5 111t46.5 85t72.5 54t94.5 19q53 0 96 -19.5t73 -55t46 -84.5t16 -107v-13t-1 -17h-395q2 -42 15 -77.5t37.5 -61t60.5 -39.5t83 -14z
M438 287q-1 43 -13.5 77.5t-34 59.5t-51.5 38.5t-67 13.5q-73 0 -117 -50t-48 -139h331zM241 584l-137 166h62l105 -120l105 120h62l-137 -166h-60z" />
    <glyph glyph-name="Gcircumflex" unicode="&#x11c;" horiz-adv-x="698" 
d="M427 46q39 0 71 4t64 14v255h-208v56h272v-351q-45 -19 -93.5 -27.5t-107.5 -8.5q-86 0 -156 27t-119.5 75.5t-76 115t-26.5 144.5t26 144t74 114.5t115.5 76t150.5 27.5q56 0 106.5 -9.5t91.5 -27.5l-5 -65q-42 23 -91 33.5t-100 10.5q-68 0 -123.5 -23t-95 -63.5
t-61.5 -96t-22 -121.5q0 -67 22 -122.5t63 -96t99 -63t130 -22.5zM413 924l137 -166h-62l-105 120l-105 -120h-62l137 166h60z" />
    <glyph glyph-name="gcircumflex" unicode="&#x11d;" horiz-adv-x="570" 
d="M284 530q45 0 85.5 -16t68.5 -43v47h60v-484q0 -62 -13.5 -106.5t-42 -73t-72 -41.5t-103.5 -13q-46 0 -91.5 10t-81.5 28l4 64q35 -24 80 -36t90 -12q86 0 128 38t42 130v31q-28 -28 -68.5 -44t-85.5 -16q-51 0 -95 18t-76.5 52.5t-51.5 84.5t-19 113t19 113t51.5 84.5
t76.5 53t95 18.5zM292 476q-39 0 -73.5 -14t-60 -41.5t-40 -67.5t-14.5 -92t14.5 -92t40 -67t60 -41t73.5 -14q42 0 81 16t65 47v303q-26 31 -65 47t-81 16zM324 750l137 -166h-62l-105 120l-105 -120h-62l137 166h60z" />
    <glyph glyph-name="Gbreve" unicode="&#x11e;" horiz-adv-x="698" 
d="M427 46q39 0 71 4t64 14v255h-208v56h272v-351q-45 -19 -93.5 -27.5t-107.5 -8.5q-86 0 -156 27t-119.5 75.5t-76 115t-26.5 144.5t26 144t74 114.5t115.5 76t150.5 27.5q56 0 106.5 -9.5t91.5 -27.5l-5 -65q-42 23 -91 33.5t-100 10.5q-68 0 -123.5 -23t-95 -63.5
t-61.5 -96t-22 -121.5q0 -67 22 -122.5t63 -96t99 -63t130 -22.5zM385 762q-32 0 -60 9.5t-49.5 29t-34.5 49t-14 69.5h56q2 -54 30 -81t72 -27t72 27t30 81h56q-1 -40 -14 -69.5t-34.5 -49t-49.5 -29t-60 -9.5z" />
    <glyph glyph-name="gbreve" unicode="&#x11f;" horiz-adv-x="570" 
d="M284 530q45 0 85.5 -16t68.5 -43v47h60v-484q0 -62 -13.5 -106.5t-42 -73t-72 -41.5t-103.5 -13q-46 0 -91.5 10t-81.5 28l4 64q35 -24 80 -36t90 -12q86 0 128 38t42 130v31q-28 -28 -68.5 -44t-85.5 -16q-51 0 -95 18t-76.5 52.5t-51.5 84.5t-19 113t19 113t51.5 84.5
t76.5 53t95 18.5zM292 476q-39 0 -73.5 -14t-60 -41.5t-40 -67.5t-14.5 -92t14.5 -92t40 -67t60 -41t73.5 -14q42 0 81 16t65 47v303q-26 31 -65 47t-81 16zM292 588q-32 0 -60 9.5t-49.5 29t-34.5 49t-14 69.5h56q2 -54 30 -81t72 -27t72 27t30 81h56q-1 -40 -14 -69.5
t-34.5 -49t-49.5 -29t-60 -9.5z" />
    <glyph glyph-name="Gdotaccent" unicode="&#x120;" horiz-adv-x="698" 
d="M427 46q39 0 71 4t64 14v255h-208v56h272v-351q-45 -19 -93.5 -27.5t-107.5 -8.5q-86 0 -156 27t-119.5 75.5t-76 115t-26.5 144.5t26 144t74 114.5t115.5 76t150.5 27.5q56 0 106.5 -9.5t91.5 -27.5l-5 -65q-42 23 -91 33.5t-100 10.5q-68 0 -123.5 -23t-95 -63.5
t-61.5 -96t-22 -121.5q0 -67 22 -122.5t63 -96t99 -63t130 -22.5zM388 896q20 0 29 -12t9 -41t-9 -41t-29 -12t-29 12t-9 41t9 41t29 12z" />
    <glyph glyph-name="gdotaccent" unicode="&#x121;" horiz-adv-x="570" 
d="M284 530q45 0 85.5 -16t68.5 -43v47h60v-484q0 -62 -13.5 -106.5t-42 -73t-72 -41.5t-103.5 -13q-46 0 -91.5 10t-81.5 28l4 64q35 -24 80 -36t90 -12q86 0 128 38t42 130v31q-28 -28 -68.5 -44t-85.5 -16q-51 0 -95 18t-76.5 52.5t-51.5 84.5t-19 113t19 113t51.5 84.5
t76.5 53t95 18.5zM292 476q-39 0 -73.5 -14t-60 -41.5t-40 -67.5t-14.5 -92t14.5 -92t40 -67t60 -41t73.5 -14q42 0 81 16t65 47v303q-26 31 -65 47t-81 16zM291 722q20 0 29 -12t9 -41t-9 -41t-29 -12t-29 12t-9 41t9 41t29 12z" />
    <glyph glyph-name="Gcommaaccent" unicode="&#x122;" horiz-adv-x="698" 
d="M427 46q39 0 71 4t64 14v255h-208v56h272v-351q-45 -19 -93.5 -27.5t-107.5 -8.5q-86 0 -156 27t-119.5 75.5t-76 115t-26.5 144.5t26 144t74 114.5t115.5 76t150.5 27.5q56 0 106.5 -9.5t91.5 -27.5l-5 -65q-42 23 -91 33.5t-100 10.5q-68 0 -123.5 -23t-95 -63.5
t-61.5 -96t-22 -121.5q0 -67 22 -122.5t63 -96t99 -63t130 -22.5zM377 -100q0 26 12.5 38.5t29.5 12.5t29.5 -12.5t12.5 -38.5q0 -48 -15.5 -84t-50.5 -65l-15 15q16 19 25.5 39t12.5 44q-19 1 -30 14.5t-11 36.5z" />
    <glyph glyph-name="gcommaaccent" unicode="&#x123;" horiz-adv-x="570" 
d="M284 530q45 0 85.5 -16t68.5 -43v47h60v-484q0 -62 -13.5 -106.5t-42 -73t-72 -41.5t-103.5 -13q-46 0 -91.5 10t-81.5 28l4 64q35 -24 80 -36t90 -12q86 0 128 38t42 130v31q-28 -28 -68.5 -44t-85.5 -16q-51 0 -95 18t-76.5 52.5t-51.5 84.5t-19 113t19 113t51.5 84.5
t76.5 53t95 18.5zM292 476q-39 0 -73.5 -14t-60 -41.5t-40 -67.5t-14.5 -92t14.5 -92t40 -67t60 -41t73.5 -14q42 0 81 16t65 47v303q-26 31 -65 47t-81 16zM329.02 634.988q0 -25.9971 -12.498 -38.4961q-12.499 -12.498 -29.4971 -12.498t-29.4961 12.498
q-12.499 12.499 -12.499 38.4961q0 47.9941 15.499 83.9893q15.498 35.9951 50.4932 64.9922l14.998 -14.998q-15.998 -18.998 -25.4961 -38.9951q-9.49902 -19.998 -12.499 -43.9951q18.998 -1 29.9961 -14.498q10.999 -13.498 10.999 -36.4951z" />
    <glyph glyph-name="Hcircumflex" unicode="&#x124;" horiz-adv-x="693" 
d="M82 700h64v-299h401v299h64v-700h-64v345h-401v-345h-64v700zM376 924l137 -166h-62l-105 120l-105 -120h-62l137 166h60z" />
    <glyph glyph-name="hcircumflex" unicode="&#x125;" horiz-adv-x="572" 
d="M284 476q-45 0 -85 -18t-67 -49v-409h-60v730h60v-262q29 28 71.5 45t88.5 17q100 0 156.5 -59t56.5 -171v-300h-60v298q0 178 -161 178zM229 924l137 -166h-62l-105 120l-105 -120h-62l137 166h60z" />
    <glyph glyph-name="Hbar" unicode="&#x126;" horiz-adv-x="703" 
d="M87 543h-63v52h63v105h64v-105h401v105h64v-105h63v-52h-63v-543h-64v345h-401v-345h-64v543zM552 401v142h-401v-142h401z" />
    <glyph glyph-name="hbar" unicode="&#x127;" horiz-adv-x="577" 
d="M289 476q-45 0 -85 -18t-67 -49v-409h-60v601h-70v52h70v77h60v-77h206v-52h-206v-133q29 28 71.5 45t88.5 17q100 0 156.5 -59t56.5 -171v-300h-60v298q0 178 -161 178z" />
    <glyph glyph-name="Itilde" unicode="&#x128;" horiz-adv-x="238" 
d="M151 700v-700h-64v700h64zM278 907q0 -38 -6.5 -64.5t-18 -42.5t-27.5 -23t-35 -7q-26 0 -44.5 13.5t-34 29.5l-28.5 29.5t-26 13.5q-15 0 -28 -17.5t-13 -66.5h-55q0 38 6.5 64.5t18.5 42.5t28 23t35 7q25 0 44 -13.5t34 -29.5l28 -29.5t27 -13.5q15 0 27.5 17.5
t12.5 66.5h55z" />
    <glyph glyph-name="itilde" unicode="&#x129;" horiz-adv-x="230" 
d="M145 0h-60v518h60v-518zM274 733q0 -38 -6.5 -64.5t-18 -42.5t-27.5 -23t-35 -7q-26 0 -44.5 13.5t-34 29.5l-28.5 29.5t-26 13.5q-15 0 -28 -17.5t-13 -66.5h-55q0 38 6.5 64.5t18.5 42.5t28 23t35 7q25 0 44 -13.5t34 -29.5l28 -29.5t27 -13.5q15 0 27.5 17.5
t12.5 66.5h55z" />
    <glyph glyph-name="Imacron" unicode="&#x12a;" horiz-adv-x="238" 
d="M151 700v-700h-64v700h64zM-22 866h284v-52h-284v52z" />
    <glyph glyph-name="imacron" unicode="&#x12b;" horiz-adv-x="230" 
d="M145 0h-60v518h60v-518zM-26 692h284v-52h-284v52z" />
    <glyph glyph-name="Ibreve" unicode="&#x12c;" horiz-adv-x="238" 
d="M151 700v-700h-64v700h64zM120 762q-32 0 -60 9.5t-49.5 29t-34.5 49t-14 69.5h56q2 -54 30 -81t72 -27t72 27t30 81h56q-1 -40 -14 -69.5t-34.5 -49t-49.5 -29t-60 -9.5z" />
    <glyph glyph-name="ibreve" unicode="&#x12d;" horiz-adv-x="230" 
d="M145 0h-60v518h60v-518zM116 588q-32 0 -60 9.5t-49.5 29t-34.5 49t-14 69.5h56q2 -54 30 -81t72 -27t72 27t30 81h56q-1 -40 -14 -69.5t-34.5 -49t-49.5 -29t-60 -9.5z" />
    <glyph glyph-name="Iogonek" unicode="&#x12e;" horiz-adv-x="238" 
d="M87 0v700h64v-700q-40 -35 -58.5 -65.5t-18.5 -59.5q0 -43 56 -43q11 0 22 1t21 6v-52q-11 -3 -25.5 -4.5t-28.5 -1.5q-53 0 -79 23.5t-26 61.5q0 37 22 71.5t54 62.5h-3z" />
    <glyph glyph-name="iogonek" unicode="&#x12f;" horiz-adv-x="230" 
d="M85 0v518h60v-518q-40 -35 -58.5 -65.5t-18.5 -59.5q0 -43 56 -43q11 0 22 1t21 6v-52q-11 -3 -25.5 -4.5t-28.5 -1.5q-53 0 -79 23.5t-26 61.5q0 37 22 71.5t54 62.5h1zM115 730q20 0 29 -12t9 -41t-9 -41t-29 -12t-29 12t-9 41t9 41t29 12z" />
    <glyph glyph-name="Idotaccent" unicode="&#x130;" horiz-adv-x="238" 
d="M151 700v-700h-64v700h64zM120 896q20 0 29 -12t9 -41t-9 -41t-29 -12t-29 12t-9 41t9 41t29 12z" />
    <glyph glyph-name="dotlessi" unicode="&#x131;" horiz-adv-x="230" 
d="M145 0h-60v518h60v-518z" />
    <glyph glyph-name="IJ" unicode="&#x132;" horiz-adv-x="622" 
d="M147 700v-700h-64v700h64zM476 700h64v-475q0 -66 -14.5 -111t-41.5 -73t-64 -40.5t-82 -12.5q-36 0 -73 8t-66 25l6 64q30 -20 64.5 -29.5t67.5 -9.5q66 0 102.5 41t36.5 138v475z" />
    <glyph glyph-name="ij" unicode="&#x133;" horiz-adv-x="471" 
d="M141 0h-60v518h60v-518zM111 730q20 0 29 -12t9 -41t-9 -41t-29 -12t-29 12t-9 41t9 41t29 12zM391 518v-549q0 -90 -36.5 -129.5t-109.5 -39.5q-30 0 -57 9l6 54q20 -10 48 -10q46 0 67.5 27t21.5 87v551h60zM361 730q20 0 29 -12t9 -41t-9 -41t-29 -12t-29 12t-9 41
t9 41t29 12z" />
    <glyph glyph-name="Jcircumflex" unicode="&#x134;" horiz-adv-x="435" 
d="M289 700h64v-475q0 -66 -14.5 -111t-41.5 -73t-64 -40.5t-82 -12.5q-36 0 -73 8t-66 25l6 64q30 -20 64.5 -29.5t67.5 -9.5q66 0 102.5 41t36.5 138v475zM350 924l137 -166h-62l-105 120l-105 -120h-62l137 166h60z" />
    <glyph glyph-name="jcircumflex" unicode="&#x135;" horiz-adv-x="225" 
d="M146 750l137 -166h-62l-105 120l-105 -120h-62l137 166h60zM145 518v-549q0 -90 -36.5 -129.5t-109.5 -39.5q-30 0 -57 9l6 54q20 -10 48 -10q46 0 67.5 27t21.5 87v551h60z" />
    <glyph glyph-name="Kcommaaccent" unicode="&#x136;" horiz-adv-x="581" 
d="M146 700v-316l322 316h81l-328 -327l372 -373h-85l-362 360v-360h-64v700h64zM263 -100q0 26 12.5 38.5t29.5 12.5t29.5 -12.5t12.5 -38.5q0 -48 -15.5 -84t-50.5 -65l-15 15q16 19 25.5 39t12.5 44q-19 1 -30 14.5t-11 36.5z" />
    <glyph glyph-name="kcommaaccent" unicode="&#x137;" horiz-adv-x="497" 
d="M132 730v-428l256 216h83l-266 -227l285 -291h-81l-277 278v-278h-60v730h60zM222 -100q0 26 12.5 38.5t29.5 12.5t29.5 -12.5t12.5 -38.5q0 -48 -15.5 -84t-50.5 -65l-15 15q16 19 25.5 39t12.5 44q-19 1 -30 14.5t-11 36.5z" />
    <glyph glyph-name="kgreenlandic" unicode="&#x138;" horiz-adv-x="497" 
d="M201 270l289 -270h-81l-277 259v-259h-60v518h60v-238l256 238h83z" />
    <glyph glyph-name="Lacute" unicode="&#x139;" horiz-adv-x="556" 
d="M82 700h64v-644h388v-56h-452v700zM187 924h73v-8l-137 -154h-56z" />
    <glyph glyph-name="lacute" unicode="&#x13a;" horiz-adv-x="214" 
d="M77 730h60v-730h-60v730zM190 924h73v-8l-137 -154h-56z" />
    <glyph glyph-name="Lcommaaccent" unicode="&#x13b;" horiz-adv-x="556" 
d="M82 700h64v-644h388v-56h-452v700zM270 -100q0 26 12.5 38.5t29.5 12.5t29.5 -12.5t12.5 -38.5q0 -48 -15.5 -84t-50.5 -65l-15 15q16 19 25.5 39t12.5 44q-19 1 -30 14.5t-11 36.5z" />
    <glyph glyph-name="lcommaaccent" unicode="&#x13c;" horiz-adv-x="214" 
d="M77 730h60v-730h-60v730zM65 -100q0 26 12.5 38.5t29.5 12.5t29.5 -12.5t12.5 -38.5q0 -48 -15.5 -84t-50.5 -65l-15 15q16 19 25.5 39t12.5 44q-19 1 -30 14.5t-11 36.5z" />
    <glyph glyph-name="Lcaron" unicode="&#x13d;" horiz-adv-x="556" 
d="M82 700h64v-644h388v-56h-452v700zM444 686q0 -56 -13 -94.5t-51 -73.5l-18 23q33 40 36 89q-20 1 -30 13.5t-10 42.5q0 31 10.5 43.5t32.5 12.5t32.5 -12.5t10.5 -43.5z" />
    <glyph glyph-name="lcaron" unicode="&#x13e;" horiz-adv-x="294" 
d="M77 730h60v-730h-60v730zM272 686q0 -56 -13 -94.5t-51 -73.5l-18 23q33 40 36 89q-20 1 -30 13.5t-10 42.5q0 31 10.5 43.5t32.5 12.5t32.5 -12.5t10.5 -43.5z" />
    <glyph glyph-name="Ldot" unicode="&#x13f;" horiz-adv-x="556" 
d="M82 700h64v-644h388v-56h-452v700zM387 433q20 0 29 -12t9 -41t-9 -41t-29 -12t-29 12t-9 41t9 41t29 12z" />
    <glyph glyph-name="ldot" unicode="&#x140;" horiz-adv-x="352" 
d="M77 730h60v-730h-60v730zM301 433q20 0 29 -12t9 -41t-9 -41t-29 -12t-29 12t-9 41t9 41t29 12z" />
    <glyph glyph-name="Lslash" unicode="&#x141;" horiz-adv-x="571" 
d="M97 273l-74 -50l-28 45l102 68v364h64v-321l278 188l31 -43l-309 -208v-260h388v-56h-452v273z" />
    <glyph glyph-name="lslash" unicode="&#x142;" horiz-adv-x="369" 
d="M140 322l-115 -81l-30 44l145 103v342h60v-300l142 101l32 -43l-174 -123v-365h-60v322z" />
    <glyph glyph-name="Nacute" unicode="&#x143;" horiz-adv-x="700" 
d="M82 700h79l393 -616v616h64v-700h-78l-393 616v-616h-65v700zM414 924h73v-8l-137 -154h-56z" />
    <glyph glyph-name="nacute" unicode="&#x144;" horiz-adv-x="572" 
d="M284 476q-45 0 -85 -18t-67 -49v-409h-60v518h60v-50q29 28 71.5 45t88.5 17q100 0 156.5 -59t56.5 -171v-300h-60v298q0 178 -161 178zM346 750h73v-8l-137 -154h-56z" />
    <glyph glyph-name="Ncommaaccent" unicode="&#x145;" horiz-adv-x="700" 
d="M82 700h79l393 -616v616h64v-700h-78l-393 616v-616h-65v700zM313 -100q0 26 12.5 38.5t29.5 12.5t29.5 -12.5t12.5 -38.5q0 -48 -15.5 -84t-50.5 -65l-15 15q16 19 25.5 39t12.5 44q-19 1 -30 14.5t-11 36.5z" />
    <glyph glyph-name="ncommaaccent" unicode="&#x146;" horiz-adv-x="572" 
d="M284 476q-45 0 -85 -18t-67 -49v-409h-60v518h60v-50q29 28 71.5 45t88.5 17q100 0 156.5 -59t56.5 -171v-300h-60v298q0 178 -161 178zM250 -100q0 26 12.5 38.5t29.5 12.5t29.5 -12.5t12.5 -38.5q0 -48 -15.5 -84t-50.5 -65l-15 15q16 19 25.5 39t12.5 44
q-19 1 -30 14.5t-11 36.5z" />
    <glyph glyph-name="Ncaron" unicode="&#x147;" horiz-adv-x="700" 
d="M82 700h79l393 -616v616h64v-700h-78l-393 616v-616h-65v700zM320 758l-137 166h62l105 -120l105 120h62l-137 -166h-60z" />
    <glyph glyph-name="ncaron" unicode="&#x148;" horiz-adv-x="572" 
d="M284 476q-45 0 -85 -18t-67 -49v-409h-60v518h60v-50q29 28 71.5 45t88.5 17q100 0 156.5 -59t56.5 -171v-300h-60v298q0 178 -161 178zM257 584l-137 166h62l105 -120l105 120h62l-137 -166h-60z" />
    <glyph glyph-name="napostrophe" unicode="&#x149;" horiz-adv-x="619" 
d="M331 476q-45 0 -85 -18t-67 -49v-409h-60v518h60v-50q29 28 71.5 45t88.5 17q100 0 156.5 -59t56.5 -171v-300h-60v298q0 178 -161 178zM109 686q0 -56 -13 -94.5t-51 -73.5l-18 23q33 40 36 89q-20 1 -30 13.5t-10 42.5q0 31 10.5 43.5t32.5 12.5t32.5 -12.5t10.5 -43.5
z" />
    <glyph glyph-name="Eng" unicode="&#x14a;" horiz-adv-x="700" 
d="M82 700h79l393 -616v616h64v-712q0 -53 -9.5 -89t-28 -58t-46.5 -31.5t-65 -9.5q-16 0 -33 2.5t-30 7.5l7 58q15 -5 31.5 -7.5t30.5 -2.5q41 0 60.5 26.5t19.5 96.5l-15 19l-393 616v-616h-65v700z" />
    <glyph glyph-name="eng" unicode="&#x14b;" horiz-adv-x="572" 
d="M284 476q-45 0 -85 -18t-67 -49v-409h-60v518h60v-50q29 28 71.5 45t88.5 17q100 0 156.5 -59t56.5 -171v-313q0 -102 -35 -144.5t-106 -42.5q-19 0 -37 2.5t-33 7.5l5 55q14 -5 30.5 -8t33.5 -3q42 0 62 28.5t20 97.5v318q0 178 -161 178z" />
    <glyph glyph-name="Omacron" unicode="&#x14c;" horiz-adv-x="706" 
d="M659 350q0 -77 -20.5 -143t-60 -115t-96.5 -76.5t-129 -27.5t-129 27.5t-96.5 76.5t-60 115t-20.5 143t20.5 143t60 115t96.5 76.5t129 27.5t129 -27.5t96.5 -76.5t60 -115t20.5 -143zM593 350q0 68 -16.5 124t-47.5 96t-75.5 62t-100.5 22t-100.5 -22t-75.5 -62
t-47.5 -96t-16.5 -124t16.5 -124t47.5 -96t75.5 -62t100.5 -22t100.5 22t75.5 62t47.5 96t16.5 124zM211 866h284v-52h-284v52z" />
    <glyph glyph-name="omacron" unicode="&#x14d;" horiz-adv-x="576" 
d="M42 259q0 59 18 108.5t50.5 85.5t77.5 56.5t100 20.5t100 -20.5t77.5 -56.5t50.5 -85.5t18 -108.5t-18 -108.5t-50.5 -85.5t-77.5 -56.5t-100 -20.5t-100 20.5t-77.5 56.5t-50.5 85.5t-18 108.5zM104 259q0 -50 13.5 -90t38 -68t58.5 -43.5t74 -15.5t74 15.5t58.5 43.5
t38 68t13.5 90q0 49 -13.5 89.5t-38 68.5t-58.5 43.5t-74 15.5t-74 -15.5t-58.5 -43.5t-38 -68.5t-13.5 -89.5zM146 692h284v-52h-284v52z" />
    <glyph glyph-name="Obreve" unicode="&#x14e;" horiz-adv-x="706" 
d="M659 350q0 -77 -20.5 -143t-60 -115t-96.5 -76.5t-129 -27.5t-129 27.5t-96.5 76.5t-60 115t-20.5 143t20.5 143t60 115t96.5 76.5t129 27.5t129 -27.5t96.5 -76.5t60 -115t20.5 -143zM593 350q0 68 -16.5 124t-47.5 96t-75.5 62t-100.5 22t-100.5 -22t-75.5 -62
t-47.5 -96t-16.5 -124t16.5 -124t47.5 -96t75.5 -62t100.5 -22t100.5 22t75.5 62t47.5 96t16.5 124zM353 762q-32 0 -60 9.5t-49.5 29t-34.5 49t-14 69.5h56q2 -54 30 -81t72 -27t72 27t30 81h56q-1 -40 -14 -69.5t-34.5 -49t-49.5 -29t-60 -9.5z" />
    <glyph glyph-name="obreve" unicode="&#x14f;" horiz-adv-x="576" 
d="M42 259q0 59 18 108.5t50.5 85.5t77.5 56.5t100 20.5t100 -20.5t77.5 -56.5t50.5 -85.5t18 -108.5t-18 -108.5t-50.5 -85.5t-77.5 -56.5t-100 -20.5t-100 20.5t-77.5 56.5t-50.5 85.5t-18 108.5zM104 259q0 -50 13.5 -90t38 -68t58.5 -43.5t74 -15.5t74 15.5t58.5 43.5
t38 68t13.5 90q0 49 -13.5 89.5t-38 68.5t-58.5 43.5t-74 15.5t-74 -15.5t-58.5 -43.5t-38 -68.5t-13.5 -89.5zM288 588q-32 0 -60 9.5t-49.5 29t-34.5 49t-14 69.5h56q2 -54 30 -81t72 -27t72 27t30 81h56q-1 -40 -14 -69.5t-34.5 -49t-49.5 -29t-60 -9.5z" />
    <glyph glyph-name="Ohungarumlaut" unicode="&#x150;" horiz-adv-x="706" 
d="M659 350q0 -77 -20.5 -143t-60 -115t-96.5 -76.5t-129 -27.5t-129 27.5t-96.5 76.5t-60 115t-20.5 143t20.5 143t60 115t96.5 76.5t129 27.5t129 -27.5t96.5 -76.5t60 -115t20.5 -143zM593 350q0 68 -16.5 124t-47.5 96t-75.5 62t-100.5 22t-100.5 -22t-75.5 -62
t-47.5 -96t-16.5 -124t16.5 -124t47.5 -96t75.5 -62t100.5 -22t100.5 22t75.5 62t47.5 96t16.5 124zM351 924h73v-8l-137 -154h-56zM493 924h73v-8l-137 -154h-56z" />
    <glyph glyph-name="ohungarumlaut" unicode="&#x151;" horiz-adv-x="576" 
d="M42 259q0 59 18 108.5t50.5 85.5t77.5 56.5t100 20.5t100 -20.5t77.5 -56.5t50.5 -85.5t18 -108.5t-18 -108.5t-50.5 -85.5t-77.5 -56.5t-100 -20.5t-100 20.5t-77.5 56.5t-50.5 85.5t-18 108.5zM104 259q0 -50 13.5 -90t38 -68t58.5 -43.5t74 -15.5t74 15.5t58.5 43.5
t38 68t13.5 90q0 49 -13.5 89.5t-38 68.5t-58.5 43.5t-74 15.5t-74 -15.5t-58.5 -43.5t-38 -68.5t-13.5 -89.5zM299 750h73v-8l-137 -154h-56zM441 750h73v-8l-137 -154h-56z" />
    <glyph glyph-name="OE" unicode="&#x152;" horiz-adv-x="831" 
d="M47 352q0 80 24.5 145.5t71 111.5t113 71t151.5 25h374v-56h-310v-259h285v-56h-285v-278h318v-56h-381q-85 0 -152 25t-113.5 70.5t-71 110.5t-24.5 146zM113 352q0 -70 20.5 -123.5t59 -90.5t92.5 -57.5t122 -24.5v592q-68 -3 -122.5 -23t-92.5 -57.5t-58.5 -91.5
t-20.5 -124z" />
    <glyph glyph-name="oe" unicode="&#x153;" horiz-adv-x="905" 
d="M42 259q0 60 15.5 110t45 85.5t71 55.5t94.5 20q69 0 120.5 -38.5t74.5 -104.5q23 67 69 105t117 38q53 0 94 -19.5t68.5 -54.5t42 -84t14.5 -108v-13t-1 -16h-372q3 -42 16 -77.5t36 -61t56.5 -40t77.5 -14.5q35 0 71 9t64 31l7 -57q-29 -19 -65.5 -28t-78.5 -9
q-83 0 -138 40.5t-78 106.5q-21 -69 -72.5 -108t-122.5 -39q-53 0 -94.5 20t-71 55.5t-45 85.5t-15.5 110zM805 288q-2 85 -42.5 137t-113.5 52q-72 0 -111.5 -50.5t-42.5 -138.5h310zM106 259q0 -101 43 -159.5t119 -58.5q77 0 119.5 58.5t42.5 159.5t-42.5 159.5
t-119.5 58.5q-76 0 -119 -58.5t-43 -159.5z" />
    <glyph glyph-name="Racute" unicode="&#x154;" horiz-adv-x="600" 
d="M548 500q0 -75 -43 -121t-118 -65l201 -314h-72l-191 303q-13 -1 -25.5 -1.5t-25.5 -0.5h-128v-301h-64v700h211q57 0 104 -13.5t80.5 -39t52 -63t18.5 -84.5zM482 500q0 69 -50 106.5t-144 37.5h-142v-287h142q94 0 144 37.5t50 105.5zM343 924h73v-8l-137 -154h-56z
" />
    <glyph glyph-name="racute" unicode="&#x155;" horiz-adv-x="360" 
d="M286 476q-51 0 -89.5 -27t-64.5 -79v-370h-60v518h60v-75q24 38 65.5 62.5t93.5 24.5q17 0 33.5 -2t28.5 -7l-7 -57q-24 12 -60 12zM239 750h73v-8l-137 -154h-56z" />
    <glyph glyph-name="Rcommaaccent" unicode="&#x156;" horiz-adv-x="600" 
d="M548 500q0 -75 -43 -121t-118 -65l201 -314h-72l-191 303q-13 -1 -25.5 -1.5t-25.5 -0.5h-128v-301h-64v700h211q57 0 104 -13.5t80.5 -39t52 -63t18.5 -84.5zM482 500q0 69 -50 106.5t-144 37.5h-142v-287h142q94 0 144 37.5t50 105.5zM270 -100q0 26 12.5 38.5
t29.5 12.5t29.5 -12.5t12.5 -38.5q0 -48 -15.5 -84t-50.5 -65l-15 15q16 19 25.5 39t12.5 44q-19 1 -30 14.5t-11 36.5z" />
    <glyph glyph-name="rcommaaccent" unicode="&#x157;" horiz-adv-x="360" 
d="M286 476q-51 0 -89.5 -27t-64.5 -79v-370h-60v518h60v-75q24 38 65.5 62.5t93.5 24.5q17 0 33.5 -2t28.5 -7l-7 -57q-24 12 -60 12zM62 -100q0 26 12.5 38.5t29.5 12.5t29.5 -12.5t12.5 -38.5q0 -48 -15.5 -84t-50.5 -65l-15 15q16 19 25.5 39t12.5 44q-19 1 -30 14.5
t-11 36.5z" />
    <glyph glyph-name="Rcaron" unicode="&#x158;" horiz-adv-x="600" 
d="M548 500q0 -75 -43 -121t-118 -65l201 -314h-72l-191 303q-13 -1 -25.5 -1.5t-25.5 -0.5h-128v-301h-64v700h211q57 0 104 -13.5t80.5 -39t52 -63t18.5 -84.5zM482 500q0 69 -50 106.5t-144 37.5h-142v-287h142q94 0 144 37.5t50 105.5zM239 758l-137 166h62l105 -120
l105 120h62l-137 -166h-60z" />
    <glyph glyph-name="rcaron" unicode="&#x159;" horiz-adv-x="373" 
d="M289 476q-51 0 -89.5 -27t-64.5 -79v-370h-60v518h60v-75q24 38 65.5 62.5t93.5 24.5q17 0 33.5 -2t28.5 -7l-7 -57q-24 12 -60 12zM179 584l-137 166h62l105 -120l105 120h62l-137 -166h-60z" />
    <glyph glyph-name="Sacute" unicode="&#x15a;" horiz-adv-x="536" 
d="M442 621q-37 18 -74.5 25.5t-80.5 7.5q-82 0 -125.5 -31t-43.5 -82q0 -49 35.5 -84t118.5 -63q57 -19 98 -40t67.5 -46.5t39 -57.5t12.5 -72q0 -88 -63.5 -139t-180.5 -51q-50 0 -99 12t-87 34l5 67q42 -27 89 -41t95 -14q88 0 131.5 35t43.5 95q0 28 -9 50.5t-29.5 42
t-53.5 36t-81 31.5q-103 33 -150.5 80t-47.5 124q0 39 17 71t47.5 54.5t74 34.5t97.5 12q48 0 86 -6.5t73 -20.5zM339 924h73v-8l-137 -154h-56z" />
    <glyph glyph-name="sacute" unicode="&#x15b;" horiz-adv-x="457" 
d="M212 -12q-43 0 -87 11t-78 33l5 64q35 -27 77.5 -40.5t81.5 -13.5q66 0 101.5 24.5t35.5 67.5q0 37 -31 62.5t-105 45.5q-83 21 -122.5 59t-39.5 94q0 32 13.5 57t38 42.5t58 26.5t74.5 9q39 0 76.5 -8t69.5 -22l-6 -61q-32 20 -67.5 28.5t-73.5 8.5q-58 0 -89.5 -21.5
t-31.5 -57.5q0 -35 29.5 -60.5t98.5 -44.5q96 -26 133 -65t37 -91q0 -72 -53 -110t-145 -38zM294 750h73v-8l-137 -154h-56z" />
    <glyph glyph-name="Scircumflex" unicode="&#x15c;" horiz-adv-x="536" 
d="M442 621q-37 18 -74.5 25.5t-80.5 7.5q-82 0 -125.5 -31t-43.5 -82q0 -49 35.5 -84t118.5 -63q57 -19 98 -40t67.5 -46.5t39 -57.5t12.5 -72q0 -88 -63.5 -139t-180.5 -51q-50 0 -99 12t-87 34l5 67q42 -27 89 -41t95 -14q88 0 131.5 35t43.5 95q0 28 -9 50.5t-29.5 42
t-53.5 36t-81 31.5q-103 33 -150.5 80t-47.5 124q0 39 17 71t47.5 54.5t74 34.5t97.5 12q48 0 86 -6.5t73 -20.5zM298 924l137 -166h-62l-105 120l-105 -120h-62l137 166h60z" />
    <glyph glyph-name="scircumflex" unicode="&#x15d;" horiz-adv-x="457" 
d="M212 -12q-43 0 -87 11t-78 33l5 64q35 -27 77.5 -40.5t81.5 -13.5q66 0 101.5 24.5t35.5 67.5q0 37 -31 62.5t-105 45.5q-83 21 -122.5 59t-39.5 94q0 32 13.5 57t38 42.5t58 26.5t74.5 9q39 0 76.5 -8t69.5 -22l-6 -61q-32 20 -67.5 28.5t-73.5 8.5q-58 0 -89.5 -21.5
t-31.5 -57.5q0 -35 29.5 -60.5t98.5 -44.5q96 -26 133 -65t37 -91q0 -72 -53 -110t-145 -38zM250 750l137 -166h-62l-105 120l-105 -120h-62l137 166h60z" />
    <glyph glyph-name="Scedilla" unicode="&#x15e;" horiz-adv-x="536" 
d="M190 -186q11 -5 24.5 -7t27.5 -2q34 0 52 13t18 36q0 24 -25.5 41t-76.5 19l41 74h-6q-50 0 -99 12t-87 34l5 67q42 -27 89 -41t95 -14q88 0 131.5 35t43.5 95q0 28 -9 50.5t-29.5 42t-53.5 36t-81 31.5q-103 33 -150.5 80t-47.5 124q0 39 17 71t47.5 54.5t74 34.5
t97.5 12q48 0 86 -6.5t73 -20.5l-5 -64q-37 18 -74.5 25.5t-80.5 7.5q-82 0 -125.5 -31t-43.5 -82q0 -49 35.5 -84t118.5 -63q57 -19 98 -40t67.5 -46.5t39 -57.5t12.5 -72q0 -75 -46 -123t-132 -62l-31 -56q41 -8 64 -31t23 -53q0 -42 -29.5 -66.5t-93.5 -24.5
q-14 0 -27.5 1.5t-26.5 5.5v45z" />
    <glyph glyph-name="scedilla" unicode="&#x15f;" horiz-adv-x="457" 
d="M212 -12q-43 0 -87 11t-78 33l5 64q35 -27 77.5 -40.5t81.5 -13.5q66 0 101.5 24.5t35.5 67.5q0 37 -31 62.5t-105 45.5q-83 21 -122.5 59t-39.5 94q0 32 13.5 57t38 42.5t58 26.5t74.5 9q39 0 76.5 -8t69.5 -22l-6 -61q-32 20 -67.5 28.5t-73.5 8.5q-58 0 -89.5 -21.5
t-31.5 -57.5q0 -35 29.5 -60.5t98.5 -44.5q96 -26 133 -65t37 -91q0 -59 -35.5 -95t-98.5 -47l-31 -57q41 -8 64 -31t23 -53q0 -42 -29.5 -66.5t-93.5 -24.5q-14 0 -27.5 1.5t-26.5 5.5v45q11 -5 24.5 -7t27.5 -2q34 0 52 13t18 36q0 24 -25.5 41t-76.5 19l41 74h-4z" />
    <glyph glyph-name="Scaron" unicode="&#x160;" horiz-adv-x="536" 
d="M442 621q-37 18 -74.5 25.5t-80.5 7.5q-82 0 -125.5 -31t-43.5 -82q0 -49 35.5 -84t118.5 -63q57 -19 98 -40t67.5 -46.5t39 -57.5t12.5 -72q0 -88 -63.5 -139t-180.5 -51q-50 0 -99 12t-87 34l5 67q42 -27 89 -41t95 -14q88 0 131.5 35t43.5 95q0 28 -9 50.5t-29.5 42
t-53.5 36t-81 31.5q-103 33 -150.5 80t-47.5 124q0 39 17 71t47.5 54.5t74 34.5t97.5 12q48 0 86 -6.5t73 -20.5zM238 758l-137 166h62l105 -120l105 120h62l-137 -166h-60z" />
    <glyph glyph-name="scaron" unicode="&#x161;" horiz-adv-x="457" 
d="M212 -12q-43 0 -87 11t-78 33l5 64q35 -27 77.5 -40.5t81.5 -13.5q66 0 101.5 24.5t35.5 67.5q0 37 -31 62.5t-105 45.5q-83 21 -122.5 59t-39.5 94q0 32 13.5 57t38 42.5t58 26.5t74.5 9q39 0 76.5 -8t69.5 -22l-6 -61q-32 20 -67.5 28.5t-73.5 8.5q-58 0 -89.5 -21.5
t-31.5 -57.5q0 -35 29.5 -60.5t98.5 -44.5q96 -26 133 -65t37 -91q0 -72 -53 -110t-145 -38zM190 584l-137 166h62l105 -120l105 120h62l-137 -166h-60z" />
    <glyph glyph-name="Tcommaaccent" unicode="&#x162;" horiz-adv-x="534" 
d="M235 644h-223v56h510v-56h-223v-644l-35 -63q41 -8 64 -31t23 -53q0 -42 -29.5 -66.5t-93.5 -24.5q-14 0 -27.5 1.5t-26.5 5.5v45q11 -5 24.5 -7t27.5 -2q34 0 52 13t18 36q0 24 -25.5 41t-76.5 19l48 86h-7v644z" />
    <glyph glyph-name="tcommaaccent" unicode="&#x163;" horiz-adv-x="367" 
d="M146 -186q11 -5 24.5 -7t27.5 -2q34 0 52 13t18 36q0 24 -25.5 41t-76.5 19l45 81q-50 13 -73.5 53.5t-23.5 112.5v305h-97v52h97v155h60v-155h166v-52h-166v-288q0 -75 22.5 -105.5t75.5 -30.5q15 0 29 2t28 6l8 -55q-32 -7 -69 -7h-4l-28 -51q41 -8 64 -31t23 -53
q0 -42 -29.5 -66.5t-93.5 -24.5q-14 0 -27.5 1.5t-26.5 5.5v45z" />
    <glyph glyph-name="Tcaron" unicode="&#x164;" horiz-adv-x="534" 
d="M235 644h-223v56h510v-56h-223v-644h-64v644zM237 758l-137 166h62l105 -120l105 120h62l-137 -166h-60z" />
    <glyph glyph-name="tcaron" unicode="&#x165;" horiz-adv-x="447" 
d="M17 518h97v155h60v-155h166v-52h-166v-288q0 -75 22.5 -105.5t75.5 -30.5q15 0 29 2t28 6l8 -55q-32 -7 -69 -7q-78 0 -116 41t-38 132v305h-97v52zM425 686q0 -56 -13 -94.5t-51 -73.5l-18 23q33 40 36 89q-20 1 -30 13.5t-10 42.5q0 31 10.5 43.5t32.5 12.5t32.5 -12.5
t10.5 -43.5z" />
    <glyph glyph-name="Tbar" unicode="&#x166;" horiz-adv-x="534" 
d="M235 323h-163v52h163v269h-223v56h510v-56h-223v-269h164v-52h-164v-323h-64v323z" />
    <glyph glyph-name="tbar" unicode="&#x167;" horiz-adv-x="367" 
d="M320 273h-146v-95q0 -75 22.5 -105.5t75.5 -30.5q15 0 29 2t28 6l8 -55q-32 -7 -69 -7q-78 0 -116 41t-38 132v112h-79v52h79v141h-97v52h97v155h60v-155h166v-52h-166v-141h146v-52z" />
    <glyph glyph-name="Utilde" unicode="&#x168;" horiz-adv-x="708" 
d="M354 -12q-60 0 -110 18.5t-86 54t-56 88t-20 121.5v430h64v-424q0 -117 54.5 -173.5t153.5 -56.5t153.5 56.5t54.5 173.5v424h64v-430q0 -69 -20 -121.5t-56 -88t-86 -54t-110 -18.5zM511 907q0 -38 -6.5 -64.5t-18 -42.5t-27.5 -23t-35 -7q-26 0 -44.5 13.5t-34 29.5
l-28.5 29.5t-26 13.5q-15 0 -28 -17.5t-13 -66.5h-55q0 38 6.5 64.5t18.5 42.5t28 23t35 7q25 0 44 -13.5t34 -29.5l28 -29.5t27 -13.5q15 0 27.5 17.5t12.5 66.5h55z" />
    <glyph glyph-name="utilde" unicode="&#x169;" horiz-adv-x="572" 
d="M288 42q45 0 85 18t67 49v409h60v-518h-60v50q-29 -28 -71.5 -45t-88.5 -17q-100 0 -156.5 59t-56.5 171v300h60v-298q0 -178 161 -178zM447 733q0 -38 -6.5 -64.5t-18 -42.5t-27.5 -23t-35 -7q-26 0 -44.5 13.5t-34 29.5l-28.5 29.5t-26 13.5q-15 0 -28 -17.5t-13 -66.5
h-55q0 38 6.5 64.5t18.5 42.5t28 23t35 7q25 0 44 -13.5t34 -29.5l28 -29.5t27 -13.5q15 0 27.5 17.5t12.5 66.5h55z" />
    <glyph glyph-name="Umacron" unicode="&#x16a;" horiz-adv-x="708" 
d="M354 -12q-60 0 -110 18.5t-86 54t-56 88t-20 121.5v430h64v-424q0 -117 54.5 -173.5t153.5 -56.5t153.5 56.5t54.5 173.5v424h64v-430q0 -69 -20 -121.5t-56 -88t-86 -54t-110 -18.5zM212 866h284v-52h-284v52z" />
    <glyph glyph-name="umacron" unicode="&#x16b;" horiz-adv-x="572" 
d="M288 42q45 0 85 18t67 49v409h60v-518h-60v50q-29 -28 -71.5 -45t-88.5 -17q-100 0 -156.5 59t-56.5 171v300h60v-298q0 -178 161 -178zM143 692h284v-52h-284v52z" />
    <glyph glyph-name="Ubreve" unicode="&#x16c;" horiz-adv-x="708" 
d="M354 -12q-60 0 -110 18.5t-86 54t-56 88t-20 121.5v430h64v-424q0 -117 54.5 -173.5t153.5 -56.5t153.5 56.5t54.5 173.5v424h64v-430q0 -69 -20 -121.5t-56 -88t-86 -54t-110 -18.5zM354 762q-32 0 -60 9.5t-49.5 29t-34.5 49t-14 69.5h56q2 -54 30 -81t72 -27t72 27
t30 81h56q-1 -40 -14 -69.5t-34.5 -49t-49.5 -29t-60 -9.5z" />
    <glyph glyph-name="ubreve" unicode="&#x16d;" horiz-adv-x="572" 
d="M288 42q45 0 85 18t67 49v409h60v-518h-60v50q-29 -28 -71.5 -45t-88.5 -17q-100 0 -156.5 59t-56.5 171v300h60v-298q0 -178 161 -178zM283 588q-32 0 -60 9.5t-49.5 29t-34.5 49t-14 69.5h56q2 -54 30 -81t72 -27t72 27t30 81h56q-1 -40 -14 -69.5t-34.5 -49t-49.5 -29
t-60 -9.5z" />
    <glyph glyph-name="Uring" unicode="&#x16e;" horiz-adv-x="708" 
d="M354 -12q-60 0 -110 18.5t-86 54t-56 88t-20 121.5v430h64v-424q0 -117 54.5 -173.5t153.5 -56.5t153.5 56.5t54.5 173.5v424h64v-430q0 -69 -20 -121.5t-56 -88t-86 -54t-110 -18.5zM354 947q45 0 74.5 -29.5t29.5 -73.5t-29.5 -73.5t-74.5 -29.5t-74.5 29.5t-29.5 73.5
t29.5 73.5t74.5 29.5zM354 786q26 0 41.5 17.5t15.5 40.5t-15.5 40.5t-41.5 17.5t-41.5 -17.5t-15.5 -40.5t15.5 -40.5t41.5 -17.5z" />
    <glyph glyph-name="uring" unicode="&#x16f;" horiz-adv-x="572" 
d="M288 42q45 0 85 18t67 49v409h60v-518h-60v50q-29 -28 -71.5 -45t-88.5 -17q-100 0 -156.5 59t-56.5 171v300h60v-298q0 -178 161 -178zM287 772q45 0 74.5 -29.5t29.5 -73.5t-29.5 -73.5t-74.5 -29.5t-74.5 29.5t-29.5 73.5t29.5 73.5t74.5 29.5zM287 611
q26 0 41.5 17.5t15.5 40.5t-15.5 40.5t-41.5 17.5t-41.5 -17.5t-15.5 -40.5t15.5 -40.5t41.5 -17.5z" />
    <glyph glyph-name="Uhungarumlaut" unicode="&#x170;" horiz-adv-x="708" 
d="M354 -12q-60 0 -110 18.5t-86 54t-56 88t-20 121.5v430h64v-424q0 -117 54.5 -173.5t153.5 -56.5t153.5 56.5t54.5 173.5v424h64v-430q0 -69 -20 -121.5t-56 -88t-86 -54t-110 -18.5zM350 924h73v-8l-137 -154h-56zM492 924h73v-8l-137 -154h-56z" />
    <glyph glyph-name="uhungarumlaut" unicode="&#x171;" horiz-adv-x="572" 
d="M288 42q45 0 85 18t67 49v409h60v-518h-60v50q-29 -28 -71.5 -45t-88.5 -17q-100 0 -156.5 59t-56.5 171v300h60v-298q0 -178 161 -178zM285 750h73v-8l-137 -154h-56zM427 750h73v-8l-137 -154h-56z" />
    <glyph glyph-name="Uogonek" unicode="&#x172;" horiz-adv-x="708" 
d="M626 270q0 -61 -16 -109t-45 -83t-69 -57t-89 -29q-35 -32 -51.5 -61t-16.5 -56q0 -43 56 -43q11 0 22 1t21 6v-52q-11 -3 -25.5 -4.5t-28.5 -1.5q-53 0 -79 23.5t-26 61.5q0 33 17.5 64.5t45.5 57.5q-57 2 -105 21t-82.5 54.5t-53.5 87.5t-19 119v430h64v-424
q0 -117 54.5 -173.5t153.5 -56.5t153.5 56.5t54.5 173.5v424h64v-430z" />
    <glyph glyph-name="uogonek" unicode="&#x173;" horiz-adv-x="572" 
d="M440 0v50q-29 -28 -71.5 -45t-88.5 -17q-100 0 -156.5 59t-56.5 171v300h60v-298q0 -178 161 -178q45 0 85 18t67 49v409h60v-518q-40 -35 -58.5 -65.5t-18.5 -59.5q0 -43 56 -43q11 0 22 1t21 6v-52q-11 -3 -25.5 -4.5t-28.5 -1.5q-53 0 -79 23.5t-26 61.5q0 37 22 71.5
t54 62.5h1z" />
    <glyph glyph-name="Wcircumflex" unicode="&#x174;" horiz-adv-x="986" 
d="M530 700l167 -613l199 613h68l-230 -700h-74l-167 607l-167 -607h-74l-230 700h68l199 -613l167 613h74zM523 924l137 -166h-62l-105 120l-105 -120h-62l137 166h60z" />
    <glyph glyph-name="wcircumflex" unicode="&#x175;" horiz-adv-x="780" 
d="M420 518l134 -432l141 432h68l-178 -518h-61l-134 422l-134 -422h-61l-178 518h68l141 -432l134 432h60zM420 750l137 -166h-62l-105 120l-105 -120h-62l137 166h60z" />
    <glyph glyph-name="Ycircumflex" unicode="&#x176;" horiz-adv-x="654" 
d="M327 339l233 361h72l-273 -422v-278h-64v278l-273 422h72zM357 924l137 -166h-62l-105 120l-105 -120h-62l137 166h60z" />
    <glyph glyph-name="ycircumflex" unicode="&#x177;" horiz-adv-x="526" 
d="M441 518h68l-285 -711h-66l77 193l-218 518h68l182 -443zM294 750l137 -166h-62l-105 120l-105 -120h-62l137 166h60z" />
    <glyph glyph-name="Ydieresis" unicode="&#x178;" horiz-adv-x="654" 
d="M327 339l233 361h72l-273 -422v-278h-64v278l-273 422h72zM428 896q20 0 29 -12t9 -41t-9 -41t-29 -12t-29 12t-9 41t9 41t29 12zM226 896q20 0 29 -12t9 -41t-9 -41t-29 -12t-29 12t-9 41t9 41t29 12z" />
    <glyph glyph-name="Zacute" unicode="&#x179;" horiz-adv-x="557" 
d="M441 644h-394v56h468v-62l-410 -582h420v-56h-493v62zM341 924h73v-8l-137 -154h-56z" />
    <glyph glyph-name="zacute" unicode="&#x17a;" horiz-adv-x="463" 
d="M27 58l327 408h-313v52h385v-57l-327 -409h337v-52h-409v58zM294 750h73v-8l-137 -154h-56z" />
    <glyph glyph-name="Zdotaccent" unicode="&#x17b;" horiz-adv-x="557" 
d="M441 644h-394v56h468v-62l-410 -582h420v-56h-493v62zM275 896q20 0 29 -12t9 -41t-9 -41t-29 -12t-29 12t-9 41t9 41t29 12z" />
    <glyph glyph-name="zdotaccent" unicode="&#x17c;" horiz-adv-x="463" 
d="M27 58l327 408h-313v52h385v-57l-327 -409h337v-52h-409v58zM227 722q20 0 29 -12t9 -41t-9 -41t-29 -12t-29 12t-9 41t9 41t29 12z" />
    <glyph glyph-name="Zcaron" unicode="&#x17d;" horiz-adv-x="557" 
d="M441 644h-394v56h468v-62l-410 -582h420v-56h-493v62zM248 758l-137 166h62l105 -120l105 120h62l-137 -166h-60z" />
    <glyph glyph-name="zcaron" unicode="&#x17e;" horiz-adv-x="463" 
d="M27 58l327 408h-313v52h385v-57l-327 -409h337v-52h-409v58zM201 584l-137 166h62l105 -120l105 120h62l-137 -166h-60z" />
    <glyph glyph-name="longs" unicode="&#x17f;" horiz-adv-x="340" 
d="M122 551q0 90 40 134.5t113 44.5q42 0 72 -9l-7 -55q-13 5 -29 7.5t-32 2.5q-51 0 -74 -30.5t-23 -103.5v-542h-60v466h-110v52h110v33z" />
    <glyph glyph-name="uni0191" unicode="&#x191;" horiz-adv-x="530" 
d="M82 700h424v-56h-360v-252h335v-56h-335v-357q0 -91 -41.5 -135t-112.5 -44q-41 0 -71 9l7 59q24 -10 59 -10q47 0 71 29t24 101v712z" />
    <glyph glyph-name="florin" unicode="&#x192;" horiz-adv-x="340" 
d="M182 -21q0 -87 -39.5 -133t-114.5 -46q-41 0 -71 9l7 55q13 -5 29 -7.5t32 -2.5q51 0 74 30.5t23 103.5v478h-110v52h110v33q0 87 39.5 133t114.5 46q41 0 71 -9l-7 -55q-13 5 -29 7.5t-32 2.5q-51 0 -74 -30.5t-23 -103.5v-24h151v-52h-151v-487z" />
    <glyph glyph-name="Aringacute" unicode="&#x1fa;" horiz-adv-x="640" 
d="M320 843q45 0 74.5 -29.5t29.5 -73.5q0 -29 -13 -51.5t-36 -36.5l258 -652h-70l-74 191h-338l-74 -191h-70l258 652q-23 14 -36 36.5t-13 51.5q0 44 29.5 73.5t74.5 29.5zM173 247h294l-147 382zM320 682q26 0 41.5 17.5t15.5 40.5t-15.5 40.5t-41.5 17.5t-41.5 -17.5
t-15.5 -40.5t15.5 -40.5t41.5 -17.5zM359 980h73v-8l-90 -102h-56z" />
    <glyph glyph-name="aringacute" unicode="&#x1fb;" horiz-adv-x="533" 
d="M308 908h73v-8l-90 -102h-56zM269 771q45 0 74.5 -29.5t29.5 -73.5t-29.5 -73.5t-74.5 -29.5t-74.5 29.5t-29.5 73.5t29.5 73.5t74.5 29.5zM269 610q26 0 41.5 17.5t15.5 40.5t-15.5 40.5t-41.5 17.5t-41.5 -17.5t-15.5 -40.5t15.5 -40.5t41.5 -17.5zM227 -12
q-39 0 -74 10t-60.5 30t-40.5 50t-15 69q0 78 57 123t166 45h146v34q0 72 -34.5 99.5t-111.5 27.5q-48 0 -90.5 -10.5t-79.5 -29.5l-7 56q35 17 81.5 27.5t97.5 10.5q103 0 153.5 -41.5t50.5 -146.5v-342h-60v62q-29 -35 -74.5 -54.5t-104.5 -19.5zM232 42q57 0 101 18.5
t73 60.5v142h-145q-84 0 -123 -31.5t-39 -82.5q0 -55 37.5 -81t95.5 -26z" />
    <glyph glyph-name="AEacute" unicode="&#x1fc;" horiz-adv-x="842" 
d="M183 193l-101 -193h-75l370 700h414v-56h-309v-254h284v-56h-284v-278h318v-56h-382v193h-235zM212 249h206v394zM627 924h73v-8l-137 -154h-56z" />
    <glyph glyph-name="aeacute" unicode="&#x1fd;" horiz-adv-x="850" 
d="M215 46q28 0 55.5 8t50 26t38.5 48t21 74v65h-125q-82 0 -119 -29t-37 -84q0 -28 9.5 -48t25.5 -33.5t37 -20t44 -6.5zM622 -8q-78 0 -132.5 38t-77.5 100q-20 -62 -70 -100t-126 -38q-37 0 -69.5 10t-57 30t-38.5 50t-14 70q0 81 53.5 124t161.5 43h129v24
q0 69 -36.5 103t-105.5 34q-38 0 -77 -9t-73 -27l-7 54q35 17 76.5 26.5t83.5 9.5q72 0 119.5 -31t56.5 -91q21 60 68 91t107 31q54 0 95 -19.5t68.5 -54.5t42 -84t14.5 -108v-13t-1 -16h-372q3 -42 16 -77.5t36 -61t56.5 -40t77.5 -14.5q35 0 71 9t64 31l7 -57
q-29 -19 -66.5 -28t-79.5 -9zM750 292q-2 85 -42.5 137t-113.5 52q-72 0 -111.5 -50.5t-42.5 -138.5h310zM490 750h73v-8l-137 -154h-56z" />
    <glyph glyph-name="Oslashacute" unicode="&#x1fe;" horiz-adv-x="706" 
d="M659 350q0 -77 -20.5 -143t-60 -115t-96.5 -76.5t-129 -27.5q-84 0 -147 37l-71 -125h-62l89 156q-56 49 -85.5 125t-29.5 169q0 77 20.5 143t60 115t96.5 76.5t129 27.5q45 0 84.5 -11.5t72.5 -32.5l75 132h62l-94 -165q51 -49 78.5 -122.5t27.5 -162.5zM113 350
q0 -77 21 -137.5t59 -101.5l287 505q-53 38 -127 38q-56 0 -100.5 -22t-75.5 -62t-47.5 -96t-16.5 -124zM593 350q0 72 -18.5 130t-53.5 99l-285 -502q51 -31 117 -31q56 0 100.5 22t75.5 62t47.5 96t16.5 124zM412 924h73v-8l-137 -154h-56z" />
    <glyph glyph-name="oslashacute" unicode="&#x1ff;" horiz-adv-x="576" 
d="M42 259q0 59 18 108.5t50.5 85.5t77.5 56.5t100 20.5q31 0 59 -7t52 -19l72 124h61l-89 -154q43 -36 67 -91t24 -124q0 -59 -18 -108.5t-50.5 -85.5t-77.5 -56.5t-100 -20.5q-61 0 -111 25l-71 -123h-61l88 152q-43 36 -67 92t-24 125zM104 259q0 -53 15.5 -94.5
t42.5 -70.5l209 362q-37 20 -83 20q-40 0 -74 -15.5t-58.5 -43.5t-38 -68.5t-13.5 -89.5zM472 259q0 53 -15.5 94t-42.5 70l-209 -361q37 -20 83 -20q40 0 74 15.5t58.5 43.5t38 68t13.5 90zM347 750h73v-8l-137 -154h-56z" />
    <glyph glyph-name="Scommaaccent" unicode="&#x218;" horiz-adv-x="536" 
d="M442 621q-37 18 -74.5 25.5t-80.5 7.5q-82 0 -125.5 -31t-43.5 -82q0 -49 35.5 -84t118.5 -63q57 -19 98 -40t67.5 -46.5t39 -57.5t12.5 -72q0 -88 -63.5 -139t-180.5 -51q-50 0 -99 12t-87 34l5 67q42 -27 89 -41t95 -14q88 0 131.5 35t43.5 95q0 28 -9 50.5t-29.5 42
t-53.5 36t-81 31.5q-103 33 -150.5 80t-47.5 124q0 39 17 71t47.5 54.5t74 34.5t97.5 12q48 0 86 -6.5t73 -20.5zM242 -100q0 26 12.5 38.5t29.5 12.5t29.5 -12.5t12.5 -38.5q0 -48 -15.5 -84t-50.5 -65l-15 15q16 19 25.5 39t12.5 44q-19 1 -30 14.5t-11 36.5z" />
    <glyph glyph-name="scommaaccent" unicode="&#x219;" horiz-adv-x="457" 
d="M212 -12q-43 0 -87 11t-78 33l5 64q35 -27 77.5 -40.5t81.5 -13.5q66 0 101.5 24.5t35.5 67.5q0 37 -31 62.5t-105 45.5q-83 21 -122.5 59t-39.5 94q0 32 13.5 57t38 42.5t58 26.5t74.5 9q39 0 76.5 -8t69.5 -22l-6 -61q-32 20 -67.5 28.5t-73.5 8.5q-58 0 -89.5 -21.5
t-31.5 -57.5q0 -35 29.5 -60.5t98.5 -44.5q96 -26 133 -65t37 -91q0 -72 -53 -110t-145 -38zM199 -100q0 26 12.5 38.5t29.5 12.5t29.5 -12.5t12.5 -38.5q0 -48 -15.5 -84t-50.5 -65l-15 15q16 19 25.5 39t12.5 44q-19 1 -30 14.5t-11 36.5z" />
    <glyph glyph-name="uni021A" unicode="&#x21a;" horiz-adv-x="534" 
d="M235 644h-223v56h510v-56h-223v-644h-64v644zM226 -100q0 26 12.5 38.5t29.5 12.5t29.5 -12.5t12.5 -38.5q0 -48 -15.5 -84t-50.5 -65l-15 15q16 19 25.5 39t12.5 44q-19 1 -30 14.5t-11 36.5z" />
    <glyph glyph-name="uni021B" unicode="&#x21b;" horiz-adv-x="367" 
d="M17 518h97v155h60v-155h166v-52h-166v-288q0 -75 22.5 -105.5t75.5 -30.5q15 0 29 2t28 6l8 -55q-32 -7 -69 -7q-78 0 -116 41t-38 132v305h-97v52zM177 -100q0 26 12.5 38.5t29.5 12.5t29.5 -12.5t12.5 -38.5q0 -48 -15.5 -84t-50.5 -65l-15 15q16 19 25.5 39t12.5 44
q-19 1 -30 14.5t-11 36.5z" />
    <glyph glyph-name="dotlessj" unicode="&#x237;" horiz-adv-x="225" 
d="M145 518v-549q0 -90 -36.5 -129.5t-109.5 -39.5q-30 0 -57 9l6 54q20 -10 48 -10q46 0 67.5 27t21.5 87v551h60z" />
    <glyph glyph-name="apostrophe" unicode="&#x2bc;" horiz-adv-x="404" 
d="M245 686q0 -56 -13 -94.5t-51 -73.5l-18 23q33 40 36 89q-20 1 -30 13.5t-10 42.5q0 31 10.5 43.5t32.5 12.5t32.5 -12.5t10.5 -43.5z" />
    <glyph glyph-name="circumflex" unicode="&#x2c6;" horiz-adv-x="404" 
d="M232 730l137 -166h-62l-105 120l-105 -120h-62l137 166h60z" />
    <glyph glyph-name="caron" unicode="&#x2c7;" horiz-adv-x="404" 
d="M172 564l-137 166h62l105 -120l105 120h62l-137 -166h-60z" />
    <glyph glyph-name="uni02C9" unicode="&#x2c9;" horiz-adv-x="404" 
d="M60 671h284v-52h-284v52z" />
    <glyph glyph-name="breve" unicode="&#x2d8;" horiz-adv-x="404" 
d="M202 568q-32 0 -60 9.5t-49.5 29t-34.5 49t-14 69.5h56q2 -54 30 -81t72 -27t72 27t30 81h56q-1 -40 -14 -69.5t-34.5 -49t-49.5 -29t-60 -9.5z" />
    <glyph glyph-name="dotaccent" unicode="&#x2d9;" horiz-adv-x="404" 
d="M202 702q20 0 29 -12t9 -41t-9 -41t-29 -12t-29 12t-9 41t9 41t29 12z" />
    <glyph glyph-name="ring" unicode="&#x2da;" horiz-adv-x="404" 
d="M202 751q45 0 74.5 -29.5t29.5 -73.5t-29.5 -73.5t-74.5 -29.5t-74.5 29.5t-29.5 73.5t29.5 73.5t74.5 29.5zM202 590q26 0 41.5 17.5t15.5 40.5t-15.5 40.5t-41.5 17.5t-41.5 -17.5t-15.5 -40.5t15.5 -40.5t41.5 -17.5z" />
    <glyph glyph-name="ogonek" unicode="&#x2db;" horiz-adv-x="404" 
d="M259 0q-40 -35 -58.5 -65.5t-18.5 -59.5q0 -43 56 -43q11 0 22 1t21 6v-52q-11 -3 -25.5 -4.5t-28.5 -1.5q-53 0 -79 23.5t-26 61.5q0 37 22 71.5t54 62.5h61z" />
    <glyph glyph-name="tilde" unicode="&#x2dc;" horiz-adv-x="404" 
d="M360 715q0 -38 -6.5 -64.5t-18 -42.5t-27.5 -23t-35 -7q-26 0 -44.5 13.5t-34 29.5l-28.5 29.5t-26 13.5q-15 0 -28 -17.5t-13 -66.5h-55q0 38 6.5 64.5t18.5 42.5t28 23t35 7q25 0 44 -13.5t34 -29.5l28 -29.5t27 -13.5q15 0 27.5 17.5t12.5 66.5h55z" />
    <glyph glyph-name="hungarumlaut" unicode="&#x2dd;" horiz-adv-x="404" 
d="M154 730h73v-8l-137 -154h-56zM296 730h73v-8l-137 -154h-56z" />
    <glyph glyph-name="gravecomb" unicode="&#x300;" horiz-adv-x="0" 
d="M-209 568h-56l-137 154v8h73z" />
    <glyph glyph-name="acutecomb" unicode="&#x301;" horiz-adv-x="0" 
d="M-202 730h73v-8l-137 -154h-56z" />
    <glyph glyph-name="uni0302" unicode="&#x302;" horiz-adv-x="0" 
d="M-224 730l137 -166h-62l-105 120l-105 -120h-62l137 166h60z" />
    <glyph glyph-name="tildecomb" unicode="&#x303;" horiz-adv-x="0" 
d="M-100 715q0 -38 -6.5 -64.5t-18 -42.5t-27.5 -23t-35 -7q-26 0 -44.5 13.5t-34 29.5l-28.5 29.5t-26 13.5q-15 0 -28 -17.5t-13 -66.5h-55q0 38 6.5 64.5t18.5 42.5t28 23t35 7q25 0 44 -13.5t34 -29.5l28 -29.5t27 -13.5q15 0 27.5 17.5t12.5 66.5h55z" />
    <glyph glyph-name="uni0304" unicode="&#x304;" horiz-adv-x="0" 
d="M-389 671h284v-52h-284v52z" />
    <glyph glyph-name="uni0306" unicode="&#x306;" horiz-adv-x="0" 
d="M-254 568q-32 0 -60 9.5t-49.5 29t-34.5 49t-14 69.5h56q2 -54 30 -81t72 -27t72 27t30 81h56q-1 -40 -14 -69.5t-34.5 -49t-49.5 -29t-60 -9.5z" />
    <glyph glyph-name="uni0307" unicode="&#x307;" horiz-adv-x="0" 
d="M-253 702q20 0 29 -12t9 -41t-9 -41t-29 -12t-29 12t-9 41t9 41t29 12z" />
    <glyph glyph-name="uni0308" unicode="&#x308;" horiz-adv-x="0" 
d="M-151 702q20 0 29 -12t9 -41t-9 -41t-29 -12t-29 12t-9 41t9 41t29 12zM-353 702q20 0 29 -12t9 -41t-9 -41t-29 -12t-29 12t-9 41t9 41t29 12z" />
    <glyph glyph-name="uni030A" unicode="&#x30a;" horiz-adv-x="0" 
d="M-254 752q45 0 74.5 -29.5t29.5 -73.5t-29.5 -73.5t-74.5 -29.5t-74.5 29.5t-29.5 73.5t29.5 73.5t74.5 29.5zM-254 591q26 0 41.5 17.5t15.5 40.5t-15.5 40.5t-41.5 17.5t-41.5 -17.5t-15.5 -40.5t15.5 -40.5t41.5 -17.5z" />
    <glyph glyph-name="uni030C" unicode="&#x30c;" horiz-adv-x="0" 
d="M-284 564l-137 166h62l105 -120l105 120h62l-137 -166h-60z" />
    <glyph glyph-name="uni0327" unicode="&#x327;" horiz-adv-x="0" 
d="M-337 -186q11 -5 24.5 -7t27.5 -2q34 0 52 13t18 36q0 24 -25.5 41t-76.5 19l48 86h57l-35 -63q41 -8 64 -31t23 -53q0 -42 -29.5 -66.5t-93.5 -24.5q-14 0 -27.5 1.5t-26.5 5.5v45z" />
    <glyph glyph-name="tonos" unicode="&#x384;" horiz-adv-x="404" 
d="M200 730h73v-8l-93 -170h-56z" />
    <glyph glyph-name="dieresistonos" unicode="&#x385;" horiz-adv-x="404" 
d="M266 762h73v-8l-127 -133h-56zM302 601q20 0 29 -12t9 -41t-9 -41t-29 -12t-29 12t-9 41t9 41t29 12zM100 601q20 0 29 -12t9 -41t-9 -41t-29 -12t-29 12t-9 41t9 41t29 12z" />
    <glyph glyph-name="Alphatonos" unicode="&#x386;" horiz-adv-x="640" 
d="M489 191h-338l-74 -191h-70l277 700h72l277 -700h-70zM173 247h294l-147 382zM115 701h73v-8l-93 -170h-56z" />
    <glyph glyph-name="anoteleia" unicode="&#x387;" horiz-adv-x="292" 
d="M189 331q0 -31 -10.5 -43.5t-32.5 -12.5t-32.5 12.5t-10.5 43.5t10.5 43.5t32.5 12.5t32.5 -12.5t10.5 -43.5z" />
    <glyph glyph-name="Epsilontonos" unicode="&#x388;" horiz-adv-x="633" 
d="M158 700h424v-56h-360v-254h335v-56h-335v-278h369v-56h-433v700zM49 701h73v-8l-93 -170h-56z" />
    <glyph glyph-name="Etatonos" unicode="&#x389;" horiz-adv-x="770" 
d="M159 700h64v-299h401v299h64v-700h-64v345h-401v-345h-64v700zM49 701h73v-8l-93 -170h-56z" />
    <glyph glyph-name="Iotatonos" unicode="&#x38a;" horiz-adv-x="305" 
d="M218 700v-700h-64v700h64zM49 701h73v-8l-93 -170h-56z" />
    <glyph glyph-name="Omicrontonos" unicode="&#x38c;" horiz-adv-x="731" 
d="M684 350q0 -77 -20.5 -143t-60 -115t-96.5 -76.5t-129 -27.5t-129 27.5t-96.5 76.5t-60 115t-20.5 143t20.5 143t60 115t96.5 76.5t129 27.5t129 -27.5t96.5 -76.5t60 -115t20.5 -143zM618 350q0 68 -16.5 124t-47.5 96t-75.5 62t-100.5 22t-100.5 -22t-75.5 -62
t-47.5 -96t-16.5 -124t16.5 -124t47.5 -96t75.5 -62t100.5 -22t100.5 22t75.5 62t47.5 96t16.5 124zM49 701h73v-8l-93 -170h-56z" />
    <glyph glyph-name="Upsilontonos" unicode="&#x38e;" horiz-adv-x="775" 
d="M448 339l233 361h72l-273 -422v-278h-64v278l-273 422h72zM49 701h73v-8l-93 -170h-56z" />
    <glyph glyph-name="Omegatonos" unicode="&#x38f;" horiz-adv-x="735" 
d="M381 712q73 0 130.5 -26.5t96.5 -72.5t59.5 -108.5t20.5 -134.5q0 -53 -12.5 -99.5t-34 -86t-51.5 -72t-65 -56.5h151v-56h-240v53q88 55 137 132.5t49 184.5q0 63 -16.5 115.5t-47 90t-75.5 58t-102 20.5t-101.5 -21t-75.5 -58.5t-47.5 -89.5t-16.5 -115
q0 -107 49.5 -184.5t137.5 -132.5v-53h-241v56h152q-35 24 -65 56.5t-52 72t-34.5 86t-12.5 99.5q0 72 20.5 134.5t60 108.5t96.5 72.5t130 26.5zM49 701h73v-8l-93 -170h-56z" />
    <glyph glyph-name="iotadieresistonos" unicode="&#x390;" horiz-adv-x="287" 
d="M132 518v-363q0 -60 21.5 -87t67.5 -27q28 0 48 10l6 -54q-27 -9 -57 -9q-73 0 -109.5 39.5t-36.5 129.5v361h60zM167 835h73v-8l-127 -133h-56zM203 674q20 0 29 -12t9 -41t-9 -41t-29 -12t-29 12t-9 41t9 41t29 12zM1 674q20 0 29 -12t9 -41t-9 -41t-29 -12t-29 12
t-9 41t9 41t29 12z" />
    <glyph glyph-name="Alpha" unicode="&#x391;" horiz-adv-x="640" 
d="M489 191h-338l-74 -191h-70l277 700h72l277 -700h-70zM173 247h294l-147 382z" />
    <glyph glyph-name="Beta" unicode="&#x392;" horiz-adv-x="618" 
d="M82 700h231q53 0 95 -13.5t71.5 -37.5t45 -57.5t15.5 -73.5q0 -56 -24 -93.5t-70 -56.5q65 -20 97.5 -64.5t32.5 -108.5q0 -92 -65.5 -143.5t-188.5 -51.5h-240v700zM509 195q0 76 -51 108t-153 32h-159v-279h169q194 0 194 139zM474 517q0 60 -43.5 93.5t-124.5 33.5
h-160v-253h153q90 0 132.5 28.5t42.5 97.5z" />
    <glyph glyph-name="Gamma" unicode="&#x393;" horiz-adv-x="520" 
d="M82 700h426v-56h-362v-644h-64v700z" />
    <glyph glyph-name="uni0394" unicode="&#x394;" horiz-adv-x="642" 
d="M7 0l280 700h68l280 -700h-628zM542 56l-221 564l-221 -564h442z" />
    <glyph glyph-name="Epsilon" unicode="&#x395;" horiz-adv-x="557" 
d="M82 700h424v-56h-360v-254h335v-56h-335v-278h369v-56h-433v700z" />
    <glyph glyph-name="Zeta" unicode="&#x396;" horiz-adv-x="557" 
d="M441 644h-394v56h468v-62l-410 -582h420v-56h-493v62z" />
    <glyph glyph-name="Eta" unicode="&#x397;" horiz-adv-x="693" 
d="M82 700h64v-299h401v299h64v-700h-64v345h-401v-345h-64v700z" />
    <glyph glyph-name="Theta" unicode="&#x398;" horiz-adv-x="706" 
d="M228 324v52h251v-52h-251zM659 350q0 -77 -20.5 -143t-60 -115t-96.5 -76.5t-129 -27.5t-129 27.5t-96.5 76.5t-60 115t-20.5 143t20.5 143t60 115t96.5 76.5t129 27.5t129 -27.5t96.5 -76.5t60 -115t20.5 -143zM593 350q0 68 -16.5 124t-47.5 96t-75.5 62t-100.5 22
t-100.5 -22t-75.5 -62t-47.5 -96t-16.5 -124t16.5 -124t47.5 -96t75.5 -62t100.5 -22t100.5 22t75.5 62t47.5 96t16.5 124z" />
    <glyph glyph-name="Iota" unicode="&#x399;" horiz-adv-x="238" 
d="M151 700v-700h-64v700h64z" />
    <glyph glyph-name="Kappa" unicode="&#x39a;" horiz-adv-x="581" 
d="M146 700v-316l322 316h81l-328 -327l372 -373h-85l-362 360v-360h-64v700h64z" />
    <glyph glyph-name="Lambda" unicode="&#x39b;" horiz-adv-x="640" 
d="M320 629l-243 -629h-70l277 700h72l277 -700h-70z" />
    <glyph glyph-name="Mu" unicode="&#x39c;" horiz-adv-x="836" 
d="M389 240l-243 367v-607h-64v700h73l263 -398l263 398h73v-700h-64v607l-243 -367h-58z" />
    <glyph glyph-name="Nu" unicode="&#x39d;" horiz-adv-x="700" 
d="M82 700h79l393 -616v616h64v-700h-78l-393 616v-616h-65v700z" />
    <glyph glyph-name="Xi" unicode="&#x39e;" horiz-adv-x="552" 
d="M514 644h-476v56h476v-56zM466 325h-376v56h376v-56zM514 0h-476v56h476v-56z" />
    <glyph glyph-name="Omicron" unicode="&#x39f;" horiz-adv-x="706" 
d="M659 350q0 -77 -20.5 -143t-60 -115t-96.5 -76.5t-129 -27.5t-129 27.5t-96.5 76.5t-60 115t-20.5 143t20.5 143t60 115t96.5 76.5t129 27.5t129 -27.5t96.5 -76.5t60 -115t20.5 -143zM593 350q0 68 -16.5 124t-47.5 96t-75.5 62t-100.5 22t-100.5 -22t-75.5 -62
t-47.5 -96t-16.5 -124t16.5 -124t47.5 -96t75.5 -62t100.5 -22t100.5 22t75.5 62t47.5 96t16.5 124z" />
    <glyph glyph-name="Pi" unicode="&#x3a0;" horiz-adv-x="693" 
d="M82 700h529v-700h-64v644h-400v-644h-65v700z" />
    <glyph glyph-name="Rho" unicode="&#x3a1;" horiz-adv-x="583" 
d="M546 487q0 -52 -18.5 -92t-53 -67t-83 -41t-108.5 -14h-137v-273h-64v700h201q60 0 108.5 -14t83 -41t53 -67t18.5 -91zM480 487q0 81 -51.5 119t-151.5 38h-131v-315h131q100 0 151.5 38t51.5 120z" />
    <glyph glyph-name="Sigma" unicode="&#x3a3;" horiz-adv-x="528" 
d="M228 372l-196 269v59h474v-56h-396l188 -259v-28l-189 -301h397v-56h-474v59z" />
    <glyph glyph-name="Tau" unicode="&#x3a4;" horiz-adv-x="534" 
d="M235 644h-223v56h510v-56h-223v-644h-64v644z" />
    <glyph glyph-name="Upsilon" unicode="&#x3a5;" horiz-adv-x="654" 
d="M327 339l233 361h72l-273 -422v-278h-64v278l-273 422h72z" />
    <glyph glyph-name="Phi" unicode="&#x3a6;" horiz-adv-x="710" 
d="M323 104q-59 3 -110 21t-89 49t-59.5 75t-21.5 101t21.5 101t59.5 75t89 49t110 21v104h64v-104q59 -3 110 -21t89 -49t59.5 -75t21.5 -101t-21.5 -101t-59.5 -75t-89 -49t-110 -21v-104h-64v104zM601 350q0 45 -16 79t-44.5 58t-68 37t-85.5 15v-378q46 2 85.5 15t68 37
t44.5 58t16 79zM109 350q0 -45 16 -79t44.5 -58t67.5 -37t86 -15v378q-47 -2 -86 -15t-67.5 -37t-44.5 -58t-16 -79z" />
    <glyph glyph-name="Chi" unicode="&#x3a7;" horiz-adv-x="655" 
d="M365 355l273 -355h-75l-236 306l-235 -306h-75l273 355l-265 345h75l227 -296l228 296h75z" />
    <glyph glyph-name="Psi" unicode="&#x3a8;" horiz-adv-x="688" 
d="M312 0v153q-53 4 -97 23t-76.5 53.5t-50.5 85t-18 118.5v267h64v-262q0 -103 45 -161t133 -66v489h64v-489q88 8 133 66t45 161v262h64v-267q0 -68 -18 -118.5t-50.5 -85t-77 -53.5t-96.5 -23v-153h-64z" />
    <glyph glyph-name="uni03A9" unicode="&#x3a9;" horiz-adv-x="708" 
d="M354 712q73 0 130.5 -26.5t96.5 -72.5t59.5 -108.5t20.5 -134.5q0 -53 -12.5 -99.5t-34 -86t-51.5 -72t-65 -56.5h151v-56h-240v53q88 55 137 132.5t49 184.5q0 63 -16.5 115.5t-47 90t-75.5 58t-102 20.5t-101.5 -21t-75.5 -58.5t-47.5 -89.5t-16.5 -115
q0 -107 49.5 -184.5t137.5 -132.5v-53h-241v56h152q-35 24 -65 56.5t-52 72t-34.5 86t-12.5 99.5q0 72 20.5 134.5t60 108.5t96.5 72.5t130 26.5z" />
    <glyph glyph-name="Iotadieresis" unicode="&#x3aa;" horiz-adv-x="238" 
d="M151 700v-700h-64v700h64zM221 896q20 0 29 -12t9 -41t-9 -41t-29 -12t-29 12t-9 41t9 41t29 12zM19 896q20 0 29 -12t9 -41t-9 -41t-29 -12t-29 12t-9 41t9 41t29 12z" />
    <glyph glyph-name="Upsilondieresis" unicode="&#x3ab;" horiz-adv-x="654" 
d="M327 339l233 361h72l-273 -422v-278h-64v278l-273 422h72zM428 896q20 0 29 -12t9 -41t-9 -41t-29 -12t-29 12t-9 41t9 41t29 12zM226 896q20 0 29 -12t9 -41t-9 -41t-29 -12t-29 12t-9 41t9 41t29 12z" />
    <glyph glyph-name="alphatonos" unicode="&#x3ac;" horiz-adv-x="600" 
d="M470 240q16 -70 27.5 -108t22 -56t20.5 -21t22 -3h20v-52h-35q-17 0 -31.5 6t-28 23.5t-26 50.5t-25.5 87q-21 -56 -44 -91t-47.5 -54.5t-51 -26.5t-54.5 -7q-42 0 -78.5 17.5t-62.5 52t-41 85t-15 116.5q0 60 15.5 110t42.5 85.5t64 55.5t81 20q71 0 120 -46t77 -146
l62 180h61zM239 42q26 0 47.5 8t41.5 31t41 64.5t45 107.5q-12 62 -29.5 104.5t-39.5 69t-47 38t-53 11.5q-32 0 -57.5 -16.5t-44.5 -45.5t-29 -69t-10 -86q0 -104 38 -160.5t97 -56.5zM374 750h73v-8l-137 -154h-56z" />
    <glyph glyph-name="epsilontonos" unicode="&#x3ad;" horiz-adv-x="466" 
d="M355 247q-117 0 -179 -31t-62 -82q0 -44 42.5 -68t128.5 -24q82 0 155 28l6 -57q-37 -13 -79 -19t-84 -6q-51 0 -93.5 8.5t-73 26t-47.5 44.5t-17 64q0 27 11 50t31 41t47.5 30.5t60.5 18.5q-66 8 -105.5 39.5t-39.5 84.5q0 65 53.5 100t162.5 35q42 0 83.5 -5t76.5 -16
l-5 -58q-35 13 -74.5 19t-79.5 6q-80 0 -117.5 -20t-37.5 -61q0 -49 62 -72t174 -23v-53zM313 750h73v-8l-137 -154h-56z" />
    <glyph glyph-name="etatonos" unicode="&#x3ae;" horiz-adv-x="572" 
d="M284 476q-45 0 -85 -18t-67 -49v-409h-60v518h60v-50q29 28 71.5 45t88.5 17q100 0 156.5 -59t56.5 -171v-493h-60v491q0 178 -161 178zM346 750h73v-8l-137 -154h-56z" />
    <glyph glyph-name="iotatonos" unicode="&#x3af;" horiz-adv-x="287" 
d="M132 518v-363q0 -60 21.5 -87t67.5 -27q28 0 48 10l6 -54q-27 -9 -57 -9q-73 0 -109.5 39.5t-36.5 129.5v361h60zM179 750h73v-8l-137 -154h-56z" />
    <glyph glyph-name="upsilondieresistonos" unicode="&#x3b0;" horiz-adv-x="545" 
d="M86 391q0 49 -9.5 64.5t-29.5 15.5q-14 0 -29 -5l-6 53q11 3 20.5 4.5t23.5 1.5q48 0 71 -27.5t23 -98.5v-180q0 -93 35.5 -135t107.5 -42q146 0 146 186q0 72 -16.5 146.5t-51.5 143.5h68q31 -64 47.5 -139t16.5 -151q0 -115 -51 -177.5t-159 -62.5q-105 0 -156 58
t-51 167v178zM311 835h73v-8l-127 -133h-56zM347 674q20 0 29 -12t9 -41t-9 -41t-29 -12t-29 12t-9 41t9 41t29 12zM145 674q20 0 29 -12t9 -41t-9 -41t-29 -12t-29 12t-9 41t9 41t29 12z" />
    <glyph glyph-name="alpha" unicode="&#x3b1;" horiz-adv-x="600" 
d="M470 240q16 -70 27.5 -108t22 -56t20.5 -21t22 -3h20v-52h-35q-17 0 -31.5 6t-28 23.5t-26 50.5t-25.5 87q-21 -56 -44 -91t-47.5 -54.5t-51 -26.5t-54.5 -7q-42 0 -78.5 17.5t-62.5 52t-41 85t-15 116.5q0 60 15.5 110t42.5 85.5t64 55.5t81 20q71 0 120 -46t77 -146
l62 180h61zM239 42q26 0 47.5 8t41.5 31t41 64.5t45 107.5q-12 62 -29.5 104.5t-39.5 69t-47 38t-53 11.5q-32 0 -57.5 -16.5t-44.5 -45.5t-29 -69t-10 -86q0 -104 38 -160.5t97 -56.5z" />
    <glyph glyph-name="beta" unicode="&#x3b2;" horiz-adv-x="536" 
d="M219 406q51 0 87 12t58 32.5t32 48t10 58.5q0 60 -36 95.5t-101 35.5q-60 0 -97 -41t-37 -131v-709h-63v702q0 118 53.5 175.5t145.5 57.5q45 0 81.5 -13.5t62 -38t39.5 -58.5t14 -74q0 -70 -36.5 -114t-99.5 -63q78 -24 120 -78t42 -129q0 -40 -13 -74t-38.5 -59
t-63 -39t-85.5 -14q-33 0 -65.5 7.5t-58.5 22.5l5 61q26 -18 56 -27.5t61 -9.5q69 0 104.5 36t35.5 96q0 40 -16.5 73.5t-45 57t-67.5 36.5t-84 13v52z" />
    <glyph glyph-name="gamma" unicode="&#x3b3;" horiz-adv-x="549" 
d="M275 -200q-54 0 -89 31t-35 83q0 13 4 30t14 41t28 57t45 78l-225 398h67l191 -340l190 340h67l-225 -398l43.5 -79.5t28 -56t15 -39.5t4.5 -31q0 -52 -35 -83t-88 -31zM275 63l-30.5 -53.5t-20 -40t-10.5 -30t-3 -23.5q0 -28 16.5 -45t47.5 -17q30 0 46.5 17t16.5 45
q0 20 -6.5 38.5t-16 36.5t-20.5 36t-20 36z" />
    <glyph glyph-name="delta" unicode="&#x3b4;" horiz-adv-x="575" 
d="M42 259q0 59 18 107.5t50.5 83t76.5 53.5t96 19h10l-206 153v55h381v-52h-291l250 -189q54 -42 80 -100t26 -130q0 -59 -18 -108.5t-50 -85.5t-77.5 -56.5t-99.5 -20.5q-55 0 -100 20.5t-77.5 56.5t-50.5 85.5t-18 108.5zM104 259q0 -50 13.5 -90t38 -68.5t58 -43.5
t74.5 -15q40 0 73.5 15t58 43.5t38 68.5t13.5 90q0 49 -13.5 89.5t-38 68.5t-58 43.5t-73.5 15.5q-41 0 -74.5 -15.5t-58 -43.5t-38 -68.5t-13.5 -89.5z" />
    <glyph glyph-name="epsilon" unicode="&#x3b5;" horiz-adv-x="466" 
d="M355 247q-117 0 -179 -31t-62 -82q0 -44 42.5 -68t128.5 -24q82 0 155 28l6 -57q-37 -13 -79 -19t-84 -6q-51 0 -93.5 8.5t-73 26t-47.5 44.5t-17 64q0 27 11 50t31 41t47.5 30.5t60.5 18.5q-66 8 -105.5 39.5t-39.5 84.5q0 65 53.5 100t162.5 35q42 0 83.5 -5t76.5 -16
l-5 -58q-35 13 -74.5 19t-79.5 6q-80 0 -117.5 -20t-37.5 -61q0 -49 62 -72t174 -23v-53z" />
    <glyph glyph-name="zeta" unicode="&#x3b6;" horiz-adv-x="420" 
d="M410 671q-146 -95 -226 -210t-80 -236q0 -45 21 -77.5t56 -54.5t80.5 -35.5t94.5 -20.5q27 -4 39 -15t12 -31q0 -11 -4.5 -26t-14.5 -32l-71 -126h-67l88 158q4 7 4 15q0 5 -14 7t-25 4q-55 11 -102.5 28.5t-83 45t-55.5 66t-20 92.5q0 63 20 123.5t57.5 118t91.5 111
t121 102.5h-238v52h316v-59z" />
    <glyph glyph-name="eta" unicode="&#x3b7;" horiz-adv-x="572" 
d="M284 476q-45 0 -85 -18t-67 -49v-409h-60v518h60v-50q29 28 71.5 45t88.5 17q100 0 156.5 -59t56.5 -171v-493h-60v491q0 178 -161 178z" />
    <glyph glyph-name="theta" unicode="&#x3b8;" horiz-adv-x="582" 
d="M291 -12q-60 0 -106 26.5t-78 75t-48.5 118.5t-16.5 157t16.5 157t48.5 118.5t78 75t106 26.5t106 -26.5t78 -75t48.5 -118.5t16.5 -157t-16.5 -157t-48.5 -118.5t-78 -75t-106 -26.5zM291 42q86 0 134 76.5t51 220.5h-370q3 -144 51 -220.5t134 -76.5zM291 688
q-86 0 -134 -77t-51 -220h370q-3 143 -51 220t-134 77z" />
    <glyph glyph-name="iota" unicode="&#x3b9;" horiz-adv-x="287" 
d="M132 518v-363q0 -60 21.5 -87t67.5 -27q28 0 48 10l6 -54q-27 -9 -57 -9q-73 0 -109.5 39.5t-36.5 129.5v361h60z" />
    <glyph glyph-name="kappa" unicode="&#x3ba;" horiz-adv-x="502" 
d="M490 0h-81l-277 259v-259h-60v518h60v-235l184 180q32 27 57.5 43t57.5 16q25 0 43 -7l-7 -55q-8 5 -17 6.5t-19 1.5q-17 0 -29 -7.5t-26 -21.5l-175 -168z" />
    <glyph glyph-name="lambda" unicode="&#x3bb;" horiz-adv-x="506" 
d="M256 408l-183 -408h-66l217 484l-106 246h66l315 -730h-66z" />
    <glyph glyph-name="uni03BC" unicode="&#x3bc;" horiz-adv-x="602" 
d="M554 42q8 0 16 1.5t13 5.5l7 -53q-10 -4 -23.5 -6t-27.5 -2q-35 0 -58 17t-28 51q-60 -68 -160 -68q-51 0 -89.5 16.5t-67.5 46.5v-244h-64v711h64v-408q29 -33 69.5 -50.5t87.5 -17.5t87 17.5t69 50.5v408h64v-413q0 -37 10.5 -50t30.5 -13z" />
    <glyph glyph-name="nu" unicode="&#x3bd;" horiz-adv-x="527" 
d="M17 518h67l177 -450q76 89 121.5 204t50.5 246h62q-8 -148 -60 -280t-149 -238h-61z" />
    <glyph glyph-name="xi" unicode="&#x3be;" horiz-adv-x="428" 
d="M190 26q-65 30 -101.5 75.5t-36.5 116.5q0 66 42.5 117.5t113.5 74.5q-60 14 -95.5 55t-35.5 100q0 75 53.5 120t166.5 45h57v-52h-59q-84 0 -120 -31t-36 -82q0 -24 10.5 -46t31 -39t51 -27t69.5 -10h47v-52q-50 0 -93 -11.5t-74.5 -33t-49 -54t-17.5 -74.5
q0 -60 34 -96.5t86 -53.5q29 -9 61.5 -16.5t59.5 -17.5t45 -24t18 -36q0 -25 -14 -50l-69 -117h-71l75 126q7 11 9 18t2 14q0 10 -18.5 18t-44 14.5l-53 13.5t-44.5 15z" />
    <glyph glyph-name="omicron" unicode="&#x3bf;" horiz-adv-x="576" 
d="M42 259q0 59 18 108.5t50.5 85.5t77.5 56.5t100 20.5t100 -20.5t77.5 -56.5t50.5 -85.5t18 -108.5t-18 -108.5t-50.5 -85.5t-77.5 -56.5t-100 -20.5t-100 20.5t-77.5 56.5t-50.5 85.5t-18 108.5zM104 259q0 -50 13.5 -90t38 -68t58.5 -43.5t74 -15.5t74 15.5t58.5 43.5
t38 68t13.5 90q0 49 -13.5 89.5t-38 68.5t-58.5 43.5t-74 15.5t-74 -15.5t-58.5 -43.5t-38 -68.5t-13.5 -89.5z" />
    <glyph glyph-name="pi" unicode="&#x3c0;" horiz-adv-x="611" 
d="M17 518h563v-52h-151v-288q0 -75 22.5 -105.5t69.5 -30.5q28 0 55 8l8 -56q-35 -6 -67 -6q-70 0 -109 41t-39 131v306h-149q-1 -136 -21 -254.5t-78 -223.5l-60 24q29 52 48 105.5t29.5 110t15 116t4.5 122.5h-141v52z" />
    <glyph glyph-name="rho" unicode="&#x3c1;" horiz-adv-x="565" 
d="M127 106q27 -30 66.5 -47t81.5 -17q40 0 74 14.5t59 42t39 68t14 92.5q0 105 -49.5 161t-131.5 56q-70 0 -111.5 -42.5t-41.5 -124.5v-203zM127 -193h-60v495q0 57 16 99.5t44.5 71t68.5 43t88 14.5q51 0 94.5 -18.5t76 -53t50.5 -85t18 -114.5q0 -63 -18 -113.5
t-50 -85.5t-76 -53.5t-95 -18.5q-45 0 -86.5 16.5t-70.5 42.5v-240z" />
    <glyph glyph-name="sigma1" unicode="&#x3c2;" horiz-adv-x="478" 
d="M318 -12q-61 3 -112 22.5t-87.5 54t-56.5 83.5t-20 111t20.5 112t56.5 85.5t86 54.5t109 19q39 0 76 -7t67 -21l-6 -59q-29 18 -64 25.5t-72 7.5q-45 0 -83.5 -14.5t-67 -42.5t-44.5 -68.5t-16 -91.5t16 -90t44.5 -66.5t67.5 -42.5t86 -18q73 -5 110.5 -30.5t37.5 -79.5
t-44 -82.5t-127 -28.5v54q57 0 83 14t26 43q0 52 -86 56z" />
    <glyph glyph-name="sigma" unicode="&#x3c3;" horiz-adv-x="576" 
d="M42 253q0 57 18 105.5t50.5 84t77.5 55.5t100 20h271v-52h-137q54 -32 83 -88t29 -125q0 -57 -18 -105.5t-50.5 -84t-77.5 -55.5t-100 -20t-100 20t-77.5 55.5t-50.5 84t-18 105.5zM104 253q0 -48 13.5 -86.5t38 -66.5t58.5 -43t74 -15t74 15t58.5 43t38 66.5t13.5 86.5
t-13.5 86.5t-38 66.5t-58.5 43t-74 15t-74 -15t-58.5 -43t-38 -66.5t-13.5 -86.5z" />
    <glyph glyph-name="tau" unicode="&#x3c4;" horiz-adv-x="445" 
d="M17 518h401v-52h-177v-289q0 -75 21.5 -105t69.5 -30q31 0 58 8l8 -56q-35 -6 -69 -6q-70 0 -109 41t-39 131v306h-164v52z" />
    <glyph glyph-name="upsilon" unicode="&#x3c5;" horiz-adv-x="545" 
d="M86 391q0 49 -9.5 64.5t-29.5 15.5q-14 0 -29 -5l-6 53q11 3 20.5 4.5t23.5 1.5q48 0 71 -27.5t23 -98.5v-180q0 -93 35.5 -135t107.5 -42q146 0 146 186q0 72 -16.5 146.5t-51.5 143.5h68q31 -64 47.5 -139t16.5 -151q0 -115 -51 -177.5t-159 -62.5q-105 0 -156 58
t-51 167v178z" />
    <glyph glyph-name="phi" unicode="&#x3c6;" horiz-adv-x="649" 
d="M291 -193v179q-54 4 -99.5 24t-79 54.5t-52 82.5t-18.5 109q0 73 27 144t75 131l51 -33q-42 -52 -65.5 -115t-23.5 -129q0 -50 14 -88.5t38.5 -65.5t58.5 -42.5t74 -18.5v314q0 88 35 132.5t103 44.5q78 0 128 -66.5t50 -201.5q0 -63 -18.5 -112.5t-51.5 -84.5t-79.5 -55
t-102.5 -24v-179h-64zM543 261q0 107 -32 161t-82 54q-42 0 -58 -32.5t-16 -102.5v-302q40 2 74.5 18t60 44t39.5 68.5t14 91.5z" />
    <glyph glyph-name="chi" unicode="&#x3c7;" horiz-adv-x="514" 
d="M222 171l-198 347h68l164 -284l166 284h68l-198 -347l210 -364h-71l-175 301l-173 -301h-71z" />
    <glyph glyph-name="psi" unicode="&#x3c8;" horiz-adv-x="661" 
d="M299 -12q-105 8 -168.5 73t-63.5 190v267h63v-265q0 -102 44 -153.5t125 -58.5v477h64v-477q78 8 123 60t45 152v265h63v-267q0 -63 -16.5 -110t-47 -80t-73 -51t-94.5 -22v-181h-64v181z" />
    <glyph glyph-name="omega" unicode="&#x3c9;" horiz-adv-x="770" 
d="M385 175q-17 -97 -56 -142.5t-102 -45.5q-39 0 -71 20t-55 58.5t-36 95.5t-13 131q0 60 7 117t22 116l63 -5q-16 -54 -23 -111.5t-7 -114.5q0 -130 32.5 -191.5t82.5 -61.5q27 0 50.5 18.5t40 63.5t26 119.5t9.5 187.5h60q0 -113 9.5 -187.5t26 -119.5t40 -63.5
t50.5 -18.5q50 0 82.5 61.5t32.5 191.5q0 57 -7 114.5t-23 111.5l63 5q15 -59 22 -116t7 -117q0 -74 -13 -131t-36 -95.5t-55 -58.5t-71 -20q-63 0 -102.5 45.5t-55.5 142.5z" />
    <glyph glyph-name="iotadieresis" unicode="&#x3ca;" horiz-adv-x="287" 
d="M132 518v-363q0 -60 21.5 -87t67.5 -27q28 0 48 10l6 -54q-27 -9 -57 -9q-73 0 -109.5 39.5t-36.5 129.5v361h60zM204 722q20 0 29 -12t9 -41t-9 -41t-29 -12t-29 12t-9 41t9 41t29 12zM2 722q20 0 29 -12t9 -41t-9 -41t-29 -12t-29 12t-9 41t9 41t29 12z" />
    <glyph glyph-name="upsilondieresis" unicode="&#x3cb;" horiz-adv-x="545" 
d="M86 391q0 49 -9.5 64.5t-29.5 15.5q-14 0 -29 -5l-6 53q11 3 20.5 4.5t23.5 1.5q48 0 71 -27.5t23 -98.5v-180q0 -93 35.5 -135t107.5 -42q146 0 146 186q0 72 -16.5 146.5t-51.5 143.5h68q31 -64 47.5 -139t16.5 -151q0 -115 -51 -177.5t-159 -62.5q-105 0 -156 58
t-51 167v178zM349 722q20 0 29 -12t9 -41t-9 -41t-29 -12t-29 12t-9 41t9 41t29 12zM147 722q20 0 29 -12t9 -41t-9 -41t-29 -12t-29 12t-9 41t9 41t29 12z" />
    <glyph glyph-name="omicrontonos" unicode="&#x3cc;" horiz-adv-x="576" 
d="M42 259q0 59 18 108.5t50.5 85.5t77.5 56.5t100 20.5t100 -20.5t77.5 -56.5t50.5 -85.5t18 -108.5t-18 -108.5t-50.5 -85.5t-77.5 -56.5t-100 -20.5t-100 20.5t-77.5 56.5t-50.5 85.5t-18 108.5zM104 259q0 -50 13.5 -90t38 -68t58.5 -43.5t74 -15.5t74 15.5t58.5 43.5
t38 68t13.5 90q0 49 -13.5 89.5t-38 68.5t-58.5 43.5t-74 15.5t-74 -15.5t-58.5 -43.5t-38 -68.5t-13.5 -89.5zM342 750h73v-8l-137 -154h-56z" />
    <glyph glyph-name="upsilontonos" unicode="&#x3cd;" horiz-adv-x="545" 
d="M86 391q0 49 -9.5 64.5t-29.5 15.5q-14 0 -29 -5l-6 53q11 3 20.5 4.5t23.5 1.5q48 0 71 -27.5t23 -98.5v-180q0 -93 35.5 -135t107.5 -42q146 0 146 186q0 72 -16.5 146.5t-51.5 143.5h68q31 -64 47.5 -139t16.5 -151q0 -115 -51 -177.5t-159 -62.5q-105 0 -156 58
t-51 167v178zM322 750h73v-8l-137 -154h-56z" />
    <glyph glyph-name="omegatonos" unicode="&#x3ce;" horiz-adv-x="770" 
d="M385 175q-17 -97 -56 -142.5t-102 -45.5q-39 0 -71 20t-55 58.5t-36 95.5t-13 131q0 60 7 117t22 116l63 -5q-16 -54 -23 -111.5t-7 -114.5q0 -130 32.5 -191.5t82.5 -61.5q27 0 50.5 18.5t40 63.5t26 119.5t9.5 187.5h60q0 -113 9.5 -187.5t26 -119.5t40 -63.5
t50.5 -18.5q50 0 82.5 61.5t32.5 191.5q0 57 -7 114.5t-23 111.5l63 5q15 -59 22 -116t7 -117q0 -74 -13 -131t-36 -95.5t-55 -58.5t-71 -20q-63 0 -102.5 45.5t-55.5 142.5zM450 750h73v-8l-137 -154h-56z" />
    <glyph glyph-name="uni0400" unicode="&#x400;" horiz-adv-x="557" 
d="M82 700h424v-56h-360v-254h335v-56h-335v-278h369v-56h-433v700zM381 762h-56l-137 154v8h73z" />
    <glyph glyph-name="afii10023" unicode="&#x401;" horiz-adv-x="557" 
d="M82 700h424v-56h-360v-254h335v-56h-335v-278h369v-56h-433v700zM394 896q20 0 29 -12t9 -41t-9 -41t-29 -12t-29 12t-9 41t9 41t29 12zM192 896q20 0 29 -12t9 -41t-9 -41t-29 -12t-29 12t-9 41t9 41t29 12z" />
    <glyph glyph-name="afii10051" unicode="&#x402;" horiz-adv-x="702" 
d="M235 644h-223v56h510v-56h-223v-236h123q113 0 175.5 -53t62.5 -160q0 -99 -53.5 -153t-148.5 -54q-47 0 -87 15v63q20 -11 41.5 -15.5t44.5 -4.5q67 0 102 39.5t35 108.5q0 81 -41.5 119.5t-126.5 38.5h-127v-352h-64v644z" />
    <glyph glyph-name="afii10052" unicode="&#x403;" horiz-adv-x="520" 
d="M82 700h426v-56h-362v-644h-64v700zM354 924h73v-8l-137 -154h-56z" />
    <glyph glyph-name="afii10053" unicode="&#x404;" horiz-adv-x="603" 
d="M47 350q0 80 25.5 146.5t72 114.5t113 74.5t149.5 26.5q39 0 79 -7t72 -22l-6 -62q-31 17 -67.5 25t-74.5 8q-66 0 -119 -20t-91 -56t-60 -87t-26 -113h411v-56h-411q4 -63 26 -114t60.5 -87t92 -55.5t119.5 -19.5q37 0 74.5 8.5t69.5 26.5l5 -63q-35 -17 -75 -23.5
t-77 -6.5q-83 0 -150 26t-114 73.5t-72.5 114.5t-25.5 148z" />
    <glyph glyph-name="afii10054" unicode="&#x405;" horiz-adv-x="536" 
d="M442 621q-37 18 -74.5 25.5t-80.5 7.5q-82 0 -125.5 -31t-43.5 -82q0 -49 35.5 -84t118.5 -63q57 -19 98 -40t67.5 -46.5t39 -57.5t12.5 -72q0 -88 -63.5 -139t-180.5 -51q-50 0 -99 12t-87 34l5 67q42 -27 89 -41t95 -14q88 0 131.5 35t43.5 95q0 28 -9 50.5t-29.5 42
t-53.5 36t-81 31.5q-103 33 -150.5 80t-47.5 124q0 39 17 71t47.5 54.5t74 34.5t97.5 12q48 0 86 -6.5t73 -20.5z" />
    <glyph glyph-name="afii10055" unicode="&#x406;" horiz-adv-x="238" 
d="M151 700v-700h-64v700h64z" />
    <glyph glyph-name="afii10056" unicode="&#x407;" horiz-adv-x="238" 
d="M151 700v-700h-64v700h64zM221 896q20 0 29 -12t9 -41t-9 -41t-29 -12t-29 12t-9 41t9 41t29 12zM19 896q20 0 29 -12t9 -41t-9 -41t-29 -12t-29 12t-9 41t9 41t29 12z" />
    <glyph glyph-name="afii10057" unicode="&#x408;" horiz-adv-x="435" 
d="M289 700h64v-475q0 -66 -14.5 -111t-41.5 -73t-64 -40.5t-82 -12.5q-36 0 -73 8t-66 25l6 64q30 -20 64.5 -29.5t67.5 -9.5q66 0 102.5 41t36.5 138v475z" />
    <glyph glyph-name="afii10058" unicode="&#x409;" horiz-adv-x="941" 
d="M899 202q0 -46 -16 -83.5t-46.5 -63.5t-74 -40.5t-97.5 -14.5h-191v644h-238v-492q0 -87 -41 -125.5t-118 -38.5q-14 0 -31 1.5t-34 5.5l6 59q17 -5 31.5 -6.5t26.5 -1.5q51 0 73.5 27.5t22.5 95.5v531h366v-297h127q54 0 97.5 -14.5t74 -40.5t46.5 -63t16 -83zM833 202
q0 69 -44.5 107t-129.5 38h-121v-291h121q85 0 129.5 38.5t44.5 107.5z" />
    <glyph glyph-name="afii10059" unicode="&#x40a;" horiz-adv-x="977" 
d="M701 404q54 0 97.5 -14.5t74 -41t46.5 -63.5t16 -83t-16 -83.5t-46.5 -63.5t-74 -40.5t-97.5 -14.5h-191v348h-363v-348h-65v700h65v-296h363v296h64v-296h127zM695 56q85 0 129.5 38.5t44.5 107.5t-44.5 107.5t-129.5 38.5h-121v-292h121z" />
    <glyph glyph-name="afii10060" unicode="&#x40b;" horiz-adv-x="773" 
d="M235 644h-223v56h510v-56h-223v-229q36 23 82.5 35.5t94.5 12.5q107 0 168.5 -57.5t61.5 -174.5v-231h-60v229q0 92 -44.5 135t-129.5 43q-48 0 -92.5 -13t-80.5 -42v-352h-64v644z" />
    <glyph glyph-name="afii10061" unicode="&#x40c;" horiz-adv-x="581" 
d="M146 700v-316l322 316h81l-328 -327l372 -373h-85l-362 360v-360h-64v700h64zM354 924h73v-8l-137 -154h-56z" />
    <glyph glyph-name="uni040D" unicode="&#x40d;" horiz-adv-x="700" 
d="M618 0h-62v616l-397 -616h-77v700h63v-616l397 616h76v-700zM389 762h-56l-137 154v8h73z" />
    <glyph glyph-name="afii10062" unicode="&#x40e;" horiz-adv-x="579" 
d="M494 700h68l-334 -700h-68l106 223l-249 477h69l212 -407zM289 762q-32 0 -60 9.5t-49.5 29t-34.5 49t-14 69.5h56q2 -54 30 -81t72 -27t72 27t30 81h56q-1 -40 -14 -69.5t-34.5 -49t-49.5 -29t-60 -9.5z" />
    <glyph glyph-name="afii10145" unicode="&#x40f;" horiz-adv-x="692" 
d="M546 56v644h64v-700h-232v-164h-64v164h-232v700h64v-644h400z" />
    <glyph glyph-name="afii10017" unicode="&#x410;" horiz-adv-x="640" 
d="M489 191h-338l-74 -191h-70l277 700h72l277 -700h-70zM173 247h294l-147 382z" />
    <glyph glyph-name="afii10018" unicode="&#x411;" horiz-adv-x="569" 
d="M476 700v-56h-330v-206h142q55 0 98.5 -15.5t73.5 -44t46 -69t16 -90.5t-16.5 -90.5t-47 -69t-74 -44t-96.5 -15.5h-206v700h394zM456 219q0 75 -43 119t-130 44h-137v-326h137q87 0 130 44t43 119z" />
    <glyph glyph-name="afii10019" unicode="&#x412;" horiz-adv-x="618" 
d="M82 700h231q53 0 95 -13.5t71.5 -37.5t45 -57.5t15.5 -73.5q0 -56 -24 -93.5t-70 -56.5q65 -20 97.5 -64.5t32.5 -108.5q0 -92 -65.5 -143.5t-188.5 -51.5h-240v700zM509 195q0 76 -51 108t-153 32h-159v-279h169q194 0 194 139zM474 517q0 60 -43.5 93.5t-124.5 33.5
h-160v-253h153q90 0 132.5 28.5t42.5 97.5z" />
    <glyph glyph-name="afii10020" unicode="&#x413;" horiz-adv-x="520" 
d="M82 700h426v-56h-362v-644h-64v700z" />
    <glyph glyph-name="afii10021" unicode="&#x414;" horiz-adv-x="613" 
d="M591 -100h-63v100h-452v-100h-64v156h51q85 144 124 308t41 336h287v-644h76v-156zM451 56v588h-159q-7 -146 -43 -295t-111 -293h313z" />
    <glyph glyph-name="afii10022" unicode="&#x415;" horiz-adv-x="557" 
d="M82 700h424v-56h-360v-254h335v-56h-335v-278h369v-56h-433v700z" />
    <glyph glyph-name="afii10024" unicode="&#x416;" horiz-adv-x="794" 
d="M429 700v-313l242 313h81l-258 -327l302 -373h-85l-282 357v-357h-64v357l-282 -357h-85l302 373l-258 327h81l242 -313v313h64z" />
    <glyph glyph-name="afii10025" unicode="&#x417;" horiz-adv-x="532" 
d="M139 395q58 1 107.5 10.5t86 28t57 46t20.5 63.5q0 49 -44 80t-137 31q-43 0 -87.5 -9.5t-83.5 -28.5l-7 63q37 15 85.5 24t96.5 9q56 0 101 -12t76.5 -33.5t48.5 -51.5t17 -67q0 -38 -15.5 -68t-42 -52.5t-61.5 -37.5t-74 -23q91 -18 146.5 -64.5t55.5 -125.5
q0 -43 -19 -78t-54 -59.5t-83.5 -38t-107.5 -13.5q-46 0 -94 7t-90 23l5 62q42 -18 87.5 -26t89.5 -8q93 0 146.5 36.5t53.5 96.5q0 77 -73 115.5t-207 42.5v58z" />
    <glyph glyph-name="afii10026" unicode="&#x418;" horiz-adv-x="700" 
d="M618 0h-62v616l-397 -616h-77v700h63v-616l397 616h76v-700z" />
    <glyph glyph-name="afii10027" unicode="&#x419;" horiz-adv-x="700" 
d="M618 0h-62v616l-397 -616h-77v700h63v-616l397 616h76v-700zM350 762q-32 0 -60 9.5t-49.5 29t-34.5 49t-14 69.5h56q2 -54 30 -81t72 -27t72 27t30 81h56q-1 -40 -14 -69.5t-34.5 -49t-49.5 -29t-60 -9.5z" />
    <glyph glyph-name="afii10028" unicode="&#x41a;" horiz-adv-x="581" 
d="M146 700v-316l322 316h81l-328 -327l372 -373h-85l-362 360v-360h-64v700h64z" />
    <glyph glyph-name="afii10029" unicode="&#x41b;" horiz-adv-x="687" 
d="M237 154q0 -88 -40.5 -127t-118.5 -39q-32 0 -66 8l6 58q30 -8 59 -8q50 0 73 28t23 97v529h432v-700h-64v644h-304v-490z" />
    <glyph glyph-name="afii10030" unicode="&#x41c;" horiz-adv-x="836" 
d="M389 240l-243 367v-607h-64v700h73l263 -398l263 398h73v-700h-64v607l-243 -367h-58z" />
    <glyph glyph-name="afii10031" unicode="&#x41d;" horiz-adv-x="693" 
d="M82 700h64v-299h401v299h64v-700h-64v345h-401v-345h-64v700z" />
    <glyph glyph-name="afii10032" unicode="&#x41e;" horiz-adv-x="706" 
d="M659 350q0 -77 -20.5 -143t-60 -115t-96.5 -76.5t-129 -27.5t-129 27.5t-96.5 76.5t-60 115t-20.5 143t20.5 143t60 115t96.5 76.5t129 27.5t129 -27.5t96.5 -76.5t60 -115t20.5 -143zM593 350q0 68 -16.5 124t-47.5 96t-75.5 62t-100.5 22t-100.5 -22t-75.5 -62
t-47.5 -96t-16.5 -124t16.5 -124t47.5 -96t75.5 -62t100.5 -22t100.5 22t75.5 62t47.5 96t16.5 124z" />
    <glyph glyph-name="afii10033" unicode="&#x41f;" horiz-adv-x="693" 
d="M82 700h529v-700h-64v644h-400v-644h-65v700z" />
    <glyph glyph-name="afii10034" unicode="&#x420;" horiz-adv-x="583" 
d="M546 487q0 -52 -18.5 -92t-53 -67t-83 -41t-108.5 -14h-137v-273h-64v700h201q60 0 108.5 -14t83 -41t53 -67t18.5 -91zM480 487q0 81 -51.5 119t-151.5 38h-131v-315h131q100 0 151.5 38t51.5 120z" />
    <glyph glyph-name="afii10035" unicode="&#x421;" horiz-adv-x="603" 
d="M47 350q0 80 25.5 146.5t72 114.5t113 74.5t149.5 26.5q39 0 79 -7t72 -22l-6 -62q-31 17 -67.5 25t-74.5 8q-70 0 -125 -22t-93.5 -62t-58.5 -96t-20 -124q0 -69 20.5 -125.5t59 -96t94 -61t125.5 -21.5q37 0 74.5 8.5t69.5 26.5l5 -63q-35 -17 -75 -23.5t-77 -6.5
q-83 0 -150 26t-114 73.5t-72.5 114.5t-25.5 148z" />
    <glyph glyph-name="afii10036" unicode="&#x422;" horiz-adv-x="534" 
d="M235 644h-223v56h510v-56h-223v-644h-64v644z" />
    <glyph glyph-name="afii10037" unicode="&#x423;" horiz-adv-x="579" 
d="M494 700h68l-334 -700h-68l106 223l-249 477h69l212 -407z" />
    <glyph glyph-name="afii10038" unicode="&#x424;" horiz-adv-x="710" 
d="M323 104q-59 3 -110 21t-89 49t-59.5 75t-21.5 101t21.5 101t59.5 75t89 49t110 21v104h64v-104q59 -3 110 -21t89 -49t59.5 -75t21.5 -101t-21.5 -101t-59.5 -75t-89 -49t-110 -21v-104h-64v104zM601 350q0 45 -16 79t-44.5 58t-68 37t-85.5 15v-378q46 2 85.5 15t68 37
t44.5 58t16 79zM109 350q0 -45 16 -79t44.5 -58t67.5 -37t86 -15v378q-47 -2 -86 -15t-67.5 -37t-44.5 -58t-16 -79z" />
    <glyph glyph-name="afii10039" unicode="&#x425;" horiz-adv-x="655" 
d="M365 355l273 -355h-75l-236 306l-235 -306h-75l273 355l-265 345h75l227 -296l228 296h75z" />
    <glyph glyph-name="afii10040" unicode="&#x426;" horiz-adv-x="698" 
d="M546 56v644h64v-643h66v-169h-64v112h-530v700h64v-644h400z" />
    <glyph glyph-name="afii10041" unicode="&#x427;" horiz-adv-x="641" 
d="M297 251q58 0 108.5 16.5t89.5 45.5v387h64v-700h-64v253q-42 -26 -92 -41t-110 -15q-106 0 -166 62t-60 177v264h60v-264q0 -89 43.5 -137t126.5 -48z" />
    <glyph glyph-name="afii10042" unicode="&#x428;" horiz-adv-x="822" 
d="M379 56v644h64v-644h233v644h64v-700h-658v700h64v-644h233z" />
    <glyph glyph-name="afii10043" unicode="&#x429;" horiz-adv-x="828" 
d="M379 56v644h64v-644h233v644h64v-644h66v-168h-64v112h-660v700h64v-644h233z" />
    <glyph glyph-name="afii10044" unicode="&#x42a;" horiz-adv-x="657" 
d="M235 700v-261h146q54 0 97.5 -15.5t74 -44.5t46.5 -69.5t16 -90.5t-16 -90.5t-46.5 -69t-74 -44t-97.5 -15.5h-210v644h-159v56h223zM549 219q0 75 -43.5 119.5t-130.5 44.5h-140v-327h140q87 0 130.5 44t43.5 119z" />
    <glyph glyph-name="afii10045" unicode="&#x42b;" horiz-adv-x="755" 
d="M147 700v-261h146q54 0 97.5 -15.5t74 -44.5t46.5 -69.5t16 -90.5t-16 -90.5t-46.5 -69t-74 -44t-97.5 -15.5h-211v700h65zM461 219q0 75 -43.5 119.5t-130.5 44.5h-140v-327h140q87 0 130.5 44t43.5 119zM673 700v-700h-64v700h64z" />
    <glyph glyph-name="afii10046" unicode="&#x42c;" horiz-adv-x="569" 
d="M147 700v-261h146q54 0 97.5 -15.5t74 -44.5t46.5 -69.5t16 -90.5t-16 -90.5t-46.5 -69t-74 -44t-97.5 -15.5h-211v700h65zM461 219q0 75 -43.5 119.5t-130.5 44.5h-140v-327h140q87 0 130.5 44t43.5 119z" />
    <glyph glyph-name="afii10047" unicode="&#x42d;" horiz-adv-x="603" 
d="M556 350q0 -81 -25.5 -148t-72.5 -114.5t-114 -73.5t-150 -26q-37 0 -77 6.5t-75 23.5l5 63q32 -18 69.5 -26.5t74.5 -8.5q66 0 119.5 19.5t91.5 55.5t60.5 87t26.5 114h-411v56h411q-4 62 -26 113t-60 87t-91 56t-119 20q-38 0 -74.5 -8t-67.5 -25l-6 62q32 15 72 22
t79 7q82 0 149 -26.5t113.5 -74.5t72 -114.5t25.5 -146.5z" />
    <glyph glyph-name="afii10048" unicode="&#x42e;" horiz-adv-x="826" 
d="M146 700v-322h118q3 73 21.5 134.5t51 106t79 69t106.5 24.5q62 0 110 -27t80.5 -75t49.5 -114.5t17 -145.5t-17 -145.5t-49.5 -114.5t-80.5 -75t-110 -27q-60 0 -106.5 24.5t-79 68.5t-51 105.5t-21.5 135.5h-118v-322h-64v700h64zM330 350q0 -70 12.5 -126t36.5 -95.5
t60 -61t83 -21.5q46 0 82 21.5t60 61t36.5 95.5t12.5 126t-12.5 126t-36.5 95.5t-60 61t-82 21.5q-47 0 -83 -21.5t-60 -61t-36.5 -95.5t-12.5 -126z" />
    <glyph glyph-name="afii10049" unicode="&#x42f;" horiz-adv-x="600" 
d="M52 500q0 47 18.5 84.5t52 63t80.5 39t104 13.5h211v-700h-64v301h-128q-14 0 -26.5 0.5t-24.5 1.5l-191 -303h-72l200 314q-75 19 -117.5 65t-42.5 121zM118 500q0 -68 50 -105.5t144 -37.5h142v287h-142q-94 0 -144 -37.5t-50 -106.5z" />
    <glyph glyph-name="afii10065" unicode="&#x430;" horiz-adv-x="533" 
d="M227 -12q-39 0 -74 10t-60.5 30t-40.5 50t-15 69q0 78 57 123t166 45h146v34q0 72 -34.5 99.5t-111.5 27.5q-48 0 -90.5 -10.5t-79.5 -29.5l-7 56q35 17 81.5 27.5t97.5 10.5q103 0 153.5 -41.5t50.5 -146.5v-342h-60v62q-29 -35 -74.5 -54.5t-104.5 -19.5zM232 42
q57 0 101 18.5t73 60.5v142h-145q-84 0 -123 -31.5t-39 -82.5q0 -55 37.5 -81t95.5 -26z" />
    <glyph glyph-name="afii10066" unicode="&#x431;" horiz-adv-x="545" 
d="M278 496q103 0 164 -66t61 -188q0 -61 -16.5 -108t-45.5 -79.5t-69 -49.5t-88 -17q-61 0 -106.5 23.5t-75.5 67t-45 105.5t-15 139q0 97 24.5 168.5t77.5 121t137.5 78t203.5 39.5l5 -55q-89 -7 -156 -25t-113.5 -48.5t-73 -75t-35.5 -103.5q28 34 74 53.5t92 19.5z
M274 443q-47 0 -92.5 -23t-77.5 -65v-31q0 -75 12 -128.5t34.5 -87.5t56 -50t77.5 -16q74 0 115 55t41 145q0 100 -44 150.5t-122 50.5z" />
    <glyph glyph-name="afii10067" unicode="&#x432;" horiz-adv-x="512" 
d="M72 0v518h161q103 0 156.5 -34t53.5 -99q0 -42 -24.5 -70.5t-68.5 -41.5q55 -12 87.5 -45t32.5 -83q0 -71 -58.5 -108t-173.5 -37h-166zM381 381q0 42 -36.5 63.5t-117.5 21.5h-95v-171h101q78 0 113 24t35 62zM408 146q0 45 -39.5 71t-132.5 26h-104v-191h99
q177 0 177 94z" />
    <glyph glyph-name="afii10068" unicode="&#x433;" horiz-adv-x="432" 
d="M132 466v-466h-60v518h348v-52h-288z" />
    <glyph glyph-name="afii10069" unicode="&#x434;" horiz-adv-x="553" 
d="M531 -100h-60v100h-398v-100h-61v152h49q61 103 97.5 219.5t42.5 246.5h254v-466h76v-152zM395 52v414h-139q-8 -109 -40.5 -213.5t-86.5 -200.5h266z" />
    <glyph glyph-name="afii10070" unicode="&#x435;" horiz-adv-x="540" 
d="M303 42q45 0 83 10.5t69 33.5l6 -59q-32 -20 -73 -29.5t-87 -9.5q-65 0 -113.5 21t-80.5 57.5t-48.5 86.5t-16.5 108q0 61 16.5 111t46.5 85t72.5 54t94.5 19q53 0 96 -19.5t73 -55t46 -84.5t16 -107v-13t-1 -17h-395q2 -42 15 -77.5t37.5 -61t60.5 -39.5t83 -14z
M438 287q-1 43 -13.5 77.5t-34 59.5t-51.5 38.5t-67 13.5q-73 0 -117 -50t-48 -139h331z" />
    <glyph glyph-name="afii10072" unicode="&#x436;" horiz-adv-x="698" 
d="M250 270l-224 248h83l210 -236v236h60v-236l210 236h83l-224 -248l243 -270h-81l-231 257v-257h-60v257l-231 -257h-81z" />
    <glyph glyph-name="afii10073" unicode="&#x437;" horiz-adv-x="465" 
d="M110 300q112 0 173.5 23t61.5 72q0 41 -37 61.5t-117 20.5q-39 0 -78.5 -6t-74.5 -19l-6 57q36 11 77 16t84 5q109 0 162 -35t53 -100q0 -53 -39 -83t-106 -41q66 -16 108 -50.5t42 -89.5q0 -37 -17 -64t-47.5 -44.5t-73 -26t-93.5 -8.5q-42 0 -84 6t-78 19l6 56
q35 -14 75 -21t79 -7q86 0 128 24.5t42 68.5q0 51 -61 82t-179 31v53z" />
    <glyph glyph-name="afii10074" unicode="&#x438;" horiz-adv-x="594" 
d="M460 0v429l-321 -429h-67v518h63v-430l321 430h66v-518h-62z" />
    <glyph glyph-name="afii10075" unicode="&#x439;" horiz-adv-x="594" 
d="M460 0v429l-321 -429h-67v518h63v-430l321 430h66v-518h-62zM297 588q-32 0 -60 9.5t-49.5 29t-34.5 49t-14 69.5h56q2 -54 30 -81t72 -27t72 27t30 81h56q-1 -40 -14 -69.5t-34.5 -49t-49.5 -29t-60 -9.5z" />
    <glyph glyph-name="afii10076" unicode="&#x43a;" horiz-adv-x="497" 
d="M201 270l289 -270h-81l-277 259v-259h-60v518h60v-238l256 238h83z" />
    <glyph glyph-name="afii10077" unicode="&#x43b;" horiz-adv-x="580" 
d="M231 193q0 -55 -8 -94t-26 -63.5t-47.5 -36t-72.5 -11.5q-16 0 -33 1.5t-32 5.5l6 55q27 -8 57 -8q56 0 76 30.5t20 97.5v348h337v-518h-60v466h-217v-273z" />
    <glyph glyph-name="afii10078" unicode="&#x43c;" horiz-adv-x="687" 
d="M324 172l-192 251v-423h-60v518h60l212 -283l212 283h59v-518h-60v423l-192 -251h-39z" />
    <glyph glyph-name="afii10079" unicode="&#x43d;" horiz-adv-x="576" 
d="M444 308v210h60v-518h-60v256h-312v-256h-60v518h60v-210h312z" />
    <glyph glyph-name="afii10080" unicode="&#x43e;" horiz-adv-x="576" 
d="M42 259q0 59 18 108.5t50.5 85.5t77.5 56.5t100 20.5t100 -20.5t77.5 -56.5t50.5 -85.5t18 -108.5t-18 -108.5t-50.5 -85.5t-77.5 -56.5t-100 -20.5t-100 20.5t-77.5 56.5t-50.5 85.5t-18 108.5zM104 259q0 -50 13.5 -90t38 -68t58.5 -43.5t74 -15.5t74 15.5t58.5 43.5
t38 68t13.5 90q0 49 -13.5 89.5t-38 68.5t-58.5 43.5t-74 15.5t-74 -15.5t-58.5 -43.5t-38 -68.5t-13.5 -89.5z" />
    <glyph glyph-name="afii10081" unicode="&#x43f;" horiz-adv-x="559" 
d="M132 466v-466h-60v518h415v-518h-60v466h-295z" />
    <glyph glyph-name="afii10082" unicode="&#x440;" horiz-adv-x="570" 
d="M286 530q51 0 95 -18.5t76.5 -54t51.5 -85.5t19 -113t-19 -113t-51.5 -85.5t-76.5 -54t-95 -18.5q-45 0 -85.5 16t-68.5 44v-241h-60v711h60v-47q28 27 68.5 43t85.5 16zM278 476q-42 0 -81 -16t-65 -47v-308q26 -31 65 -47t81 -16q39 0 73.5 14.5t60 42t40 68t14.5 92.5
t-14.5 92.5t-40 68t-60 42t-73.5 14.5z" />
    <glyph glyph-name="afii10083" unicode="&#x441;" horiz-adv-x="499" 
d="M42 259q0 62 20.5 112t56.5 85.5t86 54.5t109 19q39 0 76 -7t67 -21l-6 -60q-29 18 -64 26t-72 8q-45 0 -83.5 -14.5t-67 -42.5t-44.5 -68.5t-16 -91.5t16 -91.5t44.5 -68t67.5 -42.5t86 -15q38 0 74.5 9t63.5 29l6 -60q-29 -16 -66 -24t-78 -8q-61 0 -112 19t-87.5 54.5
t-56.5 85.5t-20 112z" />
    <glyph glyph-name="afii10084" unicode="&#x442;" horiz-adv-x="473" 
d="M206 466h-194v52h449v-52h-195v-466h-60v466z" />
    <glyph glyph-name="afii10085" unicode="&#x443;" horiz-adv-x="526" 
d="M441 518h68l-285 -711h-66l77 193l-218 518h68l182 -443z" />
    <glyph glyph-name="afii10086" unicode="&#x444;" horiz-adv-x="892" 
d="M476 -193h-60v242q-26 -27 -64.5 -44t-83.5 -17q-48 0 -89 18.5t-71.5 53.5t-48 85.5t-17.5 113.5t17.5 113t48 85.5t71.5 54t89 18.5q45 0 83.5 -17.5t64.5 -44.5v262h60v-262q26 27 64.5 44.5t83.5 17.5q47 0 88.5 -18.5t72 -54t48 -85.5t17.5 -113t-17.5 -113.5
t-48 -85.5t-72 -53.5t-88.5 -18.5q-45 0 -83.5 17t-64.5 44v-242zM416 410q-24 31 -61 48.5t-79 17.5q-36 0 -67.5 -14.5t-54.5 -42.5t-36.5 -68t-13.5 -92t13.5 -92.5t36.5 -68t54.5 -42t67.5 -14.5q42 0 79 17t61 48v303zM476 107q24 -31 61 -48t79 -17q36 0 67.5 14.5
t54.5 42t36.5 68t13.5 92.5t-13.5 92t-36.5 68t-54.5 42.5t-67.5 14.5q-42 0 -79 -17.5t-61 -48.5v-303z" />
    <glyph glyph-name="afii10087" unicode="&#x445;" horiz-adv-x="503" 
d="M251 220l-167 -220h-72l203 267l-191 251h72l155 -204l156 204h72l-192 -251l204 -267h-72z" />
    <glyph glyph-name="afii10088" unicode="&#x446;" horiz-adv-x="572" 
d="M427 52v466h60v-466h63v-156h-60v104h-418v518h60v-466h295z" />
    <glyph glyph-name="afii10089" unicode="&#x447;" horiz-adv-x="533" 
d="M258 228q41 0 77.5 12.5t65.5 38.5v239h60v-518h-60v219q-29 -20 -68 -32.5t-81 -12.5q-91 0 -143 57.5t-52 156.5v130h60v-130q0 -75 36 -117.5t105 -42.5z" />
    <glyph glyph-name="afii10090" unicode="&#x448;" horiz-adv-x="688" 
d="M556 52v466h60v-518h-544v518h60v-466h182v466h60v-466h182z" />
    <glyph glyph-name="afii10091" unicode="&#x449;" horiz-adv-x="700" 
d="M556 52v466h60v-466h62v-156h-60v104h-546v518h60v-466h182v466h60v-466h182z" />
    <glyph glyph-name="afii10092" unicode="&#x44a;" horiz-adv-x="610" 
d="M578 168q0 -168 -256 -168h-168v466h-146v52h206v-181h108q256 0 256 -169zM516 168q0 58 -44.5 87.5t-148.5 29.5h-109v-233h109q104 0 148.5 29.5t44.5 86.5z" />
    <glyph glyph-name="afii10093" unicode="&#x44b;" horiz-adv-x="708" 
d="M576 518h60v-518h-60v518zM132 518v-181h108q256 0 256 -169q0 -168 -256 -168h-168v518h60zM434 168q0 58 -44.5 87.5t-148.5 29.5h-109v-233h109q104 0 148.5 29.5t44.5 86.5z" />
    <glyph glyph-name="afii10094" unicode="&#x44c;" horiz-adv-x="528" 
d="M132 518v-181h108q256 0 256 -169q0 -168 -256 -168h-168v518h60zM434 168q0 58 -44.5 87.5t-148.5 29.5h-109v-233h109q104 0 148.5 29.5t44.5 86.5z" />
    <glyph glyph-name="afii10095" unicode="&#x44d;" horiz-adv-x="499" 
d="M457 259q0 -62 -20 -112t-56.5 -85.5t-87.5 -54.5t-112 -19q-41 0 -78 8t-66 24l6 60q27 -20 63.5 -29t74.5 -9q44 0 81 13t65 37.5t45.5 60t21.5 80.5h-313v52h313q-4 45 -22 80.5t-45.5 60t-64 37.5t-78.5 13q-37 0 -72 -8t-64 -26l-6 60q30 14 67 21t76 7
q59 0 109 -19t86 -54.5t56.5 -85.5t20.5 -112z" />
    <glyph glyph-name="afii10096" unicode="&#x44e;" horiz-adv-x="695" 
d="M72 518h60v-233h77q3 54 20.5 99t46.5 77t68.5 50t86.5 18q50 0 91 -20t70 -55.5t45 -85t16 -109.5t-16 -109.5t-45 -85.5t-70 -55.5t-91 -19.5q-48 0 -87.5 17.5t-68.5 49.5t-46 77t-20 100h-77v-233h-60v518zM271 259q0 -50 11.5 -90t32.5 -68.5t50.5 -44t65.5 -15.5
t65.5 15.5t50.5 44t32.5 68.5t11.5 90q0 49 -11.5 89.5t-32.5 69t-50.5 44t-65.5 15.5t-65.5 -15.5t-50.5 -44t-32.5 -69t-11.5 -89.5z" />
    <glyph glyph-name="afii10097" unicode="&#x44f;" horiz-adv-x="529" 
d="M280 209q-15 0 -28.5 1t-26.5 3l-139 -213h-74l148 224q-51 17 -77.5 52.5t-26.5 86.5q0 72 52 113.5t146 41.5h203v-518h-60v209h-117zM397 261v205h-140q-75 0 -107 -29t-32 -74t32 -73.5t107 -28.5h140z" />
    <glyph glyph-name="uni0450" unicode="&#x450;" horiz-adv-x="540" 
d="M303 42q45 0 83 10.5t69 33.5l6 -59q-32 -20 -73 -29.5t-87 -9.5q-65 0 -113.5 21t-80.5 57.5t-48.5 86.5t-16.5 108q0 61 16.5 111t46.5 85t72.5 54t94.5 19q53 0 96 -19.5t73 -55t46 -84.5t16 -107v-13t-1 -17h-395q2 -42 15 -77.5t37.5 -61t60.5 -39.5t83 -14z
M438 287q-1 43 -13.5 77.5t-34 59.5t-51.5 38.5t-67 13.5q-73 0 -117 -50t-48 -139h331zM333 588h-56l-137 154v8h73z" />
    <glyph glyph-name="afii10071" unicode="&#x451;" horiz-adv-x="540" 
d="M303 42q45 0 83 10.5t69 33.5l6 -59q-32 -20 -73 -29.5t-87 -9.5q-65 0 -113.5 21t-80.5 57.5t-48.5 86.5t-16.5 108q0 61 16.5 111t46.5 85t72.5 54t94.5 19q53 0 96 -19.5t73 -55t46 -84.5t16 -107v-13t-1 -17h-395q2 -42 15 -77.5t37.5 -61t60.5 -39.5t83 -14z
M438 287q-1 43 -13.5 77.5t-34 59.5t-51.5 38.5t-67 13.5q-73 0 -117 -50t-48 -139h331zM370 722q20 0 29 -12t9 -41t-9 -41t-29 -12t-29 12t-9 41t9 41t29 12zM168 722q20 0 29 -12t9 -41t-9 -41t-29 -12t-29 12t-9 41t9 41t29 12z" />
    <glyph glyph-name="afii10099" unicode="&#x452;" horiz-adv-x="577" 
d="M289 476q-45 0 -85 -18t-67 -49v-409h-60v601h-70v52h70v77h60v-77h206v-52h-206v-133q29 28 71.5 45t88.5 17q100 0 156.5 -59t56.5 -171v-313q0 -102 -35 -144.5t-106 -42.5q-19 0 -37 2.5t-33 7.5l5 55q14 -5 30.5 -8t33.5 -3q42 0 62 28.5t20 97.5v318
q0 178 -161 178z" />
    <glyph glyph-name="afii10100" unicode="&#x453;" horiz-adv-x="432" 
d="M132 466v-466h-60v518h348v-52h-288zM294 750h73v-8l-137 -154h-56z" />
    <glyph glyph-name="afii10101" unicode="&#x454;" horiz-adv-x="498" 
d="M107 232q4 -45 21 -80.5t45 -60t64.5 -37.5t80.5 -13q38 0 74 9t64 28q2 -14 3 -29l2 -29q-29 -16 -66 -24t-77 -8q-61 0 -112 19t-87.5 54t-56.5 85.5t-20 112.5t20.5 112t56.5 85.5t86 54.5t109 19q38 0 75.5 -7t66.5 -22l-2 -29t-3 -29q-29 18 -64.5 25.5t-72.5 7.5
q-42 0 -78 -13t-63 -37.5t-44.5 -60t-21.5 -80.5h311v-53h-311z" />
    <glyph glyph-name="afii10102" unicode="&#x455;" horiz-adv-x="457" 
d="M212 -12q-43 0 -87 11t-78 33l5 64q35 -27 77.5 -40.5t81.5 -13.5q66 0 101.5 24.5t35.5 67.5q0 37 -31 62.5t-105 45.5q-83 21 -122.5 59t-39.5 94q0 32 13.5 57t38 42.5t58 26.5t74.5 9q39 0 76.5 -8t69.5 -22l-6 -61q-32 20 -67.5 28.5t-73.5 8.5q-58 0 -89.5 -21.5
t-31.5 -57.5q0 -35 29.5 -60.5t98.5 -44.5q96 -26 133 -65t37 -91q0 -72 -53 -110t-145 -38z" />
    <glyph glyph-name="afii10103" unicode="&#x456;" horiz-adv-x="230" 
d="M145 0h-60v518h60v-518zM115 730q20 0 29 -12t9 -41t-9 -41t-29 -12t-29 12t-9 41t9 41t29 12z" />
    <glyph glyph-name="afii10104" unicode="&#x457;" horiz-adv-x="230" 
d="M145 0h-60v518h60v-518zM217 722q20 0 29 -12t9 -41t-9 -41t-29 -12t-29 12t-9 41t9 41t29 12zM15 722q20 0 29 -12t9 -41t-9 -41t-29 -12t-29 12t-9 41t9 41t29 12z" />
    <glyph glyph-name="afii10105" unicode="&#x458;" horiz-adv-x="225" 
d="M145 518v-549q0 -90 -36.5 -129.5t-109.5 -39.5q-30 0 -57 9l6 54q20 -10 48 -10q46 0 67.5 27t21.5 87v551h60zM115 730q20 0 29 -12t9 -41t-9 -41t-29 -12t-29 12t-9 41t9 41t29 12z" />
    <glyph glyph-name="afii10106" unicode="&#x459;" horiz-adv-x="802" 
d="M227 193q0 -55 -8 -94t-26 -63.5t-47.5 -36t-72.5 -11.5q-16 0 -33 1.5t-32 5.5l6 55q27 -8 57 -8q56 0 76 30.5t20 97.5v348h301v-195h53q126 0 187.5 -39t61.5 -123q0 -83 -61.5 -122t-187.5 -39h-113v466h-181v-273zM469 52h55q99 0 141.5 27t42.5 82q0 56 -43 83
t-141 27h-55v-219z" />
    <glyph glyph-name="afii10107" unicode="&#x45a;" horiz-adv-x="786" 
d="M452 518v-195h52q126 0 188 -39t62 -123q0 -83 -62 -122t-188 -39h-115v264h-255v-264h-62v518h62v-202h255v202h63zM452 52h55q99 0 141.5 27t42.5 82q0 56 -42.5 82.5t-141.5 26.5h-55v-218z" />
    <glyph glyph-name="afii10108" unicode="&#x45b;" horiz-adv-x="577" 
d="M289 476q-45 0 -85 -18t-67 -49v-409h-60v601h-70v52h70v77h60v-77h206v-52h-206v-133q29 28 71.5 45t88.5 17q100 0 156.5 -59t56.5 -171v-300h-60v298q0 178 -161 178z" />
    <glyph glyph-name="afii10109" unicode="&#x45c;" horiz-adv-x="497" 
d="M201 270l289 -270h-81l-277 259v-259h-60v518h60v-238l256 238h83zM321 750h73v-8l-137 -154h-56z" />
    <glyph glyph-name="uni045D" unicode="&#x45d;" horiz-adv-x="594" 
d="M460 0v429l-321 -429h-67v518h63v-430l321 430h66v-518h-62zM350 588h-56l-137 154v8h73z" />
    <glyph glyph-name="afii10110" unicode="&#x45e;" horiz-adv-x="526" 
d="M441 518h68l-285 -711h-66l77 193l-218 518h68l182 -443zM258 588q-32 0 -60 9.5t-49.5 29t-34.5 49t-14 69.5h56q2 -54 30 -81t72 -27t72 27t30 81h56q-1 -40 -14 -69.5t-34.5 -49t-49.5 -29t-60 -9.5z" />
    <glyph glyph-name="afii10193" unicode="&#x45f;" horiz-adv-x="559" 
d="M427 52v466h60v-518h-177v-104h-61v104h-177v518h60v-466h295z" />
    <glyph glyph-name="afii10050" unicode="&#x490;" horiz-adv-x="520" 
d="M82 700h362v123h64v-179h-362v-644h-64v700z" />
    <glyph glyph-name="afii10098" unicode="&#x491;" horiz-adv-x="430" 
d="M132 466v-466h-60v518h286v132h60v-184h-286z" />
    <glyph glyph-name="Wgrave" unicode="&#x1e80;" horiz-adv-x="986" 
d="M530 700l167 -613l199 613h68l-230 -700h-74l-167 607l-167 -607h-74l-230 700h68l199 -613l167 613h74zM527 762h-56l-137 154v8h73z" />
    <glyph glyph-name="wgrave" unicode="&#x1e81;" horiz-adv-x="780" 
d="M420 518l134 -432l141 432h68l-178 -518h-61l-134 422l-134 -422h-61l-178 518h68l141 -432l134 432h60zM424 588h-56l-137 154v8h73z" />
    <glyph glyph-name="Wacute" unicode="&#x1e82;" horiz-adv-x="986" 
d="M530 700l167 -613l199 613h68l-230 -700h-74l-167 607l-167 -607h-74l-230 700h68l199 -613l167 613h74zM575 924h73v-8l-137 -154h-56z" />
    <glyph glyph-name="wacute" unicode="&#x1e83;" horiz-adv-x="780" 
d="M420 518l134 -432l141 432h68l-178 -518h-61l-134 422l-134 -422h-61l-178 518h68l141 -432l134 432h60zM477 750h73v-8l-137 -154h-56z" />
    <glyph glyph-name="Wdieresis" unicode="&#x1e84;" horiz-adv-x="986" 
d="M530 700l167 -613l199 613h68l-230 -700h-74l-167 607l-167 -607h-74l-230 700h68l199 -613l167 613h74zM594 896q20 0 29 -12t9 -41t-9 -41t-29 -12t-29 12t-9 41t9 41t29 12zM392 896q20 0 29 -12t9 -41t-9 -41t-29 -12t-29 12t-9 41t9 41t29 12z" />
    <glyph glyph-name="wdieresis" unicode="&#x1e85;" horiz-adv-x="780" 
d="M420 518l134 -432l141 432h68l-178 -518h-61l-134 422l-134 -422h-61l-178 518h68l141 -432l134 432h60zM491 722q20 0 29 -12t9 -41t-9 -41t-29 -12t-29 12t-9 41t9 41t29 12zM289 722q20 0 29 -12t9 -41t-9 -41t-29 -12t-29 12t-9 41t9 41t29 12z" />
    <glyph glyph-name="Ygrave" unicode="&#x1ef2;" horiz-adv-x="654" 
d="M327 339l233 361h72l-273 -422v-278h-64v278l-273 422h72zM384 762h-56l-137 154v8h73z" />
    <glyph glyph-name="ygrave" unicode="&#x1ef3;" horiz-adv-x="526" 
d="M441 518h68l-285 -711h-66l77 193l-218 518h68l182 -443zM310 588h-56l-137 154v8h73z" />
    <glyph glyph-name="uni2010" unicode="&#x2010;" horiz-adv-x="399" 
d="M62 304v56h275v-56h-275z" />
    <glyph glyph-name="figuredash" unicode="&#x2012;" horiz-adv-x="584" 
d="M40 304v56h504v-56h-504z" />
    <glyph glyph-name="endash" unicode="&#x2013;" horiz-adv-x="500" 
d="M0 304v56h500v-56h-500z" />
    <glyph glyph-name="emdash" unicode="&#x2014;" 
d="M0 304v56h1000v-56h-1000z" />
    <glyph glyph-name="afii00208" unicode="&#x2015;" 
d="M100 304v56h800v-56h-800z" />
    <glyph glyph-name="uni2016" unicode="&#x2016;" horiz-adv-x="408" 
d="M102 749h55v-879h-55v879zM251 749h55v-879h-55v879z" />
    <glyph glyph-name="underscoredbl" unicode="&#x2017;" horiz-adv-x="604" 
d="M52 -144h500v-46h-500v46zM52 -40h500v-46h-500v46z" />
    <glyph glyph-name="quoteleft" unicode="&#x2018;" horiz-adv-x="292" 
d="M103.023 599.006q0 55.9922 12.998 94.4883q12.998 38.4951 50.9941 73.4902l17.9971 -22.9971q-32.9951 -39.9951 -35.9951 -88.9893q19.9971 -0.999023 29.9961 -13.498q9.99902 -12.498 9.99902 -42.4941q0 -30.9971 -10.499 -43.4951
q-10.498 -12.499 -32.4961 -12.499q-21.9971 0 -32.4961 12.499q-10.498 12.498 -10.498 43.4951z" />
    <glyph glyph-name="quoteright" unicode="&#x2019;" horiz-adv-x="292" 
d="M189 711q0 -56 -13 -94.5t-51 -73.5l-18 23q33 40 36 89q-20 1 -30 13.5t-10 42.5q0 31 10.5 43.5t32.5 12.5t32.5 -12.5t10.5 -43.5z" />
    <glyph glyph-name="quotesinglbase" unicode="&#x201a;" horiz-adv-x="292" 
d="M189 44q0 -56 -13 -94.5t-51 -73.5l-18 23q33 40 36 89q-20 1 -30 13.5t-10 42.5q0 31 10.5 43.5t32.5 12.5t32.5 -12.5t10.5 -43.5z" />
    <glyph glyph-name="quotereversed" unicode="&#x201b;" horiz-adv-x="240" 
d="M77 711q0 31 10.5 43.5t32.5 12.5t32.5 -12.5t10.5 -43.5q0 -30 -10 -42.5t-30 -13.5q3 -49 36 -89l-18 -23q-38 35 -51 73.5t-13 94.5z" />
    <glyph glyph-name="quotedblleft" unicode="&#x201c;" horiz-adv-x="426" 
d="M103.023 599.006q0 55.9922 12.998 94.4883q12.998 38.4951 50.9941 73.4902l17.9971 -22.9971q-32.9951 -39.9951 -35.9951 -88.9893q19.9971 -0.999023 29.9961 -13.498q9.99902 -12.498 9.99902 -42.4941q0 -30.9971 -10.499 -43.4951
q-10.498 -12.499 -32.4961 -12.499q-21.9971 0 -32.4961 12.499q-10.498 12.498 -10.498 43.4951zM237.023 599.006q0 55.9922 12.998 94.4883q12.998 38.4951 50.9941 73.4902l17.9971 -22.9971q-32.9951 -39.9951 -35.9951 -88.9893q19.9971 -0.999023 29.9961 -13.498
q9.99902 -12.498 9.99902 -42.4941q0 -30.9971 -10.499 -43.4951q-10.498 -12.499 -32.4961 -12.499q-21.9971 0 -32.4961 12.499q-10.498 12.498 -10.498 43.4951z" />
    <glyph glyph-name="quotedblright" unicode="&#x201d;" horiz-adv-x="426" 
d="M189 711q0 -56 -13 -94.5t-51 -73.5l-18 23q33 40 36 89q-20 1 -30 13.5t-10 42.5q0 31 10.5 43.5t32.5 12.5t32.5 -12.5t10.5 -43.5zM323 711q0 -56 -13 -94.5t-51 -73.5l-18 23q33 40 36 89q-20 1 -30 13.5t-10 42.5q0 31 10.5 43.5t32.5 12.5t32.5 -12.5t10.5 -43.5z
" />
    <glyph glyph-name="quotedblbase" unicode="&#x201e;" horiz-adv-x="426" 
d="M189 44q0 -56 -13 -94.5t-51 -73.5l-18 23q33 40 36 89q-20 1 -30 13.5t-10 42.5q0 31 10.5 43.5t32.5 12.5t32.5 -12.5t10.5 -43.5zM323 44q0 -56 -13 -94.5t-51 -73.5l-18 23q33 40 36 89q-20 1 -30 13.5t-10 42.5q0 31 10.5 43.5t32.5 12.5t32.5 -12.5t10.5 -43.5z
" />
    <glyph glyph-name="uni201F" unicode="&#x201f;" horiz-adv-x="374" 
d="M77 711q0 31 10.5 43.5t32.5 12.5t32.5 -12.5t10.5 -43.5q0 -30 -10 -42.5t-30 -13.5q3 -49 36 -89l-18 -23q-38 35 -51 73.5t-13 94.5zM211 711q0 31 10.5 43.5t32.5 12.5t32.5 -12.5t10.5 -43.5q0 -30 -10 -42.5t-30 -13.5q3 -49 36 -89l-18 -23q-38 35 -51 73.5
t-13 94.5z" />
    <glyph glyph-name="dagger" unicode="&#x2020;" horiz-adv-x="584" 
d="M502 513h-179v-644h-62v644h-179v53h179v182h62v-182h179v-53z" />
    <glyph glyph-name="daggerdbl" unicode="&#x2021;" horiz-adv-x="584" 
d="M502 51h-179v-182h-62v182h-179v53h179v409h-179v53h179v182h62v-182h179v-53h-179v-409h179v-53z" />
    <glyph glyph-name="bullet" unicode="&#x2022;" horiz-adv-x="392" 
d="M102 332q0 45 24.5 70t69.5 25t69.5 -25t24.5 -70t-24.5 -70t-69.5 -25t-69.5 25t-24.5 70z" />
    <glyph glyph-name="onedotenleader" unicode="&#x2024;" horiz-adv-x="292" 
d="M189 44q0 -31 -10.5 -43.5t-32.5 -12.5t-32.5 12.5t-10.5 43.5t10.5 43.5t32.5 12.5t32.5 -12.5t10.5 -43.5z" />
    <glyph glyph-name="twodotenleader" unicode="&#x2025;" horiz-adv-x="525" 
d="M189 44q0 -31 -10.5 -43.5t-32.5 -12.5t-32.5 12.5t-10.5 43.5t10.5 43.5t32.5 12.5t32.5 -12.5t10.5 -43.5zM422 44q0 -31 -10.5 -43.5t-32.5 -12.5t-32.5 12.5t-10.5 43.5t10.5 43.5t32.5 12.5t32.5 -12.5t10.5 -43.5z" />
    <glyph glyph-name="ellipsis" unicode="&#x2026;" horiz-adv-x="758" 
d="M189 44q0 -31 -10.5 -43.5t-32.5 -12.5t-32.5 12.5t-10.5 43.5t10.5 43.5t32.5 12.5t32.5 -12.5t10.5 -43.5zM422 44q0 -31 -10.5 -43.5t-32.5 -12.5t-32.5 12.5t-10.5 43.5t10.5 43.5t32.5 12.5t32.5 -12.5t10.5 -43.5zM655 44q0 -31 -10.5 -43.5t-32.5 -12.5
t-32.5 12.5t-10.5 43.5t10.5 43.5t32.5 12.5t32.5 -12.5t10.5 -43.5z" />
    <glyph glyph-name="perthousand" unicode="&#x2030;" 
d="M529 700h58l-441 -700h-58zM325 528q0 -40 -10 -73t-28.5 -57t-46 -37t-62.5 -13t-62.5 13t-46.5 37t-28.5 57t-9.5 73q0 79 38 129t109 50t109 -50t38 -129zM92 528q0 -60 21.5 -93t64.5 -33t64.5 33t21.5 93q0 59 -23 92t-63 33t-63 -33t-23 -92zM643 172
q0 -40 -10 -73t-28.5 -57t-46 -37t-62.5 -13t-62.5 13t-46.5 37t-28.5 57t-9.5 73q0 79 38 129t109 50t109 -50t38 -129zM410 172q0 -60 21.5 -93t64.5 -33t64.5 33t21.5 93q0 59 -23 92t-63 33t-63 -33t-23 -92zM969 172q0 -40 -10 -73t-28.5 -57t-46 -37t-62.5 -13
t-62.5 13t-46.5 37t-28.5 57t-9.5 73q0 79 38 129t109 50t109 -50t38 -129zM736 172q0 -60 21.5 -93t64.5 -33t64.5 33t21.5 93q0 59 -23 92t-63 33t-63 -33t-23 -92z" />
    <glyph glyph-name="minute" unicode="&#x2032;" horiz-adv-x="297" 
d="M147 700h73v-17l-95 -256h-48z" />
    <glyph glyph-name="second" unicode="&#x2033;" horiz-adv-x="449" 
d="M152 700h73v-17l-95 -256h-48zM294 700h73v-17l-95 -256h-48z" />
    <glyph glyph-name="guilsinglleft" unicode="&#x2039;" horiz-adv-x="346" 
d="M72 326l212 196v-62l-162 -148l162 -149v-62l-212 196v29z" />
    <glyph glyph-name="guilsinglright" unicode="&#x203a;" horiz-adv-x="346" 
d="M274 297l-212 -196v62l162 149l-162 148v62l212 -196v-29z" />
    <glyph glyph-name="exclamdbl" unicode="&#x203c;" horiz-adv-x="428" 
d="M98 482v218h67v-218l-14 -313h-39zM173 44q0 -31 -10.5 -43.5t-32.5 -12.5t-32.5 12.5t-10.5 43.5t10.5 43.5t32.5 12.5t32.5 -12.5t10.5 -43.5zM266 482v218h67v-218l-14 -313h-39zM341 44q0 -31 -10.5 -43.5t-32.5 -12.5t-32.5 12.5t-10.5 43.5t10.5 43.5t32.5 12.5
t32.5 -12.5t10.5 -43.5z" />
    <glyph glyph-name="uni203E" unicode="&#x203e;" horiz-adv-x="404" 
d="M60 671h284v-52h-284v52z" />
    <glyph glyph-name="fraction" unicode="&#x2044;" horiz-adv-x="433" 
d="M48 -15h-56l393 730h56z" />
    <glyph glyph-name="zerosuperior" horiz-adv-x="398" 
d="M199 708q41 0 72 -17.5t52 -49t32 -75.5t11 -97t-11 -97t-32 -75.5t-52 -49t-72 -17.5t-72 17.5t-52 49t-32 75.5t-11 97t11 97t32 75.5t52 49t72 17.5zM199 279q54 0 82.5 51t28.5 139t-28.5 139t-82.5 51t-82.5 -51t-28.5 -139t28.5 -139t82.5 -51z" />
    <glyph glyph-name="uni2071" unicode="&#x2071;" horiz-adv-x="398" 
d="M172 563h56v-326h-56v326zM169 656q0 29 6.5 39t23.5 10t23.5 -10t6.5 -39t-6.5 -39t-23.5 -10t-23.5 10t-6.5 39z" />
    <glyph glyph-name="foursuperior" horiz-adv-x="398" 
d="M31 339v46l226 315h55v-313h54v-48h-54v-102h-56v102h-225zM91 387h165v229z" />
    <glyph glyph-name="fivesuperior" horiz-adv-x="398" 
d="M75 700h254v-49h-200v-132q13 5 28 7.5t29 2.5q34 0 63 -9.5t50.5 -28.5t33.5 -46.5t12 -63.5q0 -72 -48.5 -112t-126.5 -40q-29 0 -56.5 5t-53.5 17l5 55q23 -14 49.5 -20.5t52.5 -6.5q56 0 88.5 27t32.5 76q0 48 -30 72.5t-87 24.5q-25 0 -50.5 -5.5t-45.5 -16.5v243z
" />
    <glyph glyph-name="sixsuperior" horiz-adv-x="398" 
d="M211 228q-75 0 -120.5 54.5t-45.5 164.5q0 71 14 121t39.5 81t61 45t78.5 14q26 0 51 -5t45 -15l-6 -54q-39 24 -91 24q-61 0 -96 -43t-38 -128q19 23 49.5 36.5t63.5 13.5q69 0 109.5 -42.5t40.5 -113.5q0 -35 -11.5 -63t-32.5 -48t-49.5 -31t-61.5 -11zM309 380
q0 48 -25.5 77.5t-75.5 29.5q-66 0 -105 -56q0 -80 30 -116.5t78 -36.5q45 0 71.5 30t26.5 72z" />
    <glyph glyph-name="sevensuperior" horiz-adv-x="398" 
d="M171 237h-63l175 415h-226v48h288v-46z" />
    <glyph glyph-name="eightsuperior" horiz-adv-x="398" 
d="M113 591q0 -29 21.5 -49.5t69.5 -39.5q43 17 61.5 40t18.5 49q0 28 -23 47.5t-62 19.5q-42 0 -64 -20.5t-22 -46.5zM303 355q0 16 -5 28.5t-18 24.5t-35 23.5t-55 25.5q-48 -24 -70 -45t-22 -56q0 -36 29 -57t74 -21t73.5 21t28.5 56zM201 228q-35 0 -64.5 9t-50.5 25.5
t-33 40.5t-12 54q0 42 26.5 74.5t72.5 50.5q-83 38 -83 108q0 54 40 86t102 32q63 0 102.5 -32.5t39.5 -85.5q0 -71 -86 -109q56 -23 79.5 -54.5t23.5 -66.5q0 -61 -42.5 -96.5t-114.5 -35.5z" />
    <glyph glyph-name="ninesuperior" horiz-adv-x="398" 
d="M191 708q75 0 120.5 -54.5t45.5 -164.5q0 -71 -14 -121t-39.5 -81t-61 -45t-78.5 -14q-26 0 -51 5t-45 15l6 54q39 -24 91 -24q61 0 96 43t38 128q-19 -23 -49.5 -36.5t-63.5 -13.5q-69 0 -109.5 42.5t-40.5 113.5q0 34 11.5 62.5t32.5 48.5t49.5 31t61.5 11zM93 556
q0 -48 25.5 -77.5t75.5 -29.5q66 0 105 56q0 80 -30 116.5t-78 36.5q-45 0 -71.5 -30t-26.5 -72z" />
    <glyph glyph-name="uni207A" unicode="&#x207a;" horiz-adv-x="398" 
d="M171 447h-138v48h138v136h56v-136h138v-48h-138v-136h-56v136z" />
    <glyph glyph-name="uni207B" unicode="&#x207b;" horiz-adv-x="398" 
d="M33 447v48h332v-48h-332z" />
    <glyph glyph-name="uni207C" unicode="&#x207c;" horiz-adv-x="398" 
d="M33 512v48h332v-48h-332zM33 380v48h332v-48h-332z" />
    <glyph glyph-name="uni207D" unicode="&#x207d;" horiz-adv-x="398" 
d="M138 469q0 80 28 153.5t76 136.5h50q-48 -65 -74.5 -139t-26.5 -151q0 -79 26.5 -153t74.5 -139h-50q-48 63 -76 137t-28 155z" />
    <glyph glyph-name="uni207E" unicode="&#x207e;" horiz-adv-x="398" 
d="M260 469q0 -81 -28 -155t-76 -137h-50q48 65 74.5 139t26.5 153q0 77 -26.5 151t-74.5 139h50q48 -63 76 -136.5t28 -153.5z" />
    <glyph glyph-name="uni207F" unicode="&#x207f;" horiz-adv-x="398" 
d="M200 530q-29 0 -53 -12t-41 -33v-248h-56v335h56v-35q17 18 43.5 30.5t58.5 12.5q63 0 101 -39.5t38 -114.5v-189h-55v172q0 65 -24 93t-68 28z" />
    <glyph glyph-name="zeroinferior" horiz-adv-x="398" 
d="M199 346q41 0 72 -17.5t52 -49t32 -75.5t11 -97t-11 -97t-32 -75.5t-52 -49t-72 -17.5t-72 17.5t-52 49t-32 75.5t-11 97t11 97t32 75.5t52 49t72 17.5zM199 -83q54 0 82.5 51t28.5 139t-28.5 139t-82.5 51t-82.5 -51t-28.5 -139t28.5 -139t82.5 -51z" />
    <glyph glyph-name="oneinferior" horiz-adv-x="398" 
d="M99 205l-28 44l121 90h48v-465h-56v394z" />
    <glyph glyph-name="twoinferior" horiz-adv-x="398" 
d="M53 -126v46q45 35 87.5 79t79.5 89q31 37 44.5 68.5t13.5 57.5q0 42 -25.5 62.5t-69.5 20.5q-29 0 -58 -8.5t-55 -24.5l-4 54q24 13 55.5 20.5t63.5 7.5q71 0 110.5 -34t39.5 -98q0 -35 -15 -70t-54 -84q-33 -41 -68.5 -76.5t-66.5 -61.5h207v-48h-285z" />
    <glyph glyph-name="threeinferior" horiz-adv-x="398" 
d="M103 141q43 0 74 7t50.5 19t28.5 27t9 31q0 35 -26 53t-71 18q-26 0 -54.5 -6t-54.5 -20l-5 51q23 11 54.5 18t62.5 7q69 0 110 -30.5t41 -87.5q0 -39 -25 -68.5t-75 -41.5q54 -14 80 -45.5t26 -76.5q0 -60 -44 -95t-120 -35q-29 0 -60 5.5t-58 16.5l5 55
q27 -15 55.5 -21t56.5 -6q56 0 82 23.5t26 56.5q0 20 -9 37.5t-28.5 30t-52 20t-78.5 7.5v50z" />
    <glyph glyph-name="fourinferior" horiz-adv-x="398" 
d="M31 -23v46l226 315h55v-313h54v-48h-54v-102h-56v102h-225zM91 25h165v229z" />
    <glyph glyph-name="fiveinferior" horiz-adv-x="398" 
d="M75 338h254v-49h-200v-132q13 5 28 7.5t29 2.5q34 0 63 -9.5t50.5 -28.5t33.5 -46.5t12 -63.5q0 -72 -48.5 -112t-126.5 -40q-29 0 -56.5 5t-53.5 17l5 55q23 -14 49.5 -20.5t52.5 -6.5q56 0 88.5 27t32.5 76q0 48 -30 72.5t-87 24.5q-25 0 -50.5 -5.5t-45.5 -16.5v243z
" />
    <glyph glyph-name="sixinferior" horiz-adv-x="398" 
d="M211 -134q-75 0 -120.5 54.5t-45.5 164.5q0 71 14 121t39.5 81t61 45t78.5 14q26 0 51 -5t45 -15l-6 -54q-39 24 -91 24q-61 0 -96 -43t-38 -128q19 23 49.5 36.5t63.5 13.5q69 0 109.5 -42.5t40.5 -113.5q0 -35 -11.5 -63t-32.5 -48t-49.5 -31t-61.5 -11zM309 18
q0 48 -25.5 77.5t-75.5 29.5q-66 0 -105 -56q0 -80 30 -116.5t78 -36.5q45 0 71.5 30t26.5 72z" />
    <glyph glyph-name="seveninferior" horiz-adv-x="398" 
d="M171 -125h-63l175 415h-226v48h288v-46z" />
    <glyph glyph-name="eightinferior" horiz-adv-x="398" 
d="M113 229q0 -29 21.5 -49.5t69.5 -39.5q43 17 61.5 40t18.5 49q0 28 -23 47.5t-62 19.5q-42 0 -64 -20.5t-22 -46.5zM303 -7q0 16 -5 28.5t-18 24.5t-35 23.5t-55 25.5q-48 -24 -70 -45t-22 -56q0 -36 29 -57t74 -21t73.5 21t28.5 56zM201 -134q-35 0 -64.5 9t-50.5 25.5
t-33 40.5t-12 54q0 42 26.5 74.5t72.5 50.5q-83 38 -83 108q0 54 40 86t102 32q63 0 102.5 -32.5t39.5 -85.5q0 -71 -86 -109q56 -23 79.5 -54.5t23.5 -66.5q0 -61 -42.5 -96.5t-114.5 -35.5z" />
    <glyph glyph-name="nineinferior" horiz-adv-x="398" 
d="M191 346q75 0 120.5 -54.5t45.5 -164.5q0 -71 -14 -121t-39.5 -81t-61 -45t-78.5 -14q-26 0 -51 5t-45 15l6 54q39 -24 91 -24q61 0 96 43t38 128q-19 -23 -49.5 -36.5t-63.5 -13.5q-69 0 -109.5 42.5t-40.5 113.5q0 34 11.5 62.5t32.5 48.5t49.5 31t61.5 11zM93 194
q0 -48 25.5 -77.5t75.5 -29.5q66 0 105 56q0 80 -30 116.5t-78 36.5q-45 0 -71.5 -30t-26.5 -72z" />
    <glyph glyph-name="uni208A" unicode="&#x208a;" horiz-adv-x="398" 
d="M171 85h-138v48h138v136h56v-136h138v-48h-138v-136h-56v136z" />
    <glyph glyph-name="uni208B" unicode="&#x208b;" horiz-adv-x="398" 
d="M33 85v48h332v-48h-332z" />
    <glyph glyph-name="uni208C" unicode="&#x208c;" horiz-adv-x="398" 
d="M33 150v48h332v-48h-332zM33 18v48h332v-48h-332z" />
    <glyph glyph-name="uni208D" unicode="&#x208d;" horiz-adv-x="398" 
d="M138 107q0 80 28 153.5t76 136.5h50q-48 -65 -74.5 -139t-26.5 -151q0 -79 26.5 -153t74.5 -139h-50q-48 63 -76 137t-28 155z" />
    <glyph glyph-name="uni208E" unicode="&#x208e;" horiz-adv-x="398" 
d="M260 107q0 -81 -28 -155t-76 -137h-50q48 65 74.5 139t26.5 153q0 77 -26.5 151t-74.5 139h50q48 -63 76 -136.5t28 -153.5z" />
    <glyph glyph-name="uni2090" unicode="&#x2090;" horiz-adv-x="398" 
d="M175 -133q-54 0 -90.5 29.5t-36.5 80.5q0 56 42.5 84.5t122.5 28.5h83q0 22 -4 38.5t-14.5 27.5t-29 17t-48.5 6q-29 0 -59.5 -6t-56.5 -19l-5 49q26 11 59 17.5t65 6.5q146 0 146 -134v-218h-53v37q-42 -45 -121 -45zM182 -86q38 0 67 13.5t47 40.5v74h-82
q-59 0 -85.5 -16t-26.5 -48q0 -29 22.5 -46.5t57.5 -17.5z" />
    <glyph glyph-name="uni2091" unicode="&#x2091;" horiz-adv-x="398" 
d="M99 23q5 -54 39 -81t85 -27q57 0 100 31l5 -50q-25 -16 -53 -22.5t-59 -6.5q-41 0 -73.5 13t-54.5 37t-33.5 57t-11.5 73q0 43 11.5 76.5t32.5 56.5t49.5 35t62.5 12q35 0 64 -13t49.5 -36.5t31.5 -56.5t11 -73v-11.5t-1 -13.5h-255zM198 179q-43 0 -69.5 -29t-30.5 -79
h199q-2 48 -29.5 78t-69.5 30z" />
    <glyph glyph-name="uni2092" unicode="&#x2092;" horiz-adv-x="398" 
d="M30 46q0 38 11.5 71t33 57.5t53 38.5t71.5 14t71 -14t53 -38.5t33.5 -57.5t11.5 -71t-11.5 -71t-33.5 -57t-53 -38t-71 -14t-71.5 14t-53 38t-33 57t-11.5 71zM87 46q0 -59 31.5 -95.5t80.5 -36.5t80.5 36.5t31.5 95.5q0 60 -31.5 96.5t-80.5 36.5t-80.5 -36.5
t-31.5 -96.5z" />
    <glyph glyph-name="uni2093" unicode="&#x2093;" horiz-adv-x="398" 
d="M165 51l-132 168h65l101 -124l101 124h64l-132 -168l142 -177h-69l-106 132l-107 -132h-68z" />
    <glyph glyph-name="uni2094" unicode="&#x2094;" horiz-adv-x="398" 
d="M181 179q-29 0 -56 -7t-50 -25l-5 51q25 16 53 22.5t59 6.5q41 0 73.5 -13t54.5 -37t33.5 -57.5t11.5 -73.5q0 -43 -11.5 -76.5t-32.5 -56.5t-49.5 -35t-62.5 -12q-35 0 -64 13t-49.5 36.5t-31.5 56.5t-11 73v11t1 13h255q-4 53 -36 81.5t-82 28.5zM200 -86q43 0 69.5 29
t30.5 79h-199q2 -48 29.5 -78t69.5 -30z" />
    <glyph glyph-name="uni20A0" unicode="&#x20a0;" horiz-adv-x="765" 
d="M42 459q0 58 18.5 104.5t52 79.5t79 51t99.5 18q32 0 64.5 -5t59.5 -16l-4 -61q-29 13 -59.5 19t-59.5 6q-85 0 -135.5 -52t-50.5 -144t50.5 -144t135.5 -52q24 0 50 4t51 13v210h324v-56h-261v-155h244v-56h-244v-167h267v-56h-330v220q-50 -14 -102 -14q-54 0 -99.5 18
t-79 51t-52 79.5t-18.5 104.5z" />
    <glyph glyph-name="colonmonetary" unicode="&#x20a1;" horiz-adv-x="603" 
d="M191 49q-69 48 -106.5 124.5t-37.5 176.5q0 75 22 137.5t63 110t99.5 76.5t131.5 36l20 78h40l-20 -76h4q35 0 70 -6l21 82h40l-23 -90q23 -5 43 -15l-6 -62q-11 6 -24.5 11t-27.5 9l-154 -590q16 -2 32.5 -3.5t33.5 -1.5q37 0 74.5 8.5t69.5 26.5l5 -63
q-35 -17 -75 -23.5t-77 -6.5q-41 0 -78 6l-16 -63h-40l18 72q-33 9 -68 26l-25 -98h-40zM113 350q0 -76 24.5 -136t70.5 -100l139 535q-56 -9 -99.5 -34.5t-73.5 -64.5t-45.5 -89.5t-15.5 -110.5zM241 90q28 -19 67 -30l154 589q-35 7 -74 4z" />
    <glyph glyph-name="uni20A2" unicode="&#x20a2;" horiz-adv-x="615" 
d="M501 435q-51 0 -89.5 -27t-64.5 -79v-278q15 -2 31.5 -3.5t33.5 -1.5q37 0 74.5 8.5t69.5 26.5l5 -63q-35 -17 -75 -23.5t-77 -6.5q-83 0 -150 26t-114 73.5t-72.5 114.5t-25.5 148q0 80 25.5 146.5t72 114.5t113 74.5t149.5 26.5q39 0 79 -7t72 -22l-6 -62
q-31 17 -67.5 25t-74.5 8q-70 0 -125 -22t-93.5 -62t-58.5 -96t-20 -124q0 -105 45 -178t129 -105v410h60v-75q24 38 65.5 62.5t93.5 24.5q17 0 33.5 -2t28.5 -7l-7 -57q-24 12 -60 12z" />
    <glyph glyph-name="franc" unicode="&#x20a3;" horiz-adv-x="528" 
d="M450 407h-306v-91h306v-44h-306v-272h-64v272h-58v44h58v91h-58v44h58v249h424v-56h-360v-193h306v-44z" />
    <glyph glyph-name="lira" unicode="&#x20a4;" horiz-adv-x="537" 
d="M51 419h87v43q0 132 52.5 191t166.5 59q82 0 144 -35l-5 -61q-30 18 -63 28t-73 10q-42 0 -72 -9t-49 -31t-28 -59.5t-9 -93.5v-42h222v-44h-222v-91h222v-44h-222v-184h303v-56h-473v56h106v184h-87v44h87v91h-87v44z" />
    <glyph glyph-name="uni20A6" unicode="&#x20a6;" horiz-adv-x="700" 
d="M22 438h60v262h79l167 -262h226v262h64v-262h60v-44h-60v-90h60v-44h-60v-260h-78l-166 260h-227v-260h-65v260h-60v44h60v90h-60v44zM147 304h199l-58 90h-141v-90zM413 304h141v90h-198zM147 438h113l-113 178v-178zM554 84v176h-113z" />
    <glyph glyph-name="peseta" unicode="&#x20a7;" horiz-adv-x="998" 
d="M116 258v-258h-64v700h111q107 0 177 -46t84 -136h68v155h63v-155h195q33 12 77 12q34 0 66.5 -7.5t56.5 -22.5l-5 -57q-23 15 -52 23t-61 8q-49 0 -77 -18t-28 -53q0 -16 6 -29t19 -25.5t34 -25.5t51 -29q33 -18 58.5 -34t43 -34t26.5 -40t9 -50q0 -69 -44.5 -102.5
t-121.5 -33.5h-179q-68 0 -102.5 42.5t-34.5 135.5v287h-66q-3 -51 -23 -89.5t-54.5 -64.5t-81.5 -39.5t-104 -13.5h-47zM555 172q0 -65 18.5 -92.5t56.5 -27.5h178q54 0 78 19.5t24 58.5q0 22 -6 37.5t-18 27.5t-29.5 23t-40.5 23q-40 21 -68.5 39.5t-46.5 36.5t-26.5 38
t-8.5 45q0 38 24 65h-135v-293zM161 314q202 0 202 165t-202 165h-45v-330h45z" />
    <glyph glyph-name="uni20A8" unicode="&#x20a8;" horiz-adv-x="976" 
d="M534 500q0 -72 -43 -120.5t-118 -66.5l191 -313h-72l-183 303q-12 -1 -25 -1.5t-27 -0.5h-111v-301h-64v700h197q57 0 104 -13.5t80.5 -39t52 -63t18.5 -84.5zM469 500q0 69 -50 106.5t-144 37.5h-129v-287h129q94 0 144 37.5t50 105.5zM736 -12q-43 0 -87 11t-78 33
l5 64q35 -27 77.5 -40.5t81.5 -13.5q66 0 101.5 24.5t35.5 67.5q0 37 -31 62.5t-105 45.5q-83 21 -122.5 59t-39.5 94q0 32 13.5 57t38 42.5t58 26.5t74.5 9q39 0 76.5 -8t69.5 -22l-6 -61q-32 20 -67.5 28.5t-73.5 8.5q-58 0 -89.5 -21.5t-31.5 -57.5q0 -35 29.5 -60.5
t98.5 -44.5q96 -26 133 -65t37 -91q0 -72 -53 -110t-145 -38z" />
    <glyph glyph-name="uni20A9" unicode="&#x20a9;" horiz-adv-x="986" 
d="M22 291h134l-29 88h-105v44h91l-91 277h68l89 -277h201l76 277h74l75 -277h201l90 277h68l-91 -277h91v-44h-106l-29 -88h135v-44h-149l-81 -247h-74l-68 247h-198l-68 -247h-74l-81 247h-149v44zM406 291h174l-25 88h-125zM222 291h122l24 88h-174zM641 291h122l29 88
h-175zM442 423h101l-50 184zM289 87l43 160h-95zM697 87l52 160h-96z" />
    <glyph glyph-name="afii57636" unicode="&#x20aa;" horiz-adv-x="856" 
d="M82 700h233q57 0 104 -18t80 -53.5t51.5 -89t18.5 -124.5v-158h-64v153q0 63 -13.5 107.5t-38 72.5t-59 41t-77.5 13h-171v-644h-64v700zM774 0h-233q-57 0 -103.5 18t-80 53.5t-51.5 89t-18 124.5v157h64v-152q0 -63 13.5 -107.5t38 -72.5t59 -41t77.5 -13h170v644h64
v-700z" />
    <glyph glyph-name="dong" unicode="&#x20ab;" horiz-adv-x="588" 
d="M232 636h210v64h64v-64h70v-52h-70v-584h-64v47q-28 -28 -68.5 -43.5t-85.5 -15.5q-52 0 -97 17.5t-78 51.5t-52 83t-19 111t19 111t52 82.5t78 51.5t97 18q45 0 85.5 -15.5t68.5 -44.5v130h-210v52zM296 46q42 0 81 16t65 47v284q-26 31 -65 47t-81 16q-39 0 -73.5 -14
t-60 -40.5t-40 -64.5t-14.5 -86t14.5 -86t40 -64.5t60 -40.5t73.5 -14zM494 -147h-355v58h355v-58z" />
    <glyph glyph-name="Euro" unicode="&#x20ac;" horiz-adv-x="600" 
d="M22 308h53q-2 18 -1.5 40t2.5 43h-54v44h59q11 63 38.5 114t70 87t99 56t125.5 20q78 0 141 -29l-6 -62q-31 17 -62.5 25t-69.5 8q-114 0 -181.5 -59.5t-87.5 -159.5h347l-12 -44h-341q-2 -20 -2.5 -43t1.5 -40h317l-13 -44h-297q20 -103 88 -160.5t183 -57.5
q70 0 134 35l5 -63q-35 -17 -70 -23.5t-72 -6.5q-70 0 -127 19.5t-99.5 55.5t-70 87t-38.5 114h-59v44z" />
    <glyph glyph-name="afii61248" unicode="&#x2105;" horiz-adv-x="982" 
d="M30 487q0 51 16.5 93t45.5 71t68.5 45t85.5 16q31 0 62.5 -6.5t55.5 -18.5l-6 -56q-47 30 -111 30q-33 0 -61.5 -12t-50 -34.5t-33.5 -54.5t-12 -73t12 -73.5t33.5 -55t50.5 -34.5t62 -12q65 0 113 30l5 -56q-24 -11 -55.5 -18t-63.5 -7q-46 0 -85.5 16t-69 45.5t-46 71
t-16.5 93.5zM305 -15h-56l393 730h56zM750 -9q-47 0 -84 17t-63.5 47.5t-40.5 71.5t-14 89t14 89t40.5 71.5t63.5 47.5t84 17q46 0 83.5 -17t64 -47.5t40.5 -71.5t14 -89t-14 -89t-40.5 -71.5t-64 -47.5t-83.5 -17zM750 390q-32 0 -58 -12.5t-44.5 -35t-29 -54.5t-10.5 -72
t10.5 -72t29 -54.5t44.5 -35t58 -12.5q31 0 57.5 12.5t45 35t29 54.5t10.5 72t-10.5 72t-29 54.5t-45 35t-57.5 12.5z" />
    <glyph glyph-name="uni2109" unicode="&#x2109;" horiz-adv-x="781" 
d="M333 700h424v-56h-360v-252h335v-56h-335v-336h-64v700zM277 583q0 -28 -10 -51.5t-28 -41t-42.5 -27t-52.5 -9.5t-52.5 9.5t-42.5 27t-28 41t-10 51.5t10 51.5t28 40.5t42.5 27t52.5 10t52.5 -10t42.5 -27t28 -40.5t10 -51.5zM225 583q0 35 -23.5 58t-57.5 23t-57.5 -23
t-23.5 -58t23.5 -58t57.5 -23t57.5 23t23.5 58z" />
    <glyph glyph-name="afii61289" unicode="&#x2113;" horiz-adv-x="471" 
d="M42 87q42 7 84 26q-15 33 -25.5 69.5t-17 73t-9 72t-2.5 65.5q0 76 15 135.5t41 100.5t62 62t77 21q70 0 106.5 -61t36.5 -166q0 -62 -10 -113t-28 -93t-43.5 -76.5t-56.5 -63.5q-14 -14 -29.5 -26t-32.5 -23q17 -21 37.5 -33t47.5 -12q29 0 51.5 19t35.5 63l47 -39
q-18 -51 -51.5 -75.5t-81.5 -24.5q-46 0 -80 20t-59 53q-47 -20 -93 -29zM345 484q0 93 -22.5 131.5t-59.5 38.5q-24 0 -46.5 -16.5t-40.5 -48.5t-28.5 -80.5t-10.5 -112.5q0 -27 2 -59.5t7 -66t13.5 -67t20.5 -61.5q31 20 55 44t43 52.5t33 64.5t22.5 80.5t11.5 100.5z" />
    <glyph glyph-name="afii61352" unicode="&#x2116;" horiz-adv-x="932" 
d="M82 700h79l242 -587v587h64v-700h-80l-241 587v-587h-64v700zM890 0h-376v50h376v-50zM524 322q0 45 12 83t35.5 65t56.5 42t75 15t74.5 -15t55.5 -42t35 -65t12 -83t-12 -83t-35 -65.5t-55.5 -42.5t-74.5 -15t-75 15t-56.5 42.5t-35.5 65.5t-12 83zM586 322
q0 -75 32 -113.5t84 -38.5t84 38.5t32 113.5q0 74 -32 112.5t-84 38.5t-84 -38.5t-32 -112.5z" />
    <glyph glyph-name="uni2117" unicode="&#x2117;" horiz-adv-x="834" 
d="M542 414q0 44 -27 71t-83 27h-92v-196h92q56 0 83 27t27 71zM595 414q0 -67 -43 -105.5t-116 -38.5h-96v-140h-53v427h149q73 0 116 -38.5t43 -104.5zM55 350q0 75 28.5 141t77.5 115t115 77.5t141 28.5t141 -28.5t115 -77.5t77.5 -115t28.5 -141t-28.5 -141t-77.5 -115
t-115 -77.5t-141 -28.5t-141 28.5t-115 77.5t-77.5 115t-28.5 141zM91 350q0 -68 25 -127.5t69 -104t103.5 -70.5t128.5 -26t128.5 26t103.5 70.5t69 104t25 127.5q0 67 -25 127t-69 104.5t-103.5 70.5t-128.5 26t-128.5 -26t-103.5 -70.5t-69 -104.5t-25 -127z" />
    <glyph glyph-name="uni2120" unicode="&#x2120;" horiz-adv-x="664" 
d="M132 523q-50 17 -70 40.5t-20 57.5q0 38 28.5 60.5t83.5 22.5q20 0 42 -4.5t40 -12.5l-3 -46q-17 11 -36 15.5t-39 4.5q-65 0 -65 -38q0 -17 14.5 -31.5t52.5 -28.5q52 -20 72.5 -43.5t20.5 -59.5q0 -43 -30 -67t-87 -24q-51 0 -91 20l5 49q17 -12 38 -19t41 -7
q38 0 55.5 13t17.5 34q0 20 -15 35t-55 29zM433 483l-94 140v-250h-50v327h53l108 -164l109 164h53v-327h-50v250l-94 -140h-35z" />
    <glyph glyph-name="uni2121" unicode="&#x2121;" horiz-adv-x="901" 
d="M542 41q35 0 64 11t54 35l7 -61q-25 -19 -58 -28.5t-71 -9.5q-54 0 -95 21t-68.5 57.5t-41.5 86.5t-14 108q0 61 14 111t39 85t60.5 54t77.5 19q44 0 79.5 -19.5t61 -54.5t39 -84t13.5 -108v-13.5t-1 -15.5h-321q1 -42 12.5 -77.5t31.5 -61.5t49.5 -40.5t67.5 -14.5z
M641 287q-1 43 -11 78t-27 60t-41 38.5t-52 13.5q-56 0 -91.5 -51.5t-37.5 -138.5h260zM182 644h-170v56h402v-56h-168v-644h-64v644zM769 730h60v-730h-60v730z" />
    <glyph glyph-name="trademark" unicode="&#x2122;" horiz-adv-x="668" 
d="M112 657h-100v43h250v-43h-100v-283h-50v283zM438 483l-94 140v-250h-50v327h53l108 -164l109 164h52v-327h-49v250l-94 -140h-35z" />
    <glyph glyph-name="Omega" unicode="&#x2126;" horiz-adv-x="708" 
d="M354 712q73 0 130.5 -26.5t96.5 -72.5t59.5 -108.5t20.5 -134.5q0 -53 -12.5 -99.5t-34 -86t-51.5 -72t-65 -56.5h151v-56h-240v53q88 55 137 132.5t49 184.5q0 63 -16.5 115.5t-47 90t-75.5 58t-102 20.5t-101.5 -21t-75.5 -58.5t-47.5 -89.5t-16.5 -115
q0 -107 49.5 -184.5t137.5 -132.5v-53h-241v56h152q-35 24 -65 56.5t-52 72t-34.5 86t-12.5 99.5q0 72 20.5 134.5t60 108.5t96.5 72.5t130 26.5z" />
    <glyph glyph-name="estimated" unicode="&#x212e;" horiz-adv-x="746" 
d="M407 28q65 0 124.5 16t110.5 48l10 -45q-54 -29 -117 -44t-130 -15q-96 0 -164 28t-111 76.5t-63 114.5t-20 143q0 74 22 139.5t64 115t104 78.5t142 29q76 0 136 -29t100.5 -78.5t62 -117t21.5 -143.5v-17h-492v-240q68 -59 200 -59zM544 614q-32 27 -75 42t-93 15
t-93.5 -15t-75.5 -42v-247h337v247z" />
    <glyph glyph-name="onethird" unicode="&#x2153;" horiz-adv-x="950" 
d="M99 567l-28 44l121 90h48v-465h-56v394zM248 -15h-56l393 730h56zM652 268q43 0 74 7t50.5 19t28.5 27t9 31q0 35 -26 53t-71 18q-26 0 -54.5 -6t-54.5 -20l-5 51q23 11 54.5 18t62.5 7q69 0 110 -30.5t41 -87.5q0 -39 -25 -68.5t-75 -41.5q54 -14 80 -45.5t26 -76.5
q0 -60 -44 -95t-120 -35q-29 0 -60 5.5t-58 16.5l5 55q27 -15 55.5 -21t56.5 -6q56 0 82 23.5t26 56.5q0 20 -9 37.5t-28.5 30t-52 20t-78.5 7.5v50z" />
    <glyph glyph-name="twothirds" unicode="&#x2154;" horiz-adv-x="950" 
d="M652 268q43 0 74 7t50.5 19t28.5 27t9 31q0 35 -26 53t-71 18q-26 0 -54.5 -6t-54.5 -20l-5 51q23 11 54.5 18t62.5 7q69 0 110 -30.5t41 -87.5q0 -39 -25 -68.5t-75 -41.5q54 -14 80 -45.5t26 -76.5q0 -60 -44 -95t-120 -35q-29 0 -60 5.5t-58 16.5l5 55
q27 -15 55.5 -21t56.5 -6q56 0 82 23.5t26 56.5q0 20 -9 37.5t-28.5 30t-52 20t-78.5 7.5v50zM295 -15h-56l393 730h56zM53 236v46q45 35 87.5 79t79.5 89q31 37 44.5 68.5t13.5 57.5q0 42 -25.5 62.5t-69.5 20.5q-29 0 -58 -8.5t-55 -24.5l-4 54q24 13 55.5 20.5t63.5 7.5
q71 0 110.5 -34t39.5 -98q0 -35 -15 -70t-54 -84q-33 -41 -68.5 -76.5t-66.5 -61.5h207v-48h-285z" />
    <glyph glyph-name="onefifth" unicode="&#x2155;" horiz-adv-x="950" 
d="M255 -15h-56l393 730h56zM619 464h254v-49h-200v-132q13 5 28 7.5t29 2.5q34 0 63 -9.5t50.5 -28.5t33.5 -46.5t12 -63.5q0 -72 -48.5 -112t-126.5 -40q-29 0 -56.5 5t-53.5 17l5 55q23 -14 49.5 -20.5t52.5 -6.5q56 0 88.5 27t32.5 76q0 48 -30 72.5t-87 24.5
q-25 0 -50.5 -5.5t-45.5 -16.5v243zM99 567l-28 44l121 90h48v-465h-56v394z" />
    <glyph glyph-name="twofifths" unicode="&#x2156;" horiz-adv-x="950" 
d="M290 -15h-56l393 730h56zM619 464h254v-49h-200v-132q13 5 28 7.5t29 2.5q34 0 63 -9.5t50.5 -28.5t33.5 -46.5t12 -63.5q0 -72 -48.5 -112t-126.5 -40q-29 0 -56.5 5t-53.5 17l5 55q23 -14 49.5 -20.5t52.5 -6.5q56 0 88.5 27t32.5 76q0 48 -30 72.5t-87 24.5
q-25 0 -50.5 -5.5t-45.5 -16.5v243zM53 236v46q45 35 87.5 79t79.5 89q31 37 44.5 68.5t13.5 57.5q0 42 -25.5 62.5t-69.5 20.5q-29 0 -58 -8.5t-55 -24.5l-4 54q24 13 55.5 20.5t63.5 7.5q71 0 110.5 -34t39.5 -98q0 -35 -15 -70t-54 -84q-33 -41 -68.5 -76.5t-66.5 -61.5
h207v-48h-285z" />
    <glyph glyph-name="threefifths" unicode="&#x2157;" horiz-adv-x="950" 
d="M286 -15h-56l393 730h56zM619 464h254v-49h-200v-132q13 5 28 7.5t29 2.5q34 0 63 -9.5t50.5 -28.5t33.5 -46.5t12 -63.5q0 -72 -48.5 -112t-126.5 -40q-29 0 -56.5 5t-53.5 17l5 55q23 -14 49.5 -20.5t52.5 -6.5q56 0 88.5 27t32.5 76q0 48 -30 72.5t-87 24.5
q-25 0 -50.5 -5.5t-45.5 -16.5v243zM103 503q43 0 74 7t50.5 19t28.5 27t9 31q0 35 -26 53t-71 18q-26 0 -54.5 -6t-54.5 -20l-5 51q23 11 54.5 18t62.5 7q69 0 110 -30.5t41 -87.5q0 -39 -25 -68.5t-75 -41.5q54 -14 80 -45.5t26 -76.5q0 -60 -44 -95t-120 -35
q-29 0 -60 5.5t-58 16.5l5 55q27 -15 55.5 -21t56.5 -6q56 0 82 23.5t26 56.5q0 20 -9 37.5t-28.5 30t-52 20t-78.5 7.5v50z" />
    <glyph glyph-name="fourfifths" unicode="&#x2158;" horiz-adv-x="950" 
d="M290 -15h-56l393 730h56zM619 464h254v-49h-200v-132q13 5 28 7.5t29 2.5q34 0 63 -9.5t50.5 -28.5t33.5 -46.5t12 -63.5q0 -72 -48.5 -112t-126.5 -40q-29 0 -56.5 5t-53.5 17l5 55q23 -14 49.5 -20.5t52.5 -6.5q56 0 88.5 27t32.5 76q0 48 -30 72.5t-87 24.5
q-25 0 -50.5 -5.5t-45.5 -16.5v243zM31 339v46l226 315h55v-313h54v-48h-54v-102h-56v102h-225zM91 387h165v229z" />
    <glyph glyph-name="onesixth" unicode="&#x2159;" horiz-adv-x="950" 
d="M251 -15h-56l393 730h56zM741 -7q-75 0 -120.5 54.5t-45.5 164.5q0 71 14 121t39.5 81t61 45t78.5 14q26 0 51 -5t45 -15l-6 -54q-39 24 -91 24q-61 0 -96 -43t-38 -128q19 23 49.5 36.5t63.5 13.5q69 0 109.5 -42.5t40.5 -113.5q0 -35 -11.5 -63t-32.5 -48t-49.5 -31
t-61.5 -11zM839 145q0 48 -25.5 77.5t-75.5 29.5q-66 0 -105 -56q0 -80 30 -116.5t78 -36.5q45 0 71.5 30t26.5 72zM99 567l-28 44l121 90h48v-465h-56v394z" />
    <glyph glyph-name="fivesixths" unicode="&#x215a;" horiz-adv-x="950" 
d="M290 -15h-56l393 730h56zM75 700h254v-49h-200v-132q13 5 28 7.5t29 2.5q34 0 63 -9.5t50.5 -28.5t33.5 -46.5t12 -63.5q0 -72 -48.5 -112t-126.5 -40q-29 0 -56.5 5t-53.5 17l5 55q23 -14 49.5 -20.5t52.5 -6.5q56 0 88.5 27t32.5 76q0 48 -30 72.5t-87 24.5
q-25 0 -50.5 -5.5t-45.5 -16.5v243zM741 -7q-75 0 -120.5 54.5t-45.5 164.5q0 71 14 121t39.5 81t61 45t78.5 14q26 0 51 -5t45 -15l-6 -54q-39 24 -91 24q-61 0 -96 -43t-38 -128q19 23 49.5 36.5t63.5 13.5q69 0 109.5 -42.5t40.5 -113.5q0 -35 -11.5 -63t-32.5 -48
t-49.5 -31t-61.5 -11zM839 145q0 48 -25.5 77.5t-75.5 29.5q-66 0 -105 -56q0 -80 30 -116.5t78 -36.5q45 0 71.5 30t26.5 72z" />
    <glyph glyph-name="oneeighth" unicode="&#x215b;" horiz-adv-x="950" 
d="M263 -15h-56l393 730h56zM650 356q0 -29 21.5 -49.5t69.5 -39.5q43 17 61.5 40t18.5 49q0 28 -23 47.5t-62 19.5q-42 0 -64 -20.5t-22 -46.5zM840 120q0 16 -5 28.5t-18 24.5t-35 23.5t-55 25.5q-48 -24 -70 -45t-22 -56q0 -36 29 -57t74 -21t73.5 21t28.5 56zM738 -7
q-35 0 -64.5 9t-50.5 25.5t-33 40.5t-12 54q0 42 26.5 74.5t72.5 50.5q-83 38 -83 108q0 54 40 86t102 32q63 0 102.5 -32.5t39.5 -85.5q0 -71 -86 -109q56 -23 79.5 -54.5t23.5 -66.5q0 -61 -42.5 -96.5t-114.5 -35.5zM99 567l-28 44l121 90h48v-465h-56v394z" />
    <glyph glyph-name="threeeighths" unicode="&#x215c;" horiz-adv-x="950" 
d="M285 -15h-56l393 730h56zM650 356q0 -29 21.5 -49.5t69.5 -39.5q43 17 61.5 40t18.5 49q0 28 -23 47.5t-62 19.5q-42 0 -64 -20.5t-22 -46.5zM840 120q0 16 -5 28.5t-18 24.5t-35 23.5t-55 25.5q-48 -24 -70 -45t-22 -56q0 -36 29 -57t74 -21t73.5 21t28.5 56zM738 -7
q-35 0 -64.5 9t-50.5 25.5t-33 40.5t-12 54q0 42 26.5 74.5t72.5 50.5q-83 38 -83 108q0 54 40 86t102 32q63 0 102.5 -32.5t39.5 -85.5q0 -71 -86 -109q56 -23 79.5 -54.5t23.5 -66.5q0 -61 -42.5 -96.5t-114.5 -35.5zM103 503q43 0 74 7t50.5 19t28.5 27t9 31q0 35 -26 53
t-71 18q-26 0 -54.5 -6t-54.5 -20l-5 51q23 11 54.5 18t62.5 7q69 0 110 -30.5t41 -87.5q0 -39 -25 -68.5t-75 -41.5q54 -14 80 -45.5t26 -76.5q0 -60 -44 -95t-120 -35q-29 0 -60 5.5t-58 16.5l5 55q27 -15 55.5 -21t56.5 -6q56 0 82 23.5t26 56.5q0 20 -9 37.5t-28.5 30
t-52 20t-78.5 7.5v50z" />
    <glyph glyph-name="fiveeighths" unicode="&#x215d;" horiz-adv-x="950" 
d="M286 -15h-56l393 730h56zM650 356q0 -29 21.5 -49.5t69.5 -39.5q43 17 61.5 40t18.5 49q0 28 -23 47.5t-62 19.5q-42 0 -64 -20.5t-22 -46.5zM840 120q0 16 -5 28.5t-18 24.5t-35 23.5t-55 25.5q-48 -24 -70 -45t-22 -56q0 -36 29 -57t74 -21t73.5 21t28.5 56zM738 -7
q-35 0 -64.5 9t-50.5 25.5t-33 40.5t-12 54q0 42 26.5 74.5t72.5 50.5q-83 38 -83 108q0 54 40 86t102 32q63 0 102.5 -32.5t39.5 -85.5q0 -71 -86 -109q56 -23 79.5 -54.5t23.5 -66.5q0 -61 -42.5 -96.5t-114.5 -35.5zM75 700h254v-49h-200v-132q13 5 28 7.5t29 2.5
q34 0 63 -9.5t50.5 -28.5t33.5 -46.5t12 -63.5q0 -72 -48.5 -112t-126.5 -40q-29 0 -56.5 5t-53.5 17l5 55q23 -14 49.5 -20.5t52.5 -6.5q56 0 88.5 27t32.5 76q0 48 -30 72.5t-87 24.5q-25 0 -50.5 -5.5t-45.5 -16.5v243z" />
    <glyph glyph-name="seveneighths" unicode="&#x215e;" horiz-adv-x="950" 
d="M237 -15h-56l393 730h56zM650 356q0 -29 21.5 -49.5t69.5 -39.5q43 17 61.5 40t18.5 49q0 28 -23 47.5t-62 19.5q-42 0 -64 -20.5t-22 -46.5zM840 120q0 16 -5 28.5t-18 24.5t-35 23.5t-55 25.5q-48 -24 -70 -45t-22 -56q0 -36 29 -57t74 -21t73.5 21t28.5 56zM738 -7
q-35 0 -64.5 9t-50.5 25.5t-33 40.5t-12 54q0 42 26.5 74.5t72.5 50.5q-83 38 -83 108q0 54 40 86t102 32q63 0 102.5 -32.5t39.5 -85.5q0 -71 -86 -109q56 -23 79.5 -54.5t23.5 -66.5q0 -61 -42.5 -96.5t-114.5 -35.5zM171 237h-63l175 415h-226v48h288v-46z" />
    <glyph glyph-name="uni215F" unicode="&#x215f;" horiz-adv-x="950" 
d="M244 -15h-56l393 730h56zM99 567l-28 44l121 90h48v-465h-56v394z" />
    <glyph glyph-name="arrowleft" unicode="&#x2190;" horiz-adv-x="864" 
d="M826 307h-605l51 -169l-234 194l234 190l-51 -165h605v-50z" />
    <glyph glyph-name="arrowup" unicode="&#x2191;" horiz-adv-x="864" 
d="M405 -38v605l-165 -51l190 234l194 -234l-169 51v-605h-50z" />
    <glyph glyph-name="arrowright" unicode="&#x2192;" horiz-adv-x="864" 
d="M38 357h605l-51 165l234 -190l-234 -194l51 169h-605v50z" />
    <glyph glyph-name="arrowdown" unicode="&#x2193;" horiz-adv-x="864" 
d="M455 750v-605l169 51l-194 -234l-190 234l165 -51v605h50z" />
    <glyph glyph-name="arrowboth" unicode="&#x2194;" horiz-adv-x="864" 
d="M272 137l-234 195l234 190l-51 -166h422l-51 166l234 -190l-234 -195l51 170h-422z" />
    <glyph glyph-name="arrowupdn" unicode="&#x2195;" horiz-adv-x="864" 
d="M624 196l-194 -234l-190 234l165 -51v422l-165 -51l190 234l194 -234l-169 51v-422z" />
    <glyph glyph-name="arrowupdnbse" unicode="&#x21a8;" horiz-adv-x="864" 
d="M624 196l-188 -227h182v-57h-376v57h182l-184 227l165 -51v422l-165 -51l190 234l194 -234l-169 51v-422z" />
    <glyph glyph-name="partialdiff" unicode="&#x2202;" horiz-adv-x="575" 
d="M469 443q0 109 -43.5 159t-119.5 50q-35 0 -66.5 -8t-57.5 -22l-6 59q26 14 61.5 21t73.5 7q107 0 164.5 -70.5t57.5 -201.5q0 -100 -23 -182.5t-64 -142t-99 -92t-127 -32.5q-83 0 -130.5 47.5t-47.5 145.5q0 61 22 115.5t60 95.5t88 65.5t107 24.5q48 0 86 -17.5
t64 -40.5v19zM318 424q-42 0 -80 -19t-67 -52t-46.5 -77t-17.5 -95q0 -70 27.5 -103t86.5 -33q49 0 92 25t75.5 68.5t52.5 103t23 128.5q-26 24 -62 39t-84 15z" />
    <glyph glyph-name="Delta" unicode="&#x2206;" horiz-adv-x="642" 
d="M7 0l280 700h68l280 -700h-628zM542 56l-221 564l-221 -564h442z" />
    <glyph glyph-name="product" unicode="&#x220f;" horiz-adv-x="688" 
d="M82 740h524v-851h-64v795h-396v-795h-64v851z" />
    <glyph glyph-name="summation" unicode="&#x2211;" horiz-adv-x="614" 
d="M258 331l-216 368v59h540v-56h-470l211 -356v-30l-212 -371h471v-56h-540v60z" />
    <glyph glyph-name="minus" unicode="&#x2212;" horiz-adv-x="612" 
d="M62 304v56h488v-56h-488z" />
    <glyph glyph-name="uni2215" unicode="&#x2215;" horiz-adv-x="461" 
d="M82 -15h-66l363 730h66z" />
    <glyph glyph-name="uni2219" unicode="&#x2219;" horiz-adv-x="292" 
d="M189 331q0 -31 -10.5 -43.5t-32.5 -12.5t-32.5 12.5t-10.5 43.5t10.5 43.5t32.5 12.5t32.5 -12.5t10.5 -43.5z" />
    <glyph glyph-name="radical" unicode="&#x221a;" horiz-adv-x="708" 
d="M216 377l124 -319l171 712h55l-182 -770h-77l-129 329h-76v48h114z" />
    <glyph glyph-name="infinity" unicode="&#x221e;" horiz-adv-x="765" 
d="M562 473q30 0 56 -10t44.5 -28.5t29.5 -45t11 -58.5q0 -33 -11 -59t-29.5 -45t-44.5 -29t-56 -10q-23 0 -44.5 5t-43 17t-44.5 32.5t-48 50.5q-25 -30 -47.5 -50.5t-44 -32.5t-42.5 -17t-44 -5q-30 0 -56 10t-45 29t-30 45t-11 59q0 32 11 58.5t30 45t45 28.5t56 10
q23 0 44 -5t42.5 -17.5t44 -32.5t47.5 -50q25 30 48 50t44.5 32.5t43 17.5t44.5 5zM558 238q38 0 62.5 25.5t24.5 67.5t-24.5 67.5t-62.5 25.5q-18 0 -34 -4.5t-33 -15t-36 -28.5t-41 -46q22 -28 40.5 -45.5t36 -28t33.5 -14.5t34 -4zM207 424q-38 0 -62.5 -25.5
t-24.5 -67.5t24.5 -67.5t62.5 -25.5q18 0 34 4t33 14.5t35.5 28.5t40.5 46q-22 28 -40.5 46t-35.5 28.5t-33 14.5t-34 4z" />
    <glyph glyph-name="orthogonal" unicode="&#x221f;" horiz-adv-x="633" 
d="M611 0h-509v575h64v-523h445v-52z" />
    <glyph glyph-name="intersection" unicode="&#x2229;" horiz-adv-x="764" 
d="M382 564q-50 0 -89.5 -17t-68 -53t-43.5 -92.5t-15 -135.5v-266h-64v268q0 76 16 140t49.5 110.5t86.5 72.5t128 26t128 -26t86.5 -72.5t49.5 -110.5t16 -140v-268h-64v266q0 79 -15 135.5t-43.5 92.5t-68.5 53t-89 17z" />
    <glyph glyph-name="integral" unicode="&#x222b;" horiz-adv-x="556" 
d="M308 -36q0 -99 -39.5 -141.5t-115.5 -42.5q-35 0 -71 9l8 54q30 -10 62 -10q48 0 72 29.5t24 105.5v589q0 99 39.5 141.5t115.5 42.5q35 0 71 -9l-7 -54q-17 6 -32.5 8.5t-30.5 2.5q-48 0 -72 -30t-24 -106v-589z" />
    <glyph glyph-name="approxequal" unicode="&#x2248;" horiz-adv-x="612" 
d="M288 407q-32 26 -55 37t-43 11q-33 0 -49.5 -23t-16.5 -80h-62q0 83 35.5 120t94.5 37q31 0 62.5 -13t69.5 -44q32 -26 54.5 -37t42.5 -11q33 0 50 23t17 80h62q0 -83 -36 -120t-95 -37q-31 0 -62 13t-69 44zM288 212q-32 26 -55 37t-43 11q-33 0 -49.5 -23t-16.5 -80
h-62q0 83 35.5 120t94.5 37q31 0 62.5 -13t69.5 -44q32 -26 54.5 -37t42.5 -11q33 0 50 23t17 80h62q0 -83 -36 -120t-95 -37q-31 0 -62 13t-69 44z" />
    <glyph glyph-name="notequal" unicode="&#x2260;" horiz-adv-x="612" 
d="M367 470l120 177h62l-119 -177h120v-56h-158l-110 -164h268v-56h-306l-119 -177h-62l119 177h-120v56h157l111 164h-268v56h305z" />
    <glyph glyph-name="equivalence" unicode="&#x2261;" horiz-adv-x="612" 
d="M62 131v56h488v-56h-488zM62 304v56h488v-56h-488zM62 477v56h488v-56h-488z" />
    <glyph glyph-name="lessequal" unicode="&#x2264;" horiz-adv-x="612" 
d="M62 47v55h488v-55h-488zM62 423l488 220v-62l-419 -187l419 -187v-62l-488 220v58z" />
    <glyph glyph-name="greaterequal" unicode="&#x2265;" horiz-adv-x="612" 
d="M62 47v55h488v-55h-488zM550 365l-488 -220v62l419 187l-419 187v62l488 -220v-58z" />
    <glyph glyph-name="house" unicode="&#x2302;" horiz-adv-x="702" 
d="M540 52v256l-189 220l-189 -220v-256h378zM102 0v328l249 289l249 -289v-328h-498z" />
    <glyph glyph-name="revlogicalnot" unicode="&#x2310;" horiz-adv-x="612" 
d="M555 385h-426v-224h-62v280h488v-56z" />
    <glyph glyph-name="uni2318" unicode="&#x2318;" horiz-adv-x="892" 
d="M260 385q-34 0 -63 8t-50 24.5t-33 41.5t-12 59q0 58 38 96t103 38q69 0 104.5 -42t35.5 -110v-63h126v63q0 68 35.5 110t104.5 42q65 0 103 -38t38 -96q0 -34 -12 -59t-33 -41.5t-50 -24.5t-63 -8h-63v-125h63q34 0 63 -8t50 -24.5t33 -41.5t12 -59q0 -58 -38 -96
t-103 -38q-69 0 -104.5 42t-35.5 110v63h-126v-63q0 -68 -35.5 -110t-104.5 -42q-65 0 -103 38t-38 96q0 34 12 59t33 41.5t50 24.5t63 8h63v125h-63zM629 435q48 0 74.5 19t26.5 64q0 38 -21.5 60t-60.5 22q-42 0 -61.5 -26.5t-19.5 -75.5v-63h62zM567 210v-63
q0 -49 19.5 -75.5t61.5 -26.5q39 0 60.5 22t21.5 60q0 45 -26.5 64t-74.5 19h-62zM263 210q-48 0 -74.5 -19t-26.5 -64q0 -38 21.5 -60t60.5 -22q42 0 61.5 26.5t19.5 75.5v63h-62zM325 435v63q0 49 -19.5 75.5t-61.5 26.5q-39 0 -60.5 -22t-21.5 -60q0 -45 26.5 -64
t74.5 -19h62zM383 385v-125h126v125h-126z" />
    <glyph glyph-name="integraltp" unicode="&#x2320;" horiz-adv-x="685" 
d="M322 0v165q0 29 1 68t3.5 83.5t7.5 92.5t13 96q7 45 20 82.5t32.5 65.5t47 43.5t64.5 15.5q40 0 66 -22.5t26 -54.5q0 -29 -16.5 -45t-46.5 -16q-26 0 -38 12.5t-17 27t-6.5 27t-6.5 12.5q-19 0 -30.5 -37t-17.5 -98.5t-7.5 -141.5t-1.5 -165v-211h-93z" />
    <glyph glyph-name="integralbt" unicode="&#x2321;" horiz-adv-x="685" 
d="M415 999v-165q0 -29 -1 -68t-3.5 -83.5t-7.5 -92.5t-13 -96q-8 -45 -20.5 -82.5t-32 -65.5t-47 -43.5t-64.5 -15.5q-40 0 -66 22.5t-26 54.5q0 29 16.5 45t46.5 16q26 0 38 -12.5t17 -27t6.5 -27t6.5 -12.5q19 0 30.5 37t17.5 98.5t7.5 141t1.5 165.5v211h93z" />
    <glyph glyph-name="SF100000" unicode="&#x2500;" 
d="M1000 323v-46h-1000v46h1000z" />
    <glyph glyph-name="SF110000" unicode="&#x2502;" 
d="M523 910v-1220h-46v1220h46z" />
    <glyph glyph-name="SF010000" unicode="&#x250c;" 
d="M1000 323v-46h-477v-587h-46v633h523z" />
    <glyph glyph-name="SF030000" unicode="&#x2510;" 
d="M523 323v-633h-46v587h-477v46h523z" />
    <glyph glyph-name="SF020000" unicode="&#x2514;" 
d="M477 277v633h46v-587h477v-46h-523z" />
    <glyph glyph-name="SF040000" unicode="&#x2518;" 
d="M523 910v-633h-523v46h477v587h46z" />
    <glyph glyph-name="SF080000" unicode="&#x251c;" 
d="M523 910v-587h477v-46h-477v-587h-46v1220h46z" />
    <glyph glyph-name="SF090000" unicode="&#x2524;" 
d="M523 910v-1220h-46v587h-477v46h477v587h46z" />
    <glyph glyph-name="SF060000" unicode="&#x252c;" 
d="M1000 323v-46h-477v-587h-46v587h-477v46h1000z" />
    <glyph glyph-name="SF070000" unicode="&#x2534;" 
d="M523 910v-587h477v-46h-1000v46h477v587h46z" />
    <glyph glyph-name="SF050000" unicode="&#x253c;" 
d="M523 910v-587h477v-46h-477v-587h-46v587h-477v46h477v587h46z" />
    <glyph glyph-name="SF430000" unicode="&#x2550;" 
d="M1000 259v-46h-1000v46h1000zM0 341v46h1000v-46h-1000z" />
    <glyph glyph-name="SF240000" unicode="&#x2551;" 
d="M459 910v-1220h-46v1220h46zM541 -310v1220h46v-1220h-46z" />
    <glyph glyph-name="SF510000" unicode="&#x2552;" 
d="M477 387h523v-46h-477v-82h477v-46h-477v-523h-46v697z" />
    <glyph glyph-name="SF520000" unicode="&#x2553;" 
d="M1000 323v-46h-413v-587h-46v587h-82v-587h-46v633h587z" />
    <glyph glyph-name="SF390000" unicode="&#x2554;" 
d="M1000 259v-46h-413v-523h-46v569h459zM413 387h587v-46h-541v-651h-46v697z" />
    <glyph glyph-name="SF220000" unicode="&#x2555;" 
d="M523 -310h-46v523h-477v46h477v82h-477v46h523v-697z" />
    <glyph glyph-name="SF210000" unicode="&#x2556;" 
d="M587 323v-633h-46v587h-82v-587h-46v587h-413v46h587z" />
    <glyph glyph-name="SF250000" unicode="&#x2557;" 
d="M459 259v-569h-46v523h-413v46h459zM587 -310h-46v651h-541v46h587v-697z" />
    <glyph glyph-name="SF500000" unicode="&#x2558;" 
d="M477 910h46v-523h477v-46h-477v-82h477v-46h-523v697z" />
    <glyph glyph-name="SF490000" unicode="&#x2559;" 
d="M413 910h46v-587h82v587h46v-587h413v-46h-587v633z" />
    <glyph glyph-name="SF380000" unicode="&#x255a;" 
d="M541 341v569h46v-523h413v-46h-459zM413 910h46v-651h541v-46h-587v697z" />
    <glyph glyph-name="SF280000" unicode="&#x255b;" 
d="M0 213v46h477v82h-477v46h477v523h46v-697h-523z" />
    <glyph glyph-name="SF270000" unicode="&#x255c;" 
d="M0 277v46h413v587h46v-587h82v587h46v-633h-587z" />
    <glyph glyph-name="SF260000" unicode="&#x255d;" 
d="M0 341v46h413v523h46v-569h-459zM587 213h-587v46h541v651h46v-697z" />
    <glyph glyph-name="SF360000" unicode="&#x255e;" 
d="M477 910h46v-523h477v-46h-477v-82h477v-46h-477v-523h-46v1220z" />
    <glyph glyph-name="SF370000" unicode="&#x255f;" 
d="M541 -310v1220h46v-587h413v-46h-413v-587h-46zM459 910v-1220h-46v1220h46z" />
    <glyph glyph-name="SF420000" unicode="&#x2560;" 
d="M413 -310v1220h46v-1220h-46zM541 341v569h46v-523h413v-46h-459zM1000 259v-46h-413v-523h-46v569h459z" />
    <glyph glyph-name="SF190000" unicode="&#x2561;" 
d="M523 -310h-46v523h-477v46h477v82h-477v46h477v523h46v-1220z" />
    <glyph glyph-name="SF200000" unicode="&#x2562;" 
d="M413 323v587h46v-1220h-46v587h-413v46h413zM541 -310v1220h46v-1220h-46z" />
    <glyph glyph-name="SF230000" unicode="&#x2563;" 
d="M541 -310v1220h46v-1220h-46zM0 341v46h413v523h46v-569h-459zM459 259v-569h-46v523h-413v46h459z" />
    <glyph glyph-name="SF470000" unicode="&#x2564;" 
d="M1000 259v-46h-477v-523h-46v523h-477v46h1000zM0 341v46h1000v-46h-1000z" />
    <glyph glyph-name="SF480000" unicode="&#x2565;" 
d="M0 277v46h1000v-46h-413v-587h-46v587h-82v-587h-46v587h-413z" />
    <glyph glyph-name="SF410000" unicode="&#x2566;" 
d="M1000 341h-1000v46h1000v-46zM1000 259v-46h-413v-523h-46v569h459zM459 259v-569h-46v523h-413v46h459z" />
    <glyph glyph-name="SF450000" unicode="&#x2567;" 
d="M0 341v46h477v523h46v-523h477v-46h-1000zM1000 259v-46h-1000v46h1000z" />
    <glyph glyph-name="SF460000" unicode="&#x2568;" 
d="M413 323v587h46v-587h82v587h46v-587h413v-46h-1000v46h413z" />
    <glyph glyph-name="SF400000" unicode="&#x2569;" 
d="M1000 213h-1000v46h1000v-46zM541 341v569h46v-523h413v-46h-459zM0 341v46h413v523h46v-569h-459z" />
    <glyph glyph-name="SF540000" unicode="&#x256a;" 
d="M477 259v82h-477v46h477v523h46v-523h477v-46h-477v-82h477v-46h-477v-523h-46v523h-477v46h477z" />
    <glyph glyph-name="SF530000" unicode="&#x256b;" 
d="M413 323v587h46v-587h82v587h46v-587h413v-46h-413v-587h-46v587h-82v-587h-46v587h-413v46h413z" />
    <glyph glyph-name="SF440000" unicode="&#x256c;" 
d="M459 259v-569h-46v523h-413v46h459zM1000 259v-46h-413v-523h-46v569h459zM0 341v46h413v523h46v-569h-459zM541 341v569h46v-523h413v-46h-459z" />
    <glyph glyph-name="uni256D" unicode="&#x256d;" 
d="M477 -310v467q0 84 35.5 125t114.5 41h373v-46h-373q-59 0 -81.5 -32t-22.5 -108v-447h-46z" />
    </font>
</defs>
</svg>
