<?xml version="1.0" standalone="no"?>
<!DOCTYPE svg PUBLIC "-//W3C//DTD SVG 1.1//EN" "http://www.w3.org/Graphics/SVG/1.1/DTD/svg11.dtd" >
<svg xmlns="http://www.w3.org/2000/svg" xmlns:xlink="http://www.w3.org/1999/xlink" version="1.1">
<metadata>
Created by FontForge 20161003 at Sun Jul 29 10:57:14 2018
 By www-data
Copyright (c) 2010 by Rian Hughes / Device. All rights reserved.
</metadata>
<defs>
<font id="KorolevMediumCondensed" horiz-adv-x="446" >
  <font-face 
    font-family="KorolevMediumCondensed"
    font-weight="500"
    font-stretch="condensed"
    units-per-em="1000"
    panose-1="2 0 0 0 0 0 0 0 0 0"
    ascent="750"
    descent="-250"
    x-height="561"
    cap-height="705"
    bbox="-42 -229 1227 940"
    underline-thickness="50"
    underline-position="-150"
    unicode-range="U+0020-FB02"
  />
<missing-glyph horiz-adv-x="506" 
d="M65 0v700h376v-700h-376zM87 680v-658l154 328zM420 22v658l-155 -330zM253 325l-142 -303h284zM111 680l142 -305l142 305h-284z" />
    <glyph glyph-name="fi" unicode="fi" horiz-adv-x="428" 
d="M372 561v-561h-80v561h80zM230 763q69 0 105.5 -34.5t36.5 -93.5h-80q0 54 -63 54q-40 0 -54 -19.5t-14 -62.5v-46h73v-71h-73v-490h-81v490h-50v71h50v25q0 90 34 133.5t116 43.5z" />
    <glyph glyph-name="fl" unicode="fl" horiz-adv-x="428" 
d="M372 610v-610h-81v576q0 61 -12 86t-52 25q-37 0 -51.5 -19t-14.5 -61v-46h73v-71h-73v-490h-81v490h-50v71h50v25q0 89 34.5 133t112.5 44q73 0 109 -41.5t36 -111.5z" />
    <glyph glyph-name=".notdef" horiz-adv-x="506" 
d="M65 0v700h376v-700h-376zM87 680v-658l154 328zM420 22v658l-155 -330zM253 325l-142 -303h284zM111 680l142 -305l142 305h-284z" />
    <glyph glyph-name=".null" horiz-adv-x="0" 
 />
    <glyph glyph-name="nonmarkingreturn" horiz-adv-x="333" 
 />
    <glyph glyph-name="space" unicode=" " horiz-adv-x="179" 
 />
    <glyph glyph-name="exclam" unicode="!" horiz-adv-x="190" 
d="M83 151q-38 429 -38 508q0 52 49 52t49 -52q0 -35 -9 -162t-18 -237l-10 -109h-23zM44 45q0 21 15 36t35 15q22 0 37 -15t15 -36t-15 -36t-37 -15q-20 0 -35 15t-15 36z" />
    <glyph glyph-name="quotedbl" unicode="&#x22;" horiz-adv-x="310" 
d="M196 432l-11 273h86q-1 -18 -6 -136.5t-6 -136.5h-63zM50 432l-12 273h87q-1 -18 -6 -136.5t-6 -136.5h-63z" />
    <glyph glyph-name="numbersign" unicode="#" horiz-adv-x="530" 
d="M304 758l-61 -291h75l61 291h79l-61 -291h66v-75h-83l-16 -72h99v-74h-116l-61 -292h-78l61 292h-76l-60 -292h-79l61 292h-66v74h83l16 72h-99v75h116l61 291h78zM226 392l-16 -72h75l16 72h-75z" />
    <glyph glyph-name="dollar" unicode="$" horiz-adv-x="463" 
d="M229 715q10 0 28 -2v56h36v-63q58 -18 91 -66t33 -121h-84q0 57 -28 86.5t-76 29.5q-45 0 -71.5 -24.5t-26.5 -66.5t30 -75.5t72.5 -59.5t85.5 -54.5t73 -74t30 -104.5q0 -71 -34 -117t-95 -61v-64h-36v58q-4 0 -12.5 -0.5t-12.5 -0.5q-19 0 -27 1v-58h-36v65
q-61 17 -96 66.5t-35 126.5h84q0 -61 30 -91t81 -30q48 0 76.5 26t28.5 75q0 45 -30 80.5t-72.5 62.5t-85.5 55.5t-73 72.5t-30 101q0 61 31.5 104.5t90.5 58.5v62h36v-55q4 0 11.5 0.5t12.5 0.5z" />
    <glyph glyph-name="percent" unicode="%" horiz-adv-x="896" 
d="M677 -6q-78 0 -121 48.5t-43 133.5v33q0 83 43.5 131.5t120.5 48.5q76 0 120 -49t44 -131v-33q0 -85 -44 -133.5t-120 -48.5zM677 316q-41 0 -64 -27t-23 -79v-33q0 -111 87 -111t87 111v33q0 52 -23 79t-64 27zM607 758l-252 -799h-78l251 799h79zM206 318
q-77 0 -120 48.5t-43 133.5v33q0 84 43 132.5t120 48.5q76 0 120 -49t44 -132v-33q0 -84 -44 -133t-120 -49zM206 640q-86 0 -86 -106v-33q0 -110 86 -110q87 0 87 110v33q0 106 -87 106z" />
    <glyph glyph-name="ampersand" unicode="&#x26;" horiz-adv-x="534" 
d="M237 -10q-94 0 -145.5 58t-51.5 136v22q0 59 26 99t72 54q-44 16 -68 55t-24 93v26q0 76 51 128.5t139 52.5q84 0 137 -54.5t53 -143.5h-85q0 57 -28.5 87.5t-75.5 30.5q-106 0 -106 -108v-13q0 -57 26.5 -87.5t73.5 -30.5h59v-74h-61q-50 0 -77 -29t-27 -85v-16
q0 -120 113 -120q49 0 82 30.5t33 90.5v124h143v-77h-60l-3 -73q-9 -84 -62 -130t-134 -46z" />
    <glyph glyph-name="quotesingle" unicode="'" horiz-adv-x="163" 
d="M49 432l-11 273h86q-3 -114 -12 -273h-63z" />
    <glyph glyph-name="parenleft" unicode="(" horiz-adv-x="259" 
d="M220 27v-73q-101 0 -137 43t-36 145v427q0 102 36 145t137 43v-73q-57 0 -75 -22t-18 -77v-458q0 -57 17.5 -78.5t75.5 -21.5z" />
    <glyph glyph-name="parenright" unicode=")" horiz-adv-x="259" 
d="M38 -46v73q58 0 75.5 21.5t17.5 78.5v458q0 56 -17.5 77.5t-75.5 21.5v73q101 0 137.5 -43t36.5 -145v-427q0 -102 -36.5 -145t-137.5 -43z" />
    <glyph glyph-name="asterisk" unicode="*" horiz-adv-x="435" 
d="M379 598q-15 -8 -50.5 -27t-55.5 -29l106 -57l-31 -50l-104 60l4 -116h-60l2 116l-104 -60l-30 50l105 57q-17 9 -52 28t-53 28l30 51l104 -61l-2 119h60l-4 -118l104 59z" />
    <glyph glyph-name="plus" unicode="+" horiz-adv-x="420" 
d="M373 319h-126v-130h-74v130h-126v74h126v129h74v-129h126v-74z" />
    <glyph glyph-name="comma" unicode="," horiz-adv-x="208" 
d="M70 -103h-65l85 265h88z" />
    <glyph glyph-name="hyphen" unicode="-" horiz-adv-x="294" 
d="M254 272h-216v65h216v-65z" />
    <glyph glyph-name="period" unicode="." horiz-adv-x="178" 
d="M140 45q0 -21 -15 -36t-36 -15q-22 0 -36.5 15t-14.5 36t14.5 36t36.5 15q21 0 36 -15t15 -36z" />
    <glyph glyph-name="slash" unicode="/" horiz-adv-x="281" 
d="M267 758l-171 -804h-82l170 804h83z" />
    <glyph glyph-name="zero" unicode="0" horiz-adv-x="479" 
d="M239 -8q-85 0 -138.5 55.5t-53.5 144.5v322q0 89 53.5 144.5t138.5 55.5t139 -56t54 -144v-322q0 -88 -54 -144t-139 -56zM239 74q49 0 78.5 31.5t29.5 94.5v306q0 63 -29.5 94.5t-78.5 31.5t-78.5 -31.5t-29.5 -94.5v-306q0 -63 29.5 -94.5t78.5 -31.5z" />
    <glyph glyph-name="one" unicode="1" horiz-adv-x="247" 
d="M31 568v82q45 0 59.5 11.5t14.5 43.5h78v-705h-84v581q-21 -13 -59 -13h-9z" />
    <glyph glyph-name="two" unicode="2" horiz-adv-x="464" 
d="M407 82v-82h-368v52q0 55 16 101.5t42 79.5t57.5 62t63 54.5t57.5 51t42 57.5t16 68q0 53 -28 80.5t-78 27.5q-47 0 -76 -31t-29 -82h-83q0 88 51 141t137 53q87 0 137 -52.5t50 -140.5q0 -59 -30 -110t-72.5 -87.5t-85.5 -71.5t-73 -78.5t-30 -92.5h284z" />
    <glyph glyph-name="three" unicode="3" horiz-adv-x="467" 
d="M335 526q0 108 -106 108q-108 0 -108 -118h-82q0 93 50.5 145.5t141.5 52.5q88 0 138.5 -52.5t50.5 -128.5v-26q0 -54 -24 -93t-68 -55q46 -14 72 -54t26 -99v-22q0 -78 -50.5 -135.5t-142.5 -57.5t-145 54.5t-53 148.5h86q0 -51 28 -86t84 -35q108 0 108 118v16
q0 56 -27 85t-77 29h-74v74h72q47 0 73.5 30.5t26.5 87.5v13z" />
    <glyph glyph-name="four" unicode="4" horiz-adv-x="486" 
d="M375 705v-450h73v-78h-73v-177h-83v177h-262v78l265 450h80zM113 256l179 -1v306z" />
    <glyph glyph-name="five" unicode="5" horiz-adv-x="473" 
d="M40 191h84q0 -61 29 -90t78 -29q110 0 110 144v64q0 60 -27.5 95t-81.5 35q-74 0 -101 -67l-79 14l52 348h291v-82h-223l-29 -187q15 18 44.5 33t68.5 15q81 0 125 -52t44 -151v-60q0 -106 -49 -168t-144 -62q-85 0 -138.5 55.5t-53.5 144.5z" />
    <glyph glyph-name="six" unicode="6" horiz-adv-x="465" 
d="M82 465l116 240h92l-111 -225q33 13 74 13q171 0 171 -211v-68q0 -103 -49 -163t-143 -60q-97 0 -144 59.5t-47 165.5v39q0 125 41 210zM232 422q-59 0 -83 -35.5t-24 -115.5v-36q0 -90 24 -126t83 -36q58 0 82.5 36.5t24.5 125.5v36q0 81 -24.5 116t-82.5 35z" />
    <glyph glyph-name="seven" unicode="7" horiz-adv-x="408" 
d="M189 0h-85l175 623h-240v82h346z" />
    <glyph glyph-name="eight" unicode="8" horiz-adv-x="473" 
d="M230 395h12q47 0 73.5 30.5t26.5 87.5v13q0 108 -106 108t-106 -108v-13q0 -57 26.5 -87.5t73.5 -30.5zM232 73h8q108 0 108 121v13q0 56 -27 85t-77 29h-16q-50 0 -77 -29t-27 -85v-13q0 -56 26.5 -88.5t81.5 -32.5zM232 -9q-96 0 -144.5 56.5t-48.5 136.5v22
q0 59 26 99t72 54q-44 16 -68 55t-24 93v26q0 77 49.5 129t143.5 52q91 0 140 -52t49 -129v-26q0 -54 -24 -93t-68 -55q46 -14 72 -54t26 -99v-22q0 -79 -48.5 -136t-144.5 -57h-8z" />
    <glyph glyph-name="nine" unicode="9" horiz-adv-x="465" 
d="M382 240l-116 -240h-92q75 149 111 224q-37 -13 -73 -13q-89 0 -130 57t-41 155v68q0 103 48.5 163t142.5 60q96 0 144 -60.5t48 -164.5v-42q0 -122 -42 -207zM232 283q107 0 107 150v56q0 76 -26 109t-81 33q-54 0 -80.5 -33t-26.5 -109v-56q0 -150 107 -150z" />
    <glyph glyph-name="colon" unicode=":" horiz-adv-x="178" 
d="M140 515q0 -21 -15 -36t-36 -15q-22 0 -36.5 15t-14.5 36t14.5 36t36.5 15q21 0 36 -15t15 -36zM140 45q0 -21 -15 -36t-36 -15q-22 0 -36.5 15t-14.5 36t14.5 36t36.5 15q21 0 36 -15t15 -36z" />
    <glyph glyph-name="semicolon" unicode=";" horiz-adv-x="216" 
d="M70 -103h-65l85 265h88zM171 515q0 -21 -15 -36t-36 -15t-36 15t-15 36t15 36t36 15t36 -15t15 -36z" />
    <glyph glyph-name="less" unicode="&#x3c;" horiz-adv-x="386" 
d="M46 359l293 142v-79l-216 -99l216 -98v-79l-293 142v71z" />
    <glyph glyph-name="equal" unicode="=" horiz-adv-x="396" 
d="M348 388h-301v75h301v-75zM348 247h-301v74h301v-74z" />
    <glyph glyph-name="greater" unicode="&#x3e;" horiz-adv-x="386" 
d="M46 501l293 -141v-71q-50 -24 -293 -143v79l213 98l-213 99v79z" />
    <glyph glyph-name="question" unicode="?" horiz-adv-x="430" 
d="M243 45q0 -21 -14.5 -35.5t-36.5 -14.5q-21 0 -36 14.5t-15 35.5t15 36t36 15q22 0 36.5 -15t14.5 -36zM212 634q-107 0 -107 -113h-83q0 92 51 143t139 51q79 0 130.5 -47t51.5 -120q0 -52 -19.5 -93t-48 -69.5t-56.5 -56t-47.5 -67.5t-19.5 -89q0 -14 1 -22h-25
q-12 47 -12 82q0 42 15 77.5t36.5 60.5t43 49t36.5 54t15 63q0 44 -28.5 70.5t-72.5 26.5z" />
    <glyph glyph-name="at" unicode="@" horiz-adv-x="540" 
d="M386 598v-458q31 1 47 15.5t16 53.5v263q0 106 -42.5 156t-134.5 50q-94 0 -138 -50.5t-44 -155.5v-248q0 -107 45.5 -151.5t155.5 -44.5h149v-35h-149q-127 0 -181.5 54t-54.5 177v248q0 122 53 181.5t164 59.5q109 0 160.5 -59.5t51.5 -181.5v-226q0 -30 -5 -53.5
t-11 -38.5t-20 -25t-23 -15t-30 -7.5t-31 -2.5h-35v38q-21 -42 -78 -42t-78.5 34.5t-21.5 96.5v223q0 73 19.5 110.5t80.5 37.5q57 0 78 -43v39h57zM211 472v-241q0 -18 1.5 -30t7 -25.5t18 -20.5t31.5 -7q36 0 47 27.5t11 91.5v144q0 32 -1.5 52t-6.5 43t-17.5 34.5
t-32.5 11.5q-58 0 -58 -80z" />
    <glyph glyph-name="A" unicode="A" horiz-adv-x="474" 
d="M239 586l-87 -354h172zM379 0l-39 158h-206l-39 -158h-87l184 705h93l181 -705h-87z" />
    <glyph glyph-name="B" unicode="B" horiz-adv-x="468" 
d="M63 0v705h172q89 0 139 -39.5t50 -120.5v-57q0 -101 -78 -131q83 -30 83 -131v-65q0 -82 -50 -121.5t-138 -39.5h-178zM147 81h91q53 0 80 21t27 76v53q0 92 -99 92h-99v-242zM147 391h102q46 0 68.5 21.5t22.5 72.5v43q0 53 -26.5 74t-81.5 21h-85v-232z" />
    <glyph glyph-name="C" unicode="C" horiz-adv-x="471" 
d="M432 227v-35q0 -88 -54 -144t-139 -56t-138.5 55.5t-53.5 144.5v321q0 89 53.5 145t138.5 56t139 -56.5t54 -144.5v-28h-85v32q0 55 -30.5 85t-77.5 30q-46 0 -77 -29t-31 -86v-328q0 -55 30.5 -85t77.5 -30q46 0 77 29t31 86v38h85z" />
    <glyph glyph-name="D" unicode="D" horiz-adv-x="488" 
d="M248 705q99 -2 146 -61.5t47 -186.5v-216q0 -127 -46.5 -184t-146.5 -57h-185v705h185zM357 493q0 74 -31 102t-87 28h-91v-542h91q67 0 92.5 38t25.5 149v225z" />
    <glyph glyph-name="E" unicode="E" horiz-adv-x="427" 
d="M384 705v-82h-237v-229h173v-75h-173v-237h237v-82h-321v705h321z" />
    <glyph glyph-name="F" unicode="F" horiz-adv-x="402" 
d="M372 705v-82h-225v-229h160v-75h-160v-319h-84v705h309z" />
    <glyph glyph-name="G" unicode="G" horiz-adv-x="478" 
d="M238 74q108 0 108 143v42h-108v75h193v-114q0 -104 -49 -166t-144 -62q-85 0 -138.5 55.5t-53.5 144.5v321q0 89 53.5 145t138.5 56q84 0 137.5 -55t55.5 -141h-85q-1 55 -31 84.5t-77 29.5q-46 0 -77 -29t-31 -86v-328q0 -55 30.5 -85t77.5 -30z" />
    <glyph glyph-name="H" unicode="H" horiz-adv-x="499" 
d="M148 319v-319h-85v705h85v-311h203v311h84v-705h-84v319h-203z" />
    <glyph glyph-name="I" unicode="I" horiz-adv-x="211" 
d="M147 705v-705h-84v705h84z" />
    <glyph glyph-name="J" unicode="J" horiz-adv-x="456" 
d="M315 205v500h85v-480q0 -107 -45.5 -170.5t-139.5 -63.5q-84 0 -134.5 55t-50.5 144v54h85v-56q0 -55 28.5 -85t71.5 -30q100 0 100 132z" />
    <glyph glyph-name="K" unicode="K" horiz-adv-x="453" 
d="M269 359q29 -60 89 -179.5t90 -179.5h-97l-153 320h-50v-320h-85v705h85v-308h50l153 308h97z" />
    <glyph glyph-name="L" unicode="L" horiz-adv-x="388" 
d="M365 82v-82h-302v705h85v-623h217z" />
    <glyph glyph-name="M" unicode="M" horiz-adv-x="605" 
d="M271 92l-124 375v-467h-84v705h83l155 -486l157 486h83v-705h-85v469l-125 -377h-60z" />
    <glyph glyph-name="N" unicode="N" horiz-adv-x="514" 
d="M450 705v-705h-79l-223 498v-498h-85v705h78l224 -503v503h85z" />
    <glyph glyph-name="O" unicode="O" horiz-adv-x="479" 
d="M239 -8q-85 0 -138.5 55.5t-53.5 144.5v321q0 89 53.5 145t138.5 56t139 -56.5t54 -144.5v-321q0 -88 -54 -144t-139 -56zM239 74q46 0 77 29t31 86v328q0 55 -30.5 85t-77.5 30q-46 0 -77 -29t-31 -86v-328q0 -55 30.5 -85t77.5 -30z" />
    <glyph glyph-name="P" unicode="P" horiz-adv-x="465" 
d="M148 0h-85v705h172q95 0 145 -61t50 -175v-45q0 -114 -50 -173.5t-145 -59.5h-87v-191zM228 623h-80v-351h80q118 0 118 144v62q0 79 -30 112t-88 33z" />
    <glyph glyph-name="Q" unicode="Q" horiz-adv-x="479" 
d="M255 -109q-9 18 -26 53t-26 52q-87 13 -121.5 78.5t-34.5 183.5v221q0 107 48.5 171t143.5 64t144 -64t49 -171v-255q0 -191 -141 -226l63 -107h-99zM239 74q108 0 108 144v269q0 145 -108 145t-108 -144v-269q0 -145 108 -145z" />
    <glyph glyph-name="R" unicode="R" horiz-adv-x="465" 
d="M148 0h-85v705h175q95 0 143.5 -59.5t48.5 -171.5v-39q0 -90 -30.5 -140.5t-91.5 -69.5l122 -225h-96l-106 206h-80v-206zM228 623h-80v-336h80q118 0 118 128v64q0 79 -29 111.5t-89 32.5z" />
    <glyph glyph-name="S" unicode="S" horiz-adv-x="462" 
d="M229 715q85 0 136.5 -52t51.5 -144h-84q0 57 -28 86.5t-76 29.5q-45 0 -71.5 -24.5t-26.5 -66.5t30 -75.5t72.5 -59.5t85.5 -54.5t73 -74t30 -104.5q0 -87 -50.5 -136t-139.5 -49t-141.5 52.5t-52.5 148.5h84q0 -61 30 -91t81 -30q48 0 76.5 26t28.5 75q0 45 -30 80.5
t-72.5 62.5t-85.5 55.5t-73 72.5t-30 101q0 76 48 123.5t134 47.5z" />
    <glyph glyph-name="T" unicode="T" horiz-adv-x="403" 
d="M381 705v-82h-138v-623h-85v623h-136v82h359z" />
    <glyph glyph-name="U" unicode="U" horiz-adv-x="496" 
d="M55 192v513h84v-516q0 -55 30.5 -85t77.5 -30q46 0 77 29t31 86v516h85v-513q0 -88 -54 -144t-139 -56t-138.5 55.5t-53.5 144.5z" />
    <glyph glyph-name="V" unicode="V" horiz-adv-x="465" 
d="M187 0l-173 705h87l130 -546l130 546h87l-174 -705h-87z" />
    <glyph glyph-name="W" unicode="W" horiz-adv-x="680" 
d="M158 0l-144 705h85l105 -519l98 519h75l98 -519l105 519h85l-145 -705h-84l-96 511l-97 -511h-85z" />
    <glyph glyph-name="X" unicode="X" horiz-adv-x="457" 
d="M443 0h-93l-122 275l-121 -275h-94l169 361l-161 344h94l113 -258l114 258h93l-161 -344z" />
    <glyph glyph-name="Y" unicode="Y" horiz-adv-x="451" 
d="M183 0v261l-178 444h90l130 -337l132 337h89l-179 -444v-261h-84z" />
    <glyph glyph-name="Z" unicode="Z" horiz-adv-x="412" 
d="M374 82v-82h-352q211 546 241 623h-222v82h341l-242 -623h234z" />
    <glyph glyph-name="bracketleft" unicode="[" horiz-adv-x="276" 
d="M63 757h174v-73h-94v-657h94v-72h-174v802z" />
    <glyph glyph-name="backslash" unicode="\" horiz-adv-x="281" 
d="M184 -46l-170 804h82l171 -804h-83z" />
    <glyph glyph-name="bracketright" unicode="]" horiz-adv-x="276" 
d="M213 757v-802h-175v72h94v657h-94v73h175z" />
    <glyph glyph-name="asciicircum" unicode="^" horiz-adv-x="431" 
d="M252 652q94 -192 140 -288h-79l-99 215l-97 -215h-79q46 96 140 288h74z" />
    <glyph glyph-name="underscore" unicode="_" horiz-adv-x="451" 
d="M411 -123h-372v65h372v-65z" />
    <glyph glyph-name="grave" unicode="`" horiz-adv-x="419" 
d="M244 583h-65l-81 130h87z" />
    <glyph glyph-name="a" unicode="a" 
d="M192 -8q-70 0 -109 45.5t-39 131.5v224q0 86 39.5 130.5t108.5 44.5q46 0 78 -20.5t44 -44.5v58h76v-561h-76v58q-12 -24 -44 -45t-78 -21zM217 61q44 0 68 29t24 84v217q0 53 -24.5 81t-67.5 28q-44 0 -68 -29t-24 -83v-214q0 -56 24 -84.5t68 -28.5z" />
    <glyph glyph-name="b" unicode="b" 
d="M253 -8q-87 0 -122 66v-58h-76v755h80v-248q12 24 42 42.5t76 18.5q70 0 109 -45t39 -130v-225q0 -86 -39 -131t-109 -45zM227 60q44 0 68.5 29t24.5 84v215q0 53 -24 82.5t-69 29.5q-42 0 -67 -28t-25 -80v-219q0 -55 24.5 -84t67.5 -29z" />
    <glyph glyph-name="c" unicode="c" horiz-adv-x="427" 
d="M217 65q92 0 92 112h81q0 -87 -45.5 -136t-127.5 -49t-127.5 49t-45.5 134v212q0 83 46 132t127 49q83 0 128 -49.5t45 -136.5h-81q0 112 -92 112q-43 0 -68 -25.5t-25 -72.5v-232q0 -48 25.5 -73.5t67.5 -25.5z" />
    <glyph glyph-name="d" unicode="d" 
d="M192 -8q-70 0 -109.5 45t-39.5 131v225q0 85 39.5 130t109.5 45q45 0 74 -18t41 -42v247h83v-755h-76v58q-36 -66 -122 -66zM217 60q44 0 68 29t24 84v218q0 53 -24.5 80.5t-67.5 27.5q-44 0 -68 -29t-24 -83v-214q0 -54 24 -83.5t68 -29.5z" />
    <glyph glyph-name="e" unicode="e" horiz-adv-x="432" 
d="M390 389v-135h-266v-75q0 -56 24 -87t69 -31q41 0 66.5 23t25.5 61v18h81v-9q0 -70 -45.5 -116t-127.5 -46t-127.5 49.5t-45.5 135.5v212q0 83 45.5 131.5t127.5 48.5q80 0 126.5 -49t46.5 -131zM309 398q0 47 -25 74t-67 27t-67.5 -26t-25.5 -73v-87h185v85z" />
    <glyph glyph-name="f" unicode="f" horiz-adv-x="280" 
d="M254 755v-70q-11 2 -22 2q-47 0 -59 -22.5t-12 -103.5h92v-71h-92v-490h-81v490h-50v71h50q0 111 26 154t105 43z" />
    <glyph glyph-name="g" unicode="g" 
d="M192 -8q-70 0 -109 45.5t-39 131.5v224q0 83 37.5 128t102.5 45q48 0 83 -18.5t47 -44.5v58h76v-591q0 -88 -38 -130.5t-134 -42.5q-168 0 -168 141h78q0 -33 22.5 -55t67.5 -22q48 0 69.5 22.5t21.5 69.5v105q-12 -26 -41.5 -46t-75.5 -20zM217 59q92 0 92 119v211
q0 111 -92 111q-44 0 -68 -28.5t-24 -83.5v-206q0 -123 92 -123z" />
    <glyph glyph-name="h" unicode="h" horiz-adv-x="450" 
d="M135 387v-387h-80v755h80v-253q13 32 45.5 49t74.5 17q74 0 110 -49.5t36 -156.5v-362h-81v353q0 77 -18 111.5t-75 34.5q-48 0 -70 -27.5t-22 -84.5z" />
    <glyph glyph-name="i" unicode="i" horiz-adv-x="186" 
d="M133 561v-561h-81v561h81zM144 676q0 -21 -15 -35.5t-36 -14.5t-36 14.5t-15 35.5t15 35.5t36 14.5t36 -14.5t15 -35.5z" />
    <glyph glyph-name="j" unicode="j" horiz-adv-x="189" 
d="M-21 -200v73q43 0 59.5 21.5t16.5 77.5v589h81v-573q0 -99 -35 -143.5t-122 -44.5zM146 676q0 -21 -15 -35.5t-36 -14.5t-35.5 14.5t-14.5 35.5t14.5 35.5t35.5 14.5t36 -14.5t15 -35.5z" />
    <glyph glyph-name="k" unicode="k" horiz-adv-x="422" 
d="M243 285l159 -285h-93l-132 250h-41v-250h-81v755h81v-437h41l131 243h93z" />
    <glyph glyph-name="l" unicode="l" horiz-adv-x="191" 
d="M136 755v-755h-81v755h81z" />
    <glyph glyph-name="m" unicode="m" horiz-adv-x="640" 
d="M135 407v-407h-80v561h76v-49q34 56 102 56q81 0 114 -71q13 29 44.5 50t74.5 21q66 0 96 -46t30 -137v-385h-81v394q0 52 -15.5 77t-53.5 25q-42 0 -60 -24.5t-18 -74.5v-397h-81v394q0 54 -17 81t-57 27q-35 0 -54.5 -24.5t-19.5 -70.5z" />
    <glyph glyph-name="n" unicode="n" horiz-adv-x="450" 
d="M135 388v-388h-80v561h76v-59q12 25 44 45.5t78 20.5q148 0 148 -194v-374h-81v370q0 68 -19 99t-74 31q-92 0 -92 -112z" />
    <glyph glyph-name="o" unicode="o" horiz-adv-x="435" 
d="M217 -8q-82 0 -127.5 49t-45.5 134v212q0 83 45.5 131.5t127.5 48.5q80 0 126.5 -49t46.5 -131v-212q0 -85 -46 -134t-127 -49zM217 494q-43 0 -68 -25.5t-25 -72.5v-232q0 -48 25.5 -73.5t67.5 -25.5t67 25.5t25 73.5v232q0 47 -25 72.5t-67 25.5z" />
    <glyph glyph-name="p" unicode="p" horiz-adv-x="450" 
d="M253 567q148 0 148 -192v-206q0 -85 -39 -130t-109 -45q-46 0 -76 19t-42 44v-246h-80v750h76v-60q12 25 44 45.5t78 20.5zM227 499q-42 0 -67 -28.5t-25 -81.5v-215q0 -54 24.5 -82.5t67.5 -28.5q45 0 69 28.5t24 82.5v212q0 55 -24.5 84t-68.5 29z" />
    <glyph glyph-name="q" unicode="q" horiz-adv-x="449" 
d="M195 567q47 0 78.5 -20.5t43.5 -45.5v60h76v-750h-80v245q-35 -62 -118 -62q-69 0 -108.5 45t-39.5 130v221q0 86 39 131.5t109 45.5zM221 498q-93 0 -93 -113v-214q0 -54 24 -82.5t69 -28.5q43 0 67.5 28.5t24.5 82.5v218q0 53 -25 81t-67 28z" />
    <glyph glyph-name="r" unicode="r" horiz-adv-x="294" 
d="M263 567v-80h-11q-64 0 -90.5 -42t-26.5 -123v-322h-80v561h76v-71q10 29 40.5 53.5t77.5 24.5z" />
    <glyph glyph-name="s" unicode="s" horiz-adv-x="416" 
d="M206 570q83 0 126.5 -44t43.5 -125h-78q0 96 -90 96q-38 0 -61 -20.5t-23 -52.5q0 -33 26.5 -56.5t64 -40.5t75 -36.5t64 -56.5t26.5 -89q0 -63 -43 -109t-127 -46q-82 0 -129.5 45.5t-47.5 123.5h81q0 -47 26 -73.5t70 -26.5q37 0 63.5 22.5t26.5 59.5t-26.5 63
t-63.5 43.5t-74.5 37t-64 54.5t-26.5 84q0 64 43.5 105.5t117.5 41.5z" />
    <glyph glyph-name="t" unicode="t" horiz-adv-x="285" 
d="M21 490v65q41 0 57.5 22t16.5 83h54v-99h103v-71h-103v-270q0 -97 9 -120q13 -32 62 -33q6 0 17.5 0.5t16.5 0.5v-72q-18 -2 -41 -2q-39 0 -65.5 9.5t-42 24.5t-24 42t-11 54t-2.5 69v297h-47z" />
    <glyph glyph-name="u" unicode="u" horiz-adv-x="442" 
d="M47 175v386h81v-397q0 -48 25.5 -73.5t67.5 -25.5t67 25.5t25 73.5v397h81v-386q0 -85 -46 -134t-127 -49q-82 0 -128 49t-46 134z" />
    <glyph glyph-name="v" unicode="v" horiz-adv-x="421" 
d="M169 0l-154 561h88l108 -436l106 436h88l-152 -561h-84z" />
    <glyph glyph-name="w" unicode="w" horiz-adv-x="610" 
d="M143 0l-129 561h84l87 -402l84 402h71l84 -403l88 403h83l-129 -561h-79l-83 393l-83 -393h-78z" />
    <glyph glyph-name="x" unicode="x" horiz-adv-x="434" 
d="M406 561l-145 -272l154 -289h-91l-108 214l-108 -214h-91l154 289l-144 272h92l97 -196l98 196h92z" />
    <glyph glyph-name="y" unicode="y" horiz-adv-x="425" 
d="M116 -188l54 193l-155 556h88l109 -422l110 422h87l-210 -749h-83z" />
    <glyph glyph-name="z" unicode="z" horiz-adv-x="383" 
d="M342 73v-73h-316l211 488h-198v73h313l-211 -488h201z" />
    <glyph glyph-name="braceleft" unicode="{" horiz-adv-x="281" 
d="M157 569v-10q0 -44 -1 -67.5t-4.5 -57t-14 -52.5t-26.5 -27q28 -14 37.5 -53.5t8.5 -85t1 -89t21.5 -72.5t62.5 -29v-73q-97 0 -131.5 49.5t-34.5 168.5v74q0 21 -1 31.5t-5 22.5t-14 17t-26 5v70q30 0 38 17t8 59v72q0 119 35 168.5t131 49.5v-73q-51 0 -68 -26.5
t-17 -88.5z" />
    <glyph glyph-name="bar" unicode="|" horiz-adv-x="191" 
d="M136 758v-804h-81v804h81z" />
    <glyph glyph-name="braceright" unicode="}" horiz-adv-x="281" 
d="M123 569q0 62 -17 88.5t-68 26.5v73q96 0 131 -49.5t35 -168.5v-72q0 -28 2 -42t12.5 -24t31.5 -10v-70q-31 0 -38.5 -17.5t-7.5 -58.5v-74q0 -119 -34.5 -168.5t-131.5 -49.5v73q43 0 62.5 29t21.5 72.5t1 89t8.5 85t37.5 53.5q-16 8 -26.5 27t-14 52.5t-4.5 56.5t-1 68
v3v3v4z" />
    <glyph glyph-name="nbspace" unicode="&#xa0;" horiz-adv-x="407" 
 />
    <glyph glyph-name="exclamdown" unicode="&#xa1;" horiz-adv-x="178" 
d="M77 554h23q37 -430 37 -508q0 -52 -49 -52t-49 52q0 35 9.5 162t19.5 236zM38 660q0 21 15 36t35 15q22 0 37 -15t15 -36t-15 -36t-37 -15q-20 0 -35 15t-15 36z" />
    <glyph glyph-name="cent" unicode="&#xa2;" horiz-adv-x="428" 
d="M217 65q92 0 92 112h81q0 -68 -29 -114.5t-82 -62.5v-66h-36v60q-18 -2 -26 -2q-10 0 -26 2v-60h-36v66q-53 17 -82 62.5t-29 112.5v212q0 65 28.5 110t82.5 62v67h36v-60q16 2 26 2q8 0 26 -2v60h36v-67q54 -17 82.5 -63t28.5 -114h-81q0 112 -92 112q-43 0 -68 -25.5
t-25 -72.5v-232q0 -48 25.5 -73.5t67.5 -25.5z" />
    <glyph glyph-name="sterling" unicode="&#xa3;" horiz-adv-x="472" 
d="M110 365q-16 37 -23.5 57t-14.5 54t-5 67q5 77 53.5 124.5t126.5 47.5q80 0 132.5 -53.5t52.5 -140.5h-82q0 54 -28 83.5t-74 29.5q-88 0 -97 -100q-6 -71 41 -169h136v-35h-122l24 -53h98v-35h-83q37 -82 37 -160h138v-82h-373v82h165q-2 71 -46 160h-116v35h101l-26 53
h-75v35h60z" />
    <glyph glyph-name="yen" unicode="&#xa5;" horiz-adv-x="468" 
d="M122 205h69v59l-178 441h90q61 -156 130 -338l132 338h89l-179 -441v-59h69v-35h-69v-53h67v-35h-67v-82h-84v82h-69v35h69v53h-69v35z" />
    <glyph glyph-name="brokenbar" unicode="&#xa6;" horiz-adv-x="191" 
d="M55 312h81v-358h-81v358zM55 405v353h81v-353h-81z" />
    <glyph glyph-name="dieresis" unicode="&#xa8;" horiz-adv-x="400" 
d="M309 622q0 -17 -12 -29t-29 -12t-28.5 12t-11.5 29q0 16 12 28t28 12q17 0 29 -11.5t12 -28.5zM171 622q0 -17 -11.5 -29t-28.5 -12t-28.5 12t-11.5 29q0 16 11.5 28t28.5 12t28.5 -12t11.5 -28z" />
    <glyph glyph-name="copyright" unicode="&#xa9;" horiz-adv-x="540" 
d="M449 234v237q0 106 -43 157t-134 51q-93 0 -136.5 -51t-43.5 -157v-237q0 -106 43.5 -157t136.5 -51q91 0 134 51t43 157zM484 461v-217q0 -129 -51.5 -191t-160.5 -62q-111 0 -163 62t-52 191v217q0 129 52 191t163 62q109 0 160.5 -62t51.5 -191zM333 272h62v-51
q0 -59 -32.5 -94t-90.5 -35q-61 0 -92 40t-31 111v215q0 156 123 156q60 0 91.5 -34t31.5 -96v-46h-62v41q0 79 -61 79q-21 0 -34.5 -7.5t-19 -24t-7 -31.5t-1.5 -42v-215q0 -44 14 -65.5t48 -21.5t47.5 18t13.5 57v46z" />
    <glyph glyph-name="ordfeminine" unicode="&#xaa;" horiz-adv-x="441" 
d="M191 190q-69 0 -106.5 45t-37.5 131v171q0 84 36.5 128.5t102.5 44.5q47 0 80 -19t43 -44v58h76v-508h-76v58q-33 -65 -118 -65zM216 259q42 0 65 26t23 77v183q0 49 -23.5 74t-64.5 25q-88 0 -88 -103v-179q0 -103 88 -103zM268 45q0 -21 -15 -35.5t-37 -14.5
q-21 0 -36 14.5t-15 35.5t15 36t36 15q22 0 37 -15t15 -36z" />
    <glyph glyph-name="guillemotleft" unicode="&#xab;" horiz-adv-x="401" 
d="M298 471h65l-85 -165l85 -166h-65l-107 166zM145 471h64l-84 -165l84 -166h-64l-107 166z" />
    <glyph glyph-name="registered" unicode="&#xae;" horiz-adv-x="540" 
d="M449 234v237q0 106 -43 157t-134 51q-93 0 -136.5 -51t-43.5 -157v-237q0 -106 43.5 -157t136.5 -51q91 0 134 51t43 157zM484 461v-217q0 -129 -51.5 -191t-160.5 -62q-111 0 -163 62t-52 191v217q0 129 52 191t163 62q109 0 160.5 -62t51.5 -191zM213 108h-60v499h111
q67 0 101.5 -42t34.5 -121v-28q0 -122 -87 -149l87 -159h-68l-75 146h-44v-146zM257 549h-44v-238h44q83 0 83 91v45q0 56 -20.5 79t-62.5 23z" />
    <glyph glyph-name="macron" unicode="&#xaf;" horiz-adv-x="463" 
d="M347 585h-231v60h231v-60z" />
    <glyph glyph-name="degree" unicode="&#xb0;" horiz-adv-x="347" 
d="M173 443q-60 0 -93 35.5t-33 98.5v3q0 62 33 97.5t93 35.5q59 0 93 -36t34 -97v-3q0 -62 -34 -98t-93 -36zM173 657q-65 0 -65 -75v-11q0 -72 65 -72q66 0 66 75v11q0 35 -18 53.5t-48 18.5z" />
    <glyph glyph-name="acute" unicode="&#xb4;" horiz-adv-x="419" 
d="M238 584h-64l58 129h88z" />
    <glyph glyph-name="paragraph" unicode="&#xb6;" horiz-adv-x="286" 
d="M231 705v-743h-76v503q-61 0 -84.5 16t-23.5 71v66q0 56 24 71.5t84 15.5h76z" />
    <glyph glyph-name="periodcentered" unicode="&#xb7;" horiz-adv-x="178" 
d="M140 304q0 -21 -15 -36t-36 -15q-22 0 -36.5 15t-14.5 36t15 36.5t36 15.5t36 -15.5t15 -36.5z" />
    <glyph glyph-name="cedilla" unicode="&#xb8;" horiz-adv-x="430" 
d="M198 23h52q-21 -73 -47 -153h-88q8 16 41 77t42 76z" />
    <glyph glyph-name="ordmasculine" unicode="&#xba;" horiz-adv-x="424" 
d="M212 187q-82 0 -126 48.5t-44 134.5v162q0 84 44.5 132.5t125.5 48.5q80 0 124 -48.5t44 -132.5v-162q0 -86 -44 -134.5t-124 -48.5zM212 639q-42 0 -65.5 -25t-23.5 -73v-182q0 -48 23.5 -73.5t65.5 -25.5q41 0 64.5 25.5t23.5 73.5v182q0 47 -23.5 72.5t-64.5 25.5z
M263 45q0 -21 -15 -36t-36 -15t-36 15t-15 36t15 36t36 15t36 -15t15 -36z" />
    <glyph glyph-name="guillemotright" unicode="&#xbb;" horiz-adv-x="401" 
d="M191 471h64l107 -165l-107 -166h-64l84 166zM38 471h64l107 -165l-107 -166h-64l84 166z" />
    <glyph glyph-name="questiondown" unicode="&#xbf;" horiz-adv-x="430" 
d="M186 662q0 21 14.5 35.5t36.5 14.5q21 0 36 -14.5t15 -35.5t-15 -36t-36 -15q-22 0 -36.5 15t-14.5 36zM217 73q107 0 107 113h83q0 -92 -51 -143t-139 -51q-79 0 -130.5 47t-51.5 120q0 44 14 80.5t35.5 60t46 50t46 49.5t35.5 58t14 77q0 14 -1 22h25q12 -46 12 -82
q0 -42 -15 -77.5t-36.5 -60.5t-43 -49t-36.5 -54t-15 -63q0 -44 28.5 -70.5t72.5 -26.5z" />
    <glyph glyph-name="Agrave" unicode="&#xc0;" horiz-adv-x="483" 
d="M243 586l-87 -354h172zM383 0l-39 158h-206l-39 -158h-87l184 705h93l181 -705h-87zM279 766h-65l-81 130h87z" />
    <glyph glyph-name="Aacute" unicode="&#xc1;" horiz-adv-x="483" 
d="M243 586l-87 -354h172zM383 0l-39 158h-206l-39 -158h-87l184 705h93l181 -705h-87zM268 767h-64l58 129h88z" />
    <glyph glyph-name="Acircumflex" unicode="&#xc2;" horiz-adv-x="483" 
d="M243 586l-87 -354h172zM383 0l-39 158h-206l-39 -158h-87l184 705h93l181 -705h-87zM172 753h-67l98 127h78l98 -127h-68l-69 75z" />
    <glyph glyph-name="Atilde" unicode="&#xc3;" horiz-adv-x="483" 
d="M243 586l-87 -354h172zM383 0l-39 158h-206l-39 -158h-87l184 705h93l181 -705h-87zM378 858v-66q-36 -24 -70 -24q-24 0 -63.5 11.5t-61.5 11.5q-39 0 -78 -26v66q40 24 71 24q23 0 63 -12.5t61 -12.5q38 0 78 28z" />
    <glyph glyph-name="Adieresis" unicode="&#xc4;" horiz-adv-x="483" 
d="M243 586l-87 -354h172zM383 0l-39 158h-206l-39 -158h-87l184 705h93l181 -705h-87zM350 807q0 -17 -12 -29t-29 -12t-28.5 12t-11.5 29t11.5 28.5t28.5 11.5t29 -11.5t12 -28.5zM212 807q0 -17 -11.5 -29t-28.5 -12t-28.5 12t-11.5 29t12 28.5t28 11.5t28 -11.5
t12 -28.5z" />
    <glyph glyph-name="Aring" unicode="&#xc5;" horiz-adv-x="483" 
d="M243 586l-87 -354h172zM383 0l-39 158h-206l-39 -158h-87l184 705h93l181 -705h-87zM309 833q0 -28 -19.5 -48t-47.5 -20t-48 20t-20 48t20 47.5t48 19.5t47.5 -19.5t19.5 -47.5zM267 834q0 10 -7.5 17.5t-17.5 7.5q-11 0 -18.5 -7.5t-7.5 -17.5q0 -11 7.5 -18.5
t18.5 -7.5t18 7.5t7 18.5z" />
    <glyph glyph-name="AE" unicode="&#xc6;" horiz-adv-x="742" 
d="M218 243h158v337zM698 0h-321v158h-196q-13 -27 -77 -158h-92q114 235 344 705h342v-82h-236v-229h172v-75h-172v-237h236v-82z" />
    <glyph glyph-name="Ccedilla" unicode="&#xc7;" horiz-adv-x="474" 
d="M432 227v-35q0 -80 -45 -134t-118 -64l-36 -124h-88l64 124q-73 10 -117.5 63.5t-44.5 134.5v321q0 89 53.5 145t138.5 56t139 -56.5t54 -144.5v-28h-85v32q0 55 -30.5 85t-77.5 30q-46 0 -77 -29t-31 -86v-328q0 -55 30.5 -85t77.5 -30q46 0 77 29t31 86v38h85z" />
    <glyph glyph-name="Egrave" unicode="&#xc8;" horiz-adv-x="427" 
d="M384 705v-82h-237v-229h173v-75h-173v-237h237v-82h-321v705h321zM275 768h-65l-81 130h87z" />
    <glyph glyph-name="Eacute" unicode="&#xc9;" horiz-adv-x="427" 
d="M384 705v-82h-237v-229h173v-75h-173v-237h237v-82h-321v705h321zM246 769h-64l58 129h88z" />
    <glyph glyph-name="Ecircumflex" unicode="&#xca;" horiz-adv-x="427" 
d="M384 705v-82h-237v-229h173v-75h-173v-237h237v-82h-321v705h321zM151 769h-67l98 127h78l98 -127h-68l-69 75z" />
    <glyph glyph-name="Edieresis" unicode="&#xcb;" horiz-adv-x="427" 
d="M384 705v-82h-237v-229h173v-75h-173v-237h237v-82h-321v705h321zM331 807q0 -17 -12 -29t-29 -12t-28.5 12t-11.5 29t12 28.5t28 11.5q17 0 29 -11.5t12 -28.5zM193 807q0 -17 -11.5 -29t-28.5 -12t-28.5 12t-11.5 29t11.5 28.5t28.5 11.5t28.5 -11.5t11.5 -28.5z" />
    <glyph glyph-name="Igrave" unicode="&#xcc;" horiz-adv-x="210" 
d="M147 705v-705h-84v705h84zM147 768h-65l-81 130h87z" />
    <glyph glyph-name="Iacute" unicode="&#xcd;" horiz-adv-x="210" 
d="M147 705v-705h-84v705h84zM129 769h-64l58 129h88z" />
    <glyph glyph-name="Icircumflex" unicode="&#xce;" horiz-adv-x="209" 
d="M147 705v-705h-84v705h84zM35 769h-67l98 127h78l98 -127h-68l-69 75z" />
    <glyph glyph-name="Idieresis" unicode="&#xcf;" horiz-adv-x="210" 
d="M147 705v-705h-84v705h84zM215 807q0 -17 -12 -29t-29 -12t-28.5 12t-11.5 29t12 28.5t28 11.5q17 0 29 -11.5t12 -28.5zM77 807q0 -17 -11.5 -29t-28.5 -12t-28.5 12t-11.5 29t11.5 28.5t28.5 11.5t28.5 -11.5t11.5 -28.5z" />
    <glyph glyph-name="Eth" unicode="&#xd0;" horiz-adv-x="499" 
d="M74 375v330h185q193 0 193 -251v-203q0 -251 -193 -251h-185v340h-59v35h59zM250 623h-91v-248h96v-35h-96v-259h91q63 0 90.5 43t27.5 159v164q0 99 -29 137.5t-89 38.5z" />
    <glyph glyph-name="Ntilde" unicode="&#xd1;" horiz-adv-x="514" 
d="M450 705v-705h-79l-223 498v-498h-85v705h78l224 -503v503h85zM392 858v-66q-36 -24 -70 -24q-24 0 -63.5 11.5t-61.5 11.5q-39 0 -78 -26v66q40 24 71 24q23 0 63 -12.5t61 -12.5q38 0 78 28z" />
    <glyph glyph-name="Ograve" unicode="&#xd2;" horiz-adv-x="479" 
d="M239 -8q-85 0 -138.5 55.5t-53.5 144.5v321q0 89 53.5 145t138.5 56t139 -56.5t54 -144.5v-321q0 -88 -54 -144t-139 -56zM239 74q46 0 77 29t31 86v328q0 55 -30.5 85t-77.5 30q-46 0 -77 -29t-31 -86v-328q0 -55 30.5 -85t77.5 -30zM276 768h-65l-81 130h87z" />
    <glyph glyph-name="Oacute" unicode="&#xd3;" horiz-adv-x="479" 
d="M239 -8q-85 0 -138.5 55.5t-53.5 144.5v321q0 89 53.5 145t138.5 56t139 -56.5t54 -144.5v-321q0 -88 -54 -144t-139 -56zM239 74q46 0 77 29t31 86v328q0 55 -30.5 85t-77.5 30q-46 0 -77 -29t-31 -86v-328q0 -55 30.5 -85t77.5 -30zM265 769h-64l58 129h88z" />
    <glyph glyph-name="Ocircumflex" unicode="&#xd4;" horiz-adv-x="479" 
d="M239 -8q-85 0 -138.5 55.5t-53.5 144.5v321q0 89 53.5 145t138.5 56t139 -56.5t54 -144.5v-321q0 -88 -54 -144t-139 -56zM239 74q46 0 77 29t31 86v328q0 55 -30.5 85t-77.5 30q-46 0 -77 -29t-31 -86v-328q0 -55 30.5 -85t77.5 -30zM169 769h-67l98 127h78l98 -127h-68
l-69 75z" />
    <glyph glyph-name="Otilde" unicode="&#xd5;" horiz-adv-x="479" 
d="M239 -8q-85 0 -138.5 55.5t-53.5 144.5v321q0 89 53.5 145t138.5 56t139 -56.5t54 -144.5v-321q0 -88 -54 -144t-139 -56zM239 74q46 0 77 29t31 86v328q0 55 -30.5 85t-77.5 30q-46 0 -77 -29t-31 -86v-328q0 -55 30.5 -85t77.5 -30zM375 858v-66q-36 -24 -70 -24
q-24 0 -63.5 11.5t-61.5 11.5q-39 0 -78 -26v66q41 24 71 24q23 0 63 -12.5t61 -12.5q38 0 78 28z" />
    <glyph glyph-name="Odieresis" unicode="&#xd6;" horiz-adv-x="479" 
d="M239 -8q-85 0 -138.5 55.5t-53.5 144.5v321q0 89 53.5 145t138.5 56t139 -56.5t54 -144.5v-321q0 -88 -54 -144t-139 -56zM239 74q46 0 77 29t31 86v328q0 55 -30.5 85t-77.5 30q-46 0 -77 -29t-31 -86v-328q0 -55 30.5 -85t77.5 -30zM347 807q0 -17 -12 -29t-29 -12
t-28.5 12t-11.5 29t12 28.5t28 11.5q17 0 29 -11.5t12 -28.5zM209 807q0 -17 -11.5 -29t-28.5 -12t-28.5 12t-11.5 29t11.5 28.5t28.5 11.5t28.5 -11.5t11.5 -28.5z" />
    <glyph glyph-name="multiply" unicode="&#xd7;" horiz-adv-x="400" 
d="M300 204l-101 100l-100 -100l-53 53l101 100l-101 101q27 26 53 53l100 -101l100 101l53 -53l-100 -101l101 -100z" />
    <glyph glyph-name="Oslash" unicode="&#xd8;" horiz-adv-x="485" 
d="M239 -8q-42 0 -78 14l-20 -71h-37l24 89q-81 54 -81 168v321q0 89 53.5 145t138.5 56q39 0 75 -14l20 73h37q-7 -20 -25 -89q86 -57 86 -171v-321q0 -88 -54 -144t-139 -56zM239 74q46 0 77 29t31 86v328q0 49 -25 79q-23 -82 -72.5 -264.5t-66.5 -244.5q23 -13 56 -13z
M131 189q0 -46 22 -76l139 507q-24 12 -53 12q-46 0 -77 -29t-31 -86v-328z" />
    <glyph glyph-name="Ugrave" unicode="&#xd9;" horiz-adv-x="496" 
d="M55 192v513h84v-516q0 -55 30.5 -85t77.5 -30q46 0 77 29t31 86v516h85v-513q0 -88 -54 -144t-139 -56t-138.5 55.5t-53.5 144.5zM288 768h-65l-81 130h87z" />
    <glyph glyph-name="Uacute" unicode="&#xda;" horiz-adv-x="496" 
d="M55 192v513h84v-516q0 -55 30.5 -85t77.5 -30q46 0 77 29t31 86v516h85v-513q0 -88 -54 -144t-139 -56t-138.5 55.5t-53.5 144.5zM274 769h-64l58 129h88z" />
    <glyph glyph-name="Ucircumflex" unicode="&#xdb;" horiz-adv-x="496" 
d="M55 192v513h84v-516q0 -55 30.5 -85t77.5 -30q46 0 77 29t31 86v516h85v-513q0 -88 -54 -144t-139 -56t-138.5 55.5t-53.5 144.5zM176 769h-67l98 127h78l98 -127h-68l-69 75z" />
    <glyph glyph-name="Udieresis" unicode="&#xdc;" horiz-adv-x="496" 
d="M55 192v513h84v-516q0 -55 30.5 -85t77.5 -30q46 0 77 29t31 86v516h85v-513q0 -88 -54 -144t-139 -56t-138.5 55.5t-53.5 144.5zM356 807q0 -17 -12 -29t-29 -12t-28.5 12t-11.5 29t11.5 28.5t28.5 11.5t29 -11.5t12 -28.5zM218 807q0 -17 -11.5 -29t-28.5 -12t-28.5 12
t-11.5 29t12 28.5t28 11.5t28 -11.5t12 -28.5z" />
    <glyph glyph-name="Yacute" unicode="&#xdd;" horiz-adv-x="468" 
d="M191 0v261l-178 444h90l130 -337l132 337h89l-179 -444v-261h-84zM265 769h-64l58 129h88z" />
    <glyph glyph-name="Thorn" unicode="&#xde;" horiz-adv-x="465" 
d="M147 705v-85h91q192 0 192 -238v-49q0 -235 -192 -235h-90v-98h-85v705h84zM206 538h-58v-359h80q59 0 88.5 34.5t29.5 111.5v65q0 85 -34.5 116.5t-105.5 31.5z" />
    <glyph glyph-name="germandbls" unicode="&#xdf;" horiz-adv-x="485" 
d="M405 618q0 -74 -63 -89q56 -17 77 -61.5t21 -121.5v-137q0 -213 -169 -213l-27 1v74q10 -1 15 -1q34 0 55.5 11.5t30.5 35.5t11.5 45.5t2.5 56.5v112q0 87 -21.5 123t-93.5 36v71q45 0 62 13.5t17 39.5v20q0 52 -64 52h-21q-46 0 -59.5 -25t-13.5 -98v-563h-81v489h-52
v72h52q0 105 34 151.5t125 46.5h13q70 0 109.5 -31t39.5 -85v-25z" />
    <glyph glyph-name="agrave" unicode="&#xe0;" 
d="M192 -8q-70 0 -109 45.5t-39 131.5v224q0 86 39.5 130.5t108.5 44.5q46 0 78 -20.5t44 -44.5v58h76v-561h-76v58q-12 -24 -44 -45t-78 -21zM217 61q44 0 68 29t24 84v217q0 53 -24.5 81t-67.5 28q-44 0 -68 -29t-24 -83v-214q0 -56 24 -84.5t68 -28.5zM253 620h-65
l-81 130h87z" />
    <glyph glyph-name="aacute" unicode="&#xe1;" 
d="M192 -8q-70 0 -109 45.5t-39 131.5v224q0 86 39.5 130.5t108.5 44.5q46 0 78 -20.5t44 -44.5v58h76v-561h-76v58q-12 -24 -44 -45t-78 -21zM217 61q44 0 68 29t24 84v217q0 53 -24.5 81t-67.5 28q-44 0 -68 -29t-24 -83v-214q0 -56 24 -84.5t68 -28.5zM232 622h-64
l58 129h88z" />
    <glyph glyph-name="acircumflex" unicode="&#xe2;" 
d="M192 -8q-70 0 -109 45.5t-39 131.5v224q0 86 39.5 130.5t108.5 44.5q46 0 78 -20.5t44 -44.5v58h76v-561h-76v58q-12 -24 -44 -45t-78 -21zM217 61q44 0 68 29t24 84v217q0 53 -24.5 81t-67.5 28q-44 0 -68 -29t-24 -83v-214q0 -56 24 -84.5t68 -28.5zM153 621h-67
l98 127h78l98 -127h-68l-69 75z" />
    <glyph glyph-name="atilde" unicode="&#xe3;" 
d="M192 -8q-70 0 -109 45.5t-39 131.5v224q0 86 39.5 130.5t108.5 44.5q46 0 78 -20.5t44 -44.5v58h76v-561h-76v58q-12 -24 -44 -45t-78 -21zM217 61q44 0 68 29t24 84v217q0 53 -24.5 81t-67.5 28q-44 0 -68 -29t-24 -83v-214q0 -56 24 -84.5t68 -28.5zM358 707v-66
q-36 -24 -70 -24q-24 0 -63.5 11.5t-61.5 11.5q-39 0 -78 -26v66q40 24 71 24q23 0 63 -12.5t61 -12.5q38 0 78 28z" />
    <glyph glyph-name="adieresis" unicode="&#xe4;" 
d="M192 -8q-70 0 -109 45.5t-39 131.5v224q0 86 39.5 130.5t108.5 44.5q46 0 78 -20.5t44 -44.5v58h76v-561h-76v58q-12 -24 -44 -45t-78 -21zM217 61q44 0 68 29t24 84v217q0 53 -24.5 81t-67.5 28q-44 0 -68 -29t-24 -83v-214q0 -56 24 -84.5t68 -28.5zM330 659
q0 -17 -12 -29t-29 -12t-28.5 12t-11.5 29t11.5 28.5t28.5 11.5t29 -11.5t12 -28.5zM192 659q0 -17 -11.5 -29t-28.5 -12t-28.5 12t-11.5 29t12 28.5t28 11.5t28 -11.5t12 -28.5z" />
    <glyph glyph-name="aring" unicode="&#xe5;" 
d="M192 -8q-70 0 -109 45.5t-39 131.5v224q0 86 39.5 130.5t108.5 44.5q46 0 78 -20.5t44 -44.5v58h76v-561h-76v58q-12 -24 -44 -45t-78 -21zM217 61q44 0 68 29t24 84v217q0 53 -24.5 81t-67.5 28q-44 0 -68 -29t-24 -83v-214q0 -56 24 -84.5t68 -28.5zM293 684
q0 -28 -19.5 -48t-47.5 -20t-48 20t-20 48t20 47.5t48 19.5t47.5 -19.5t19.5 -47.5zM251 685q0 11 -7.5 18t-17.5 7q-11 0 -18.5 -7.5t-7.5 -17.5q0 -11 7.5 -18.5t18.5 -7.5t18 7.5t7 18.5z" />
    <glyph glyph-name="ae" unicode="&#xe6;" horiz-adv-x="696" 
d="M390 395v-82h185v38q0 82 -19.5 115.5t-72.5 33.5q-42 0 -67.5 -27.5t-25.5 -77.5zM314 561h76v-54q11 24 43 42.5t72 18.5q80 0 115.5 -51.5t35.5 -159.5v-103h-266v-56q0 -62 23 -100.5t70 -38.5q42 0 67 25.5t25 65.5h81v-2q0 -70 -39.5 -113t-111.5 -43
q-83 0 -115 66v-58h-76v58q-12 -24 -44 -45t-78 -21q-70 0 -109 45.5t-39 131.5v224q0 86 39.5 130.5t108.5 44.5q46 0 78 -20.5t44 -44.5v58zM217 61q44 0 68 29t24 84v217q0 53 -24.5 81t-67.5 28q-44 0 -68 -29t-24 -83v-214q0 -56 24 -84.5t68 -28.5z" />
    <glyph glyph-name="ccedilla" unicode="&#xe7;" horiz-adv-x="429" 
d="M217 65q92 0 92 112h81q0 -79 -37.5 -127t-106.5 -56l-39 -124h-87q13 24 36.5 67.5t30.5 56.5q-69 9 -106 56t-37 125v212q0 83 46 132t127 49q83 0 128 -49.5t45 -136.5h-81q0 112 -92 112q-43 0 -68 -25.5t-25 -72.5v-232q0 -48 25.5 -73.5t67.5 -25.5z" />
    <glyph glyph-name="egrave" unicode="&#xe8;" horiz-adv-x="430" 
d="M389 389v-135h-266v-75q0 -56 24 -87t69 -31q41 0 66.5 23t25.5 61v18h81v-9q0 -70 -45.5 -116t-127.5 -46t-127.5 49.5t-45.5 135.5v212q0 83 45.5 131.5t127.5 48.5q80 0 126.5 -49t46.5 -131zM308 398q0 47 -25 74t-67 27t-67.5 -26t-25.5 -73v-87h185v85zM253 621
h-65l-81 130h87z" />
    <glyph glyph-name="eacute" unicode="&#xe9;" horiz-adv-x="430" 
d="M389 389v-135h-266v-75q0 -56 24 -87t69 -31q41 0 66.5 23t25.5 61v18h81v-9q0 -70 -45.5 -116t-127.5 -46t-127.5 49.5t-45.5 135.5v212q0 83 45.5 131.5t127.5 48.5q80 0 126.5 -49t46.5 -131zM308 398q0 47 -25 74t-67 27t-67.5 -26t-25.5 -73v-87h185v85zM242 622
h-64l58 129h88z" />
    <glyph glyph-name="ecircumflex" unicode="&#xea;" horiz-adv-x="430" 
d="M389 389v-135h-266v-75q0 -56 24 -87t69 -31q41 0 66.5 23t25.5 61v18h81v-9q0 -70 -45.5 -116t-127.5 -46t-127.5 49.5t-45.5 135.5v212q0 83 45.5 131.5t127.5 48.5q80 0 126.5 -49t46.5 -131zM308 398q0 47 -25 74t-67 27t-67.5 -26t-25.5 -73v-87h185v85zM145 620
h-67l98 127h78l98 -127h-68l-69 75z" />
    <glyph glyph-name="edieresis" unicode="&#xeb;" horiz-adv-x="430" 
d="M389 389v-135h-266v-75q0 -56 24 -87t69 -31q41 0 66.5 23t25.5 61v18h81v-9q0 -70 -45.5 -116t-127.5 -46t-127.5 49.5t-45.5 135.5v212q0 83 45.5 131.5t127.5 48.5q80 0 126.5 -49t46.5 -131zM308 398q0 47 -25 74t-67 27t-67.5 -26t-25.5 -73v-87h185v85zM322 659
q0 -17 -12 -29t-29 -12t-28.5 12t-11.5 29t11.5 28.5t28.5 11.5t29 -11.5t12 -28.5zM184 659q0 -17 -11.5 -29t-28.5 -12t-28.5 12t-11.5 29t12 28.5t28 11.5t28 -11.5t12 -28.5z" />
    <glyph glyph-name="igrave" unicode="&#xec;" horiz-adv-x="193" 
d="M136 621h-65l-81 130h87zM136 561v-561h-81v561h81z" />
    <glyph glyph-name="iacute" unicode="&#xed;" horiz-adv-x="191" 
d="M119 622h-64l58 129h88zM136 561v-561h-81v561h81z" />
    <glyph glyph-name="icircumflex" unicode="&#xee;" horiz-adv-x="191" 
d="M136 561v-561h-81v561h81zM26 621h-67l98 127h78l98 -127h-68l-69 75z" />
    <glyph glyph-name="idieresis" unicode="&#xef;" horiz-adv-x="190" 
d="M206 660q0 -17 -12 -29t-29 -12t-28.5 12t-11.5 29q0 16 11.5 28t28.5 12t29 -11.5t12 -28.5zM68 660q0 -17 -11.5 -29t-28.5 -12t-28.5 12t-11.5 29q0 16 12 28t28 12t28 -12t12 -28zM136 561v-561h-81v561h81z" />
    <glyph glyph-name="eth" unicode="&#xf0;" horiz-adv-x="436" 
d="M250 755l34 -73h72v-35h-56q33 -67 48 -101q24 -55 34 -94.5t10 -90.5v-162q0 -206 -175 -206q-173 0 -173 207v166q0 199 158 199q37 0 60 -12l-44 94h-72v35h55l-34 73h83zM217 493q-92 0 -92 -116v-190q0 -121 92 -121q55 0 74 29.5t19 108.5v173q0 116 -93 116z" />
    <glyph glyph-name="ntilde" unicode="&#xf1;" horiz-adv-x="450" 
d="M135 388v-388h-80v561h76v-59q12 25 44 45.5t78 20.5q148 0 148 -194v-374h-81v370q0 68 -19 99t-74 31q-92 0 -92 -112zM360 711v-66q-36 -24 -70 -24q-24 0 -63.5 11.5t-61.5 11.5q-39 0 -78 -26v66q40 24 71 24q23 0 63 -12.5t61 -12.5q38 0 78 28z" />
    <glyph glyph-name="ograve" unicode="&#xf2;" horiz-adv-x="435" 
d="M217 -8q-82 0 -127.5 49t-45.5 134v212q0 83 45.5 131.5t127.5 48.5q80 0 126.5 -49t46.5 -131v-212q0 -85 -46 -134t-127 -49zM217 494q-43 0 -68 -25.5t-25 -72.5v-232q0 -48 25.5 -73.5t67.5 -25.5t67 25.5t25 73.5v232q0 47 -25 72.5t-67 25.5zM259 620h-65l-81 130
h87z" />
    <glyph glyph-name="oacute" unicode="&#xf3;" horiz-adv-x="435" 
d="M217 -8q-82 0 -127.5 49t-45.5 134v212q0 83 45.5 131.5t127.5 48.5q80 0 126.5 -49t46.5 -131v-212q0 -85 -46 -134t-127 -49zM217 494q-43 0 -68 -25.5t-25 -72.5v-232q0 -48 25.5 -73.5t67.5 -25.5t67 25.5t25 73.5v232q0 47 -25 72.5t-67 25.5zM245 621h-64l58 129
h88z" />
    <glyph glyph-name="ocircumflex" unicode="&#xf4;" horiz-adv-x="435" 
d="M217 -8q-82 0 -127.5 49t-45.5 134v212q0 83 45.5 131.5t127.5 48.5q80 0 126.5 -49t46.5 -131v-212q0 -85 -46 -134t-127 -49zM217 494q-43 0 -68 -25.5t-25 -72.5v-232q0 -48 25.5 -73.5t67.5 -25.5t67 25.5t25 73.5v232q0 47 -25 72.5t-67 25.5zM148 620h-67l98 127
h78l98 -127h-68l-69 75z" />
    <glyph glyph-name="otilde" unicode="&#xf5;" horiz-adv-x="435" 
d="M217 -8q-82 0 -127.5 49t-45.5 134v212q0 83 45.5 131.5t127.5 48.5q80 0 126.5 -49t46.5 -131v-212q0 -85 -46 -134t-127 -49zM217 494q-43 0 -68 -25.5t-25 -72.5v-232q0 -48 25.5 -73.5t67.5 -25.5t67 25.5t25 73.5v232q0 47 -25 72.5t-67 25.5zM354 708v-66
q-36 -24 -70 -24q-24 0 -63.5 11.5t-61.5 11.5q-39 0 -78 -26v66q41 24 71 24q23 0 63 -12.5t61 -12.5q38 0 78 28z" />
    <glyph glyph-name="odieresis" unicode="&#xf6;" horiz-adv-x="435" 
d="M217 -8q-82 0 -127.5 49t-45.5 134v212q0 83 45.5 131.5t127.5 48.5q80 0 126.5 -49t46.5 -131v-212q0 -85 -46 -134t-127 -49zM217 494q-43 0 -68 -25.5t-25 -72.5v-232q0 -48 25.5 -73.5t67.5 -25.5t67 25.5t25 73.5v232q0 47 -25 72.5t-67 25.5zM326 658
q0 -17 -12 -29t-29 -12t-28.5 12t-11.5 29q0 16 11.5 28t28.5 12t29 -11.5t12 -28.5zM188 658q0 -17 -11.5 -29t-28.5 -12t-28.5 12t-11.5 29q0 16 12 28t28 12t28 -12t12 -28z" />
    <glyph glyph-name="divide" unicode="&#xf7;" horiz-adv-x="394" 
d="M242 227q0 -19 -13.5 -32.5t-32.5 -13.5t-32.5 13.5t-13.5 32.5q0 20 13.5 33.5t32.5 13.5t32.5 -13.5t13.5 -33.5zM242 488q0 -19 -13.5 -32.5t-32.5 -13.5t-32.5 13.5t-13.5 32.5q0 20 13.5 33.5t32.5 13.5t32.5 -13.5t13.5 -33.5zM356 319h-309v74h309v-74z" />
    <glyph glyph-name="oslash" unicode="&#xf8;" horiz-adv-x="435" 
d="M139 -65h-37l22 79q-80 45 -80 161v212q0 83 45.5 131.5t127.5 48.5q29 0 56 -8l20 72h38l-24 -86q83 -44 83 -158v-212q0 -85 -46 -134t-127 -49q-31 0 -60 8zM309 396q0 44 -23 70l-109 -394q17 -7 40 -7q42 0 67 25.5t25 73.5v232zM217 494q-43 0 -68 -25.5t-25 -72.5
v-232q0 -43 22 -70l108 394q-16 6 -37 6z" />
    <glyph glyph-name="ugrave" unicode="&#xf9;" horiz-adv-x="441" 
d="M47 175v386h81v-397q0 -48 25.5 -73.5t67.5 -25.5t67 25.5t25 73.5v397h81v-386q0 -85 -46 -134t-127 -49q-82 0 -128 49t-46 134zM272 621h-65l-81 130h87z" />
    <glyph glyph-name="uacute" unicode="&#xfa;" horiz-adv-x="441" 
d="M47 175v386h81v-397q0 -48 25.5 -73.5t67.5 -25.5t67 25.5t25 73.5v397h81v-386q0 -85 -46 -134t-127 -49q-82 0 -128 49t-46 134zM236 622h-64l58 129h88z" />
    <glyph glyph-name="ucircumflex" unicode="&#xfb;" horiz-adv-x="441" 
d="M47 175v386h81v-397q0 -48 25.5 -73.5t67.5 -25.5t67 25.5t25 73.5v397h81v-386q0 -85 -46 -134t-127 -49q-82 0 -128 49t-46 134zM150 619h-67l98 127h78l98 -127h-68l-69 75z" />
    <glyph glyph-name="udieresis" unicode="&#xfc;" horiz-adv-x="441" 
d="M47 175v386h81v-397q0 -48 25.5 -73.5t67.5 -25.5t67 25.5t25 73.5v397h81v-386q0 -85 -46 -134t-127 -49q-82 0 -128 49t-46 134zM329 660q0 -17 -12 -29t-29 -12t-28.5 12t-11.5 29q0 16 12 28t28 12q17 0 29 -11.5t12 -28.5zM191 660q0 -17 -11.5 -29t-28.5 -12
t-28.5 12t-11.5 29q0 16 11.5 28t28.5 12t28.5 -12t11.5 -28z" />
    <glyph glyph-name="yacute" unicode="&#xfd;" horiz-adv-x="425" 
d="M116 -188l54 193l-155 556h88l109 -422l110 422h87l-210 -749h-83zM236 622h-64l58 129h88z" />
    <glyph glyph-name="thorn" unicode="&#xfe;" horiz-adv-x="450" 
d="M253 -7q-46 0 -76 19t-42 44v-245h-80v944h80v-253q12 25 42 45t76 20q70 0 109 -44.5t39 -130.5v-223q0 -86 -39 -131t-109 -45zM227 61q45 0 69 29t24 83v214q0 54 -24 83t-69 29q-42 0 -67 -28t-25 -80v-218q0 -54 24.5 -83t67.5 -29z" />
    <glyph glyph-name="ydieresis" unicode="&#xff;" horiz-adv-x="425" 
d="M116 -188l54 193l-155 556h88l109 -422l110 422h87l-210 -749h-83zM321 657q0 -17 -12 -29t-29 -12t-28.5 12t-11.5 29t12 28.5t28 11.5q17 0 29 -11.5t12 -28.5zM183 657q0 -17 -11.5 -29t-28.5 -12t-28.5 12t-11.5 29t11.5 28.5t28.5 11.5t28.5 -11.5t11.5 -28.5z" />
    <glyph glyph-name="Amacron" unicode="&#x100;" horiz-adv-x="483" 
d="M243 586l-87 -354h172zM383 0l-39 158h-206l-39 -158h-87l184 705h93l181 -705h-87zM357 770h-231v60h231v-60z" />
    <glyph glyph-name="amacron" unicode="&#x101;" 
d="M192 -8q-70 0 -109 45.5t-39 131.5v224q0 86 39.5 130.5t108.5 44.5q46 0 78 -20.5t44 -44.5v58h76v-561h-76v58q-12 -24 -44 -45t-78 -21zM217 61q44 0 68 29t24 84v217q0 53 -24.5 81t-67.5 28q-44 0 -68 -29t-24 -83v-214q0 -56 24 -84.5t68 -28.5zM340 621h-231v60
h231v-60z" />
    <glyph glyph-name="Abreve" unicode="&#x102;" horiz-adv-x="483" 
d="M243 586l-87 -354h172zM383 0l-39 158h-206l-39 -158h-87l184 705h93l181 -705h-87zM119 883v12h64v-17q0 -27 15.5 -40.5t41.5 -13.5q24 0 41.5 13.5t17.5 39.5v18h64v-14q0 -55 -32 -85t-91 -30q-57 0 -89 32t-32 85z" />
    <glyph glyph-name="abreve" unicode="&#x103;" 
d="M192 -8q-70 0 -109 45.5t-39 131.5v224q0 86 39.5 130.5t108.5 44.5q46 0 78 -20.5t44 -44.5v58h76v-561h-76v58q-12 -24 -44 -45t-78 -21zM217 61q44 0 68 29t24 84v217q0 53 -24.5 81t-67.5 28q-44 0 -68 -29t-24 -83v-214q0 -56 24 -84.5t68 -28.5zM104 733v12h64v-17
q0 -27 15.5 -40.5t41.5 -13.5q24 0 41.5 13.5t17.5 39.5v18h64v-14q0 -55 -32 -85t-91 -30q-57 0 -89 32t-32 85z" />
    <glyph glyph-name="Aogonek" unicode="&#x104;" horiz-adv-x="483" 
d="M243 586l-87 -354h172q-29 118 -85 354zM469 -7q-10 -17 -10 -32q0 -34 43 -34q14 0 36 5v-67q-33 -7 -57 -7q-54 0 -81.5 25.5t-27.5 70.5q0 8 3 19.5t5 18.5l3 8l-39 158h-206l-39 -158h-87l184 705h93q139 -559 180 -712z" />
    <glyph glyph-name="aogonek" unicode="&#x105;" horiz-adv-x="445" 
d="M314 1v57q-12 -24 -44 -45t-78 -21q-70 0 -109 45.5t-39 131.5v224q0 86 39.5 130.5t108.5 44.5q46 0 78 -20.5t44 -44.5v58h76v-561q-8 -18 -8 -35q0 -38 45 -38q11 0 38 5v-67q-35 -7 -59 -7q-50 0 -76.5 25t-26.5 68q0 17 11 50zM217 61q44 0 68 29t24 84v217
q0 53 -24.5 81t-67.5 28q-44 0 -68 -29t-24 -83v-214q0 -56 24 -84.5t68 -28.5z" />
    <glyph glyph-name="Cacute" unicode="&#x106;" horiz-adv-x="471" 
d="M432 227v-35q0 -88 -54 -144t-139 -56t-138.5 55.5t-53.5 144.5v321q0 89 53.5 145t138.5 56t139 -56.5t54 -144.5v-28h-85v32q0 55 -30.5 85t-77.5 30q-46 0 -77 -29t-31 -86v-328q0 -55 30.5 -85t77.5 -30q46 0 77 29t31 86v38h85zM256 769h-64l58 129h88z" />
    <glyph glyph-name="cacute" unicode="&#x107;" horiz-adv-x="429" 
d="M217 65q92 0 92 112h81q0 -87 -45.5 -136t-127.5 -49t-127.5 49t-45.5 134v212q0 83 46 132t127 49q83 0 128 -49.5t45 -136.5h-81q0 112 -92 112q-43 0 -68 -25.5t-25 -72.5v-232q0 -48 25.5 -73.5t67.5 -25.5zM243 622h-64l58 129h88z" />
    <glyph glyph-name="Ccircumflex" unicode="&#x108;" horiz-adv-x="471" 
d="M432 227v-35q0 -88 -54 -144t-139 -56t-138.5 55.5t-53.5 144.5v321q0 89 53.5 145t138.5 56t139 -56.5t54 -144.5v-28h-85v32q0 55 -30.5 85t-77.5 30q-46 0 -77 -29t-31 -86v-328q0 -55 30.5 -85t77.5 -30q46 0 77 29t31 86v38h85zM165 769h-67l98 127h78l98 -127h-68
l-69 75z" />
    <glyph glyph-name="ccircumflex" unicode="&#x109;" horiz-adv-x="429" 
d="M217 65q92 0 92 112h81q0 -87 -45.5 -136t-127.5 -49t-127.5 49t-45.5 134v212q0 83 46 132t127 49q83 0 128 -49.5t45 -136.5h-81q0 112 -92 112q-43 0 -68 -25.5t-25 -72.5v-232q0 -48 25.5 -73.5t67.5 -25.5zM146 621h-67l98 127h78l98 -127h-68l-69 75z" />
    <glyph glyph-name="Cdotaccent" unicode="&#x10a;" horiz-adv-x="471" 
d="M432 227v-35q0 -88 -54 -144t-139 -56t-138.5 55.5t-53.5 144.5v321q0 89 53.5 145t138.5 56t139 -56.5t54 -144.5v-28h-85v32q0 55 -30.5 85t-77.5 30q-46 0 -77 -29t-31 -86v-328q0 -55 30.5 -85t77.5 -30q46 0 77 29t31 86v38h85zM278 809q0 -18 -12.5 -30.5
t-30.5 -12.5t-30 12.5t-12 30.5q0 17 12 29.5t30 12.5t30.5 -12.5t12.5 -29.5z" />
    <glyph glyph-name="cdotaccent" unicode="&#x10b;" horiz-adv-x="429" 
d="M217 65q92 0 92 112h81q0 -87 -45.5 -136t-127.5 -49t-127.5 49t-45.5 134v212q0 83 46 132t127 49q83 0 128 -49.5t45 -136.5h-81q0 112 -92 112q-43 0 -68 -25.5t-25 -72.5v-232q0 -48 25.5 -73.5t67.5 -25.5zM259 661q0 -18 -12.5 -30.5t-30.5 -12.5t-30 12.5
t-12 30.5q0 17 12 29.5t30 12.5t30.5 -12.5t12.5 -29.5z" />
    <glyph glyph-name="Ccaron" unicode="&#x10c;" horiz-adv-x="471" 
d="M432 227v-35q0 -88 -54 -144t-139 -56t-138.5 55.5t-53.5 144.5v321q0 89 53.5 145t138.5 56t139 -56.5t54 -144.5v-28h-85v32q0 55 -30.5 85t-77.5 30q-46 0 -77 -29t-31 -86v-328q0 -55 30.5 -85t77.5 -30q46 0 77 29t31 86v38h85zM97 895h68l70 -75l69 75h68
q-66 -84 -98 -126h-78z" />
    <glyph glyph-name="ccaron" unicode="&#x10d;" horiz-adv-x="429" 
d="M217 65q92 0 92 112h81q0 -87 -45.5 -136t-127.5 -49t-127.5 49t-45.5 134v212q0 83 46 132t127 49q83 0 128 -49.5t45 -136.5h-81q0 112 -92 112q-43 0 -68 -25.5t-25 -72.5v-232q0 -48 25.5 -73.5t67.5 -25.5zM78 746h68l70 -75l69 75h68q-66 -84 -98 -126h-78z" />
    <glyph glyph-name="Dcaron" unicode="&#x10e;" horiz-adv-x="489" 
d="M248 705q99 -2 146 -61.5t47 -186.5v-216q0 -127 -46.5 -184t-146.5 -57h-185v705h185zM357 493q0 74 -31 102t-87 28h-91v-542h91q67 0 92.5 38t25.5 149v225zM99 895h68l70 -75l69 75h68q-66 -84 -98 -126h-78z" />
    <glyph glyph-name="dcaron" unicode="&#x10f;" horiz-adv-x="571" 
d="M191 -8q-70 0 -109.5 45t-39.5 131v225q0 85 39.5 130t109.5 45q45 0 74 -18t41 -42v247h83v-755h-76v58q-36 -66 -122 -66zM216 60q44 0 68 29t24 84v218q0 53 -24.5 80.5t-67.5 27.5q-44 0 -68 -29t-24 -83v-214q0 -54 24 -83.5t68 -29.5zM485 488h-62l81 266h85z" />
    <glyph glyph-name="Dcroat" unicode="&#x110;" horiz-adv-x="499" 
d="M74 375v330h185q193 0 193 -251v-203q0 -251 -193 -251h-185v340h-59v35h59zM250 623h-91v-248h96v-35h-96v-259h91q63 0 90.5 43t27.5 159v164q0 99 -29 137.5t-89 38.5z" />
    <glyph glyph-name="dcroat" unicode="&#x111;" horiz-adv-x="447" 
d="M192 -8q-70 0 -109.5 45t-39.5 131v224q0 85 39.5 130t109.5 45q46 0 75.5 -19t42.5 -44v144h-97v35h97v72h80v-72h60v-35h-60v-648h-76v58q-12 -25 -44 -45.5t-78 -20.5zM217 60q44 0 68.5 29t24.5 84v218q0 52 -25 80t-68 28q-44 0 -68 -29.5t-24 -82.5v-214
q0 -54 24 -83.5t68 -29.5z" />
    <glyph glyph-name="Emacron" unicode="&#x112;" horiz-adv-x="427" 
d="M384 705v-82h-237v-229h173v-75h-173v-237h237v-82h-321v705h321zM338 770h-231v60h231v-60z" />
    <glyph glyph-name="emacron" unicode="&#x113;" horiz-adv-x="430" 
d="M389 389v-135h-266v-75q0 -56 24 -87t69 -31q41 0 66.5 23t25.5 61v18h81v-9q0 -70 -45.5 -116t-127.5 -46t-127.5 49.5t-45.5 135.5v212q0 83 45.5 131.5t127.5 48.5q80 0 126.5 -49t46.5 -131zM308 398q0 47 -25 74t-67 27t-67.5 -26t-25.5 -73v-87h185v85zM332 622
h-231v60h231v-60z" />
    <glyph glyph-name="Ebreve" unicode="&#x114;" horiz-adv-x="427" 
d="M384 705v-82h-237v-229h173v-75h-173v-237h237v-82h-321v705h321zM102 883v12h64v-17q0 -27 15.5 -40.5t41.5 -13.5q24 0 41.5 13.5t17.5 39.5v18h64v-14q0 -55 -32 -85t-91 -30q-57 0 -89 32t-32 85z" />
    <glyph glyph-name="ebreve" unicode="&#x115;" horiz-adv-x="430" 
d="M389 389v-135h-266v-75q0 -56 24 -87t69 -31q41 0 66.5 23t25.5 61v18h81v-9q0 -70 -45.5 -116t-127.5 -46t-127.5 49.5t-45.5 135.5v212q0 83 45.5 131.5t127.5 48.5q80 0 126.5 -49t46.5 -131zM308 398q0 47 -25 74t-67 27t-67.5 -26t-25.5 -73v-87h185v85zM92 734v12
h64v-17q0 -27 15.5 -40.5t41.5 -13.5q24 0 41.5 13.5t17.5 39.5v18h64v-14q0 -55 -32 -85t-91 -30q-57 0 -89 32t-32 85z" />
    <glyph glyph-name="Edotaccent" unicode="&#x116;" horiz-adv-x="427" 
d="M384 705v-82h-237v-229h173v-75h-173v-237h237v-82h-321v705h321zM259 810q0 -18 -12.5 -30.5t-30.5 -12.5t-30 12.5t-12 30.5q0 17 12 29.5t30 12.5t30.5 -12.5t12.5 -29.5z" />
    <glyph glyph-name="edotaccent" unicode="&#x117;" horiz-adv-x="430" 
d="M389 389v-135h-266v-75q0 -56 24 -87t69 -31q41 0 66.5 23t25.5 61v18h81v-9q0 -70 -45.5 -116t-127.5 -46t-127.5 49.5t-45.5 135.5v212q0 83 45.5 131.5t127.5 48.5q80 0 126.5 -49t46.5 -131zM308 398q0 47 -25 74t-67 27t-67.5 -26t-25.5 -73v-87h185v85zM257 664
q0 -18 -12.5 -30.5t-30.5 -12.5t-30 12.5t-12 30.5q0 17 12 29.5t30 12.5t30.5 -12.5t12.5 -29.5z" />
    <glyph glyph-name="Eogonek" unicode="&#x118;" horiz-adv-x="426" 
d="M384 0q-11 -15 -11 -30q0 -42 50 -42q13 0 36 5v-66q-33 -7 -62 -7q-51 0 -77 26.5t-26 69.5q0 10 2.5 21t5.5 17l2 6h-241v705h321v-82h-237v-229h173v-75h-173v-237h237v-82z" />
    <glyph glyph-name="eogonek" unicode="&#x119;" horiz-adv-x="430" 
d="M390 389v-135h-266v-75q0 -56 24 -87t69 -31q41 0 66.5 23t25.5 61v18h81v-9q0 -62 -37 -106.5t-104 -53.5v-13q0 -50 49 -50q19 0 37 5v-67q-28 -7 -58 -7q-99 0 -99 96q0 17 2 37q-65 10 -100.5 58.5t-35.5 123.5v212q0 83 45.5 131.5t127.5 48.5q80 0 126.5 -49
t46.5 -131zM309 398q0 47 -25 74t-67 27t-67.5 -26t-25.5 -73v-87h185v85z" />
    <glyph glyph-name="Ecaron" unicode="&#x11a;" horiz-adv-x="427" 
d="M384 705v-82h-237v-229h173v-75h-173v-237h237v-82h-321v705h321zM80 895h68l70 -75l69 75h68q-66 -84 -98 -126h-78z" />
    <glyph glyph-name="ecaron" unicode="&#x11b;" horiz-adv-x="430" 
d="M389 389v-135h-266v-75q0 -56 24 -87t69 -31q41 0 66.5 23t25.5 61v18h81v-9q0 -70 -45.5 -116t-127.5 -46t-127.5 49.5t-45.5 135.5v212q0 83 45.5 131.5t127.5 48.5q80 0 126.5 -49t46.5 -131zM308 398q0 47 -25 74t-67 27t-67.5 -26t-25.5 -73v-87h185v85zM77 745h68
l70 -75l69 75h68q-66 -84 -98 -126h-78z" />
    <glyph glyph-name="Gcircumflex" unicode="&#x11c;" horiz-adv-x="478" 
d="M238 74q108 0 108 143v42h-108v75h193v-114q0 -104 -49 -166t-144 -62q-85 0 -138.5 55.5t-53.5 144.5v321q0 89 53.5 145t138.5 56q84 0 137.5 -55t55.5 -141h-85q-1 55 -31 84.5t-77 29.5q-46 0 -77 -29t-31 -86v-328q0 -55 30.5 -85t77.5 -30zM169 761h-67l98 127h78
l98 -127h-68l-69 75z" />
    <glyph glyph-name="gcircumflex" unicode="&#x11d;" 
d="M192 -8q-70 0 -109 45.5t-39 131.5v224q0 83 37.5 128t102.5 45q48 0 83 -18.5t47 -44.5v58h76v-591q0 -88 -38 -130.5t-134 -42.5q-168 0 -168 141h78q0 -33 22.5 -55t67.5 -22q48 0 69.5 22.5t21.5 69.5v105q-12 -26 -41.5 -46t-75.5 -20zM217 59q92 0 92 119v211
q0 111 -92 111q-44 0 -68 -28.5t-24 -83.5v-206q0 -123 92 -123zM154 623h-67l98 127h78l98 -127h-68l-69 75z" />
    <glyph glyph-name="Gbreve" unicode="&#x11e;" horiz-adv-x="478" 
d="M238 74q108 0 108 143v42h-108v75h193v-114q0 -104 -49 -166t-144 -62q-85 0 -138.5 55.5t-53.5 144.5v321q0 89 53.5 145t138.5 56q84 0 137.5 -55t55.5 -141h-85q-1 55 -31 84.5t-77 29.5q-46 0 -77 -29t-31 -86v-328q0 -55 30.5 -85t77.5 -30zM115 883v12h64v-17
q0 -27 15.5 -40.5t41.5 -13.5q24 0 41.5 13.5t17.5 39.5v18h64v-14q0 -55 -32 -85t-91 -30q-57 0 -89 32t-32 85z" />
    <glyph glyph-name="gbreve" unicode="&#x11f;" 
d="M192 -8q-70 0 -109 45.5t-39 131.5v224q0 83 37.5 128t102.5 45q48 0 83 -18.5t47 -44.5v58h76v-591q0 -88 -38 -130.5t-134 -42.5q-168 0 -168 141h78q0 -33 22.5 -55t67.5 -22q48 0 69.5 22.5t21.5 69.5v105q-12 -26 -41.5 -46t-75.5 -20zM217 59q92 0 92 119v211
q0 111 -92 111q-44 0 -68 -28.5t-24 -83.5v-206q0 -123 92 -123zM102 731v12h64v-17q0 -27 15.5 -40.5t41.5 -13.5q24 0 41.5 13.5t17.5 39.5v18h64v-14q0 -55 -32 -85t-91 -30q-57 0 -89 32t-32 85z" />
    <glyph glyph-name="Gdotaccent" unicode="&#x120;" horiz-adv-x="478" 
d="M238 74q108 0 108 143v42h-108v75h193v-114q0 -104 -49 -166t-144 -62q-85 0 -138.5 55.5t-53.5 144.5v321q0 89 53.5 145t138.5 56q84 0 137.5 -55t55.5 -141h-85q-1 55 -31 84.5t-77 29.5q-46 0 -77 -29t-31 -86v-328q0 -55 30.5 -85t77.5 -30zM279 810
q0 -18 -12.5 -30.5t-30.5 -12.5t-30 12.5t-12 30.5q0 17 12 29.5t30 12.5t30.5 -12.5t12.5 -29.5z" />
    <glyph glyph-name="gdotaccent" unicode="&#x121;" 
d="M192 -8q-70 0 -109 45.5t-39 131.5v224q0 83 37.5 128t102.5 45q48 0 83 -18.5t47 -44.5v58h76v-591q0 -88 -38 -130.5t-134 -42.5q-168 0 -168 141h78q0 -33 22.5 -55t67.5 -22q48 0 69.5 22.5t21.5 69.5v105q-12 -26 -41.5 -46t-75.5 -20zM217 59q92 0 92 119v211
q0 111 -92 111q-44 0 -68 -28.5t-24 -83.5v-206q0 -123 92 -123zM253 665q0 -18 -12.5 -30.5t-30.5 -12.5t-30 12.5t-12 30.5q0 17 12 29.5t30 12.5t30.5 -12.5t12.5 -29.5z" />
    <glyph glyph-name="Gcommaaccent" unicode="&#x122;" horiz-adv-x="478" 
d="M238 74q108 0 108 143v42h-108v75h193v-114q0 -104 -49 -166t-144 -62q-85 0 -138.5 55.5t-53.5 144.5v321q0 89 53.5 145t138.5 56q84 0 137.5 -55t55.5 -141h-85q-1 55 -31 84.5t-77 29.5q-46 0 -77 -29t-31 -86v-328q0 -55 30.5 -85t77.5 -30zM218 -228h-52
q4 17 22 84.5t23 84.5h88q-8 -17 -40.5 -84.5t-40.5 -84.5z" />
    <glyph glyph-name="gcommaaccent" unicode="&#x123;" 
d="M239 790h52q-4 -17 -22.5 -85t-22.5 -85h-87l40 85zM192 -7q-70 0 -109 45.5t-39 131.5v224q0 83 37.5 128t102.5 45q48 0 83 -18.5t47 -44.5v58h76v-591q0 -88 -38 -130.5t-134 -42.5q-168 0 -168 141h78q0 -33 22.5 -55t67.5 -22q48 0 69.5 22.5t21.5 69.5v105
q-12 -26 -41.5 -46t-75.5 -20zM217 60q92 0 92 119v211q0 111 -92 111q-44 0 -68 -28.5t-24 -83.5v-206q0 -123 92 -123z" />
    <glyph glyph-name="Hcircumflex" unicode="&#x124;" horiz-adv-x="499" 
d="M148 319v-319h-85v705h85v-311h203v311h84v-705h-84v319h-203zM173 769h-67l98 127h78l98 -127h-68l-69 75z" />
    <glyph glyph-name="hcircumflex" unicode="&#x125;" horiz-adv-x="450" 
d="M135 387v-387h-80v755h80v-253q13 32 45.5 49t74.5 17q74 0 110 -49.5t36 -156.5v-362h-81v353q0 77 -18 111.5t-75 34.5q-48 0 -70 -27.5t-22 -84.5zM142 799h-67l98 127h78l98 -127h-68l-69 75z" />
    <glyph glyph-name="Hbar" unicode="&#x126;" horiz-adv-x="508" 
d="M153 319v-319h-85v531h-64v36h64v138h85v-138h203v138h84v-138h63v-36h-63v-531h-84v319h-203zM153 394h203v137h-203v-137z" />
    <glyph glyph-name="hbar" unicode="&#x127;" horiz-adv-x="450" 
d="M136 648v-146q26 66 120 66q74 0 110 -48t36 -153v-367h-81v358q0 141 -93 141q-26 0 -43.5 -10t-27 -23.5t-14.5 -39.5t-6 -46.5t-1 -55.5v-324h-81v648h-56v35h56v72h81v-72h96v-35h-96z" />
    <glyph glyph-name="Itilde" unicode="&#x128;" horiz-adv-x="209" 
d="M147 705v-705h-84v705h84zM242 858v-66q-36 -24 -70 -24q-24 0 -63.5 11.5t-61.5 11.5q-39 0 -78 -26v66q41 24 71 24q23 0 63 -12.5t61 -12.5q38 0 78 28z" />
    <glyph glyph-name="itilde" unicode="&#x129;" horiz-adv-x="190" 
d="M232 710v-66q-36 -24 -70 -24q-24 0 -63.5 11.5t-61.5 11.5q-39 0 -78 -26v66q40 24 71 24q23 0 63 -12.5t61 -12.5q38 0 78 28zM136 561v-561h-81v561h81z" />
    <glyph glyph-name="Imacron" unicode="&#x12a;" horiz-adv-x="210" 
d="M147 705v-705h-84v705h84zM221 770h-231v60h231v-60z" />
    <glyph glyph-name="imacron" unicode="&#x12b;" horiz-adv-x="190" 
d="M211 619h-231v60h231v-60zM136 561v-561h-81v561h81z" />
    <glyph glyph-name="Ibreve" unicode="&#x12c;" horiz-adv-x="209" 
d="M147 705v-705h-84v705h84zM-16 883v12h64v-17q0 -27 15.5 -40.5t41.5 -13.5q24 0 41.5 13.5t17.5 39.5v18h64v-14q0 -55 -32 -85t-91 -30q-57 0 -89 32t-32 85z" />
    <glyph glyph-name="ibreve" unicode="&#x12d;" horiz-adv-x="191" 
d="M-26 734v12h64v-17q0 -27 15.5 -40.5t41.5 -13.5q24 0 41.5 13.5t17.5 39.5v18h64v-14q0 -55 -32 -85t-91 -30q-57 0 -89 32t-32 85zM136 561v-561h-81v561h81z" />
    <glyph glyph-name="Iogonek" unicode="&#x12e;" horiz-adv-x="211" 
d="M52 -48q0 9 3 21t5 19l3 8v705h84v-705q-9 -18 -9 -37q0 -33 44 -33q15 0 35 5v-68q-30 -7 -57 -7q-53 0 -80.5 24t-27.5 68z" />
    <glyph glyph-name="iogonek" unicode="&#x12f;" horiz-adv-x="191" 
d="M145 676q0 -21 -15 -35.5t-35 -14.5q-22 0 -36.5 14.5t-14.5 35.5t14.5 35.5t36.5 14.5q20 0 35 -14.5t15 -35.5zM54 0v561h80v-561q-9 -22 -9 -30q0 -43 48 -43q17 0 36 6v-67q-32 -7 -59 -7q-52 0 -78 25t-26 68q0 10 2 22t4 19z" />
    <glyph glyph-name="Idotaccent" unicode="&#x130;" horiz-adv-x="210" 
d="M147 705v-705h-84v705h84zM148 810q0 -18 -12.5 -30.5t-30.5 -12.5t-30 12.5t-12 30.5q0 17 12 29.5t30 12.5t30.5 -12.5t12.5 -29.5z" />
    <glyph glyph-name="dotlessi" unicode="&#x131;" horiz-adv-x="192" 
d="M136 561v-561h-81v561h81z" />
    <glyph glyph-name="Jcircumflex" unicode="&#x134;" horiz-adv-x="456" 
d="M315 205v500h85v-480q0 -107 -45.5 -170.5t-139.5 -63.5q-84 0 -134.5 55t-50.5 144v54h85v-56q0 -55 28.5 -85t71.5 -30q100 0 100 132zM186 769h-67l98 127h78l98 -127h-68l-69 75z" />
    <glyph glyph-name="jcircumflex" unicode="&#x135;" horiz-adv-x="189" 
d="M-21 -200v74q43 0 59.5 21.5t16.5 77.5v588h81v-530q0 -127 -31 -179t-126 -52zM24 625h-66l97 126h78q66 -84 98 -126h-67q-7 8 -31.5 34t-38.5 40q-7 -8 -31.5 -34t-38.5 -40z" />
    <glyph glyph-name="Kcommaaccent" unicode="&#x136;" horiz-adv-x="470" 
d="M269 359q29 -60 89 -179.5t90 -179.5h-97l-153 320h-50v-320h-85v705h85v-308h50l153 308h97zM218 -228h-52q4 17 22 84.5t23 84.5h88q-8 -17 -40.5 -84.5t-40.5 -84.5z" />
    <glyph glyph-name="kcommaaccent" unicode="&#x137;" horiz-adv-x="422" 
d="M243 285l159 -285h-93l-132 250h-41v-250h-81v755h81v-437h41l131 243h93zM184 -228h-52q4 17 22 84.5t23 84.5h88q-8 -17 -40.5 -84.5t-40.5 -84.5z" />
    <glyph glyph-name="kgreenlandic" unicode="&#x138;" horiz-adv-x="422" 
d="M243 285l159 -285h-93l-132 250h-41v-250h-81v561h81v-243h41l131 243h93z" />
    <glyph glyph-name="Lacute" unicode="&#x139;" horiz-adv-x="388" 
d="M365 82v-82h-302v705h85v-623h217zM168 766h-64l58 129h88z" />
    <glyph glyph-name="lacute" unicode="&#x13a;" horiz-adv-x="194" 
d="M136 755v-755h-81v755h81zM122 811h-64l58 129h88z" />
    <glyph glyph-name="Lcommaaccent" unicode="&#x13b;" horiz-adv-x="388" 
d="M365 82v-82h-302v705h85v-623h217zM181 -228h-52q4 17 22.5 84.5t22.5 84.5h88q-8 -17 -40.5 -84.5t-40.5 -84.5z" />
    <glyph glyph-name="lcommaaccent" unicode="&#x13c;" horiz-adv-x="192" 
d="M136 755v-755h-81v755h81zM61 -228h-52q5 17 23 84.5t22 84.5h88q-8 -17 -40.5 -84.5t-40.5 -84.5z" />
    <glyph glyph-name="Lcaron" unicode="&#x13d;" horiz-adv-x="403" 
d="M365 82v-82h-302v705h85v-623h217zM268 437h-64l84 268h88z" />
    <glyph glyph-name="lcaron" unicode="&#x13e;" horiz-adv-x="325" 
d="M136 755v-755h-81v755h81zM235 485h-62l81 268h85z" />
    <glyph glyph-name="Ldot" unicode="&#x13f;" horiz-adv-x="393" 
d="M365 82v-82h-302v705h85v-623h217zM312 340q0 -20 -14 -34t-34 -14q-21 0 -34.5 14t-13.5 34t13.5 34.5t34.5 14.5q19 0 33.5 -14.5t14.5 -34.5z" />
    <glyph glyph-name="ldot" unicode="&#x140;" horiz-adv-x="287" 
d="M136 755v-755h-81v755h81zM260 316q0 -17 -12.5 -29.5t-30.5 -12.5t-30 12.5t-12 29.5q0 18 12 31t30 13t30.5 -13t12.5 -31z" />
    <glyph glyph-name="Lslash" unicode="&#x141;" horiz-adv-x="390" 
d="M367 82v-82h-302v335l-65 -21v37l65 21v333h84v-304l65 22v-37l-65 -22v-282h218z" />
    <glyph glyph-name="lslash" unicode="&#x142;" horiz-adv-x="198" 
d="M140 302v-302h-81v302h-60v36h60v417h81v-417h60v-36h-60z" />
    <glyph glyph-name="Nacute" unicode="&#x143;" horiz-adv-x="514" 
d="M450 705v-705h-79l-223 498v-498h-85v705h78l224 -503v503h85zM279 769h-64l58 129h88z" />
    <glyph glyph-name="nacute" unicode="&#x144;" horiz-adv-x="450" 
d="M135 388v-388h-80v561h76v-59q12 25 44 45.5t78 20.5q148 0 148 -194v-374h-81v370q0 68 -19 99t-74 31q-92 0 -92 -112zM264 622h-64l58 129h88z" />
    <glyph glyph-name="Ncommaaccent" unicode="&#x145;" horiz-adv-x="514" 
d="M450 705v-705h-79l-223 498v-498h-85v705h78l224 -503v503h85zM242 -228h-52q4 17 22 84.5t23 84.5h88q-8 -17 -40.5 -84.5t-40.5 -84.5z" />
    <glyph glyph-name="ncommaaccent" unicode="&#x146;" horiz-adv-x="450" 
d="M135 388v-388h-80v561h76v-59q12 25 44 45.5t78 20.5q148 0 148 -194v-374h-81v370q0 68 -19 99t-74 31q-92 0 -92 -112zM199 -228h-52q5 17 22.5 84.5t22.5 84.5h88q-8 -17 -40.5 -84.5t-40.5 -84.5z" />
    <glyph glyph-name="Ncaron" unicode="&#x147;" horiz-adv-x="514" 
d="M450 705v-705h-79l-223 498v-498h-85v705h78l224 -503v503h85zM117 895h68l70 -75l69 75h68q-66 -84 -98 -126h-78z" />
    <glyph glyph-name="ncaron" unicode="&#x148;" horiz-adv-x="450" 
d="M135 388v-388h-80v561h76v-59q12 25 44 45.5t78 20.5q148 0 148 -194v-374h-81v370q0 68 -19 99t-74 31q-92 0 -92 -112zM87 746h68l70 -75l69 75h68q-66 -84 -98 -126h-78z" />
    <glyph glyph-name="Eng" unicode="&#x14a;" horiz-adv-x="514" 
d="M450 705v-723q0 -77 -36.5 -125.5t-112.5 -48.5h-8v74q43 0 60 21t17 75v24l-222 496v-498h-85v705h78q27 -60 104.5 -234t119.5 -269v503h85z" />
    <glyph glyph-name="eng" unicode="&#x14b;" horiz-adv-x="450" 
d="M244 -192v73q43 0 59.5 21.5t16.5 76.5v410q0 111 -93 111q-92 0 -92 -112v-388h-80v561h76v-59q12 25 44 45.5t78 20.5q70 0 109 -45t39 -130v-408q0 -93 -36 -135t-121 -42z" />
    <glyph glyph-name="Omacron" unicode="&#x14c;" horiz-adv-x="479" 
d="M239 -8q-85 0 -138.5 55.5t-53.5 144.5v321q0 89 53.5 145t138.5 56t139 -56.5t54 -144.5v-321q0 -88 -54 -144t-139 -56zM239 74q46 0 77 29t31 86v328q0 55 -30.5 85t-77.5 30q-46 0 -77 -29t-31 -86v-328q0 -55 30.5 -85t77.5 -30zM355 770h-231v60h231v-60z" />
    <glyph glyph-name="omacron" unicode="&#x14d;" horiz-adv-x="435" 
d="M217 -8q-82 0 -127.5 49t-45.5 134v212q0 83 45.5 131.5t127.5 48.5q80 0 126.5 -49t46.5 -131v-212q0 -85 -46 -134t-127 -49zM217 494q-43 0 -68 -25.5t-25 -72.5v-232q0 -48 25.5 -73.5t67.5 -25.5t67 25.5t25 73.5v232q0 47 -25 72.5t-67 25.5zM333 620h-231v60h231
v-60z" />
    <glyph glyph-name="Obreve" unicode="&#x14e;" horiz-adv-x="479" 
d="M239 -8q-85 0 -138.5 55.5t-53.5 144.5v321q0 89 53.5 145t138.5 56t139 -56.5t54 -144.5v-321q0 -88 -54 -144t-139 -56zM239 74q46 0 77 29t31 86v328q0 55 -30.5 85t-77.5 30q-46 0 -77 -29t-31 -86v-328q0 -55 30.5 -85t77.5 -30zM116 883v12h64v-17
q0 -27 15.5 -40.5t41.5 -13.5q24 0 41.5 13.5t17.5 39.5v18h64v-14q0 -55 -32 -85t-91 -30q-57 0 -89 32t-32 85z" />
    <glyph glyph-name="obreve" unicode="&#x14f;" horiz-adv-x="435" 
d="M217 -8q-82 0 -127.5 49t-45.5 134v212q0 83 45.5 131.5t127.5 48.5q80 0 126.5 -49t46.5 -131v-212q0 -85 -46 -134t-127 -49zM217 494q-43 0 -68 -25.5t-25 -72.5v-232q0 -48 25.5 -73.5t67.5 -25.5t67 25.5t25 73.5v232q0 47 -25 72.5t-67 25.5zM96 733v12h64v-17
q0 -27 15.5 -40.5t41.5 -13.5q24 0 41.5 13.5t17.5 39.5v18h64v-14q0 -55 -32 -85t-91 -30q-57 0 -89 32t-32 85z" />
    <glyph glyph-name="Ohungarumlaut" unicode="&#x150;" horiz-adv-x="479" 
d="M239 -8q-85 0 -138.5 55.5t-53.5 144.5v321q0 89 53.5 145t138.5 56t139 -56.5t54 -144.5v-321q0 -88 -54 -144t-139 -56zM239 74q46 0 77 29t31 86v328q0 55 -30.5 85t-77.5 30q-46 0 -77 -29t-31 -86v-328q0 -55 30.5 -85t77.5 -30zM309 766h-51l52 125h68zM196 766
h-51l52 125h69z" />
    <glyph glyph-name="ohungarumlaut" unicode="&#x151;" horiz-adv-x="435" 
d="M217 -8q-82 0 -127.5 49t-45.5 134v212q0 83 45.5 131.5t127.5 48.5q80 0 126.5 -49t46.5 -131v-212q0 -85 -46 -134t-127 -49zM217 494q-43 0 -68 -25.5t-25 -72.5v-232q0 -48 25.5 -73.5t67.5 -25.5t67 25.5t25 73.5v232q0 47 -25 72.5t-67 25.5zM293 621h-51l52 125
h68zM180 621h-51l52 125h69z" />
    <glyph glyph-name="OE" unicode="&#x152;" horiz-adv-x="712" 
d="M668 705v-82h-236v-229h172v-75h-172v-237h236v-82h-321v49q-17 -25 -50 -38.5t-67 -13.5q-83 0 -133 54t-50 134v317q0 93 44 149t125 56q90 0 131 -51v49h321zM238 633q-107 0 -107 -130v-321q0 -109 107 -109q50 0 79.5 36.5t29.5 108.5v271q0 144 -109 144z" />
    <glyph glyph-name="oe" unicode="&#x153;" horiz-adv-x="698" 
d="M217 495q-44 0 -69.5 -26t-25.5 -73v-232q0 -48 25.5 -73.5t69.5 -25.5q48 0 70.5 30.5t22.5 99.5v171q0 129 -93 129zM390 403v-23v-67h185v47q0 72 -21.5 106t-70.5 34q-42 0 -67.5 -25t-25.5 -72zM483 61q43 0 69 23t26 61v18h81v-9q0 -70 -45.5 -116t-127.5 -46
q-49 0 -84.5 20.5t-51.5 52.5q-17 -32 -52 -52.5t-83 -20.5q-82 0 -127.5 49t-45.5 134v212q0 83 45.5 131.5t127.5 48.5q48 0 84 -21t50 -52q16 33 52 53.5t85 20.5q85 0 127.5 -48.5t42.5 -139.5v-126h-266v-90q0 -50 26 -76.5t67 -26.5z" />
    <glyph glyph-name="Racute" unicode="&#x154;" horiz-adv-x="465" 
d="M148 0h-85v705h175q95 0 143.5 -59.5t48.5 -171.5v-39q0 -90 -30.5 -140.5t-91.5 -69.5l122 -225h-96l-106 206h-80v-206zM228 623h-80v-336h80q118 0 118 128v64q0 79 -29 111.5t-89 32.5zM229 769h-64l58 129h88z" />
    <glyph glyph-name="racute" unicode="&#x155;" horiz-adv-x="294" 
d="M263 567v-80h-11q-64 0 -90.5 -42t-26.5 -123v-322h-80v561h76v-71q10 29 40.5 53.5t77.5 24.5zM164 622h-64l58 129h88z" />
    <glyph glyph-name="Rcommaaccent" unicode="&#x156;" horiz-adv-x="465" 
d="M148 0h-85v705h175q95 0 143.5 -59.5t48.5 -171.5v-39q0 -90 -30.5 -140.5t-91.5 -69.5l122 -225h-96l-106 206h-80v-206zM228 623h-80v-336h80q118 0 118 128v64q0 79 -29 111.5t-89 32.5zM216 -228h-52q5 17 23 84.5t22 84.5h88q-8 -17 -40.5 -84.5t-40.5 -84.5z" />
    <glyph glyph-name="rcommaaccent" unicode="&#x157;" horiz-adv-x="294" 
d="M263 567v-80h-11q-64 0 -90.5 -42t-26.5 -123v-322h-80v561h76v-71q10 29 40.5 53.5t77.5 24.5zM106 -228h-52q5 17 23 84.5t22 84.5h88q-8 -17 -40.5 -84.5t-40.5 -84.5z" />
    <glyph glyph-name="Rcaron" unicode="&#x158;" horiz-adv-x="467" 
d="M149 0h-85v705h175q95 0 143.5 -59.5t48.5 -171.5v-39q0 -90 -30.5 -140.5t-91.5 -69.5l122 -225h-96l-106 206h-80v-206zM229 623h-80v-336h80q118 0 118 128v64q0 79 -29 111.5t-89 32.5zM90 895h68l70 -75l69 75h68q-66 -84 -98 -126h-78z" />
    <glyph glyph-name="rcaron" unicode="&#x159;" horiz-adv-x="294" 
d="M263 567v-80h-11q-64 0 -90.5 -42t-26.5 -123v-322h-80v561h76v-71q10 29 40.5 53.5t77.5 24.5zM10 748h68l70 -75l69 75h68q-66 -84 -98 -126h-78z" />
    <glyph glyph-name="Sacute" unicode="&#x15a;" horiz-adv-x="467" 
d="M231 715q85 0 136.5 -52t51.5 -144h-84q0 57 -28 86.5t-76 29.5q-45 0 -71.5 -24.5t-26.5 -66.5t30 -75.5t72.5 -59.5t85.5 -54.5t73 -74t30 -104.5q0 -87 -50.5 -136t-139.5 -49t-141.5 52.5t-52.5 148.5h84q0 -61 30 -91t81 -30q48 0 76.5 26t28.5 75q0 45 -30 80.5
t-72.5 62.5t-85.5 55.5t-73 72.5t-30 101q0 76 48 123.5t134 47.5zM258 769h-64l58 129h88z" />
    <glyph glyph-name="sacute" unicode="&#x15b;" horiz-adv-x="416" 
d="M206 570q83 0 126.5 -44t43.5 -125h-78q0 96 -90 96q-38 0 -61 -20.5t-23 -52.5q0 -33 26.5 -56.5t64 -40.5t75 -36.5t64 -56.5t26.5 -89q0 -63 -43 -109t-127 -46q-82 0 -129.5 45.5t-47.5 123.5h81q0 -47 26 -73.5t70 -26.5q37 0 63.5 22.5t26.5 59.5t-26.5 63
t-63.5 43.5t-74.5 37t-64 54.5t-26.5 84q0 64 43.5 105.5t117.5 41.5zM224 624h-64l58 129h88z" />
    <glyph glyph-name="Scircumflex" unicode="&#x15c;" horiz-adv-x="467" 
d="M231 715q85 0 136.5 -52t51.5 -144h-84q0 57 -28 86.5t-76 29.5q-45 0 -71.5 -24.5t-26.5 -66.5t30 -75.5t72.5 -59.5t85.5 -54.5t73 -74t30 -104.5q0 -87 -50.5 -136t-139.5 -49t-141.5 52.5t-52.5 148.5h84q0 -61 30 -91t81 -30q48 0 76.5 26t28.5 75q0 45 -30 80.5
t-72.5 62.5t-85.5 55.5t-73 72.5t-30 101q0 76 48 123.5t134 47.5zM163 769h-67l98 127h78l98 -127h-68l-69 75z" />
    <glyph glyph-name="scircumflex" unicode="&#x15d;" horiz-adv-x="416" 
d="M206 570q83 0 126.5 -44t43.5 -125h-78q0 96 -90 96q-38 0 -61 -20.5t-23 -52.5q0 -33 26.5 -56.5t64 -40.5t75 -36.5t64 -56.5t26.5 -89q0 -63 -43 -109t-127 -46q-82 0 -129.5 45.5t-47.5 123.5h81q0 -47 26 -73.5t70 -26.5q37 0 63.5 22.5t26.5 59.5t-26.5 63
t-63.5 43.5t-74.5 37t-64 54.5t-26.5 84q0 64 43.5 105.5t117.5 41.5zM138 621h-67l98 127h78l98 -127h-68l-69 75z" />
    <glyph glyph-name="Scedilla" unicode="&#x15e;" horiz-adv-x="467" 
d="M229 715q85 0 136.5 -52t51.5 -144h-84q0 57 -28 86.5t-76 29.5q-45 0 -71.5 -24.5t-26.5 -66.5t30 -75.5t72.5 -59.5t85.5 -54.5t73 -74t30 -104.5q0 -80 -42.5 -127.5t-118.5 -55.5l-38 -131h-89l66 131q-75 9 -118.5 60.5t-43.5 138.5h84q0 -61 30 -91t81 -30
q48 0 76.5 26t28.5 75q0 45 -30 80.5t-72.5 62.5t-85.5 55.5t-73 72.5t-30 101q0 76 48 123.5t134 47.5z" />
    <glyph glyph-name="scedilla" unicode="&#x15f;" horiz-adv-x="416" 
d="M206 570q83 0 126.5 -44t43.5 -125h-78q0 96 -90 96q-38 0 -61 -20.5t-23 -52.5q0 -33 26.5 -56.5t64 -40.5t75 -36.5t64 -56.5t26.5 -89q0 -58 -35.5 -101.5t-105.5 -51.5q-20 -69 -37 -122h-87q10 19 65 122q-69 8 -108 52.5t-39 114.5h81q0 -47 26 -73.5t70 -26.5
q37 0 63.5 22.5t26.5 59.5t-26.5 63t-63.5 43.5t-74.5 37t-64 54.5t-26.5 84q0 64 43.5 105.5t117.5 41.5z" />
    <glyph glyph-name="Scaron" unicode="&#x160;" horiz-adv-x="467" 
d="M231 715q85 0 136.5 -52t51.5 -144h-84q0 57 -28 86.5t-76 29.5q-45 0 -71.5 -24.5t-26.5 -66.5t30 -75.5t72.5 -59.5t85.5 -54.5t73 -74t30 -104.5q0 -87 -50.5 -136t-139.5 -49t-141.5 52.5t-52.5 148.5h84q0 -61 30 -91t81 -30q48 0 76.5 26t28.5 75q0 45 -30 80.5
t-72.5 62.5t-85.5 55.5t-73 72.5t-30 101q0 76 48 123.5t134 47.5zM95 895h68l70 -75l69 75h68q-66 -84 -98 -126h-78z" />
    <glyph glyph-name="scaron" unicode="&#x161;" horiz-adv-x="416" 
d="M206 570q83 0 126.5 -44t43.5 -125h-78q0 96 -90 96q-38 0 -61 -20.5t-23 -52.5q0 -33 26.5 -56.5t64 -40.5t75 -36.5t64 -56.5t26.5 -89q0 -63 -43 -109t-127 -46q-82 0 -129.5 45.5t-47.5 123.5h81q0 -47 26 -73.5t70 -26.5q37 0 63.5 22.5t26.5 59.5t-26.5 63
t-63.5 43.5t-74.5 37t-64 54.5t-26.5 84q0 64 43.5 105.5t117.5 41.5zM68 747h68l70 -75l69 75h68q-66 -84 -98 -126h-78z" />
    <glyph glyph-name="Tcommaaccent" unicode="&#x162;" horiz-adv-x="412" 
d="M385 705v-82h-138v-623h-85v623h-136v82h359zM169 -228h-52q5 17 23 84.5t22 84.5h88q-8 -17 -40.5 -84.5t-40.5 -84.5z" />
    <glyph glyph-name="tcommaaccent" unicode="&#x163;" horiz-adv-x="283" 
d="M21 490v65q41 0 57.5 22t16.5 83h54v-99h103v-71h-103v-270q0 -97 9 -120q13 -32 62 -33q6 0 17.5 0.5t16.5 0.5v-72q-18 -2 -41 -2q-39 0 -65.5 9.5t-42 24.5t-24 42t-11 54t-2.5 69v297h-47zM134 -229h-52q5 17 23 84.5t22 84.5h88q-8 -17 -40.5 -84.5t-40.5 -84.5z
" />
    <glyph glyph-name="Tcaron" unicode="&#x164;" horiz-adv-x="412" 
d="M385 705v-82h-138v-623h-85v623h-136v82h359zM68 895h68l70 -75l69 75h68q-66 -84 -98 -126h-78z" />
    <glyph glyph-name="tcaron" unicode="&#x165;" horiz-adv-x="288" 
d="M252 615h-58q3 10 27 69.5t27 69.5h79zM21 490v65q41 0 57.5 22t16.5 83h54v-99h103v-71h-103v-270q0 -97 9 -120q13 -32 62 -33q6 0 17.5 0.5t16.5 0.5v-72q-18 -2 -41 -2q-39 0 -65.5 9.5t-42 24.5t-24 42t-11 54t-2.5 69v297h-47z" />
    <glyph glyph-name="Tbar" unicode="&#x166;" horiz-adv-x="412" 
d="M385 705v-82h-138v-251h63v-31h-63v-341h-85v341h-63v31h63v251h-136v82h359z" />
    <glyph glyph-name="tbar" unicode="&#x167;" horiz-adv-x="285" 
d="M149 275v-56v-21q0 -34 0.5 -49t3.5 -34.5t10.5 -27.5t21.5 -14t35 -6q16 0 34 2v-73q-27 -3 -40 -3q-91 0 -118.5 47.5t-27.5 154.5v80h-47v35h47v180h-47v65q40 0 57 23.5t17 81.5h54v-99h103v-71h-103v-180h101v-35h-101z" />
    <glyph glyph-name="Utilde" unicode="&#x168;" horiz-adv-x="496" 
d="M55 192v513h84v-516q0 -55 30.5 -85t77.5 -30q46 0 77 29t31 86v516h85v-513q0 -88 -54 -144t-139 -56t-138.5 55.5t-53.5 144.5zM383 858v-66q-36 -24 -70 -24q-24 0 -63.5 11.5t-61.5 11.5q-39 0 -78 -26v66q41 24 71 24q23 0 63 -12.5t61 -12.5q38 0 78 28z" />
    <glyph glyph-name="utilde" unicode="&#x169;" horiz-adv-x="441" 
d="M47 175v386h81v-397q0 -48 25.5 -73.5t67.5 -25.5t67 25.5t25 73.5v397h81v-386q0 -85 -46 -134t-127 -49q-82 0 -128 49t-46 134zM358 709v-66q-36 -24 -70 -24q-24 0 -63.5 11.5t-61.5 11.5q-39 0 -78 -26v66q40 24 71 24q23 0 63 -12.5t61 -12.5q38 0 78 28z" />
    <glyph glyph-name="Umacron" unicode="&#x16a;" horiz-adv-x="496" 
d="M55 192v513h84v-516q0 -55 30.5 -85t77.5 -30q46 0 77 29t31 86v516h85v-513q0 -88 -54 -144t-139 -56t-138.5 55.5t-53.5 144.5zM362 770h-231v60h231v-60z" />
    <glyph glyph-name="umacron" unicode="&#x16b;" horiz-adv-x="441" 
d="M47 175v386h81v-397q0 -48 25.5 -73.5t67.5 -25.5t67 25.5t25 73.5v397h81v-386q0 -85 -46 -134t-127 -49q-82 0 -128 49t-46 134zM337 622h-231v60h231v-60z" />
    <glyph glyph-name="Ubreve" unicode="&#x16c;" horiz-adv-x="496" 
d="M55 192v513h84v-516q0 -55 30.5 -85t77.5 -30q46 0 77 29t31 86v516h85v-513q0 -88 -54 -144t-139 -56t-138.5 55.5t-53.5 144.5zM124 883v12h64v-17q0 -27 15.5 -40.5t41.5 -13.5q24 0 41.5 13.5t17.5 39.5v18h64v-14q0 -55 -32 -85t-91 -30q-57 0 -89 32t-32 85z" />
    <glyph glyph-name="ubreve" unicode="&#x16d;" horiz-adv-x="441" 
d="M47 175v386h81v-397q0 -48 25.5 -73.5t67.5 -25.5t67 25.5t25 73.5v397h81v-386q0 -85 -46 -134t-127 -49q-82 0 -128 49t-46 134zM99 735v12h64v-17q0 -27 15.5 -40.5t41.5 -13.5q24 0 41.5 13.5t17.5 39.5v18h64v-14q0 -55 -32 -85t-91 -30q-57 0 -89 32t-32 85z" />
    <glyph glyph-name="Uring" unicode="&#x16e;" horiz-adv-x="496" 
d="M55 192v513h84v-516q0 -55 30.5 -85t77.5 -30q46 0 77 29t31 86v516h85v-513q0 -88 -54 -144t-139 -56t-138.5 55.5t-53.5 144.5zM314 833q0 -28 -19.5 -48t-47.5 -20t-48 20t-20 48t20 47.5t48 19.5t47.5 -19.5t19.5 -47.5zM272 834q0 10 -7 17.5t-18 7.5t-18.5 -7.5
t-7.5 -17.5q0 -11 7.5 -18.5t18.5 -7.5t18 7.5t7 18.5z" />
    <glyph glyph-name="uring" unicode="&#x16f;" horiz-adv-x="441" 
d="M47 175v386h81v-397q0 -48 25.5 -73.5t67.5 -25.5t67 25.5t25 73.5v397h81v-386q0 -85 -46 -134t-127 -49q-82 0 -128 49t-46 134zM288 684q0 -28 -19.5 -48t-47.5 -20t-48 20t-20 48t20 47.5t48 19.5t47.5 -19.5t19.5 -47.5zM246 685q0 11 -7 18t-18 7t-18.5 -7.5
t-7.5 -17.5q0 -11 7.5 -18.5t18.5 -7.5t18 7.5t7 18.5z" />
    <glyph glyph-name="Uhungarumlaut" unicode="&#x170;" horiz-adv-x="496" 
d="M55 192v513h84v-516q0 -55 30.5 -85t77.5 -30q46 0 77 29t31 86v516h85v-513q0 -88 -54 -144t-139 -56t-138.5 55.5t-53.5 144.5zM325 766h-51l52 125h68zM212 766h-51l52 125h69z" />
    <glyph glyph-name="uhungarumlaut" unicode="&#x171;" horiz-adv-x="441" 
d="M47 175v386h81v-397q0 -48 25.5 -73.5t67.5 -25.5t67 25.5t25 73.5v397h81v-386q0 -85 -46 -134t-127 -49q-82 0 -128 49t-46 134zM293 622h-51l52 125h68zM180 622h-51l52 125h69z" />
    <glyph glyph-name="Uogonek" unicode="&#x172;" horiz-adv-x="496" 
d="M55 192v513h84v-516q0 -55 30.5 -85t77.5 -30q46 0 77 29t31 86v516h85v-513q0 -80 -44.5 -133.5t-116.5 -63.5v-13q0 -50 49 -50q9 0 37 5v-67q-35 -7 -58 -7q-99 0 -99 97q0 20 3 35q-71 11 -113.5 64.5t-42.5 132.5z" />
    <glyph glyph-name="uogonek" unicode="&#x173;" horiz-adv-x="442" 
d="M47 175v386h81v-397q0 -48 25.5 -73.5t67.5 -25.5t67 25.5t25 73.5v397h81v-386q0 -76 -37.5 -124t-104.5 -57v-13q0 -50 49 -50q19 0 37 5v-67q-28 -7 -58 -7q-99 0 -99 96q0 20 3 37q-65 10 -101 57.5t-36 122.5z" />
    <glyph glyph-name="Wcircumflex" unicode="&#x174;" horiz-adv-x="680" 
d="M158 0l-144 705h85l105 -519l98 519h75l98 -519l105 519h85l-145 -705h-84l-96 511l-97 -511h-85zM269 769h-67l98 127h78l98 -127h-68l-69 75z" />
    <glyph glyph-name="wcircumflex" unicode="&#x175;" horiz-adv-x="610" 
d="M143 0l-129 561h84l87 -402l84 402h71l84 -403l88 403h83l-129 -561h-79l-83 393l-83 -393h-78zM234 621h-67l98 127h78l98 -127h-68l-69 75z" />
    <glyph glyph-name="Ycircumflex" unicode="&#x176;" horiz-adv-x="468" 
d="M191 0v261l-178 444h90l130 -337l132 337h89l-179 -444v-261h-84zM164 769h-67l98 127h78l98 -127h-68l-69 75z" />
    <glyph glyph-name="ycircumflex" unicode="&#x177;" horiz-adv-x="425" 
d="M116 -188l54 193l-155 556h88l109 -422l110 422h87l-210 -749h-83zM143 621h-67l98 127h78l98 -127h-68l-69 75z" />
    <glyph glyph-name="Ydieresis" unicode="&#x178;" horiz-adv-x="468" 
d="M191 0v261l-178 444h90l130 -337l132 337h89l-179 -444v-261h-84zM342 807q0 -17 -12 -29t-29 -12t-28.5 12t-11.5 29t11.5 28.5t28.5 11.5t29 -11.5t12 -28.5zM204 807q0 -17 -11.5 -29t-28.5 -12t-28.5 12t-11.5 29t12 28.5t28 11.5t28 -11.5t12 -28.5z" />
    <glyph glyph-name="Zacute" unicode="&#x179;" horiz-adv-x="416" 
d="M374 82v-82h-352q211 546 241 623h-222v82h341l-242 -623h234zM226 769h-64l58 129h88z" />
    <glyph glyph-name="zacute" unicode="&#x17a;" horiz-adv-x="379" 
d="M338 73v-73h-316l211 488h-198v73h313l-211 -488h201zM202 620h-64l58 129h88z" />
    <glyph glyph-name="Zdotaccent" unicode="&#x17b;" horiz-adv-x="416" 
d="M374 82v-82h-352q211 546 241 623h-222v82h341l-242 -623h234zM252 810q0 -18 -12.5 -30.5t-30.5 -12.5t-30 12.5t-12 30.5q0 17 12 29.5t30 12.5t30.5 -12.5t12.5 -29.5z" />
    <glyph glyph-name="zdotaccent" unicode="&#x17c;" horiz-adv-x="379" 
d="M338 73v-73h-316l211 488h-198v73h313l-211 -488h201zM233 661q0 -18 -12.5 -30.5t-30.5 -12.5t-30 12.5t-12 30.5q0 17 12 29.5t30 12.5t30.5 -12.5t12.5 -29.5z" />
    <glyph glyph-name="Zcaron" unicode="&#x17d;" horiz-adv-x="416" 
d="M374 82v-82h-352q211 546 241 623h-222v82h341l-242 -623h234zM73 895h68l70 -75l69 75h68q-66 -84 -98 -126h-78z" />
    <glyph glyph-name="zcaron" unicode="&#x17e;" horiz-adv-x="379" 
d="M338 73v-73h-316l211 488h-198v73h313l-211 -488h201zM51 746h68l70 -75l69 75h68q-66 -84 -98 -126h-78z" />
    <glyph glyph-name="florin" unicode="&#x192;" horiz-adv-x="292" 
d="M168 561h93v-73h-93v-450q0 -42 -3 -71t-11 -57t-22 -44.5t-37.5 -26.5t-56.5 -10h-8v75q21 0 33 8.5t17 32t6 41.5t1 60v20v422h-50v73h50q0 112 26 155.5t105 43.5l43 -3v-70q-11 1 -18 1q-51 0 -63 -21.5t-12 -105.5z" />
    <glyph glyph-name="Scommaaccent" unicode="&#x218;" horiz-adv-x="462" 
d="M229 715q85 0 136.5 -52t51.5 -144h-84q0 57 -28 86.5t-76 29.5q-45 0 -71.5 -24.5t-26.5 -66.5t30 -75.5t72.5 -59.5t85.5 -54.5t73 -74t30 -104.5q0 -87 -50.5 -136t-139.5 -49t-141.5 52.5t-52.5 148.5h84q0 -61 30 -91t81 -30q48 0 76.5 26t28.5 75q0 45 -30 80.5
t-72.5 62.5t-85.5 55.5t-73 72.5t-30 101q0 76 48 123.5t134 47.5zM194 -228h-52l45 169h88z" />
    <glyph glyph-name="scommaaccent" unicode="&#x219;" horiz-adv-x="416" 
d="M206 570q83 0 126.5 -44t43.5 -125h-78q0 96 -90 96q-38 0 -61 -20.5t-23 -52.5q0 -33 26.5 -56.5t64 -40.5t75 -36.5t64 -56.5t26.5 -89q0 -63 -43 -109t-127 -46q-82 0 -129.5 45.5t-47.5 123.5h81q0 -47 26 -73.5t70 -26.5q37 0 63.5 22.5t26.5 59.5t-26.5 63
t-63.5 43.5t-74.5 37t-64 54.5t-26.5 84q0 64 43.5 105.5t117.5 41.5zM173 -228h-52q4 17 22 84.5t23 84.5h88q-8 -17 -40.5 -84.5t-40.5 -84.5z" />
    <glyph glyph-name="circumflex" unicode="&#x2c6;" horiz-adv-x="468" 
d="M164 584h-67l98 127h78l98 -127h-68l-69 75z" />
    <glyph glyph-name="caron" unicode="&#x2c7;" horiz-adv-x="468" 
d="M96 710h68l70 -75l69 75h68q-66 -84 -98 -126h-78z" />
    <glyph glyph-name="breve" unicode="&#x2d8;" horiz-adv-x="444" 
d="M100 698v12h64v-17q0 -27 15.5 -40.5t41.5 -13.5q24 0 41.5 13.5t17.5 39.5v18h64v-14q0 -55 -32 -85t-91 -30q-57 0 -89 32t-32 85z" />
    <glyph glyph-name="dotaccent" unicode="&#x2d9;" horiz-adv-x="426" 
d="M256 625q0 -18 -12.5 -30.5t-30.5 -12.5t-30 12.5t-12 30.5q0 17 12 29.5t30 12.5t30.5 -12.5t12.5 -29.5z" />
    <glyph glyph-name="ring" unicode="&#x2da;" horiz-adv-x="438" 
d="M287 648q0 -28 -19.5 -48t-47.5 -20t-48 20t-20 48t20 47.5t48 19.5t47.5 -19.5t19.5 -47.5zM245 649q0 11 -7.5 18t-17.5 7q-11 0 -18.5 -7.5t-7.5 -17.5q0 -11 7.5 -18.5t18.5 -7.5t18 7.5t7 18.5z" />
    <glyph glyph-name="ogonek" unicode="&#x2db;" horiz-adv-x="447" 
d="M159 5q-2 -10 -2 -23q0 -50 49 -50q10 0 38 5v-67q-35 -7 -59 -7q-99 0 -99 97q0 15 5 45h68z" />
    <glyph glyph-name="tilde" unicode="&#x2dc;" horiz-adv-x="467" 
d="M369 673v-66q-36 -24 -70 -24q-24 0 -63.5 11.5t-61.5 11.5q-39 0 -78 -26v66q41 24 71 24q23 0 63 -12.5t61 -12.5q38 0 78 28z" />
    <glyph glyph-name="hungarumlaut" unicode="&#x2dd;" horiz-adv-x="423" 
d="M290 581h-51l52 125h68zM177 581h-51l52 125h69z" />
    <glyph glyph-name="pi" unicode="&#x3c0;" horiz-adv-x="540" 
d="M449 234v237q0 106 -43 157t-134 51q-93 0 -136.5 -51t-43.5 -157v-237q0 -106 43.5 -157t136.5 -51q91 0 134 51t43 157zM484 461v-217q0 -129 -51.5 -191t-160.5 -62q-111 0 -163 62t-52 191v217q0 129 52 191t163 62q109 0 160.5 -62t51.5 -191zM213 108h-60v499h111
q67 0 101.5 -42t34.5 -121v-36q0 -70 -34.5 -112t-108.5 -42h-44v-146zM257 549h-44v-238h44q83 0 83 91v45q0 56 -20.5 79t-62.5 23z" />
    <glyph glyph-name="Bdotaccent" unicode="&#x1e02;" horiz-adv-x="468" 
d="M63 0v705h172q89 0 139 -39.5t50 -120.5v-57q0 -101 -78 -131q83 -30 83 -131v-65q0 -82 -50 -121.5t-138 -39.5h-178zM147 81h91q53 0 80 21t27 76v53q0 92 -99 92h-99v-242zM147 391h102q46 0 68.5 21.5t22.5 72.5v43q0 53 -26.5 74t-81.5 21h-85v-232zM267 812
q0 -18 -12.5 -30.5t-30.5 -12.5t-30 12.5t-12 30.5q0 17 12 29.5t30 12.5t30.5 -12.5t12.5 -29.5z" />
    <glyph glyph-name="bdotaccent" unicode="&#x1e03;" 
d="M253 -8q-87 0 -122 66v-58h-76v755h80v-248q12 24 42 42.5t76 18.5q70 0 109 -45t39 -130v-225q0 -86 -39 -131t-109 -45zM227 60q44 0 68.5 29t24.5 84v215q0 53 -24 82.5t-69 29.5q-42 0 -67 -28t-25 -80v-219q0 -55 24.5 -84t67.5 -29zM298 661q0 -18 -12.5 -30.5
t-30.5 -12.5t-30 12.5t-12 30.5q0 17 12 29.5t30 12.5t30.5 -12.5t12.5 -29.5z" />
    <glyph glyph-name="Ddotaccent" unicode="&#x1e0a;" horiz-adv-x="488" 
d="M248 705q99 -2 146 -61.5t47 -186.5v-216q0 -127 -46.5 -184t-146.5 -57h-185v705h185zM357 493q0 74 -31 102t-87 28h-91v-542h91q67 0 92.5 38t25.5 149v225zM269 808q0 -18 -12.5 -30.5t-30.5 -12.5t-30 12.5t-12 30.5q0 17 12 29.5t30 12.5t30.5 -12.5t12.5 -29.5z
" />
    <glyph glyph-name="ddotaccent" unicode="&#x1e0b;" 
d="M192 -8q-70 0 -109.5 45t-39.5 131v225q0 85 39.5 130t109.5 45q45 0 74 -18t41 -42v247h83v-755h-76v58q-36 -66 -122 -66zM217 60q44 0 68 29t24 84v218q0 53 -24.5 80.5t-67.5 27.5q-44 0 -68 -29t-24 -83v-214q0 -54 24 -83.5t68 -29.5zM231 661q0 -18 -12.5 -30.5
t-30.5 -12.5t-30 12.5t-12 30.5q0 17 12 29.5t30 12.5t30.5 -12.5t12.5 -29.5z" />
    <glyph glyph-name="Fdotaccent" unicode="&#x1e1e;" horiz-adv-x="402" 
d="M372 705v-82h-225v-229h160v-75h-160v-319h-84v705h309zM257 810q0 -18 -12.5 -30.5t-30.5 -12.5t-30 12.5t-12 30.5q0 17 12 29.5t30 12.5t30.5 -12.5t12.5 -29.5z" />
    <glyph glyph-name="fdotaccent" unicode="&#x1e1f;" horiz-adv-x="285" 
d="M254 755v-70q-11 2 -22 2q-47 0 -59 -22.5t-12 -103.5h92v-71h-92v-490h-81v490h-50v71h50q0 111 26 154t105 43zM204 854q0 -18 -12.5 -30.5t-30.5 -12.5t-30 12.5t-12 30.5q0 17 12 29.5t30 12.5t30.5 -12.5t12.5 -29.5z" />
    <glyph glyph-name="Mdotaccent" unicode="&#x1e40;" horiz-adv-x="605" 
d="M271 92l-124 375v-467h-84v705h83l155 -486l157 486h83v-705h-85v469l-125 -377h-60zM344 816q0 -18 -12.5 -30.5t-30.5 -12.5t-30 12.5t-12 30.5q0 17 12 29.5t30 12.5t30.5 -12.5t12.5 -29.5z" />
    <glyph glyph-name="mdotaccent" unicode="&#x1e41;" horiz-adv-x="640" 
d="M135 407v-407h-80v561h76v-49q34 56 102 56q81 0 114 -71q13 29 44.5 50t74.5 21q66 0 96 -46t30 -137v-385h-81v394q0 52 -15.5 77t-53.5 25q-42 0 -60 -24.5t-18 -74.5v-397h-81v394q0 54 -17 81t-57 27q-35 0 -54.5 -24.5t-19.5 -70.5zM383 661q0 -18 -12.5 -30.5
t-30.5 -12.5t-30 12.5t-12 30.5q0 17 12 29.5t30 12.5t30.5 -12.5t12.5 -29.5z" />
    <glyph glyph-name="Pdotaccent" unicode="&#x1e56;" horiz-adv-x="465" 
d="M148 0h-85v705h172q95 0 145 -61t50 -175v-45q0 -114 -50 -173.5t-145 -59.5h-87v-191zM228 623h-80v-351h80q118 0 118 144v62q0 79 -30 112t-88 33zM260 809q0 -18 -12.5 -30.5t-30.5 -12.5t-30 12.5t-12 30.5q0 17 12 29.5t30 12.5t30.5 -12.5t12.5 -29.5z" />
    <glyph glyph-name="pdotaccent" unicode="&#x1e57;" horiz-adv-x="450" 
d="M253 567q148 0 148 -192v-206q0 -85 -39 -130t-109 -45q-46 0 -76 19t-42 44v-246h-80v750h76v-60q12 25 44 45.5t78 20.5zM227 499q-42 0 -67 -28.5t-25 -81.5v-215q0 -54 24.5 -82.5t67.5 -28.5q45 0 69 28.5t24 82.5v212q0 55 -24.5 84t-68.5 29zM273 661
q0 -18 -12.5 -30.5t-30.5 -12.5t-30 12.5t-12 30.5q0 17 12 29.5t30 12.5t30.5 -12.5t12.5 -29.5z" />
    <glyph glyph-name="Sdotaccent" unicode="&#x1e60;" horiz-adv-x="467" 
d="M231 715q85 0 136.5 -52t51.5 -144h-84q0 57 -28 86.5t-76 29.5q-45 0 -71.5 -24.5t-26.5 -66.5t30 -75.5t72.5 -59.5t85.5 -54.5t73 -74t30 -104.5q0 -87 -50.5 -136t-139.5 -49t-141.5 52.5t-52.5 148.5h84q0 -61 30 -91t81 -30q48 0 76.5 26t28.5 75q0 45 -30 80.5
t-72.5 62.5t-85.5 55.5t-73 72.5t-30 101q0 76 48 123.5t134 47.5zM272 807q0 -18 -12.5 -30.5t-30.5 -12.5t-30 12.5t-12 30.5q0 17 12 29.5t30 12.5t30.5 -12.5t12.5 -29.5z" />
    <glyph glyph-name="sdotaccent" unicode="&#x1e61;" horiz-adv-x="416" 
d="M206 570q83 0 126.5 -44t43.5 -125h-78q0 96 -90 96q-38 0 -61 -20.5t-23 -52.5q0 -33 26.5 -56.5t64 -40.5t75 -36.5t64 -56.5t26.5 -89q0 -63 -43 -109t-127 -46q-82 0 -129.5 45.5t-47.5 123.5h81q0 -47 26 -73.5t70 -26.5q37 0 63.5 22.5t26.5 59.5t-26.5 63
t-63.5 43.5t-74.5 37t-64 54.5t-26.5 84q0 64 43.5 105.5t117.5 41.5zM249 663q0 -18 -12.5 -30.5t-30.5 -12.5t-30 12.5t-12 30.5q0 17 12 29.5t30 12.5t30.5 -12.5t12.5 -29.5z" />
    <glyph glyph-name="Tdotaccent" unicode="&#x1e6a;" horiz-adv-x="412" 
d="M385 705v-82h-138v-623h-85v623h-136v82h359zM249 810q0 -18 -12.5 -30.5t-30.5 -12.5t-30 12.5t-12 30.5q0 17 12 29.5t30 12.5t30.5 -12.5t12.5 -29.5z" />
    <glyph glyph-name="tdotaccent" unicode="&#x1e6b;" horiz-adv-x="284" 
d="M21 490v65q41 0 57.5 22t16.5 83h54v-99h103v-71h-103v-270q0 -97 9 -120q13 -32 62 -33q6 0 17.5 0.5t16.5 0.5v-72q-18 -2 -41 -2q-39 0 -65.5 9.5t-42 24.5t-24 42t-11 54t-2.5 69v297h-47zM166 748q0 -18 -12.5 -30.5t-30.5 -12.5t-30 12.5t-12 30.5q0 17 12 29.5
t30 12.5t30.5 -12.5t12.5 -29.5z" />
    <glyph glyph-name="Wgrave" unicode="&#x1e80;" horiz-adv-x="680" 
d="M158 0l-144 705h85l105 -519l98 519h75l98 -519l105 519h85l-145 -705h-84l-96 511l-97 -511h-85zM377 768h-65l-81 130h87z" />
    <glyph glyph-name="wgrave" unicode="&#x1e81;" horiz-adv-x="610" 
d="M143 0l-129 561h84l87 -402l84 402h71l84 -403l88 403h83l-129 -561h-79l-83 393l-83 -393h-78zM342 621h-65l-81 130h87z" />
    <glyph glyph-name="Wacute" unicode="&#x1e82;" horiz-adv-x="680" 
d="M158 0l-144 705h85l105 -519l98 519h75l98 -519l105 519h85l-145 -705h-84l-96 511l-97 -511h-85zM372 769h-64l58 129h88z" />
    <glyph glyph-name="wacute" unicode="&#x1e83;" horiz-adv-x="610" 
d="M143 0l-129 561h84l87 -402l84 402h71l84 -403l88 403h83l-129 -561h-79l-83 393l-83 -393h-78zM329 622h-64l58 129h88z" />
    <glyph glyph-name="Wdieresis" unicode="&#x1e84;" horiz-adv-x="680" 
d="M158 0l-144 705h85l105 -519l98 519h75l98 -519l105 519h85l-145 -705h-84l-96 511l-97 -511h-85zM448 807q0 -17 -12 -29t-29 -12t-28.5 12t-11.5 29t11.5 28.5t28.5 11.5t29 -11.5t12 -28.5zM310 807q0 -17 -11.5 -29t-28.5 -12t-28.5 12t-11.5 29t12 28.5t28 11.5
t28 -11.5t12 -28.5z" />
    <glyph glyph-name="wdieresis" unicode="&#x1e85;" horiz-adv-x="610" 
d="M143 0l-129 561h84l87 -402l84 402h71l84 -403l88 403h83l-129 -561h-79l-83 393l-83 -393h-78zM413 660q0 -17 -12 -29t-29 -12t-28.5 12t-11.5 29q0 16 12 28t28 12q17 0 29 -11.5t12 -28.5zM275 660q0 -17 -11.5 -29t-28.5 -12t-28.5 12t-11.5 29q0 16 11.5 28
t28.5 12t28.5 -12t11.5 -28z" />
    <glyph glyph-name="Ygrave" unicode="&#x1ef2;" horiz-adv-x="468" 
d="M191 0v261l-178 444h90l130 -337l132 337h89l-179 -444v-261h-84zM272 768h-65l-81 130h87z" />
    <glyph glyph-name="ygrave" unicode="&#x1ef3;" horiz-adv-x="425" 
d="M116 -188l54 193l-155 556h88l109 -422l110 422h87l-210 -749h-83zM264 619h-65l-81 130h87z" />
    <glyph glyph-name="endash" unicode="&#x2013;" horiz-adv-x="351" 
d="M311 272h-272v65h272v-65z" />
    <glyph glyph-name="emdash" unicode="&#x2014;" horiz-adv-x="451" 
d="M411 272h-372v65h372v-65z" />
    <glyph glyph-name="quoteleft" unicode="&#x2018;" horiz-adv-x="212" 
d="M125 705h65q-20 -61 -85 -268h-88z" />
    <glyph glyph-name="quoteright" unicode="&#x2019;" horiz-adv-x="208" 
d="M86 437h-64l84 268h88z" />
    <glyph glyph-name="quotesinglbase" unicode="&#x201a;" horiz-adv-x="208" 
d="M70 -103h-65l85 265h88z" />
    <glyph glyph-name="quotedblleft" unicode="&#x201c;" horiz-adv-x="357" 
d="M125 705h65q-20 -61 -85 -268h-88zM270 705h65l-85 -268h-87z" />
    <glyph glyph-name="quotedblright" unicode="&#x201d;" horiz-adv-x="353" 
d="M232 437h-65l84 268h88zM86 437h-64l84 268h88z" />
    <glyph glyph-name="quotedblbase" unicode="&#x201e;" horiz-adv-x="353" 
d="M215 -107h-64l84 265h88zM70 -107h-64l84 265h88z" />
    <glyph glyph-name="dagger" unicode="&#x2020;" horiz-adv-x="356" 
d="M317 515h-107v-556h-65v556h-106v56h106v161h65v-161h107v-56z" />
    <glyph glyph-name="daggerdbl" unicode="&#x2021;" horiz-adv-x="356" 
d="M316 393h-106v-434h-65v434h-106v56h106v66h-106v56h106v161h65v-161h106v-56h-106v-66h106v-56z" />
    <glyph glyph-name="bullet" unicode="&#x2022;" horiz-adv-x="409" 
d="M205 159q-75 0 -116.5 44t-41.5 123v5q0 76 41.5 120.5t116.5 44.5q73 0 114.5 -44.5t41.5 -120.5v-5q0 -78 -41.5 -122.5t-114.5 -44.5z" />
    <glyph glyph-name="ellipsis" unicode="&#x2026;" horiz-adv-x="528" 
d="M489 45q0 -21 -15 -36t-36 -15t-36 15t-15 36t15 36t36 15t36 -15t15 -36zM315 45q0 -21 -15 -36t-37 -15q-21 0 -36 15t-15 36t15 36t36 15q22 0 37 -15t15 -36zM140 45q0 -21 -15 -36t-36 -15q-22 0 -36.5 15t-14.5 36t14.5 36t36.5 15q21 0 36 -15t15 -36z" />
    <glyph glyph-name="perthousand" unicode="&#x2030;" horiz-adv-x="1270" 
d="M1063 -6q-78 0 -121 48.5t-43 133.5v33q0 83 43.5 131.5t120.5 48.5q76 0 120 -49t44 -131v-33q0 -85 -44 -133.5t-120 -48.5zM1063 316q-87 0 -87 -106v-33q0 -111 87 -111q86 0 86 111v29q0 110 -86 110zM677 -6q-78 0 -121 48.5t-43 133.5v33q0 83 43.5 131.5
t120.5 48.5q76 0 120 -49t44 -131v-33q0 -85 -44 -133.5t-120 -48.5zM677 316q-41 0 -64 -27t-23 -79v-33q0 -111 87 -111t87 111v33q0 52 -23 79t-64 27zM607 758l-252 -799h-78l251 799h79zM206 318q-77 0 -120 48.5t-43 133.5v33q0 84 43 132.5t120 48.5q76 0 120 -49
t44 -132v-33q0 -84 -44 -133t-120 -49zM206 640q-86 0 -86 -106v-33q0 -110 86 -110q87 0 87 110v33q0 106 -87 106z" />
    <glyph glyph-name="guilsinglleft" unicode="&#x2039;" horiz-adv-x="247" 
d="M145 471h64l-84 -165l84 -166h-64l-107 166z" />
    <glyph glyph-name="guilsinglright" unicode="&#x203a;" horiz-adv-x="247" 
d="M38 471h64l106 -165l-106 -166h-64l83 166z" />
    <glyph glyph-name="Euro" unicode="&#x20ac;" horiz-adv-x="505" 
d="M466 227v-35q0 -88 -54 -144t-139 -56t-138.5 55.5t-53.5 144.5v101h-51v36h51v52h-51v36h51v96q0 89 53.5 145t138.5 56t139 -56.5t54 -144.5v-28h-85v32q0 55 -30.5 85t-77.5 30q-46 0 -77 -29t-31 -86v-100h111v-36h-111v-52h111v-36h-111v-104q0 -55 30.5 -85
t77.5 -30q46 0 77 29t31 86v38h85z" />
    <glyph glyph-name="trademark" unicode="&#x2122;" horiz-adv-x="614" 
d="M234 705v-51h-71v-267h-53v267h-71v51h195zM391 423l-69 152v-188h-54v318h52l90 -206l88 206h52v-318h-53v188l-69 -152h-37z" />
    <glyph glyph-name="minus" unicode="&#x2212;" horiz-adv-x="403" 
d="M356 319h-309v74h309v-74z" />
    <glyph glyph-name="notequal" unicode="&#x2260;" horiz-adv-x="759" 
d="M106 589q41 -33 81.5 -44t77 -4.5t74 20t79.5 26t86 18t100 -8t115 -48.5q-31 -112 -55 -225.5t-32 -170.5l-8 -58q-48 44 -99 56t-94.5 3.5t-85.5 -18.5t-87 -3.5t-84 42.5l31 -169l-28 -5l-113 616l28 1l60 -328zM415 322l-36 31q35 49 12 99q-17 36 -54 49.5t-73 -3.5
q-12 -6 -17 -10l6 3q29 14 60 2.5t45 -40.5q19 -41 -6 -77l-44 38l34 40l-54 9l-60 -71l35 -30l29 34l45 -37q-6 -6 -18 -11q-35 -17 -69 1q-12 7 -19 14l-12 -14l-29 -34l18 -15l28 32q49 -37 105 -11q14 7 22 15l37 -32zM100 636q2 -9 -7 -10l-33 -6q-9 -2 -10 7q-1 7 7 9
l10 2q-2 6 -12.5 10.5t-12.5 17.5q-2 11 2.5 32.5t4.5 29.5q-9 3 -9 13q0 14 14 14q5 0 9.5 -4t4.5 -10q0 -4 -4 -10q3 -7 15.5 -25.5t14.5 -30.5q3 -13 -5.5 -20.5t-7.5 -13.5l9 2q8 2 10 -7z" />
    <glyph glyph-name="commaaccent" horiz-adv-x="427" 
d="M167 -228h-52q5 17 23 84.5t22 84.5h88q-8 -17 -40.5 -84.5t-40.5 -84.5z" />
    <glyph glyph-name="a.salt" horiz-adv-x="437" 
d="M303 177v134q-27 -24 -78.5 -44t-80 -42.5t-28.5 -68.5q0 -43 23.5 -68.5t64.5 -25.5q46 0 72.5 31.5t26.5 83.5zM34 146q0 49 20 83.5t49.5 50t64.5 29.5t64.5 24t49.5 32t20 55q0 39 -22.5 59t-63.5 20q-88 0 -88 -94h-77q0 165 166 165q167 0 167 -173v-397h-76v61
q-13 -21 -24 -32.5t-38.5 -23.5t-65.5 -12q-61 0 -103.5 41.5t-42.5 111.5z" />
    </font>
</defs>
</svg>
