<?xml version="1.0" standalone="no"?>
<!DOCTYPE svg PUBLIC "-//W3C//DTD SVG 1.1//EN" "http://www.w3.org/Graphics/SVG/1.1/DTD/svg11.dtd" >
<svg>
<metadata>
Created by FontForge 20090622 at Wed Jun 13 18:56:17 2018
 By deploy user
Copyright &#194;&#169; 2012 S-Core. All rights reserved.
</metadata>
<defs>
<font id="CoreSansN-55Medium" horiz-adv-x="1000" >
  <font-face 
    font-family="Core Sans N"
    font-weight="500"
    font-stretch="normal"
    units-per-em="1000"
    panose-1="2 11 6 3 3 3 2 2 2 4"
    ascent="800"
    descent="-200"
    x-height="518"
    cap-height="700"
    bbox="-436 -310 1037 999"
    underline-thickness="24"
    underline-position="-183"
    unicode-range="U+000D-U+FB04"
  />
<missing-glyph horiz-adv-x="300" 
 />
    <glyph glyph-name="f_f" unicode="ff" horiz-adv-x="699" 
d="M10 518h95v27q0 91 49 138t146 47q24 0 49 -3.5t45 -9.5l-11 -94q-15 6 -35.5 9.5t-40.5 3.5q-43 0 -65.5 -21t-22.5 -78v-19h225v27q0 91 45.5 138t133.5 47q25 0 47 -2.5t39 -7.5l-11 -95q-25 11 -61 11q-38 0 -58.5 -21t-20.5 -78v-19h135v-92h-135v-426h-114v426
h-225v-426h-114v426h-95v92z" />
    <glyph glyph-name="f_i" unicode="fi" horiz-adv-x="623" 
d="M10 518h95v27q0 91 45.5 138t133.5 47q25 0 47 -2.5t39 -7.5l-11 -95q-25 11 -61 11q-38 0 -58.5 -21t-20.5 -78v-19h135v-92h-135v-426h-114v426h-95v92zM434 518h114v-518h-114v518zM423 662q0 32 16 50t52 18t52 -18t16 -50t-16 -50t-52 -18t-52 18t-16 50z" />
    <glyph glyph-name="f_l" unicode="fl" horiz-adv-x="623" 
d="M434 730h114v-730h-114v730zM10 518h95v27q0 91 45.5 138t133.5 47q25 0 47 -2.5t39 -7.5l-11 -95q-25 11 -61 11q-38 0 -58.5 -21t-20.5 -78v-19h135v-92h-135v-426h-114v426h-95v92z" />
    <glyph glyph-name="f_f_i" unicode="ffi" horiz-adv-x="977" 
d="M10 518h95v27q0 91 49 138t146 47q24 0 49 -3.5t45 -9.5l-11 -94q-15 6 -35.5 9.5t-40.5 3.5q-43 0 -65.5 -21t-22.5 -78v-19h225v27q0 91 45.5 138t133.5 47q25 0 47 -2.5t39 -7.5l-11 -95q-25 11 -61 11q-38 0 -58.5 -21t-20.5 -78v-19h135v-92h-135v-426h-114v426
h-225v-426h-114v426h-95v92zM788 518h114v-518h-114v518zM777 662q0 32 16 50t52 18t52 -18t16 -50t-16 -50t-52 -18t-52 18t-16 50z" />
    <glyph glyph-name="f_f_l" unicode="ffl" horiz-adv-x="977" 
d="M10 518h95v27q0 91 49 138t146 47q24 0 49 -3.5t45 -9.5l-11 -94q-15 6 -35.5 9.5t-40.5 3.5q-43 0 -65.5 -21t-22.5 -78v-19h225v27q0 91 45.5 138t133.5 47q25 0 47 -2.5t39 -7.5l-11 -95q-25 11 -61 11q-38 0 -58.5 -21t-20.5 -78v-19h135v-92h-135v-426h-114v426
h-225v-426h-114v426h-95v92zM788 730h114v-730h-114v730z" />
    <glyph glyph-name=".notdef" horiz-adv-x="300" 
 />
    <glyph glyph-name="NULL" horiz-adv-x="0" 
 />
    <glyph glyph-name="NULL" horiz-adv-x="0" 
 />
    <glyph glyph-name="nonmarkingreturn" unicode="&#xd;" horiz-adv-x="237" 
 />
    <glyph glyph-name="space" unicode=" " horiz-adv-x="300" 
 />
    <glyph glyph-name="exclam" unicode="!" horiz-adv-x="312" 
d="M94 507v193h124v-193l-24 -325h-76zM85 59q0 71 71 71t71 -71t-71 -71t-71 71z" />
    <glyph glyph-name="quotedbl" unicode="&#x22;" horiz-adv-x="505" 
d="M277 700h128v-41l-27 -242h-86zM100 700h128v-41l-27 -242h-86z" />
    <glyph glyph-name="numbersign" unicode="#" horiz-adv-x="680" 
d="M466 700h111l-30 -174h98v-95h-114l-29 -166h106v-95h-122l-29 -170h-111l29 170h-131l-29 -170h-111l29 170h-98v95h114l29 166h-106v95h122l30 174h111l-30 -174h131zM260 265h131l29 166h-131z" />
    <glyph glyph-name="dollar" unicode="$" horiz-adv-x="553" 
d="M462 563q-38 20 -76 31t-72 13v-202q102 -38 148 -88.5t46 -126.5q0 -85 -49.5 -135.5t-144.5 -62.5v-94h-68v90q-51 1 -102.5 13.5t-89.5 35.5l10 123q83 -65 182 -68v218q-103 34 -149.5 86.5t-46.5 130.5q0 75 51 123t145 59v93h68v-90q42 -2 81.5 -10.5t75.5 -22.5z
M388 185q0 32 -16 56t-58 44v-188q74 18 74 88zM170 529q0 -30 17 -54t59 -44v173q-41 -7 -58.5 -26.5t-17.5 -48.5z" />
    <glyph glyph-name="percent" unicode="%" horiz-adv-x="897" 
d="M636 700h124l-500 -700h-125zM80 524q0 39 11.5 72.5t33 58t52 38.5t68.5 14t68.5 -14t52 -38.5t33 -58t11.5 -72.5t-11.5 -72.5t-33 -58t-52 -38.5t-68.5 -14t-68.5 14t-52 38.5t-33 58t-11.5 72.5zM191 524q0 -45 14 -66t40 -21t40 21t14 66t-14 66t-40 21t-40 -21
t-14 -66zM487 176q0 39 11.5 72.5t33 58t52 38.5t68.5 14t68.5 -14t52 -38.5t33 -58t11.5 -72.5t-11.5 -72.5t-33 -58t-52 -38.5t-68.5 -14t-68.5 14t-52 38.5t-33 58t-11.5 72.5zM598 176q0 -45 14 -66t40 -21t40 21t14 66t-14 66t-40 21t-40 -21t-14 -66z" />
    <glyph glyph-name="ampersand" unicode="&#x26;" horiz-adv-x="678" 
d="M708 0h-151l-72 69q-38 -38 -92.5 -59.5t-128.5 -21.5q-47 0 -87.5 12.5t-71 37t-48 61.5t-17.5 86q0 58 31 106.5t95 86.5q-38 39 -57 77.5t-19 87.5q0 37 14 68.5t38.5 53.5t59 34.5t76.5 12.5q94 0 142.5 -48.5t48.5 -127.5q0 -56 -30 -101.5t-93 -79.5l110 -107
q17 62 17 146h111q0 -139 -40 -234zM152 181q0 -42 30 -70.5t88 -28.5q39 0 74 15.5t62 48.5l-166 160q-48 -27 -68 -59t-20 -66zM357 536q0 35 -21 58.5t-59 23.5t-56.5 -23.5t-18.5 -50.5q0 -13 3 -25t10.5 -25t21 -28.5t33.5 -35.5q50 27 68.5 52t18.5 54z" />
    <glyph glyph-name="quotesingle" unicode="'" horiz-adv-x="317" 
d="M95 700h127v-41l-27 -242h-86z" />
    <glyph glyph-name="parenleft" unicode="(" horiz-adv-x="387" 
d="M100 310q0 123 40 230t114 210h103q-70 -106 -108.5 -217t-38.5 -223t38.5 -223t108.5 -217h-103q-74 103 -114 210t-40 230z" />
    <glyph glyph-name="parenright" unicode=")" horiz-adv-x="387" 
d="M287 310q0 -123 -40 -230t-114 -210h-103q70 106 108.5 217t38.5 223t-38.5 223t-108.5 217h103q74 -103 114 -210t40 -230z" />
    <glyph glyph-name="asterisk" unicode="*" horiz-adv-x="560" 
d="M500 272l-58 -101l-115 78l11 -138h-116l10 138l-114 -78l-58 101l124 60l-124 60l58 101l114 -78l-10 138h116l-11 -139l115 79l58 -101l-125 -60z" />
    <glyph glyph-name="plus" unicode="+" horiz-adv-x="620" 
d="M253 283h-193v98h193v198h114v-198h193v-98h-193v-198h-114v198z" />
    <glyph glyph-name="comma" unicode="," horiz-adv-x="295" 
d="M76 59q0 71 71 71q35 0 53 -18t18 -60q0 -69 -31 -118.5t-85 -77.5l-31 47q23 18 37 40.5t18 46.5q-50 9 -50 69z" />
    <glyph glyph-name="hyphen" unicode="-" horiz-adv-x="406" 
d="M60 278v108h286v-108h-286z" />
    <glyph glyph-name="period" unicode="." horiz-adv-x="295" 
d="M76 59q0 71 71 71t71 -71t-71 -71t-71 71z" />
    <glyph glyph-name="slash" unicode="/" horiz-adv-x="526" 
d="M110 -110h-120l428 858h118z" />
    <glyph glyph-name="zero" unicode="0" horiz-adv-x="590" 
d="M32 350q0 79 16.5 145.5t49.5 114.5t82 75t115 27t115 -27t82 -75t49.5 -114.5t16.5 -145.5t-16.5 -145.5t-49.5 -114.5t-82 -75t-115 -27t-115 27t-82 75t-49.5 114.5t-16.5 145.5zM152 350q0 -129 37 -193.5t106 -64.5t106 64.5t37 193.5t-37 193.5t-106 64.5
t-106 -64.5t-37 -193.5z" />
    <glyph glyph-name="one" unicode="1" horiz-adv-x="590" 
d="M163 483l-62 84l183 133h104v-700h-118v562z" />
    <glyph glyph-name="two" unicode="2" horiz-adv-x="590" 
d="M62 0v96l113.5 100.5t110.5 111.5q46 51 73 101t27 104q0 48 -34.5 71.5t-88.5 23.5q-42 0 -86.5 -14.5t-81.5 -41.5l-8 113q33 21 83 34t101 13t94 -13t74.5 -39t49 -64t17.5 -88q0 -35 -7 -66t-21.5 -61t-36.5 -60t-52 -63q-45 -51 -84 -87.5l-75 -68.5h280v-102h-448z
" />
    <glyph glyph-name="three" unicode="3" horiz-adv-x="590" 
d="M160 416q109 0 166.5 28t57.5 79q0 42 -30 63.5t-93 21.5q-43 0 -86 -10.5t-79 -33.5l-11 108q35 18 82.5 29t98.5 11q118 0 178 -49t60 -127q0 -69 -31.5 -110t-85.5 -61q57 -21 92 -67.5t35 -109.5q0 -90 -65.5 -145t-189.5 -55q-48 0 -97 7.5t-91 24.5l10 117
q37 -23 82.5 -34t90.5 -11q140 0 140 97q0 64 -63 94.5t-171 30.5v102z" />
    <glyph glyph-name="four" unicode="4" horiz-adv-x="590" 
d="M30 144v103l322 453h120v-454h83v-102h-83v-144h-118v144h-324zM164 246h190v269z" />
    <glyph glyph-name="five" unicode="5" horiz-adv-x="590" 
d="M106 700h401v-102h-283v-158q13 3 30.5 5t34.5 2q52 0 96 -15t75.5 -44t49 -71.5t17.5 -97.5q0 -48 -17 -90t-50 -73.5t-82.5 -49.5t-113.5 -18q-42 0 -92 6.5t-92 26.5l10 119q37 -25 82 -36.5t87 -11.5q72 0 110 37t38 100q0 60 -40 87.5t-106 27.5q-39 0 -81 -8
t-74 -20v384z" />
    <glyph glyph-name="six" unicode="6" horiz-adv-x="590" 
d="M312 -12q-60 0 -109 20.5t-83.5 63.5t-53.5 109.5t-19 159.5q0 97 21.5 167t60 115.5t92.5 67t119 21.5q92 0 162 -31l-10 -117q-33 23 -71.5 33.5t-77.5 10.5q-78 0 -122 -45.5t-49 -145.5q32 23 70 34.5t80 11.5q45 0 86 -15.5t71.5 -45.5t49 -74t18.5 -100
q0 -53 -17.5 -97.5t-48.5 -76t-74.5 -49t-94.5 -17.5zM427 226q0 63 -30.5 98t-87.5 35q-84 0 -137 -59q1 -109 37.5 -158t102.5 -49q51 0 83 35t32 98z" />
    <glyph glyph-name="seven" unicode="7" horiz-adv-x="590" 
d="M257 0h-126l256 598h-324v102h448v-102z" />
    <glyph glyph-name="eight" unicode="8" horiz-adv-x="590" 
d="M296 -12q-57 0 -104 14t-80.5 40t-51.5 63t-18 83q0 60 33.5 106.5t93.5 76.5q-48 30 -74 68t-26 86q0 38 14.5 72t43 59.5t71 40.5t98.5 15q52 0 94 -14.5t71 -39.5t44.5 -58.5t15.5 -71.5q0 -49 -29.5 -88.5t-80.5 -68.5q67 -35 102 -80.5t35 -102.5q0 -46 -18 -83
t-51 -63t-79.5 -40t-103.5 -14zM428 185q0 37 -31.5 69.5t-111.5 64.5q-63 -23 -93 -59.5t-30 -74.5q0 -45 37 -69t97 -24q57 0 94.5 24t37.5 69zM189 532q0 -19 5.5 -35t18.5 -29.5t35 -26t54 -24.5q48 21 74 49.5t26 66.5q0 32 -29 53.5t-77 21.5q-51 0 -79 -22t-28 -54z
" />
    <glyph glyph-name="nine" unicode="9" horiz-adv-x="590" 
d="M278 712q60 0 109 -20.5t83.5 -63.5t53.5 -109.5t19 -159.5q0 -97 -21.5 -167t-60 -115.5t-92.5 -67t-119 -21.5q-92 0 -162 31l10 117q33 -23 71.5 -33.5t77.5 -10.5q78 0 122 45.5t49 145.5q-32 -23 -70 -34.5t-80 -11.5q-45 0 -86 15.5t-71.5 45.5t-49 74t-18.5 100
q0 53 17.5 97.5t48.5 76t74.5 49t94.5 17.5zM163 474q0 -63 30.5 -98t87.5 -35q84 0 137 59q-1 108 -38.5 157.5t-101.5 49.5q-51 0 -83 -35t-32 -98z" />
    <glyph glyph-name="colon" unicode=":" horiz-adv-x="295" 
d="M76 59q0 71 71 71t71 -71t-71 -71t-71 71zM76 459q0 71 71 71t71 -71t-71 -71t-71 71z" />
    <glyph glyph-name="semicolon" unicode=";" horiz-adv-x="295" 
d="M76 59q0 71 71 71q35 0 53 -18t18 -60q0 -69 -31 -118.5t-85 -77.5l-31 47q23 18 37 40.5t18 46.5q-50 9 -50 69zM76 459q0 71 71 71t71 -71t-71 -71t-71 71z" />
    <glyph glyph-name="less" unicode="&#x3c;" horiz-adv-x="620" 
d="M60 384l500 205v-114l-365 -143l365 -143v-114l-500 205v104z" />
    <glyph glyph-name="equal" unicode="=" horiz-adv-x="620" 
d="M60 394v98h500v-98h-500zM60 172v98h500v-98h-500z" />
    <glyph glyph-name="greater" unicode="&#x3e;" horiz-adv-x="620" 
d="M560 280l-500 -205v114l365 143l-365 143v114l500 -205v-104z" />
    <glyph glyph-name="question" unicode="?" horiz-adv-x="544" 
d="M273 413q48 35 64.5 63t16.5 59q0 32 -33 52.5t-93 20.5q-43 0 -88.5 -14.5t-80.5 -39.5l-9 111q35 21 84 34t98 13q117 0 179.5 -49.5t62.5 -128.5q0 -54 -28.5 -99.5t-91.5 -93.5q-34 -26 -48 -56t-14 -77v-26h-118v28q0 66 22.5 115.5t76.5 87.5zM162 59q0 71 71 71
t71 -71t-71 -71t-71 71z" />
    <glyph glyph-name="at" unicode="@" horiz-adv-x="970" 
d="M671 192q-1 -32 15.5 -50.5t48.5 -18.5q22 0 39.5 13.5t30 36.5t19 54t6.5 67q0 70 -25.5 130.5t-72 105.5t-111 70.5t-141.5 25.5q-73 0 -135 -27t-107.5 -74.5t-71 -111.5t-25.5 -138q0 -75 26.5 -139.5t73.5 -111.5t111.5 -73.5t140.5 -26.5q72 0 129.5 19.5
t108.5 55.5l38 -80q-63 -38 -129 -59.5t-147 -21.5q-96 0 -178 33.5t-142 92t-94 138.5t-34 173q0 94 33.5 174t92 138.5t138 91.5t171.5 33q96 0 178 -31.5t141 -87t92.5 -132.5t33.5 -167q0 -53 -13 -98.5t-38.5 -78.5t-62.5 -51.5t-85 -18.5q-45 0 -77.5 17.5t-51.5 48.5
q-35 -29 -78 -45t-97 -16q-38 0 -71 12.5t-57.5 35t-38.5 54.5t-14 71q0 59 23.5 109.5t62.5 87t88.5 57t101.5 20.5q66 0 113 -25t81 -79zM430 146q35 0 70.5 13.5t62.5 48.5l32 167q-24 32 -82 32q-31 0 -59.5 -14.5t-50 -38.5t-34.5 -56t-13 -68q0 -42 21 -63t53 -21z
" />
    <glyph glyph-name="A" unicode="A" horiz-adv-x="658" 
d="M653 0h-128l-58 169h-276l-58 -169h-128l258 700h132zM226 271h206l-103 300z" />
    <glyph glyph-name="B" unicode="B" horiz-adv-x="635" 
d="M80 700h244q57 0 101.5 -14.5t74.5 -40t46 -60.5t16 -75q0 -45 -20 -80.5t-58 -57.5q55 -24 83 -66.5t28 -99.5q0 -99 -66.5 -152.5t-191.5 -53.5h-257v700zM477 207q0 52 -37.5 78t-118.5 26h-123v-209h123q81 0 118.5 25.5t37.5 79.5zM444 506q0 48 -35 70t-101 22
h-110v-185h110q66 0 101 22.5t35 70.5z" />
    <glyph glyph-name="C" unicode="C" horiz-adv-x="621" 
d="M45 350q0 79 25.5 145.5t72.5 114.5t113.5 75t148.5 27q46 0 91 -8t81 -25l-10 -112q-33 21 -73.5 31t-83.5 10q-59 0 -104.5 -19t-76.5 -53.5t-47.5 -82t-16.5 -103.5q0 -60 17 -107.5t49.5 -81t78.5 -51.5t103 -18q43 0 82.5 10.5t75.5 34.5l10 -115q-43 -20 -86.5 -27
t-85.5 -7q-83 0 -150.5 26.5t-115 74t-73 114t-25.5 147.5z" />
    <glyph glyph-name="D" unicode="D" horiz-adv-x="690" 
d="M525 350q0 131 -71 189.5t-204 58.5h-52v-496h52q133 0 204 58.5t71 189.5zM645 350q0 -87 -28.5 -153t-79.5 -109.5t-120.5 -65.5t-150.5 -22h-186v700h186q81 0 150.5 -22t120.5 -65.5t79.5 -109.5t28.5 -153z" />
    <glyph glyph-name="E" unicode="E" horiz-adv-x="575" 
d="M80 700h446v-102h-328v-187h304v-102h-304v-207h337v-102h-455v700z" />
    <glyph glyph-name="F" unicode="F" horiz-adv-x="546" 
d="M80 700h446v-102h-328v-185h304v-102h-304v-311h-118v700z" />
    <glyph glyph-name="G" unicode="G" horiz-adv-x="716" 
d="M45 350q0 77 26 143.5t74.5 115t117 76t153.5 27.5q58 0 113.5 -10t103.5 -30l-10 -116q-48 26 -99.5 39t-102.5 13q-59 0 -106 -19t-80.5 -53t-51.5 -81.5t-18 -104.5q0 -59 18 -106.5t52 -81t84 -52t113 -18.5q29 0 53.5 3t42.5 9v191h-184v102h302v-369
q-51 -21 -104 -30.5t-116 -9.5q-87 0 -157.5 27t-120 75t-76.5 114.5t-27 145.5z" />
    <glyph glyph-name="H" unicode="H" horiz-adv-x="712" 
d="M80 700h118v-276h316v276h118v-700h-118v322h-316v-322h-118v700z" />
    <glyph glyph-name="I" unicode="I" horiz-adv-x="288" 
d="M203 700v-700h-118v700h118z" />
    <glyph glyph-name="J" unicode="J" horiz-adv-x="467" 
d="M269 700h118v-467q0 -124 -58 -184.5t-162 -60.5q-90 0 -157 35l10 117q64 -48 145 -48q50 0 77 32t27 109v467z" />
    <glyph glyph-name="K" unicode="K" horiz-adv-x="637" 
d="M607 700l-282 -328l327 -372h-153l-301 351v-351h-118v700h118v-311l267 311h142z" />
    <glyph glyph-name="L" unicode="L" horiz-adv-x="575" 
d="M80 700h118v-598h357v-102h-475v700z" />
    <glyph glyph-name="M" unicode="M" horiz-adv-x="856" 
d="M383 224l-189 293v-517h-114v700h119l229 -356l229 356h119v-700h-114v517l-189 -293h-90z" />
    <glyph glyph-name="N" unicode="N" horiz-adv-x="718" 
d="M80 700h128l316 -531v531h114v-700h-128l-316 531v-531h-114v700z" />
    <glyph glyph-name="O" unicode="O" horiz-adv-x="726" 
d="M363 712q76 0 135 -28t99.5 -77t62 -115t21.5 -142t-21.5 -142t-62 -115t-99.5 -77t-135 -28t-135 28t-99.5 77t-62 115t-21.5 142t21.5 142t62 115t99.5 77t135 28zM363 92q93 0 145.5 68.5t52.5 189.5t-52.5 189.5t-145.5 68.5t-145.5 -68.5t-52.5 -189.5t52.5 -189.5
t145.5 -68.5z" />
    <glyph glyph-name="P" unicode="P" horiz-adv-x="603" 
d="M568 478q0 -54 -19 -95.5t-54.5 -70t-84.5 -43t-109 -14.5h-103v-255h-118v700h221q60 0 109 -14.5t84.5 -43t54.5 -69.5t19 -95zM448 478q0 64 -39.5 92t-117.5 28h-93v-241h93q78 0 117.5 28.5t39.5 92.5z" />
    <glyph glyph-name="Q" unicode="Q" horiz-adv-x="725" 
d="M363 712q76 0 135 -28t99.5 -77t62 -115t21.5 -142q0 -68 -17 -128t-49.5 -107t-79.5 -78.5t-108 -42.5q11 -33 31 -45q14 -9 33 -12t47 -3q24 0 49 3.5t45 10.5l12 -93q-20 -7 -51.5 -10t-60.5 -3q-40 0 -75 7t-64 24q-61 36 -76 118q-65 8 -116 39t-85.5 78.5
t-52.5 109.5t-18 132q0 76 21.5 142t62 115t99.5 77t135 28zM363 92q93 0 145.5 68.5t52.5 189.5t-52.5 189.5t-145.5 68.5t-145.5 -68.5t-52.5 -189.5t52.5 -189.5t145.5 -68.5z" />
    <glyph glyph-name="R" unicode="R" horiz-adv-x="637" 
d="M576 491q0 -74 -40 -122t-105 -70l196 -299h-132l-179 282h-118v-282h-118v700h236q54 0 101.5 -13.5t83 -39.5t55.5 -65.5t20 -90.5zM456 491q0 57 -38.5 82t-110.5 25h-109v-214h109q72 0 110.5 26t38.5 81z" />
    <glyph glyph-name="S" unicode="S" horiz-adv-x="553" 
d="M462 570q-39 20 -83 29t-86 9q-66 0 -94.5 -21t-28.5 -58t27 -65t95 -51q114 -39 165 -90.5t51 -132.5q0 -97 -62.5 -149.5t-194.5 -52.5q-51 0 -103 9.5t-94 32.5l10 114q42 -28 91 -40t103 -12q66 0 98 24t32 69q0 42 -29 70.5t-106 52.5q-106 34 -154.5 87.5
t-48.5 131.5q0 88 61.5 136.5t176.5 48.5q49 0 96 -8.5t87 -26.5z" />
    <glyph glyph-name="T" unicode="T" horiz-adv-x="554" 
d="M218 598h-208v102h534v-102h-208v-598h-118v598z" />
    <glyph glyph-name="U" unicode="U" horiz-adv-x="726" 
d="M363 -12q-62 0 -114 17.5t-89.5 53.5t-58.5 90t-21 127v424h118v-417q0 -91 38.5 -141t126.5 -50t126.5 50t38.5 141v417h118v-424q0 -73 -21 -127t-58.5 -90t-89.5 -53.5t-114 -17.5z" />
    <glyph glyph-name="V" unicode="V" horiz-adv-x="688" 
d="M420 0h-152l-248 700h128l196 -581l196 581h128z" />
    <glyph glyph-name="W" unicode="W" horiz-adv-x="1006" 
d="M704 139l157 561h125l-206 -700h-153l-124 544l-124 -544h-153l-206 700h125l157 -561l129 561h144z" />
    <glyph glyph-name="X" unicode="X" horiz-adv-x="677" 
d="M24 700h136l178 -251l179 251h136l-246 -344l255 -356h-136l-188 263l-187 -263h-136l254 356z" />
    <glyph glyph-name="Y" unicode="Y" horiz-adv-x="686" 
d="M343 388l193 312h130l-264 -423v-277h-118v277l-264 423h130z" />
    <glyph glyph-name="Z" unicode="Z" horiz-adv-x="572" 
d="M390 598h-345v102h487v-103l-361 -495h371v-102h-512v103z" />
    <glyph glyph-name="bracketleft" unicode="[" horiz-adv-x="416" 
d="M120 750h276v-93h-161v-694h161v-93h-276v880z" />
    <glyph glyph-name="backslash" unicode="\" horiz-adv-x="526" 
d="M-10 748h118l428 -858h-120z" />
    <glyph glyph-name="bracketright" unicode="]" horiz-adv-x="416" 
d="M296 -130h-276v93h161v694h-161v93h276v-880z" />
    <glyph glyph-name="asciicircum" unicode="^" horiz-adv-x="620" 
d="M370 700l200 -331h-122l-138 231l-138 -231h-122l200 331h120z" />
    <glyph glyph-name="underscore" unicode="_" horiz-adv-x="500" 
d="M0 -102h500v-68h-500v68z" />
    <glyph glyph-name="grave" unicode="`" horiz-adv-x="420" 
d="M322 560h-109l-139 145v25h124z" />
    <glyph glyph-name="a" unicode="a" horiz-adv-x="554" 
d="M233 -12q-41 0 -77 10.5t-63 31.5t-42.5 52.5t-15.5 73.5q0 81 60 128.5t172 47.5h108v25q0 45 -25.5 62t-85.5 17q-48 0 -92.5 -12.5t-82.5 -34.5l-11 96q34 20 85.5 32.5t105.5 12.5q57 0 98.5 -10t68.5 -33t40 -60.5t13 -91.5v-335h-114v31q-52 -43 -142 -43zM249 82
q40 0 72.5 11.5t53.5 35.5v111h-104q-66 0 -93 -22t-27 -60q0 -40 26.5 -58t71.5 -18z" />
    <glyph glyph-name="b" unicode="b" horiz-adv-x="590" 
d="M184 0h-114v730h114v-243q25 20 57.5 31.5t72.5 11.5q51 0 94 -19t74.5 -54.5t49.5 -85.5t18 -112t-18 -112t-49.5 -85.5t-74.5 -54.5t-94 -19q-40 0 -72.5 11.5t-57.5 31.5v-31zM184 129q20 -22 49.5 -34.5t62.5 -12.5q60 0 99 43.5t39 133.5t-39 133.5t-99 43.5
q-33 0 -62.5 -12.5t-49.5 -34.5v-260z" />
    <glyph glyph-name="c" unicode="c" horiz-adv-x="512" 
d="M156 259q0 -84 48 -130.5t129 -46.5q82 0 134 37l10 -98q-29 -17 -68.5 -25t-81.5 -8q-67 0 -120 19t-90 54t-57 85.5t-20 112.5t19.5 112t55.5 85.5t87 54.5t114 19q42 0 83 -7.5t73 -24.5l-10 -97q-29 19 -64.5 27t-75.5 8q-36 0 -66 -12t-52.5 -34.5t-35 -55.5
t-12.5 -75z" />
    <glyph glyph-name="d" unicode="d" horiz-adv-x="590" 
d="M406 31q-25 -20 -57.5 -31.5t-72.5 -11.5q-51 0 -94.5 19t-75 54.5t-49 85.5t-17.5 112t17.5 112t49 85.5t75 54.5t94.5 19q40 0 72.5 -11.5t57.5 -31.5v243h114v-730h-114v31zM406 389q-20 22 -49.5 34.5t-62.5 12.5q-60 0 -99 -43.5t-39 -133.5t39 -133.5t99 -43.5
q33 0 62.5 12.5t49.5 34.5v260z" />
    <glyph glyph-name="e" unicode="e" horiz-adv-x="555" 
d="M159 214q5 -64 43.5 -98t113.5 -34q45 0 82.5 10t69.5 33l11 -99q-33 -20 -77.5 -29t-90.5 -9q-69 0 -120 20.5t-84.5 56.5t-50 86t-16.5 109q0 61 17 110.5t48 85t75 55t99 19.5q58 0 103 -20.5t75.5 -56.5t46.5 -86.5t16 -110.5q0 -11 -0.5 -21.5t-1.5 -20.5h-359z
M401 306q-6 63 -37 96.5t-85 33.5t-84.5 -33.5t-35.5 -96.5h242z" />
    <glyph glyph-name="f" unicode="f" horiz-adv-x="360" 
d="M10 518h95v27q0 91 45.5 138t133.5 47q25 0 47 -2.5t39 -7.5l-11 -95q-25 11 -61 11q-38 0 -58.5 -21t-20.5 -78v-19h135v-92h-135v-426h-114v426h-95v92z" />
    <glyph glyph-name="g" unicode="g" horiz-adv-x="586" 
d="M156 264q0 -43 10.5 -75t28 -53.5t41.5 -32.5t51 -11q34 0 64.5 12t50.5 35v250q-20 23 -50.5 35t-64.5 12q-27 0 -51 -11t-41.5 -32.5t-28 -53.5t-10.5 -75zM40 264q0 61 18.5 110.5t50.5 84t74.5 53t90.5 18.5q39 0 72.5 -12t55.5 -31v31h114v-471q0 -131 -59.5 -189
t-189.5 -58q-48 0 -93.5 9.5t-83.5 29.5l7 104q74 -51 171 -51q63 0 98.5 29t35.5 98v22q-22 -19 -55.5 -31t-72.5 -12q-48 0 -90.5 18.5t-74.5 53t-50.5 83.5t-18.5 111z" />
    <glyph glyph-name="h" unicode="h" horiz-adv-x="593" 
d="M297 436q-35 0 -64.5 -13t-48.5 -34v-389h-114v730h114v-243q24 19 57.5 31t72.5 12q100 0 157 -60t57 -178v-292h-114v293q0 75 -28.5 109t-88.5 34z" />
    <glyph glyph-name="i" unicode="i" horiz-adv-x="264" 
d="M75 518h114v-518h-114v518zM64 662q0 32 16 50t52 18t52 -18t16 -50t-16 -50t-52 -18t-52 18t-16 50z" />
    <glyph glyph-name="j" unicode="j" horiz-adv-x="264" 
d="M80 518h114v-529q0 -91 -41.5 -140t-136.5 -49q-18 0 -37.5 3t-38.5 9l10 96q28 -14 64 -14q35 0 50.5 22.5t15.5 68.5v533zM69 662q0 32 16 50t52 18t52 -18t16 -50t-16 -50t-52 -18t-52 18t-16 50z" />
    <glyph glyph-name="k" unicode="k" horiz-adv-x="545" 
d="M184 730v-423l197 211h141l-216 -230l234 -288h-143l-213 269v-269h-114v730h114z" />
    <glyph glyph-name="l" unicode="l" horiz-adv-x="264" 
d="M75 730h114v-730h-114v730z" />
    <glyph glyph-name="m" unicode="m" horiz-adv-x="889" 
d="M626 530q43 0 79 -14.5t62.5 -42.5t41.5 -70.5t15 -97.5v-305h-115v313q0 63 -25 93t-70 30q-33 0 -63 -14.5t-55 -43.5q8 -35 8 -73v-305h-115v313q0 63 -25 93t-70 30q-33 0 -63 -13.5t-47 -34.5v-388h-114v518h114v-31q21 18 54.5 30.5t71.5 12.5q46 0 84 -17t64 -50
q32 32 74.5 49.5t93.5 17.5z" />
    <glyph glyph-name="n" unicode="n" horiz-adv-x="593" 
d="M297 436q-35 0 -64.5 -13t-48.5 -34v-389h-114v518h114v-31q24 19 57.5 31t72.5 12q100 0 157 -60t57 -178v-292h-114v293q0 75 -28.5 109t-88.5 34z" />
    <glyph glyph-name="o" unicode="o" horiz-adv-x="592" 
d="M40 259q0 58 18 107.5t51 86t80.5 57t106.5 20.5t106.5 -20.5t80.5 -57t51 -86t18 -107.5t-18 -107.5t-51 -86t-80.5 -57t-106.5 -20.5t-106.5 20.5t-80.5 57t-51 86t-18 107.5zM156 259q0 -81 37 -129t103 -48t103 48t37 129t-37 129t-103 48t-103 -48t-37 -129z" />
    <glyph glyph-name="p" unicode="p" horiz-adv-x="590" 
d="M184 487q25 20 57.5 31.5t72.5 11.5q51 0 94 -19t74.5 -54.5t49.5 -85.5t18 -112t-18 -112t-49.5 -85.5t-74.5 -54.5t-94 -19q-40 0 -72.5 11.5t-57.5 31.5v-224h-114v711h114v-31zM184 129q20 -22 49.5 -34.5t62.5 -12.5q60 0 99 43.5t39 133.5t-39 133.5t-99 43.5
q-33 0 -62.5 -12.5t-49.5 -34.5v-260z" />
    <glyph glyph-name="q" unicode="q" horiz-adv-x="590" 
d="M406 518h114v-711h-114v224q-25 -20 -57.5 -31.5t-72.5 -11.5q-51 0 -94.5 19t-75 54.5t-49 85.5t-17.5 112t17.5 112t49 85.5t75 54.5t94.5 19q40 0 72.5 -11.5t57.5 -31.5v31zM406 389q-20 22 -49.5 34.5t-62.5 12.5q-60 0 -99 -43.5t-39 -133.5t39 -133.5t99 -43.5
q33 0 62.5 12.5t49.5 34.5v260z" />
    <glyph glyph-name="r" unicode="r" horiz-adv-x="388" 
d="M371 416q-28 16 -71 16q-42 0 -71.5 -21.5t-44.5 -60.5v-350h-114v518h114v-42q20 24 53 39t75 15q19 0 37.5 -2.5t33.5 -7.5z" />
    <glyph glyph-name="s" unicode="s" horiz-adv-x="475" 
d="M222 -12q-46 0 -92 10t-85 31l7 107q38 -27 81.5 -40.5t88.5 -13.5q92 0 92 62q0 26 -21.5 43t-81.5 34q-85 23 -124 62t-39 99q0 72 50.5 110t147.5 38q45 0 85.5 -8.5t72.5 -24.5l-10 -99q-29 18 -67 28t-80 10q-45 0 -63.5 -13t-18.5 -35q0 -12 4.5 -22.5t15.5 -20
t29 -17.5t46 -16q49 -14 82 -31t52.5 -37.5t27.5 -43.5t8 -50q0 -78 -51 -120t-157 -42z" />
    <glyph glyph-name="t" unicode="t" horiz-adv-x="394" 
d="M15 518h86v155h114v-155h154v-92h-154v-225q0 -38 4.5 -61t14 -36t23.5 -17.5t34 -4.5q33 0 63 9l13 -95q-21 -5 -42 -6.5t-42 -1.5q-90 0 -136 43.5t-46 137.5v257h-86v92z" />
    <glyph glyph-name="u" unicode="u" horiz-adv-x="593" 
d="M296 82q35 0 64.5 13t48.5 34v389h114v-518h-114v31q-24 -19 -57.5 -31t-72.5 -12q-100 0 -157 60t-57 178v292h114v-293q0 -75 28.5 -109t88.5 -34z" />
    <glyph glyph-name="v" unicode="v" horiz-adv-x="538" 
d="M196 0l-181 518h122l132 -401l132 401h122l-182 -518h-145z" />
    <glyph glyph-name="w" unicode="w" horiz-adv-x="798" 
d="M467 518l89 -389l106 389h121l-157 -518h-139l-88 394l-88 -394h-139l-157 518h121l106 -389l89 389h136z" />
    <glyph glyph-name="x" unicode="x" horiz-adv-x="528" 
d="M376 518h129l-174 -250l187 -268h-129l-125 182l-125 -182h-129l186 268l-173 250h129l112 -164z" />
    <glyph glyph-name="y" unicode="y" horiz-adv-x="557" 
d="M418 518h124l-276 -711h-120l74 193l-205 518h124l141 -377z" />
    <glyph glyph-name="z" unicode="z" horiz-adv-x="479" 
d="M25 94l282 332h-269v92h406v-93l-281 -333h291v-92h-429v94z" />
    <glyph glyph-name="braceleft" unicode="{" horiz-adv-x="405" 
d="M166 164q0 24 -8 42.5t-20 31t-27.5 19.5t-30.5 7v92q15 0 30.5 7t27.5 19.5t20 31t8 42.5v168q0 64 40 95t103 31h76v-93h-67q-37 0 -37 -39v-186q0 -51 -22 -80t-70 -42q48 -13 70 -42t22 -80v-186q0 -39 37 -39h67v-93h-76q-63 0 -103 31t-40 95v168z" />
    <glyph glyph-name="bar" unicode="|" horiz-adv-x="318" 
d="M110 769h98v-969h-98v969z" />
    <glyph glyph-name="braceright" unicode="}" horiz-adv-x="405" 
d="M239 -4q0 -64 -40 -95t-103 -31h-76v93h67q37 0 37 39v186q0 51 22 80t70 42q-48 13 -70 42t-22 80v186q0 39 -37 39h-67v93h76q63 0 103 -31t40 -95v-168q0 -24 8 -42.5t20 -31t27.5 -19.5t30.5 -7v-92q-15 0 -30.5 -7t-27.5 -19.5t-20 -31t-8 -42.5v-168z" />
    <glyph glyph-name="asciitilde" unicode="~" horiz-adv-x="620" 
d="M560 420q0 -93 -39.5 -135t-108.5 -42q-32 0 -60.5 10t-54.5 30q-33 24 -52 33.5t-33 9.5q-19 0 -28 -16.5t-11 -64.5h-113q0 93 39.5 135t108.5 42q32 0 60.5 -10t54.5 -30q33 -24 52 -33.5t33 -9.5q19 0 28 16.5t11 64.5h113z" />
    <glyph glyph-name="uni00A0" unicode="&#xa0;" horiz-adv-x="300" 
 />
    <glyph glyph-name="exclamdown" unicode="&#xa1;" horiz-adv-x="312" 
d="M118 336h76l24 -325v-193h-124v193zM85 459q0 71 71 71t71 -71t-71 -71t-71 71z" />
    <glyph glyph-name="cent" unicode="&#xa2;" horiz-adv-x="512" 
d="M345 -102h-68v93q-111 14 -174 85t-63 183q0 56 17 102.5t48 81t75 56.5t97 28v93h68v-91q35 -2 67 -8.5t60 -20.5l-10 -103q-25 17 -55 26.5t-62 11.5v-353q36 2 67.5 12.5t54.5 29.5l10 -103q-57 -30 -132 -33v-90zM156 259q0 -70 31.5 -114t89.5 -58v344
q-56 -13 -88.5 -56.5t-32.5 -115.5z" />
    <glyph glyph-name="sterling" unicode="&#xa3;" horiz-adv-x="596" 
d="M40 325v68h77v112q0 106 58.5 156.5t167.5 50.5q49 0 96.5 -10.5t82.5 -31.5l-8 -109q-35 24 -76 35.5t-86 11.5q-63 0 -90 -24t-27 -78v-113h198v-68h-198v-72q0 -95 -52 -151h383v-102h-526v87q37 29 57 65t20 84v89h-77z" />
    <glyph glyph-name="currency" unicode="&#xa4;" horiz-adv-x="729" 
d="M589 332q0 -59 -28 -109l88 -87l-78 -80l-88 87q-52 -32 -119 -32t-119 32l-87 -87l-78 80l87 86q-28 50 -28 110t28 110l-87 88l78 80l88 -89q26 15 55.5 23.5t62.5 8.5t62.5 -8.5t55.5 -23.5l89 89l78 -80l-89 -89q14 -24 21.5 -51.5t7.5 -57.5zM246 332q0 -55 32 -89
t86 -34t86 34t32 89t-32 89t-86 34t-86 -34t-32 -89z" />
    <glyph glyph-name="yen" unicode="&#xa5;" horiz-adv-x="620" 
d="M54 272v68h163l-197 360h125l168 -319l162 319h125l-192 -360h158v-68h-194v-56h194v-68h-194v-148h-118v148h-200v68h200v56h-200z" />
    <glyph glyph-name="brokenbar" unicode="&#xa6;" horiz-adv-x="318" 
d="M208 225v-325h-98v325h98zM208 688v-325h-98v325h98z" />
    <glyph glyph-name="section" unicode="&#xa7;" horiz-adv-x="535" 
d="M252 -100q-48 0 -95.5 11.5t-86.5 34.5l9 111q37 -32 81 -47.5t92 -15.5q51 0 74 18t23 48q0 27 -21 46.5t-77 33.5q-85 22 -131 63t-46 102q0 48 26 81.5t65 49.5q-49 20 -71 51.5t-22 74.5q0 69 50 109.5t155 40.5q46 0 87.5 -9t74.5 -26l-11 -104q-32 23 -72.5 34
t-79.5 11q-88 0 -88 -56q0 -25 25.5 -42.5t82.5 -34.5q91 -28 129.5 -67.5t38.5 -99.5q0 -43 -22.5 -75t-62.5 -52q42 -16 64 -50.5t22 -76.5q0 -73 -51.5 -118.5t-161.5 -45.5zM274 396q-36 -7 -60 -29.5t-24 -55.5q0 -27 19 -47t55 -28q36 7 60 29.5t24 55.5q0 27 -19 47
t-55 28z" />
    <glyph glyph-name="dieresis" unicode="&#xa8;" horiz-adv-x="420" 
d="M46 645q0 63 63 63t63 -63t-63 -63t-63 63zM248 645q0 63 63 63t63 -63t-63 -63t-63 63z" />
    <glyph glyph-name="copyright" unicode="&#xa9;" horiz-adv-x="830" 
d="M53 350q0 75 28.5 141t77.5 115t115 77.5t141 28.5t141 -28.5t115 -77.5t77.5 -115t28.5 -141t-28.5 -141t-77.5 -115t-115 -77.5t-141 -28.5t-141 28.5t-115 77.5t-77.5 115t-28.5 141zM109 350q0 -65 24 -121.5t65.5 -98.5t97.5 -66t119 -24t119 24t97.5 66t65.5 98.5
t24 121.5q0 64 -24 120.5t-65.5 98.5t-97.5 66.5t-119 24.5t-119 -24.5t-97.5 -66.5t-65.5 -98.5t-24 -120.5zM211 348q0 49 16.5 89.5t45.5 68.5t69 43.5t87 15.5q36 0 68 -6.5t63 -20.5l-9 -86q-47 35 -114 35q-63 0 -97.5 -36.5t-34.5 -102.5t34.5 -102.5t97.5 -36.5
q67 0 114 35l9 -86q-31 -14 -63 -20.5t-68 -6.5q-47 0 -87 15.5t-69 43.5t-45.5 68t-16.5 90z" />
    <glyph glyph-name="ordfeminine" unicode="&#xaa;" horiz-adv-x="460" 
d="M191 312q-25 0 -50 7.5t-45.5 22.5t-33 38t-12.5 55q0 69 48 100.5t129 31.5h63q0 39 -15.5 51t-58.5 12q-32 0 -65.5 -8.5t-60.5 -23.5l-9 79q25 14 63 22.5t78 8.5q89 0 128.5 -35.5t39.5 -120.5v-233h-100v25q-16 -15 -41 -23.5t-58 -8.5zM210 390q23 0 44.5 7.5
t35.5 21.5v72h-60q-42 0 -60 -15.5t-18 -36.5q0 -22 15 -35.5t43 -13.5z" />
    <glyph glyph-name="guillemotleft" unicode="&#xab;" horiz-adv-x="540" 
d="M70 335l222 205v-114l-125 -114l125 -114v-114l-222 205v46zM258 335l222 205v-114l-125 -114l125 -114v-114l-222 205v46z" />
    <glyph glyph-name="logicalnot" unicode="&#xac;" horiz-adv-x="620" 
d="M55 450h500v-291h-114v193h-386v98z" />
    <glyph glyph-name="uni00AD" unicode="&#xad;" horiz-adv-x="406" 
d="M60 278v108h286v-108h-286z" />
    <glyph glyph-name="registered" unicode="&#xae;" horiz-adv-x="830" 
d="M53 350q0 75 28.5 141t77.5 115t115 77.5t141 28.5t141 -28.5t115 -77.5t77.5 -115t28.5 -141t-28.5 -141t-77.5 -115t-115 -77.5t-141 -28.5t-141 28.5t-115 77.5t-77.5 115t-28.5 141zM109 350q0 -65 24 -121.5t65.5 -98.5t97.5 -66t119 -24t119 24t97.5 66t65.5 98.5
t24 121.5q0 64 -24 120.5t-65.5 98.5t-97.5 66.5t-119 24.5t-119 -24.5t-97.5 -66.5t-65.5 -98.5t-24 -120.5zM577 432q0 -42 -21 -70.5t-58 -42.5l105 -178h-101l-95 164h-47v-164h-94v417h147q75 0 119.5 -32.5t44.5 -93.5zM483 432q0 24 -16 37t-58 13h-49v-100h49
q42 0 58 13.5t16 36.5z" />
    <glyph glyph-name="macron" unicode="&#xaf;" horiz-adv-x="420" 
d="M59 692h302v-93h-302v93z" />
    <glyph glyph-name="degree" unicode="&#xb0;" horiz-adv-x="420" 
d="M66 574q0 29 11 54.5t30.5 44t46 29t56.5 10.5t56 -10.5t45.5 -29t31 -44t11.5 -54.5t-11.5 -54.5t-31 -44t-45.5 -29t-56 -10.5t-56.5 10.5t-46 29t-30.5 44t-11 54.5zM154 574q0 -27 16 -42.5t40 -15.5t40 15.5t16 42.5t-16 42.5t-40 15.5t-40 -15.5t-16 -42.5z" />
    <glyph glyph-name="plusminus" unicode="&#xb1;" horiz-adv-x="620" 
d="M253 347h-193v98h193v188h114v-188h193v-98h-193v-188h-114v188zM60 26v98h500v-98h-500z" />
    <glyph glyph-name="twosuperior" unicode="&#xb2;" horiz-adv-x="400" 
d="M35 235v75q37 30 75.5 67t70.5 74q59 68 59 120q0 24 -18 36.5t-47 12.5q-30 0 -63 -11t-56 -28l-6 93q26 15 61 24.5t71 9.5q72 0 116 -34.5t44 -103.5q0 -41 -18 -79t-61 -87q-21 -24 -43 -44.5l-43 -38.5h168v-86h-310z" />
    <glyph glyph-name="threesuperior" unicode="&#xb3;" horiz-adv-x="400" 
d="M94 520q75 0 109.5 15t34.5 43q0 20 -16 31t-51 11q-24 0 -55 -7.5t-61 -26.5l-9 92q26 14 62 22t71 8q76 0 118.5 -33.5t42.5 -90.5q0 -33 -17.5 -61t-54.5 -44q35 -14 56.5 -43.5t21.5 -67.5q0 -69 -47.5 -105t-128.5 -36q-32 0 -67 6.5t-65 19.5l9 100
q27 -20 58.5 -29t61.5 -9q38 0 57.5 14t19.5 39q0 35 -37.5 50.5t-112.5 15.5v86z" />
    <glyph glyph-name="acute" unicode="&#xb4;" horiz-adv-x="420" 
d="M222 730h124v-25l-139 -145h-109z" />
    <glyph glyph-name="mu" unicode="&#xb5;" horiz-adv-x="608" 
d="M304 -12q-76 0 -120 47v-228h-114v711h114v-384q22 -26 53.5 -39t66.5 -13t66.5 13t53.5 39v384h114v-518h-114v35q-44 -47 -120 -47z" />
    <glyph glyph-name="paragraph" unicode="&#xb6;" horiz-adv-x="580" 
d="M262 266q-51 0 -93.5 14.5t-73.5 42t-48 68t-17 92.5t17 92t47.5 68t72 42.5t90.5 14.5h243v-831h-98v736h-38v-736h-102v397z" />
    <glyph glyph-name="periodcentered" unicode="&#xb7;" horiz-adv-x="295" 
d="M76 332q0 71 71 71t71 -71t-71 -71t-71 71z" />
    <glyph glyph-name="cedilla" unicode="&#xb8;" horiz-adv-x="420" 
d="M108 -157q23 -10 61 -10q21 0 34 7.5t13 24.5q0 42 -100 42l49 93h104l-32 -58q32 -6 54 -28.5t22 -51.5q0 -47 -32 -73.5t-109 -26.5q-16 0 -32.5 1.5t-31.5 5.5v74z" />
    <glyph glyph-name="onesuperior" unicode="&#xb9;" horiz-adv-x="400" 
d="M98 523l-50 79l135 99h83v-466h-100v337z" />
    <glyph glyph-name="ordmasculine" unicode="&#xba;" horiz-adv-x="460" 
d="M42 510q0 45 14 81.5t39 62.5t59.5 40t75.5 14t75.5 -14t59.5 -40t39 -62.5t14 -81.5t-14 -81.5t-39 -62.5t-59.5 -40t-75.5 -14t-75.5 14t-59.5 40t-39 62.5t-14 81.5zM142 510q0 -55 24.5 -87.5t63.5 -32.5t63.5 32.5t24.5 87.5t-24.5 87.5t-63.5 32.5t-63.5 -31.5
t-24.5 -88.5z" />
    <glyph glyph-name="guillemotright" unicode="&#xbb;" horiz-adv-x="540" 
d="M470 289l-222 -205v114l125 114l-125 114v114l222 -205v-46zM282 289l-222 -205v114l125 114l-125 114v114l222 -205v-46z" />
    <glyph glyph-name="onequarter" unicode="&#xbc;" horiz-adv-x="960" 
d="M324 -15h-97l394 730h96zM98 523l-50 79l135 99h83v-466h-100v337zM557 95v79l211 292h95v-285h53v-86h-53v-94h-100v94h-206zM664 181h99v137z" />
    <glyph glyph-name="onehalf" unicode="&#xbd;" horiz-adv-x="960" 
d="M284 -15h-97l394 730h96zM98 523l-50 79l135 99h83v-466h-100v337zM568 1v75q37 30 75.5 67t70.5 74q59 68 59 120q0 24 -18 36.5t-47 12.5q-30 0 -63 -11t-56 -28l-6 93q26 15 61 24.5t71 9.5q72 0 116 -34.5t44 -103.5q0 -41 -18 -79t-61 -87q-21 -24 -43 -44.5
l-43 -38.5h168v-86h-310z" />
    <glyph glyph-name="threequarters" unicode="&#xbe;" horiz-adv-x="960" 
d="M343 -15h-97l394 730h96zM557 95v79l211 292h95v-285h53v-86h-53v-94h-100v94h-206zM664 181h99v137zM94 520q75 0 109.5 15t34.5 43q0 20 -16 31t-51 11q-24 0 -55 -7.5t-61 -26.5l-9 92q26 14 62 22t71 8q76 0 118.5 -33.5t42.5 -90.5q0 -33 -17.5 -61t-54.5 -44
q35 -14 56.5 -43.5t21.5 -67.5q0 -69 -47.5 -105t-128.5 -36q-32 0 -67 6.5t-65 19.5l9 100q27 -20 58.5 -29t61.5 -9q38 0 57.5 14t19.5 39q0 35 -37.5 50.5t-112.5 15.5v86z" />
    <glyph glyph-name="questiondown" unicode="&#xbf;" horiz-adv-x="544" 
d="M271 104q-48 -35 -64.5 -63t-16.5 -59q0 -32 33 -52.5t93 -20.5q43 0 88.5 14.5t80.5 39.5l9 -111q-35 -21 -84 -34t-98 -13q-117 0 -179.5 49.5t-62.5 128.5q0 54 28.5 99.5t91.5 93.5q34 26 48 56t14 77v26h118v-28q0 -66 -22.5 -115.5t-76.5 -87.5zM382 459
q0 -71 -71 -71t-71 71t71 71t71 -71z" />
    <glyph glyph-name="Agrave" unicode="&#xc0;" horiz-adv-x="658" 
d="M653 0h-128l-58 169h-276l-58 -169h-128l258 700h132zM226 271h206l-103 300zM404 754h-109l-139 145v25h124z" />
    <glyph glyph-name="Aacute" unicode="&#xc1;" horiz-adv-x="658" 
d="M653 0h-128l-58 169h-276l-58 -169h-128l258 700h132zM226 271h206l-103 300zM366 924h124v-25l-139 -145h-109z" />
    <glyph glyph-name="Acircumflex" unicode="&#xc2;" horiz-adv-x="658" 
d="M653 0h-128l-58 169h-276l-58 -169h-128l258 700h132zM226 271h206l-103 300zM382 924l131 -170h-109l-75 84l-75 -84h-109l131 170h106z" />
    <glyph glyph-name="Atilde" unicode="&#xc3;" horiz-adv-x="658" 
d="M653 0h-128l-58 169h-276l-58 -169h-128l258 700h132zM226 271h206l-103 300zM496 909q0 -76 -27.5 -108.5t-72.5 -32.5q-38 0 -71 27q-18 14 -27.5 19t-17.5 5q-9 0 -13.5 -9t-4.5 -40h-99q0 76 27.5 108.5t72.5 32.5q38 0 71 -27q18 -14 27.5 -19t17.5 -5q9 0 13.5 9
t4.5 40h99z" />
    <glyph glyph-name="Adieresis" unicode="&#xc4;" horiz-adv-x="658" 
d="M653 0h-128l-58 169h-276l-58 -169h-128l258 700h132zM226 271h206l-103 300zM165 839q0 63 63 63t63 -63t-63 -63t-63 63zM367 839q0 63 63 63t63 -63t-63 -63t-63 63z" />
    <glyph glyph-name="Aring" unicode="&#xc5;" horiz-adv-x="658" 
d="M653 0h-128l-58 169h-276l-58 -169h-128l258 700h132zM226 271h206l-103 300zM217 839q0 22 8.5 42t23.5 34t35.5 22.5t44.5 8.5t44.5 -8.5t35.5 -22.5t23.5 -34t8.5 -42q0 -23 -8.5 -42.5t-23.5 -33.5t-35.5 -22.5t-44.5 -8.5t-44.5 8.5t-35.5 22.5t-23.5 33.5
t-8.5 42.5zM294 839q0 -17 10.5 -26.5t24.5 -9.5t24.5 9.5t10.5 26.5t-10.5 26.5t-24.5 9.5t-24.5 -9.5t-10.5 -26.5z" />
    <glyph glyph-name="AE" unicode="&#xc6;" horiz-adv-x="861" 
d="M142 0h-137l331 700h477v-102h-281v-187h256v-102h-256v-207h289v-102h-407v172h-194zM414 599l-148 -325h148v325z" />
    <glyph glyph-name="Ccedilla" unicode="&#xc7;" horiz-adv-x="621" 
d="M283 -157q23 -10 61 -10q21 0 34 7.5t13 24.5q0 42 -100 42l45 87q-68 10 -121.5 40.5t-91.5 76.5t-58 106.5t-20 132.5q0 79 25.5 145.5t72.5 114.5t113.5 75t148.5 27q46 0 91 -8t81 -25l-10 -112q-33 21 -73.5 31t-83.5 10q-59 0 -104.5 -19t-76.5 -53.5t-47.5 -82
t-16.5 -103.5q0 -60 17 -107.5t49.5 -81t78.5 -51.5t103 -18q43 0 82.5 10.5t75.5 34.5l10 -115q-36 -17 -72 -24t-72 -9l-25 -47q32 -6 54 -28.5t22 -51.5q0 -47 -32 -73.5t-109 -26.5q-16 0 -32.5 1.5t-31.5 5.5v74z" />
    <glyph glyph-name="Egrave" unicode="&#xc8;" horiz-adv-x="575" 
d="M80 700h446v-102h-328v-187h304v-102h-304v-207h337v-102h-455v700zM389 754h-109l-139 145v25h124z" />
    <glyph glyph-name="Eacute" unicode="&#xc9;" horiz-adv-x="575" 
d="M80 700h446v-102h-328v-187h304v-102h-304v-207h337v-102h-455v700zM330 924h124v-25l-139 -145h-109z" />
    <glyph glyph-name="Ecircumflex" unicode="&#xca;" horiz-adv-x="575" 
d="M80 700h446v-102h-328v-187h304v-102h-304v-207h337v-102h-455v700zM356 924l131 -170h-109l-75 84l-75 -84h-109l131 170h106z" />
    <glyph glyph-name="Edieresis" unicode="&#xcb;" horiz-adv-x="575" 
d="M80 700h446v-102h-328v-187h304v-102h-304v-207h337v-102h-455v700zM139 839q0 63 63 63t63 -63t-63 -63t-63 63zM341 839q0 63 63 63t63 -63t-63 -63t-63 63z" />
    <glyph glyph-name="Igrave" unicode="&#xcc;" horiz-adv-x="288" 
d="M203 700v-700h-118v700h118zM217 754h-109l-139 145v25h124z" />
    <glyph glyph-name="Iacute" unicode="&#xcd;" horiz-adv-x="288" 
d="M203 700v-700h-118v700h118zM193 924h124v-25l-139 -145h-109z" />
    <glyph glyph-name="Icircumflex" unicode="&#xce;" horiz-adv-x="288" 
d="M203 700v-700h-118v700h118zM198 924l131 -170h-109l-75 84l-75 -84h-109l131 170h106z" />
    <glyph glyph-name="Idieresis" unicode="&#xcf;" horiz-adv-x="288" 
d="M203 700v-700h-118v700h118zM-19 839q0 63 63 63t63 -63t-63 -63t-63 63zM183 839q0 63 63 63t63 -63t-63 -63t-63 63z" />
    <glyph glyph-name="Eth" unicode="&#xd0;" horiz-adv-x="695" 
d="M650 350q0 -87 -28.5 -153t-79.5 -109.5t-120.5 -65.5t-150.5 -22h-186v309h-75v82h75v309h186q81 0 150.5 -22t120.5 -65.5t79.5 -109.5t28.5 -153zM530 350q0 131 -71 189.5t-204 58.5h-52v-207h146v-82h-146v-207h52q133 0 204 58.5t71 189.5z" />
    <glyph glyph-name="Ntilde" unicode="&#xd1;" horiz-adv-x="718" 
d="M80 700h128l316 -531v531h114v-700h-128l-316 531v-531h-114v700zM527 909q0 -76 -27.5 -108.5t-72.5 -32.5q-38 0 -71 27q-18 14 -27.5 19t-17.5 5q-9 0 -13.5 -9t-4.5 -40h-99q0 76 27.5 108.5t72.5 32.5q38 0 71 -27q18 -14 27.5 -19t17.5 -5q9 0 13.5 9t4.5 40h99z
" />
    <glyph glyph-name="Ograve" unicode="&#xd2;" horiz-adv-x="726" 
d="M363 712q76 0 135 -28t99.5 -77t62 -115t21.5 -142t-21.5 -142t-62 -115t-99.5 -77t-135 -28t-135 28t-99.5 77t-62 115t-21.5 142t21.5 142t62 115t99.5 77t135 28zM363 92q93 0 145.5 68.5t52.5 189.5t-52.5 189.5t-145.5 68.5t-145.5 -68.5t-52.5 -189.5t52.5 -189.5
t145.5 -68.5zM463 754h-109l-139 145v25h124z" />
    <glyph glyph-name="Oacute" unicode="&#xd3;" horiz-adv-x="726" 
d="M363 712q76 0 135 -28t99.5 -77t62 -115t21.5 -142t-21.5 -142t-62 -115t-99.5 -77t-135 -28t-135 28t-99.5 77t-62 115t-21.5 142t21.5 142t62 115t99.5 77t135 28zM363 92q93 0 145.5 68.5t52.5 189.5t-52.5 189.5t-145.5 68.5t-145.5 -68.5t-52.5 -189.5t52.5 -189.5
t145.5 -68.5zM387 924h124v-25l-139 -145h-109z" />
    <glyph glyph-name="Ocircumflex" unicode="&#xd4;" horiz-adv-x="726" 
d="M363 712q76 0 135 -28t99.5 -77t62 -115t21.5 -142t-21.5 -142t-62 -115t-99.5 -77t-135 -28t-135 28t-99.5 77t-62 115t-21.5 142t21.5 142t62 115t99.5 77t135 28zM363 92q93 0 145.5 68.5t52.5 189.5t-52.5 189.5t-145.5 68.5t-145.5 -68.5t-52.5 -189.5t52.5 -189.5
t145.5 -68.5zM416 924l131 -170h-109l-75 84l-75 -84h-109l131 170h106z" />
    <glyph glyph-name="Otilde" unicode="&#xd5;" horiz-adv-x="726" 
d="M363 712q76 0 135 -28t99.5 -77t62 -115t21.5 -142t-21.5 -142t-62 -115t-99.5 -77t-135 -28t-135 28t-99.5 77t-62 115t-21.5 142t21.5 142t62 115t99.5 77t135 28zM363 92q93 0 145.5 68.5t52.5 189.5t-52.5 189.5t-145.5 68.5t-145.5 -68.5t-52.5 -189.5t52.5 -189.5
t145.5 -68.5zM530 909q0 -76 -27.5 -108.5t-72.5 -32.5q-38 0 -71 27q-18 14 -27.5 19t-17.5 5q-9 0 -13.5 -9t-4.5 -40h-99q0 76 27.5 108.5t72.5 32.5q38 0 71 -27q18 -14 27.5 -19t17.5 -5q9 0 13.5 9t4.5 40h99z" />
    <glyph glyph-name="Odieresis" unicode="&#xd6;" horiz-adv-x="726" 
d="M363 712q76 0 135 -28t99.5 -77t62 -115t21.5 -142t-21.5 -142t-62 -115t-99.5 -77t-135 -28t-135 28t-99.5 77t-62 115t-21.5 142t21.5 142t62 115t99.5 77t135 28zM363 92q93 0 145.5 68.5t52.5 189.5t-52.5 189.5t-145.5 68.5t-145.5 -68.5t-52.5 -189.5t52.5 -189.5
t145.5 -68.5zM199 839q0 63 63 63t63 -63t-63 -63t-63 63zM401 839q0 63 63 63t63 -63t-63 -63t-63 63z" />
    <glyph glyph-name="multiply" unicode="&#xd7;" horiz-adv-x="620" 
d="M539 181l-77 -77l-152 152l-152 -152l-77 77l152 152l-152 152l77 76l152 -152l152 152l77 -76l-152 -152z" />
    <glyph glyph-name="Oslash" unicode="&#xd8;" horiz-adv-x="726" 
d="M363 712q42 0 77.5 -8.5t67.5 -24.5l69 121h101l-99 -173q50 -50 76 -121t26 -156q0 -76 -21.5 -142t-62 -115t-99.5 -77t-135 -28q-38 0 -71 7t-62 20l-65 -115h-101l93 163q-55 49 -83.5 123.5t-28.5 163.5q0 76 21.5 142t62 115t99.5 77t135 28zM363 608
q-93 0 -145.5 -68.5t-52.5 -189.5q0 -118 50 -185l239 420q-40 23 -91 23zM363 92q93 0 145.5 68.5t52.5 189.5q0 53 -11 96.5t-31 75.5l-236 -414q18 -8 37.5 -12t42.5 -4z" />
    <glyph glyph-name="Ugrave" unicode="&#xd9;" horiz-adv-x="726" 
d="M363 -12q-62 0 -114 17.5t-89.5 53.5t-58.5 90t-21 127v424h118v-417q0 -91 38.5 -141t126.5 -50t126.5 50t38.5 141v417h118v-424q0 -73 -21 -127t-58.5 -90t-89.5 -53.5t-114 -17.5zM430 754h-109l-139 145v25h124z" />
    <glyph glyph-name="Uacute" unicode="&#xda;" horiz-adv-x="726" 
d="M363 -12q-62 0 -114 17.5t-89.5 53.5t-58.5 90t-21 127v424h118v-417q0 -91 38.5 -141t126.5 -50t126.5 50t38.5 141v417h118v-424q0 -73 -21 -127t-58.5 -90t-89.5 -53.5t-114 -17.5zM415 924h124v-25l-139 -145h-109z" />
    <glyph glyph-name="Ucircumflex" unicode="&#xdb;" horiz-adv-x="726" 
d="M363 -12q-62 0 -114 17.5t-89.5 53.5t-58.5 90t-21 127v424h118v-417q0 -91 38.5 -141t126.5 -50t126.5 50t38.5 141v417h118v-424q0 -73 -21 -127t-58.5 -90t-89.5 -53.5t-114 -17.5zM416 924l131 -170h-109l-75 84l-75 -84h-109l131 170h106z" />
    <glyph glyph-name="Udieresis" unicode="&#xdc;" horiz-adv-x="726" 
d="M363 -12q-62 0 -114 17.5t-89.5 53.5t-58.5 90t-21 127v424h118v-417q0 -91 38.5 -141t126.5 -50t126.5 50t38.5 141v417h118v-424q0 -73 -21 -127t-58.5 -90t-89.5 -53.5t-114 -17.5zM199 839q0 63 63 63t63 -63t-63 -63t-63 63zM401 839q0 63 63 63t63 -63t-63 -63
t-63 63z" />
    <glyph glyph-name="Yacute" unicode="&#xdd;" horiz-adv-x="686" 
d="M343 388l193 312h130l-264 -423v-277h-118v277l-264 423h130zM383 924h124v-25l-139 -145h-109z" />
    <glyph glyph-name="Thorn" unicode="&#xde;" horiz-adv-x="603" 
d="M568 355q0 -54 -19 -95.5t-54.5 -70t-84.5 -43t-109 -14.5h-103v-132h-118v700h118v-123h103q60 0 109 -14.5t84.5 -43t54.5 -69.5t19 -95zM448 355q0 64 -39.5 92t-117.5 28h-93v-241h93q78 0 117.5 28.5t39.5 92.5z" />
    <glyph glyph-name="germandbls" unicode="&#xdf;" horiz-adv-x="581" 
d="M224 134q19 -20 47 -31t57 -11q48 0 70.5 26t22.5 75q0 52 -42.5 85.5t-114.5 34.5v102q66 0 98 30t32 81q0 38 -25.5 60t-70.5 22q-100 0 -100 -124v-484h-118v470q0 121 55.5 181.5t164.5 60.5q48 0 87.5 -14t67.5 -38.5t43.5 -58.5t15.5 -73q0 -114 -105 -160
q61 -20 96.5 -67t35.5 -108q0 -102 -54.5 -153.5t-160.5 -51.5q-31 0 -60.5 6.5t-52.5 20.5z" />
    <glyph glyph-name="agrave" unicode="&#xe0;" horiz-adv-x="554" 
d="M233 -12q-41 0 -77 10.5t-63 31.5t-42.5 52.5t-15.5 73.5q0 81 60 128.5t172 47.5h108v25q0 45 -25.5 62t-85.5 17q-48 0 -92.5 -12.5t-82.5 -34.5l-11 96q34 20 85.5 32.5t105.5 12.5q57 0 98.5 -10t68.5 -33t40 -60.5t13 -91.5v-335h-114v31q-52 -43 -142 -43zM249 82
q40 0 72.5 11.5t53.5 35.5v111h-104q-66 0 -93 -22t-27 -60q0 -40 26.5 -58t71.5 -18zM370 580h-109l-139 145v25h124z" />
    <glyph glyph-name="aacute" unicode="&#xe1;" horiz-adv-x="554" 
d="M233 -12q-41 0 -77 10.5t-63 31.5t-42.5 52.5t-15.5 73.5q0 81 60 128.5t172 47.5h108v25q0 45 -25.5 62t-85.5 17q-48 0 -92.5 -12.5t-82.5 -34.5l-11 96q34 20 85.5 32.5t105.5 12.5q57 0 98.5 -10t68.5 -33t40 -60.5t13 -91.5v-335h-114v31q-52 -43 -142 -43zM249 82
q40 0 72.5 11.5t53.5 35.5v111h-104q-66 0 -93 -22t-27 -60q0 -40 26.5 -58t71.5 -18zM304 750h124v-25l-139 -145h-109z" />
    <glyph glyph-name="acircumflex" unicode="&#xe2;" horiz-adv-x="554" 
d="M233 -12q-41 0 -77 10.5t-63 31.5t-42.5 52.5t-15.5 73.5q0 81 60 128.5t172 47.5h108v25q0 45 -25.5 62t-85.5 17q-48 0 -92.5 -12.5t-82.5 -34.5l-11 96q34 20 85.5 32.5t105.5 12.5q57 0 98.5 -10t68.5 -33t40 -60.5t13 -91.5v-335h-114v31q-52 -43 -142 -43zM249 82
q40 0 72.5 11.5t53.5 35.5v111h-104q-66 0 -93 -22t-27 -60q0 -40 26.5 -58t71.5 -18zM324 750l131 -170h-109l-75 84l-75 -84h-109l131 170h106z" />
    <glyph glyph-name="atilde" unicode="&#xe3;" horiz-adv-x="554" 
d="M233 -12q-41 0 -77 10.5t-63 31.5t-42.5 52.5t-15.5 73.5q0 81 60 128.5t172 47.5h108v25q0 45 -25.5 62t-85.5 17q-48 0 -92.5 -12.5t-82.5 -34.5l-11 96q34 20 85.5 32.5t105.5 12.5q57 0 98.5 -10t68.5 -33t40 -60.5t13 -91.5v-335h-114v31q-52 -43 -142 -43zM249 82
q40 0 72.5 11.5t53.5 35.5v111h-104q-66 0 -93 -22t-27 -60q0 -40 26.5 -58t71.5 -18zM440 734q0 -76 -27.5 -108.5t-72.5 -32.5q-38 0 -71 27q-18 14 -27.5 19t-17.5 5q-9 0 -13.5 -9t-4.5 -40h-99q0 76 27.5 108.5t72.5 32.5q38 0 71 -27q18 -14 27.5 -19t17.5 -5
q9 0 13.5 9t4.5 40h99z" />
    <glyph glyph-name="adieresis" unicode="&#xe4;" horiz-adv-x="554" 
d="M233 -12q-41 0 -77 10.5t-63 31.5t-42.5 52.5t-15.5 73.5q0 81 60 128.5t172 47.5h108v25q0 45 -25.5 62t-85.5 17q-48 0 -92.5 -12.5t-82.5 -34.5l-11 96q34 20 85.5 32.5t105.5 12.5q57 0 98.5 -10t68.5 -33t40 -60.5t13 -91.5v-335h-114v31q-52 -43 -142 -43zM249 82
q40 0 72.5 11.5t53.5 35.5v111h-104q-66 0 -93 -22t-27 -60q0 -40 26.5 -58t71.5 -18zM114 665q0 63 63 63t63 -63t-63 -63t-63 63zM316 665q0 63 63 63t63 -63t-63 -63t-63 63z" />
    <glyph glyph-name="aring" unicode="&#xe5;" horiz-adv-x="554" 
d="M233 -12q-41 0 -77 10.5t-63 31.5t-42.5 52.5t-15.5 73.5q0 81 60 128.5t172 47.5h108v25q0 45 -25.5 62t-85.5 17q-48 0 -92.5 -12.5t-82.5 -34.5l-11 96q34 20 85.5 32.5t105.5 12.5q57 0 98.5 -10t68.5 -33t40 -60.5t13 -91.5v-335h-114v31q-52 -43 -142 -43zM249 82
q40 0 72.5 11.5t53.5 35.5v111h-104q-66 0 -93 -22t-27 -60q0 -40 26.5 -58t71.5 -18zM161 665q0 22 8.5 42t23.5 34t35.5 22.5t44.5 8.5t44.5 -8.5t35.5 -22.5t23.5 -34t8.5 -42q0 -23 -8.5 -42.5t-23.5 -33.5t-35.5 -22.5t-44.5 -8.5t-44.5 8.5t-35.5 22.5t-23.5 33.5
t-8.5 42.5zM238 665q0 -17 10.5 -26.5t24.5 -9.5t24.5 9.5t10.5 26.5t-10.5 26.5t-24.5 9.5t-24.5 -9.5t-10.5 -26.5z" />
    <glyph glyph-name="ae" unicode="&#xe6;" horiz-adv-x="856" 
d="M472 214q8 -60 47 -96t109 -36q39 0 74.5 10t66.5 33l12 -98q-29 -19 -69.5 -29t-88.5 -10q-70 0 -121.5 24.5t-80.5 69.5q-28 -45 -76.5 -69.5t-111.5 -24.5q-44 0 -80.5 11t-62.5 32.5t-40.5 53t-14.5 73.5q0 81 56 129t168 48h104v15q0 43 -28.5 64.5t-89.5 21.5
q-38 0 -79 -11.5t-77 -32.5l-12 98q42 18 86.5 29t90.5 11q122 0 174 -79q26 36 67.5 57.5t92.5 21.5q57 0 101 -20.5t73 -57t44 -87t15 -110.5q0 -8 -0.5 -19t-1.5 -22h-347zM232 82q45 0 79.5 21t51.5 66v74h-100q-64 0 -89 -22.5t-25 -60.5q0 -40 23 -59t60 -19zM706 306
q-5 60 -34.5 96t-83.5 36t-82.5 -36t-33.5 -96h234z" />
    <glyph glyph-name="ccedilla" unicode="&#xe7;" horiz-adv-x="512" 
d="M203 -157q23 -10 61 -10q21 0 34 7.5t13 24.5q0 42 -100 42l45 86q-103 18 -159.5 87.5t-56.5 177.5q0 62 19.5 112t55.5 85.5t87 54.5t114 19q42 0 83 -7.5t73 -24.5l-10 -97q-29 19 -64.5 27t-75.5 8q-36 0 -66 -12t-52.5 -34.5t-35 -55.5t-12.5 -75q0 -84 48 -130.5
t129 -46.5q82 0 134 37l10 -98q-24 -14 -55 -22t-65 -10l-25 -46q32 -6 54 -28.5t22 -51.5q0 -47 -32 -73.5t-109 -26.5q-16 0 -32.5 1.5t-31.5 5.5v74z" />
    <glyph glyph-name="egrave" unicode="&#xe8;" horiz-adv-x="555" 
d="M159 214q5 -64 43.5 -98t113.5 -34q45 0 82.5 10t69.5 33l11 -99q-33 -20 -77.5 -29t-90.5 -9q-69 0 -120 20.5t-84.5 56.5t-50 86t-16.5 109q0 61 17 110.5t48 85t75 55t99 19.5q58 0 103 -20.5t75.5 -56.5t46.5 -86.5t16 -110.5q0 -11 -0.5 -21.5t-1.5 -20.5h-359z
M401 306q-6 63 -37 96.5t-85 33.5t-84.5 -33.5t-35.5 -96.5h242zM372 580h-109l-139 145v25h124z" />
    <glyph glyph-name="eacute" unicode="&#xe9;" horiz-adv-x="555" 
d="M159 214q5 -64 43.5 -98t113.5 -34q45 0 82.5 10t69.5 33l11 -99q-33 -20 -77.5 -29t-90.5 -9q-69 0 -120 20.5t-84.5 56.5t-50 86t-16.5 109q0 61 17 110.5t48 85t75 55t99 19.5q58 0 103 -20.5t75.5 -56.5t46.5 -86.5t16 -110.5q0 -11 -0.5 -21.5t-1.5 -20.5h-359z
M401 306q-6 63 -37 96.5t-85 33.5t-84.5 -33.5t-35.5 -96.5h242zM308 750h124v-25l-139 -145h-109z" />
    <glyph glyph-name="ecircumflex" unicode="&#xea;" horiz-adv-x="555" 
d="M159 214q5 -64 43.5 -98t113.5 -34q45 0 82.5 10t69.5 33l11 -99q-33 -20 -77.5 -29t-90.5 -9q-69 0 -120 20.5t-84.5 56.5t-50 86t-16.5 109q0 61 17 110.5t48 85t75 55t99 19.5q58 0 103 -20.5t75.5 -56.5t46.5 -86.5t16 -110.5q0 -11 -0.5 -21.5t-1.5 -20.5h-359z
M401 306q-6 63 -37 96.5t-85 33.5t-84.5 -33.5t-35.5 -96.5h242zM332 750l131 -170h-109l-75 84l-75 -84h-109l131 170h106z" />
    <glyph glyph-name="edieresis" unicode="&#xeb;" horiz-adv-x="555" 
d="M159 214q5 -64 43.5 -98t113.5 -34q45 0 82.5 10t69.5 33l11 -99q-33 -20 -77.5 -29t-90.5 -9q-69 0 -120 20.5t-84.5 56.5t-50 86t-16.5 109q0 61 17 110.5t48 85t75 55t99 19.5q58 0 103 -20.5t75.5 -56.5t46.5 -86.5t16 -110.5q0 -11 -0.5 -21.5t-1.5 -20.5h-359z
M401 306q-6 63 -37 96.5t-85 33.5t-84.5 -33.5t-35.5 -96.5h242zM115 665q0 63 63 63t63 -63t-63 -63t-63 63zM317 665q0 63 63 63t63 -63t-63 -63t-63 63z" />
    <glyph glyph-name="igrave" unicode="&#xec;" horiz-adv-x="264" 
d="M75 518h114v-518h-114v518zM204 580h-109l-139 145v25h124z" />
    <glyph glyph-name="iacute" unicode="&#xed;" horiz-adv-x="264" 
d="M75 518h114v-518h-114v518zM186 750h124v-25l-139 -145h-109z" />
    <glyph glyph-name="icircumflex" unicode="&#xee;" horiz-adv-x="264" 
d="M75 518h114v-518h-114v518zM186 750l131 -170h-109l-75 84l-75 -84h-109l131 170h106z" />
    <glyph glyph-name="idieresis" unicode="&#xef;" horiz-adv-x="264" 
d="M75 518h114v-518h-114v518zM-31 665q0 63 63 63t63 -63t-63 -63t-63 63zM171 665q0 63 63 63t63 -63t-63 -63t-63 63z" />
    <glyph glyph-name="eth" unicode="&#xf0;" horiz-adv-x="562" 
d="M492 691l24 -72l-84 -26q43 -48 66.5 -113.5t23.5 -156.5q0 -77 -16 -139t-47.5 -105.5t-78.5 -67t-110 -23.5q-49 0 -91 17t-73 49.5t-48.5 80.5t-17.5 110q0 61 16.5 108t46.5 79.5t72.5 49.5t94.5 17q36 0 68 -11t54 -31q-10 32 -28 58t-41 46l-189 -57l-23 72l121 36
q-37 14 -73 21l9 97q57 -14 105.5 -33t89.5 -45zM270 82q60 0 99 58.5t39 183.5v12q-28 32 -62 50.5t-76 18.5q-55 0 -85.5 -42.5t-30.5 -117.5t30.5 -119t85.5 -44z" />
    <glyph glyph-name="ntilde" unicode="&#xf1;" horiz-adv-x="593" 
d="M297 436q-35 0 -64.5 -13t-48.5 -34v-389h-114v518h114v-31q24 19 57.5 31t72.5 12q100 0 157 -60t57 -178v-292h-114v293q0 75 -28.5 109t-88.5 34zM466 734q0 -76 -27.5 -108.5t-72.5 -32.5q-38 0 -71 27q-18 14 -27.5 19t-17.5 5q-9 0 -13.5 -9t-4.5 -40h-99
q0 76 27.5 108.5t72.5 32.5q38 0 71 -27q18 -14 27.5 -19t17.5 -5q9 0 13.5 9t4.5 40h99z" />
    <glyph glyph-name="ograve" unicode="&#xf2;" horiz-adv-x="592" 
d="M40 259q0 58 18 107.5t51 86t80.5 57t106.5 20.5t106.5 -20.5t80.5 -57t51 -86t18 -107.5t-18 -107.5t-51 -86t-80.5 -57t-106.5 -20.5t-106.5 20.5t-80.5 57t-51 86t-18 107.5zM156 259q0 -81 37 -129t103 -48t103 48t37 129t-37 129t-103 48t-103 -48t-37 -129z
M385 580h-109l-139 145v25h124z" />
    <glyph glyph-name="oacute" unicode="&#xf3;" horiz-adv-x="592" 
d="M40 259q0 58 18 107.5t51 86t80.5 57t106.5 20.5t106.5 -20.5t80.5 -57t51 -86t18 -107.5t-18 -107.5t-51 -86t-80.5 -57t-106.5 -20.5t-106.5 20.5t-80.5 57t-51 86t-18 107.5zM156 259q0 -81 37 -129t103 -48t103 48t37 129t-37 129t-103 48t-103 -48t-37 -129z
M331 750h124v-25l-139 -145h-109z" />
    <glyph glyph-name="ocircumflex" unicode="&#xf4;" horiz-adv-x="592" 
d="M40 259q0 58 18 107.5t51 86t80.5 57t106.5 20.5t106.5 -20.5t80.5 -57t51 -86t18 -107.5t-18 -107.5t-51 -86t-80.5 -57t-106.5 -20.5t-106.5 20.5t-80.5 57t-51 86t-18 107.5zM156 259q0 -81 37 -129t103 -48t103 48t37 129t-37 129t-103 48t-103 -48t-37 -129z
M349 750l131 -170h-109l-75 84l-75 -84h-109l131 170h106z" />
    <glyph glyph-name="otilde" unicode="&#xf5;" horiz-adv-x="592" 
d="M40 259q0 58 18 107.5t51 86t80.5 57t106.5 20.5t106.5 -20.5t80.5 -57t51 -86t18 -107.5t-18 -107.5t-51 -86t-80.5 -57t-106.5 -20.5t-106.5 20.5t-80.5 57t-51 86t-18 107.5zM156 259q0 -81 37 -129t103 -48t103 48t37 129t-37 129t-103 48t-103 -48t-37 -129z
M462 734q0 -76 -27.5 -108.5t-72.5 -32.5q-38 0 -71 27q-18 14 -27.5 19t-17.5 5q-9 0 -13.5 -9t-4.5 -40h-99q0 76 27.5 108.5t72.5 32.5q38 0 71 -27q18 -14 27.5 -19t17.5 -5q9 0 13.5 9t4.5 40h99z" />
    <glyph glyph-name="odieresis" unicode="&#xf6;" horiz-adv-x="592" 
d="M40 259q0 58 18 107.5t51 86t80.5 57t106.5 20.5t106.5 -20.5t80.5 -57t51 -86t18 -107.5t-18 -107.5t-51 -86t-80.5 -57t-106.5 -20.5t-106.5 20.5t-80.5 57t-51 86t-18 107.5zM156 259q0 -81 37 -129t103 -48t103 48t37 129t-37 129t-103 48t-103 -48t-37 -129z
M132 665q0 63 63 63t63 -63t-63 -63t-63 63zM334 665q0 63 63 63t63 -63t-63 -63t-63 63z" />
    <glyph glyph-name="divide" unicode="&#xf7;" horiz-adv-x="620" 
d="M60 283v98h500v-98h-500zM239 134q0 71 71 71t71 -71t-71 -71t-71 71zM239 530q0 71 71 71t71 -71t-71 -71t-71 71z" />
    <glyph glyph-name="oslash" unicode="&#xf8;" horiz-adv-x="592" 
d="M40 259q0 58 18 107.5t51 86t80.5 57t106.5 20.5q54 0 98 -18l67 116h96l-92 -159q42 -37 64.5 -90.5t22.5 -119.5q0 -58 -18 -107.5t-51 -86t-80.5 -57t-106.5 -20.5q-53 0 -99 17l-66 -115h-96l91 158q-42 37 -64 91t-22 120zM296 82q66 0 103 48t37 129q0 34 -7 62.5
t-20 50.5l-163 -282q24 -8 50 -8zM156 259q0 -68 26 -114l163 282q-23 9 -49 9q-66 0 -103 -48t-37 -129z" />
    <glyph glyph-name="ugrave" unicode="&#xf9;" horiz-adv-x="593" 
d="M296 82q35 0 64.5 13t48.5 34v389h114v-518h-114v31q-24 -19 -57.5 -31t-72.5 -12q-100 0 -157 60t-57 178v292h114v-293q0 -75 28.5 -109t88.5 -34zM368 580h-109l-139 145v25h124z" />
    <glyph glyph-name="uacute" unicode="&#xfa;" horiz-adv-x="593" 
d="M296 82q35 0 64.5 13t48.5 34v389h114v-518h-114v31q-24 -19 -57.5 -31t-72.5 -12q-100 0 -157 60t-57 178v292h114v-293q0 -75 28.5 -109t88.5 -34zM339 750h124v-25l-139 -145h-109z" />
    <glyph glyph-name="ucircumflex" unicode="&#xfb;" horiz-adv-x="593" 
d="M296 82q35 0 64.5 13t48.5 34v389h114v-518h-114v31q-24 -19 -57.5 -31t-72.5 -12q-100 0 -157 60t-57 178v292h114v-293q0 -75 28.5 -109t88.5 -34zM347 750l131 -170h-109l-75 84l-75 -84h-109l131 170h106z" />
    <glyph glyph-name="udieresis" unicode="&#xfc;" horiz-adv-x="593" 
d="M296 82q35 0 64.5 13t48.5 34v389h114v-518h-114v31q-24 -19 -57.5 -31t-72.5 -12q-100 0 -157 60t-57 178v292h114v-293q0 -75 28.5 -109t88.5 -34zM130 665q0 63 63 63t63 -63t-63 -63t-63 63zM332 665q0 63 63 63t63 -63t-63 -63t-63 63z" />
    <glyph glyph-name="yacute" unicode="&#xfd;" horiz-adv-x="557" 
d="M418 518h124l-276 -711h-120l74 193l-205 518h124l141 -377zM329 750h124v-25l-139 -145h-109z" />
    <glyph glyph-name="thorn" unicode="&#xfe;" horiz-adv-x="590" 
d="M184 487q25 20 58.5 31.5t71.5 11.5q51 0 94 -19t74.5 -54.5t49.5 -85.5t18 -112t-18 -112t-49.5 -85.5t-74.5 -54.5t-94 -19q-38 0 -71.5 11.5t-58.5 31.5v-224h-114v923h114v-243zM184 129q20 -22 49.5 -34.5t62.5 -12.5q60 0 99 43.5t39 133.5t-39 133.5t-99 43.5
q-33 0 -62.5 -12.5t-49.5 -34.5v-260z" />
    <glyph glyph-name="ydieresis" unicode="&#xff;" horiz-adv-x="557" 
d="M418 518h124l-276 -711h-120l74 193l-205 518h124l141 -377zM107 665q0 63 63 63t63 -63t-63 -63t-63 63zM309 665q0 63 63 63t63 -63t-63 -63t-63 63z" />
    <glyph glyph-name="Amacron" unicode="&#x100;" horiz-adv-x="658" 
d="M653 0h-128l-58 169h-276l-58 -169h-128l258 700h132zM226 271h206l-103 300zM180 886h302v-93h-302v93z" />
    <glyph glyph-name="amacron" unicode="&#x101;" horiz-adv-x="554" 
d="M233 -12q-41 0 -77 10.5t-63 31.5t-42.5 52.5t-15.5 73.5q0 81 60 128.5t172 47.5h108v25q0 45 -25.5 62t-85.5 17q-48 0 -92.5 -12.5t-82.5 -34.5l-11 96q34 20 85.5 32.5t105.5 12.5q57 0 98.5 -10t68.5 -33t40 -60.5t13 -91.5v-335h-114v31q-52 -43 -142 -43zM249 82
q40 0 72.5 11.5t53.5 35.5v111h-104q-66 0 -93 -22t-27 -60q0 -40 26.5 -58t71.5 -18zM122 711h302v-93h-302v93z" />
    <glyph glyph-name="Abreve" unicode="&#x102;" horiz-adv-x="658" 
d="M653 0h-128l-58 169h-276l-58 -169h-128l258 700h132zM226 271h206l-103 300zM329 757q-34 0 -64 9.5t-52.5 30t-36 51.5t-14.5 73h101q4 -80 66 -80t66 80h101q-1 -42 -14.5 -73t-36 -51.5t-52.5 -30t-64 -9.5z" />
    <glyph glyph-name="abreve" unicode="&#x103;" horiz-adv-x="554" 
d="M233 -12q-41 0 -77 10.5t-63 31.5t-42.5 52.5t-15.5 73.5q0 81 60 128.5t172 47.5h108v25q0 45 -25.5 62t-85.5 17q-48 0 -92.5 -12.5t-82.5 -34.5l-11 96q34 20 85.5 32.5t105.5 12.5q57 0 98.5 -10t68.5 -33t40 -60.5t13 -91.5v-335h-114v31q-52 -43 -142 -43zM249 82
q40 0 72.5 11.5t53.5 35.5v111h-104q-66 0 -93 -22t-27 -60q0 -40 26.5 -58t71.5 -18zM271 582q-34 0 -64 9.5t-52.5 30t-36 51.5t-14.5 73h101q4 -80 66 -80t66 80h101q-1 -42 -14.5 -73t-36 -51.5t-52.5 -30t-64 -9.5z" />
    <glyph glyph-name="Aogonek" unicode="&#x104;" horiz-adv-x="658" 
d="M525 0l-58 169h-276l-58 -169h-128l258 700h132l258 -700q-35 -32 -49.5 -56.5t-14.5 -45.5q0 -29 35 -29q10 0 21.5 2t21.5 7v-90q-14 -4 -31.5 -5.5t-36.5 -1.5q-60 0 -89.5 26.5t-29.5 71.5q0 36 18.5 68t44.5 53h-18zM226 271h206l-103 300z" />
    <glyph glyph-name="aogonek" unicode="&#x105;" horiz-adv-x="554" 
d="M375 0v31q-52 -43 -142 -43q-41 0 -77 10.5t-63 31.5t-42.5 52.5t-15.5 73.5q0 81 60 128.5t172 47.5h108v25q0 45 -25.5 62t-85.5 17q-48 0 -92.5 -12.5t-82.5 -34.5l-11 96q34 20 85.5 32.5t105.5 12.5q57 0 98.5 -10t68.5 -33t40 -60.5t13 -91.5v-335
q-35 -32 -49.5 -56.5t-14.5 -45.5q0 -29 35 -29q10 0 21.5 2t21.5 7v-90q-14 -4 -31.5 -5.5t-36.5 -1.5q-60 0 -89.5 26.5t-29.5 71.5q0 36 18.5 68t44.5 53h-4zM249 82q40 0 72.5 11.5t53.5 35.5v111h-104q-66 0 -93 -22t-27 -60q0 -40 26.5 -58t71.5 -18z" />
    <glyph glyph-name="Cacute" unicode="&#x106;" horiz-adv-x="621" 
d="M45 350q0 79 25.5 145.5t72.5 114.5t113.5 75t148.5 27q46 0 91 -8t81 -25l-10 -112q-33 21 -73.5 31t-83.5 10q-59 0 -104.5 -19t-76.5 -53.5t-47.5 -82t-16.5 -103.5q0 -60 17 -107.5t49.5 -81t78.5 -51.5t103 -18q43 0 82.5 10.5t75.5 34.5l10 -115q-43 -20 -86.5 -27
t-85.5 -7q-83 0 -150.5 26.5t-115 74t-73 114t-25.5 147.5zM422 924h124v-25l-139 -145h-109z" />
    <glyph glyph-name="cacute" unicode="&#x107;" horiz-adv-x="512" 
d="M156 259q0 -84 48 -130.5t129 -46.5q82 0 134 37l10 -98q-29 -17 -68.5 -25t-81.5 -8q-67 0 -120 19t-90 54t-57 85.5t-20 112.5t19.5 112t55.5 85.5t87 54.5t114 19q42 0 83 -7.5t73 -24.5l-10 -97q-29 19 -64.5 27t-75.5 8q-36 0 -66 -12t-52.5 -34.5t-35 -55.5
t-12.5 -75zM326 750h124v-25l-139 -145h-109z" />
    <glyph glyph-name="Ccircumflex" unicode="&#x108;" horiz-adv-x="621" 
d="M45 350q0 79 25.5 145.5t72.5 114.5t113.5 75t148.5 27q46 0 91 -8t81 -25l-10 -112q-33 21 -73.5 31t-83.5 10q-59 0 -104.5 -19t-76.5 -53.5t-47.5 -82t-16.5 -103.5q0 -60 17 -107.5t49.5 -81t78.5 -51.5t103 -18q43 0 82.5 10.5t75.5 34.5l10 -115q-43 -20 -86.5 -27
t-85.5 -7q-83 0 -150.5 26.5t-115 74t-73 114t-25.5 147.5zM441 924l131 -170h-109l-75 84l-75 -84h-109l131 170h106z" />
    <glyph glyph-name="ccircumflex" unicode="&#x109;" horiz-adv-x="519" 
d="M156 259q0 -84 48 -130.5t129 -46.5q82 0 134 37l10 -98q-29 -17 -68.5 -25t-81.5 -8q-67 0 -120 19t-90 54t-57 85.5t-20 112.5t19.5 112t55.5 85.5t87 54.5t114 19q42 0 83 -7.5t73 -24.5l-10 -97q-29 19 -64.5 27t-75.5 8q-36 0 -66 -12t-52.5 -34.5t-35 -55.5
t-12.5 -75zM353 750l131 -170h-109l-75 84l-75 -84h-109l131 170h106z" />
    <glyph glyph-name="Cdotaccent" unicode="&#x10a;" horiz-adv-x="621" 
d="M45 350q0 79 25.5 145.5t72.5 114.5t113.5 75t148.5 27q46 0 91 -8t81 -25l-10 -112q-33 21 -73.5 31t-83.5 10q-59 0 -104.5 -19t-76.5 -53.5t-47.5 -82t-16.5 -103.5q0 -60 17 -107.5t49.5 -81t78.5 -51.5t103 -18q43 0 82.5 10.5t75.5 34.5l10 -115q-43 -20 -86.5 -27
t-85.5 -7q-83 0 -150.5 26.5t-115 74t-73 114t-25.5 147.5zM314 839q0 32 16 50t52 18t52 -18t16 -50t-16 -50t-52 -18t-52 18t-16 50z" />
    <glyph glyph-name="cdotaccent" unicode="&#x10b;" horiz-adv-x="512" 
d="M156 259q0 -84 48 -130.5t129 -46.5q82 0 134 37l10 -98q-29 -17 -68.5 -25t-81.5 -8q-67 0 -120 19t-90 54t-57 85.5t-20 112.5t19.5 112t55.5 85.5t87 54.5t114 19q42 0 83 -7.5t73 -24.5l-10 -97q-29 19 -64.5 27t-75.5 8q-36 0 -66 -12t-52.5 -34.5t-35 -55.5
t-12.5 -75zM237 665q0 32 16 50t52 18t52 -18t16 -50t-16 -50t-52 -18t-52 18t-16 50z" />
    <glyph glyph-name="Ccaron" unicode="&#x10c;" horiz-adv-x="621" 
d="M45 350q0 79 25.5 145.5t72.5 114.5t113.5 75t148.5 27q46 0 91 -8t81 -25l-10 -112q-33 21 -73.5 31t-83.5 10q-59 0 -104.5 -19t-76.5 -53.5t-47.5 -82t-16.5 -103.5q0 -60 17 -107.5t49.5 -81t78.5 -51.5t103 -18q43 0 82.5 10.5t75.5 34.5l10 -115q-43 -20 -86.5 -27
t-85.5 -7q-83 0 -150.5 26.5t-115 74t-73 114t-25.5 147.5zM335 754l-131 170h109l75 -84l75 84h109l-131 -170h-106z" />
    <glyph glyph-name="ccaron" unicode="&#x10d;" horiz-adv-x="519" 
d="M156 259q0 -84 48 -130.5t129 -46.5q82 0 134 37l10 -98q-29 -17 -68.5 -25t-81.5 -8q-67 0 -120 19t-90 54t-57 85.5t-20 112.5t19.5 112t55.5 85.5t87 54.5t114 19q42 0 83 -7.5t73 -24.5l-10 -97q-29 19 -64.5 27t-75.5 8q-36 0 -66 -12t-52.5 -34.5t-35 -55.5
t-12.5 -75zM247 580l-131 170h109l75 -84l75 84h109l-131 -170h-106z" />
    <glyph glyph-name="Dcaron" unicode="&#x10e;" horiz-adv-x="690" 
d="M525 350q0 131 -71 189.5t-204 58.5h-52v-496h52q133 0 204 58.5t71 189.5zM645 350q0 -87 -28.5 -153t-79.5 -109.5t-120.5 -65.5t-150.5 -22h-186v700h186q81 0 150.5 -22t120.5 -65.5t79.5 -109.5t28.5 -153zM222 754l-131 170h109l75 -84l75 84h109l-131 -170h-106z
" />
    <glyph glyph-name="dcaron" unicode="&#x10f;" horiz-adv-x="730" 
d="M406 31q-25 -20 -57.5 -31.5t-72.5 -11.5q-51 0 -94.5 19t-75 54.5t-49 85.5t-17.5 112t17.5 112t49 85.5t75 54.5t94.5 19q40 0 72.5 -11.5t57.5 -31.5v243h114v-730h-114v31zM406 389q-20 22 -49.5 34.5t-62.5 12.5q-60 0 -99 -43.5t-39 -133.5t39 -133.5t99 -43.5
q33 0 62.5 12.5t49.5 34.5v260zM568 672q0 71 71 71q35 0 53 -18t18 -60q0 -69 -31 -118.5t-85 -77.5l-31 47q23 18 37 40.5t18 46.5q-50 9 -50 69z" />
    <glyph glyph-name="Dcroat" unicode="&#x110;" horiz-adv-x="695" 
d="M650 350q0 -87 -28.5 -153t-79.5 -109.5t-120.5 -65.5t-150.5 -22h-186v309h-75v82h75v309h186q81 0 150.5 -22t120.5 -65.5t79.5 -109.5t28.5 -153zM530 350q0 131 -71 189.5t-204 58.5h-52v-207h146v-82h-146v-207h52q133 0 204 58.5t71 189.5z" />
    <glyph glyph-name="dcroat" unicode="&#x111;" horiz-adv-x="595" 
d="M406 31q-25 -20 -58.5 -31.5t-71.5 -11.5q-51 0 -94.5 19t-75 54.5t-49 85.5t-17.5 112t17.5 112t49 85.5t75 54.5t94.5 19q38 0 71.5 -11.5t58.5 -31.5v101h-182v78h182v64h114v-64h70v-78h-70v-588h-114v31zM406 389q-20 22 -49.5 34.5t-62.5 12.5q-60 0 -99 -43.5
t-39 -133.5t39 -133.5t99 -43.5q33 0 62.5 12.5t49.5 34.5v260z" />
    <glyph glyph-name="Emacron" unicode="&#x112;" horiz-adv-x="575" 
d="M80 700h446v-102h-328v-187h304v-102h-304v-207h337v-102h-455v700zM148 886h302v-93h-302v93z" />
    <glyph glyph-name="emacron" unicode="&#x113;" horiz-adv-x="555" 
d="M159 214q5 -64 43.5 -98t113.5 -34q45 0 82.5 10t69.5 33l11 -99q-33 -20 -77.5 -29t-90.5 -9q-69 0 -120 20.5t-84.5 56.5t-50 86t-16.5 109q0 61 17 110.5t48 85t75 55t99 19.5q58 0 103 -20.5t75.5 -56.5t46.5 -86.5t16 -110.5q0 -11 -0.5 -21.5t-1.5 -20.5h-359z
M401 306q-6 63 -37 96.5t-85 33.5t-84.5 -33.5t-35.5 -96.5h242zM126 711h302v-93h-302v93z" />
    <glyph glyph-name="Ebreve" unicode="&#x114;" horiz-adv-x="575" 
d="M80 700h446v-102h-328v-187h304v-102h-304v-207h337v-102h-455v700zM301 757q-34 0 -64 9.5t-52.5 30t-36 51.5t-14.5 73h101q4 -80 66 -80t66 80h101q-1 -42 -14.5 -73t-36 -51.5t-52.5 -30t-64 -9.5z" />
    <glyph glyph-name="ebreve" unicode="&#x115;" horiz-adv-x="555" 
d="M159 214q5 -64 43.5 -98t113.5 -34q45 0 82.5 10t69.5 33l11 -99q-33 -20 -77.5 -29t-90.5 -9q-69 0 -120 20.5t-84.5 56.5t-50 86t-16.5 109q0 61 17 110.5t48 85t75 55t99 19.5q58 0 103 -20.5t75.5 -56.5t46.5 -86.5t16 -110.5q0 -11 -0.5 -21.5t-1.5 -20.5h-359z
M401 306q-6 63 -37 96.5t-85 33.5t-84.5 -33.5t-35.5 -96.5h242zM278 582q-34 0 -64 9.5t-52.5 30t-36 51.5t-14.5 73h101q4 -80 66 -80t66 80h101q-1 -42 -14.5 -73t-36 -51.5t-52.5 -30t-64 -9.5z" />
    <glyph glyph-name="Edotaccent" unicode="&#x116;" horiz-adv-x="575" 
d="M80 700h446v-102h-328v-187h304v-102h-304v-207h337v-102h-455v700zM232 839q0 32 16 50t52 18t52 -18t16 -50t-16 -50t-52 -18t-52 18t-16 50z" />
    <glyph glyph-name="edotaccent" unicode="&#x117;" horiz-adv-x="555" 
d="M159 214q5 -64 43.5 -98t113.5 -34q45 0 82.5 10t69.5 33l11 -99q-33 -20 -77.5 -29t-90.5 -9q-69 0 -120 20.5t-84.5 56.5t-50 86t-16.5 109q0 61 17 110.5t48 85t75 55t99 19.5q58 0 103 -20.5t75.5 -56.5t46.5 -86.5t16 -110.5q0 -11 -0.5 -21.5t-1.5 -20.5h-359z
M401 306q-6 63 -37 96.5t-85 33.5t-84.5 -33.5t-35.5 -96.5h242zM206 665q0 32 16 50t52 18t52 -18t16 -50t-16 -50t-52 -18t-52 18t-16 50z" />
    <glyph glyph-name="Eogonek" unicode="&#x118;" horiz-adv-x="575" 
d="M80 700h446v-102h-328v-187h304v-102h-304v-207h337v-102h-29q-35 -32 -49.5 -56.5t-14.5 -45.5q0 -29 35 -29q10 0 21.5 2t21.5 7v-90q-14 -4 -31.5 -5.5t-36.5 -1.5q-60 0 -89.5 26.5t-29.5 71.5q0 36 18.5 68t44.5 53h-316v700z" />
    <glyph glyph-name="eogonek" unicode="&#x119;" horiz-adv-x="555" 
d="M159 214q5 -64 43.5 -98t113.5 -34q45 0 82.5 10t69.5 33l11 -99q-15 -10 -33 -16.5t-38 -10.5q-35 -32 -48.5 -56t-13.5 -45q0 -29 35 -29q10 0 21.5 2t21.5 7v-90q-14 -4 -31.5 -5.5t-36.5 -1.5q-60 0 -89.5 26.5t-29.5 71.5q0 32 14 60.5t36 49.5q-63 4 -109.5 25.5
t-77 57.5t-45.5 84t-15 104q0 61 17 110.5t48 85t75 55t99 19.5q58 0 103 -20.5t75.5 -56.5t46.5 -86.5t16 -110.5q0 -11 -0.5 -21.5t-1.5 -20.5h-359zM401 306q-6 63 -37 96.5t-85 33.5t-84.5 -33.5t-35.5 -96.5h242z" />
    <glyph glyph-name="Ecaron" unicode="&#x11a;" horiz-adv-x="575" 
d="M80 700h446v-102h-328v-187h304v-102h-304v-207h337v-102h-455v700zM249 754l-131 170h109l75 -84l75 84h109l-131 -170h-106z" />
    <glyph glyph-name="ecaron" unicode="&#x11b;" horiz-adv-x="555" 
d="M159 214q5 -64 43.5 -98t113.5 -34q45 0 82.5 10t69.5 33l11 -99q-33 -20 -77.5 -29t-90.5 -9q-69 0 -120 20.5t-84.5 56.5t-50 86t-16.5 109q0 61 17 110.5t48 85t75 55t99 19.5q58 0 103 -20.5t75.5 -56.5t46.5 -86.5t16 -110.5q0 -11 -0.5 -21.5t-1.5 -20.5h-359z
M401 306q-6 63 -37 96.5t-85 33.5t-84.5 -33.5t-35.5 -96.5h242zM226 580l-131 170h109l75 -84l75 84h109l-131 -170h-106z" />
    <glyph glyph-name="Gcircumflex" unicode="&#x11c;" horiz-adv-x="716" 
d="M45 350q0 77 26 143.5t74.5 115t117 76t153.5 27.5q58 0 113.5 -10t103.5 -30l-10 -116q-48 26 -99.5 39t-102.5 13q-59 0 -106 -19t-80.5 -53t-51.5 -81.5t-18 -104.5q0 -59 18 -106.5t52 -81t84 -52t113 -18.5q29 0 53.5 3t42.5 9v191h-184v102h302v-369
q-51 -21 -104 -30.5t-116 -9.5q-87 0 -157.5 27t-120 75t-76.5 114.5t-27 145.5zM447 924l131 -170h-109l-75 84l-75 -84h-109l131 170h106z" />
    <glyph glyph-name="gcircumflex" unicode="&#x11d;" horiz-adv-x="586" 
d="M156 264q0 -43 10.5 -75t28 -53.5t41.5 -32.5t51 -11q34 0 64.5 12t50.5 35v250q-20 23 -50.5 35t-64.5 12q-27 0 -51 -11t-41.5 -32.5t-28 -53.5t-10.5 -75zM40 264q0 61 18.5 110.5t50.5 84t74.5 53t90.5 18.5q39 0 72.5 -12t55.5 -31v31h114v-471q0 -131 -59.5 -189
t-189.5 -58q-48 0 -93.5 9.5t-83.5 29.5l7 104q74 -51 171 -51q63 0 98.5 29t35.5 98v22q-22 -19 -55.5 -31t-72.5 -12q-48 0 -90.5 18.5t-74.5 53t-50.5 83.5t-18.5 111zM355 750l131 -170h-109l-75 84l-75 -84h-109l131 170h106z" />
    <glyph glyph-name="Gbreve" unicode="&#x11e;" horiz-adv-x="716" 
d="M45 350q0 77 26 143.5t74.5 115t117 76t153.5 27.5q58 0 113.5 -10t103.5 -30l-10 -116q-48 26 -99.5 39t-102.5 13q-59 0 -106 -19t-80.5 -53t-51.5 -81.5t-18 -104.5q0 -59 18 -106.5t52 -81t84 -52t113 -18.5q29 0 53.5 3t42.5 9v191h-184v102h302v-369
q-51 -21 -104 -30.5t-116 -9.5q-87 0 -157.5 27t-120 75t-76.5 114.5t-27 145.5zM396 757q-34 0 -64 9.5t-52.5 30t-36 51.5t-14.5 73h101q4 -80 66 -80t66 80h101q-1 -42 -14.5 -73t-36 -51.5t-52.5 -30t-64 -9.5z" />
    <glyph glyph-name="gbreve" unicode="&#x11f;" horiz-adv-x="586" 
d="M156 264q0 -43 10.5 -75t28 -53.5t41.5 -32.5t51 -11q34 0 64.5 12t50.5 35v250q-20 23 -50.5 35t-64.5 12q-27 0 -51 -11t-41.5 -32.5t-28 -53.5t-10.5 -75zM40 264q0 61 18.5 110.5t50.5 84t74.5 53t90.5 18.5q39 0 72.5 -12t55.5 -31v31h114v-471q0 -131 -59.5 -189
t-189.5 -58q-48 0 -93.5 9.5t-83.5 29.5l7 104q74 -51 171 -51q63 0 98.5 29t35.5 98v22q-22 -19 -55.5 -31t-72.5 -12q-48 0 -90.5 18.5t-74.5 53t-50.5 83.5t-18.5 111zM302 582q-34 0 -64 9.5t-52.5 30t-36 51.5t-14.5 73h101q4 -80 66 -80t66 80h101q-1 -42 -14.5 -73
t-36 -51.5t-52.5 -30t-64 -9.5z" />
    <glyph glyph-name="Gdotaccent" unicode="&#x120;" horiz-adv-x="716" 
d="M45 350q0 77 26 143.5t74.5 115t117 76t153.5 27.5q58 0 113.5 -10t103.5 -30l-10 -116q-48 26 -99.5 39t-102.5 13q-59 0 -106 -19t-80.5 -53t-51.5 -81.5t-18 -104.5q0 -59 18 -106.5t52 -81t84 -52t113 -18.5q29 0 53.5 3t42.5 9v191h-184v102h302v-369
q-51 -21 -104 -30.5t-116 -9.5q-87 0 -157.5 27t-120 75t-76.5 114.5t-27 145.5zM328 839q0 32 16 50t52 18t52 -18t16 -50t-16 -50t-52 -18t-52 18t-16 50z" />
    <glyph glyph-name="gdotaccent" unicode="&#x121;" horiz-adv-x="586" 
d="M156 264q0 -43 10.5 -75t28 -53.5t41.5 -32.5t51 -11q34 0 64.5 12t50.5 35v250q-20 23 -50.5 35t-64.5 12q-27 0 -51 -11t-41.5 -32.5t-28 -53.5t-10.5 -75zM40 264q0 61 18.5 110.5t50.5 84t74.5 53t90.5 18.5q39 0 72.5 -12t55.5 -31v31h114v-471q0 -131 -59.5 -189
t-189.5 -58q-48 0 -93.5 9.5t-83.5 29.5l7 104q74 -51 171 -51q63 0 98.5 29t35.5 98v22q-22 -19 -55.5 -31t-72.5 -12q-48 0 -90.5 18.5t-74.5 53t-50.5 83.5t-18.5 111zM222 665q0 32 16 50t52 18t52 -18t16 -50t-16 -50t-52 -18t-52 18t-16 50z" />
    <glyph glyph-name="Gcommaaccent" unicode="&#x122;" horiz-adv-x="716" 
d="M45 350q0 77 26 143.5t74.5 115t117 76t153.5 27.5q58 0 113.5 -10t103.5 -30l-10 -116q-48 26 -99.5 39t-102.5 13q-59 0 -106 -19t-80.5 -53t-51.5 -81.5t-18 -104.5q0 -59 18 -106.5t52 -81t84 -52t113 -18.5q29 0 53.5 3t42.5 9v191h-184v102h302v-369
q-51 -21 -104 -30.5t-116 -9.5q-87 0 -157.5 27t-120 75t-76.5 114.5t-27 145.5zM362 -101q0 60 63 60q33 0 49 -16.5t16 -54.5q0 -48 -23 -91t-68 -70l-31 48q16 11 27.5 27.5t12.5 37.5q-22 3 -34 19t-12 40z" />
    <glyph glyph-name="gcommaaccent" unicode="&#x123;" horiz-adv-x="586" 
d="M156 264q0 -43 10.5 -75t28 -53.5t41.5 -32.5t51 -11q34 0 64.5 12t50.5 35v250q-20 23 -50.5 35t-64.5 12q-27 0 -51 -11t-41.5 -32.5t-28 -53.5t-10.5 -75zM40 264q0 61 18.5 110.5t50.5 84t74.5 53t90.5 18.5q39 0 72.5 -12t55.5 -31v31h114v-471q0 -131 -59.5 -189
t-189.5 -58q-48 0 -93.5 9.5t-83.5 29.5l7 104q74 -51 171 -51q63 0 98.5 29t35.5 98v22q-22 -19 -55.5 -31t-72.5 -12q-48 0 -90.5 18.5t-74.5 53t-50.5 83.5t-18.5 111zM346.018 637.987q0 -59.9922 -62.9922 -59.9922q-32.9961 0 -48.9941 16.498t-15.998 54.4932
q0 47.9941 22.9971 90.9893q22.9971 42.9941 67.9922 69.9912l30.9961 -47.9941q-15.998 -10.999 -27.4971 -27.4971q-11.498 -16.498 -12.498 -37.4951q21.9971 -3 33.9961 -18.998q11.998 -15.998 11.998 -39.9951z" />
    <glyph glyph-name="Hcircumflex" unicode="&#x124;" horiz-adv-x="712" 
d="M80 700h118v-276h316v276h118v-700h-118v322h-316v-322h-118v700zM409 924l131 -170h-109l-75 84l-75 -84h-109l131 170h106z" />
    <glyph glyph-name="hcircumflex" unicode="&#x125;" horiz-adv-x="593" 
d="M297 436q-35 0 -64.5 -13t-48.5 -34v-389h-114v730h114v-243q24 19 57.5 31t72.5 12q100 0 157 -60t57 -178v-292h-114v293q0 75 -28.5 109t-88.5 34zM260 924l131 -170h-109l-75 84l-75 -84h-109l131 170h106z" />
    <glyph glyph-name="Hbar" unicode="&#x126;" horiz-adv-x="722" 
d="M85 700h118v-90h316v90h118v-90h60v-82h-60v-528h-118v322h-316v-322h-118v528h-60v82h60v90zM519 424v104h-316v-104h316z" />
    <glyph glyph-name="hbar" unicode="&#x127;" horiz-adv-x="598" 
d="M302 436q-35 0 -64.5 -13t-48.5 -34v-389h-114v588h-70v78h70v64h114v-64h182v-78h-182v-101q24 19 57.5 31t72.5 12q100 0 157 -60t57 -178v-292h-114v293q0 75 -28.5 109t-88.5 34z" />
    <glyph glyph-name="Itilde" unicode="&#x128;" horiz-adv-x="288" 
d="M203 700v-700h-118v700h118zM312 909q0 -76 -27.5 -108.5t-72.5 -32.5q-38 0 -71 27q-18 14 -27.5 19t-17.5 5q-9 0 -13.5 -9t-4.5 -40h-99q0 76 27.5 108.5t72.5 32.5q38 0 71 -27q18 -14 27.5 -19t17.5 -5q9 0 13.5 9t4.5 40h99z" />
    <glyph glyph-name="itilde" unicode="&#x129;" horiz-adv-x="264" 
d="M75 518h114v-518h-114v518zM300 734q0 -76 -27.5 -108.5t-72.5 -32.5q-38 0 -71 27q-18 14 -27.5 19t-17.5 5q-9 0 -13.5 -9t-4.5 -40h-99q0 76 27.5 108.5t72.5 32.5q38 0 71 -27q18 -14 27.5 -19t17.5 -5q9 0 13.5 9t4.5 40h99z" />
    <glyph glyph-name="Imacron" unicode="&#x12a;" horiz-adv-x="288" 
d="M203 700v-700h-118v700h118zM-6 886h302v-93h-302v93z" />
    <glyph glyph-name="imacron" unicode="&#x12b;" horiz-adv-x="264" 
d="M75 518h114v-518h-114v518zM-18 711h302v-93h-302v93z" />
    <glyph glyph-name="Ibreve" unicode="&#x12c;" horiz-adv-x="288" 
d="M203 700v-700h-118v700h118zM145 757q-34 0 -64 9.5t-52.5 30t-36 51.5t-14.5 73h101q4 -80 66 -80t66 80h101q-1 -42 -14.5 -73t-36 -51.5t-52.5 -30t-64 -9.5z" />
    <glyph glyph-name="ibreve" unicode="&#x12d;" horiz-adv-x="264" 
d="M75 518h114v-518h-114v518zM133 582q-34 0 -64 9.5t-52.5 30t-36 51.5t-14.5 73h101q4 -80 66 -80t66 80h101q-1 -42 -14.5 -73t-36 -51.5t-52.5 -30t-64 -9.5z" />
    <glyph glyph-name="Iogonek" unicode="&#x12e;" horiz-adv-x="288" 
d="M85 0v700h118v-700q-35 -32 -49.5 -56.5t-14.5 -45.5q0 -29 35 -29q10 0 21.5 2t21.5 7v-90q-14 -4 -31.5 -5.5t-36.5 -1.5q-60 0 -89.5 26.5t-29.5 71.5q0 36 18.5 68t44.5 53h-8z" />
    <glyph glyph-name="iogonek" unicode="&#x12f;" horiz-adv-x="264" 
d="M75 518h114v-518q-35 -32 -49.5 -56.5t-14.5 -45.5q0 -29 35 -29q10 0 21.5 2t21.5 7v-90q-14 -4 -31.5 -5.5t-36.5 -1.5q-60 0 -89.5 26.5t-29.5 71.5q0 36 18.5 68t44.5 53h-4v518zM64 662q0 32 16 50t52 18t52 -18t16 -50t-16 -50t-52 -18t-52 18t-16 50z" />
    <glyph glyph-name="Idotaccent" unicode="&#x130;" horiz-adv-x="288" 
d="M203 700v-700h-118v700h118zM77 839q0 32 16 50t52 18t52 -18t16 -50t-16 -50t-52 -18t-52 18t-16 50z" />
    <glyph glyph-name="dotlessi" unicode="&#x131;" horiz-adv-x="264" 
d="M75 518h114v-518h-114v518z" />
    <glyph glyph-name="IJ" unicode="&#x132;" horiz-adv-x="698" 
d="M199 700v-700h-118v700h118zM500 700h118v-467q0 -124 -58 -184.5t-162 -60.5q-90 0 -157 35l10 117q64 -48 145 -48q50 0 77 32t27 109v467z" />
    <glyph glyph-name="ij" unicode="&#x133;" horiz-adv-x="506" 
d="M71 518h114v-518h-114v518zM60 662q0 32 16 50t52 18t52 -18t16 -50t-16 -50t-52 -18t-52 18t-16 50zM322 518h114v-529q0 -91 -41.5 -140t-136.5 -49q-18 0 -37.5 3t-38.5 9l10 96q28 -14 64 -14q35 0 50.5 22.5t15.5 68.5v533zM311 662q0 32 16 50t52 18t52 -18t16 -50
t-16 -50t-52 -18t-52 18t-16 50z" />
    <glyph glyph-name="Jcircumflex" unicode="&#x134;" horiz-adv-x="467" 
d="M269 700h118v-467q0 -124 -58 -184.5t-162 -60.5q-90 0 -157 35l10 117q64 -48 145 -48q50 0 77 32t27 109v467zM377 924l131 -170h-109l-75 84l-75 -84h-109l131 170h106z" />
    <glyph glyph-name="jcircumflex" unicode="&#x135;" horiz-adv-x="264" 
d="M80 518h114v-529q0 -91 -41.5 -140t-136.5 -49q-18 0 -37.5 3t-38.5 9l10 96q28 -14 64 -14q35 0 50.5 22.5t15.5 68.5v533zM192 750l131 -170h-109l-75 84l-75 -84h-109l131 170h106z" />
    <glyph glyph-name="Kcommaaccent" unicode="&#x136;" horiz-adv-x="637" 
d="M607 700l-282 -328l327 -372h-153l-301 351v-351h-118v700h118v-311l267 311h142zM270 -101q0 60 63 60q33 0 49 -16.5t16 -54.5q0 -48 -23 -91t-68 -70l-31 48q16 11 27.5 27.5t12.5 37.5q-22 3 -34 19t-12 40z" />
    <glyph glyph-name="kcommaaccent" unicode="&#x137;" horiz-adv-x="545" 
d="M184 730v-423l197 211h141l-216 -230l234 -288h-143l-213 269v-269h-114v730h114zM216 -101q0 60 63 60q33 0 49 -16.5t16 -54.5q0 -48 -23 -91t-68 -70l-31 48q16 11 27.5 27.5t12.5 37.5q-22 3 -34 19t-12 40z" />
    <glyph glyph-name="kgreenlandic" unicode="&#x138;" horiz-adv-x="545" 
d="M184 518v-228l197 228h141l-216 -248l234 -270h-142l-214 249v-249h-114v518h114z" />
    <glyph glyph-name="Lacute" unicode="&#x139;" horiz-adv-x="575" 
d="M80 700h118v-598h357v-102h-475v700zM182 924h124v-25l-139 -145h-109z" />
    <glyph glyph-name="lacute" unicode="&#x13a;" horiz-adv-x="264" 
d="M75 730h114v-730h-114v730zM182 924h124v-25l-139 -145h-109z" />
    <glyph glyph-name="Lcommaaccent" unicode="&#x13b;" horiz-adv-x="575" 
d="M80 700h118v-598h357v-102h-475v700zM263 -101q0 60 63 60q33 0 49 -16.5t16 -54.5q0 -48 -23 -91t-68 -70l-31 48q16 11 27.5 27.5t12.5 37.5q-22 3 -34 19t-12 40z" />
    <glyph glyph-name="lcommaaccent" unicode="&#x13c;" horiz-adv-x="268" 
d="M78 730h114v-730h-114v730zM71 -101q0 60 63 60q33 0 49 -16.5t16 -54.5q0 -48 -23 -91t-68 -70l-31 48q16 11 27.5 27.5t12.5 37.5q-22 3 -34 19t-12 40z" />
    <glyph glyph-name="Lcaron" unicode="&#x13d;" horiz-adv-x="575" 
d="M80 700h118v-598h357v-102h-475v700zM350 672q0 71 71 71q35 0 53 -18t18 -60q0 -69 -31 -118.5t-85 -77.5l-31 47q23 18 37 40.5t18 46.5q-50 9 -50 69z" />
    <glyph glyph-name="lcaron" unicode="&#x13e;" horiz-adv-x="399" 
d="M75 730h114v-730h-114v730zM237 672q0 71 71 71q35 0 53 -18t18 -60q0 -69 -31 -118.5t-85 -77.5l-31 47q23 18 37 40.5t18 46.5q-50 9 -50 69z" />
    <glyph glyph-name="Ldot" unicode="&#x13f;" horiz-adv-x="575" 
d="M80 700h118v-598h357v-102h-475v700zM349 380q0 32 16 50t52 18t52 -18t16 -50t-16 -50t-52 -18t-52 18t-16 50z" />
    <glyph glyph-name="ldot" unicode="&#x140;" horiz-adv-x="425" 
d="M75 730h114v-730h-114v730zM279 380q0 32 16 50t52 18t52 -18t16 -50t-16 -50t-52 -18t-52 18t-16 50z" />
    <glyph glyph-name="Lslash" unicode="&#x141;" horiz-adv-x="585" 
d="M90 700h118v-281l251 169l49 -71l-300 -203v-212h357v-102h-475v235l-49 -33l-46 74l95 64v360z" />
    <glyph glyph-name="lslash" unicode="&#x142;" horiz-adv-x="395" 
d="M129 730h114v-263l113 76l49 -69l-162 -109v-365h-114v288l-93 -63l-46 72l139 93v340z" />
    <glyph glyph-name="Nacute" unicode="&#x143;" horiz-adv-x="718" 
d="M80 700h128l316 -531v531h114v-700h-128l-316 531v-531h-114v700zM421 924h124v-25l-139 -145h-109z" />
    <glyph glyph-name="nacute" unicode="&#x144;" horiz-adv-x="593" 
d="M297 436q-35 0 -64.5 -13t-48.5 -34v-389h-114v518h114v-31q24 19 57.5 31t72.5 12q100 0 157 -60t57 -178v-292h-114v293q0 75 -28.5 109t-88.5 34zM331 750h124v-25l-139 -145h-109z" />
    <glyph glyph-name="Ncommaaccent" unicode="&#x145;" horiz-adv-x="718" 
d="M80 700h128l316 -531v531h114v-700h-128l-316 531v-531h-114v700zM307 -101q0 60 63 60q33 0 49 -16.5t16 -54.5q0 -48 -23 -91t-68 -70l-31 48q16 11 27.5 27.5t12.5 37.5q-22 3 -34 19t-12 40z" />
    <glyph glyph-name="ncommaaccent" unicode="&#x146;" horiz-adv-x="593" 
d="M297 436q-35 0 -64.5 -13t-48.5 -34v-389h-114v518h114v-31q24 19 57.5 31t72.5 12q100 0 157 -60t57 -178v-292h-114v293q0 75 -28.5 109t-88.5 34zM236 -101q0 60 63 60q33 0 49 -16.5t16 -54.5q0 -48 -23 -91t-68 -70l-31 48q16 11 27.5 27.5t12.5 37.5q-22 3 -34 19
t-12 40z" />
    <glyph glyph-name="Ncaron" unicode="&#x147;" horiz-adv-x="718" 
d="M80 700h128l316 -531v531h114v-700h-128l-316 531v-531h-114v700zM301 754l-131 170h109l75 -84l75 84h109l-131 -170h-106z" />
    <glyph glyph-name="ncaron" unicode="&#x148;" horiz-adv-x="593" 
d="M297 436q-35 0 -64.5 -13t-48.5 -34v-389h-114v518h114v-31q24 19 57.5 31t72.5 12q100 0 157 -60t57 -178v-292h-114v293q0 75 -28.5 109t-88.5 34zM243 580l-131 170h109l75 -84l75 84h109l-131 -170h-106z" />
    <glyph glyph-name="napostrophe" unicode="&#x149;" horiz-adv-x="667" 
d="M371 436q-35 0 -64.5 -13t-48.5 -34v-389h-114v518h114v-31q24 19 57.5 31t72.5 12q100 0 157 -60t57 -178v-292h-114v293q0 75 -28.5 109t-88.5 34zM26 672q0 71 71 71q35 0 53 -18t18 -60q0 -69 -31 -118.5t-85 -77.5l-31 47q23 18 37 40.5t18 46.5q-50 9 -50 69z" />
    <glyph glyph-name="Eng" unicode="&#x14a;" horiz-adv-x="718" 
d="M194 531v-531h-114v700h128l316 -523v523h114v-710q0 -98 -39.5 -144t-127.5 -46q-40 0 -79 11l9 95q13 -5 29.5 -8.5t32.5 -3.5q29 0 44 18.5t15 68.5z" />
    <glyph glyph-name="eng" unicode="&#x14b;" horiz-adv-x="593" 
d="M414 293q0 75 -28.5 109t-88.5 34q-35 0 -64.5 -13t-48.5 -34v-389h-114v518h114v-31q24 19 57.5 31t72.5 12q100 0 157 -60t57 -178v-302q0 -103 -40 -146.5t-127 -43.5q-40 0 -79 11l9 95q31 -12 67 -12q27 0 41.5 18t14.5 69v312z" />
    <glyph glyph-name="Omacron" unicode="&#x14c;" horiz-adv-x="726" 
d="M363 712q76 0 135 -28t99.5 -77t62 -115t21.5 -142t-21.5 -142t-62 -115t-99.5 -77t-135 -28t-135 28t-99.5 77t-62 115t-21.5 142t21.5 142t62 115t99.5 77t135 28zM363 92q93 0 145.5 68.5t52.5 189.5t-52.5 189.5t-145.5 68.5t-145.5 -68.5t-52.5 -189.5t52.5 -189.5
t145.5 -68.5zM212 886h302v-93h-302v93z" />
    <glyph glyph-name="omacron" unicode="&#x14d;" horiz-adv-x="592" 
d="M40 259q0 58 18 107.5t51 86t80.5 57t106.5 20.5t106.5 -20.5t80.5 -57t51 -86t18 -107.5t-18 -107.5t-51 -86t-80.5 -57t-106.5 -20.5t-106.5 20.5t-80.5 57t-51 86t-18 107.5zM156 259q0 -81 37 -129t103 -48t103 48t37 129t-37 129t-103 48t-103 -48t-37 -129z
M145 711h302v-93h-302v93z" />
    <glyph glyph-name="Obreve" unicode="&#x14e;" horiz-adv-x="726" 
d="M363 712q76 0 135 -28t99.5 -77t62 -115t21.5 -142t-21.5 -142t-62 -115t-99.5 -77t-135 -28t-135 28t-99.5 77t-62 115t-21.5 142t21.5 142t62 115t99.5 77t135 28zM363 92q93 0 145.5 68.5t52.5 189.5t-52.5 189.5t-145.5 68.5t-145.5 -68.5t-52.5 -189.5t52.5 -189.5
t145.5 -68.5zM363 757q-34 0 -64 9.5t-52.5 30t-36 51.5t-14.5 73h101q4 -80 66 -80t66 80h101q-1 -42 -14.5 -73t-36 -51.5t-52.5 -30t-64 -9.5z" />
    <glyph glyph-name="obreve" unicode="&#x14f;" horiz-adv-x="592" 
d="M40 259q0 58 18 107.5t51 86t80.5 57t106.5 20.5t106.5 -20.5t80.5 -57t51 -86t18 -107.5t-18 -107.5t-51 -86t-80.5 -57t-106.5 -20.5t-106.5 20.5t-80.5 57t-51 86t-18 107.5zM156 259q0 -81 37 -129t103 -48t103 48t37 129t-37 129t-103 48t-103 -48t-37 -129z
M296 582q-34 0 -64 9.5t-52.5 30t-36 51.5t-14.5 73h101q4 -80 66 -80t66 80h101q-1 -42 -14.5 -73t-36 -51.5t-52.5 -30t-64 -9.5z" />
    <glyph glyph-name="Ohungarumlaut" unicode="&#x150;" horiz-adv-x="726" 
d="M363 712q76 0 135 -28t99.5 -77t62 -115t21.5 -142t-21.5 -142t-62 -115t-99.5 -77t-135 -28t-135 28t-99.5 77t-62 115t-21.5 142t21.5 142t62 115t99.5 77t135 28zM363 92q93 0 145.5 68.5t52.5 189.5t-52.5 189.5t-145.5 68.5t-145.5 -68.5t-52.5 -189.5t52.5 -189.5
t145.5 -68.5zM319 924h124v-25l-139 -145h-109zM493 924h124v-25l-139 -145h-109z" />
    <glyph glyph-name="ohungarumlaut" unicode="&#x151;" horiz-adv-x="592" 
d="M40 259q0 58 18 107.5t51 86t80.5 57t106.5 20.5t106.5 -20.5t80.5 -57t51 -86t18 -107.5t-18 -107.5t-51 -86t-80.5 -57t-106.5 -20.5t-106.5 20.5t-80.5 57t-51 86t-18 107.5zM156 259q0 -81 37 -129t103 -48t103 48t37 129t-37 129t-103 48t-103 -48t-37 -129z
M262 750h124v-25l-139 -145h-109zM436 750h124v-25l-139 -145h-109z" />
    <glyph glyph-name="OE" unicode="&#x152;" horiz-adv-x="843" 
d="M45 350q0 77 24 141t70.5 110.5t114 72.5t154.5 26h387v-102h-281v-187h256v-102h-256v-207h289v-102h-395q-87 0 -154.5 26t-114 72.5t-70.5 110.5t-24 141zM165 350q0 -54 14 -98.5t43 -77t72 -51.5t102 -21v496q-59 -2 -102.5 -21t-72 -51.5t-42.5 -77t-14 -98.5z" />
    <glyph glyph-name="oe" unicode="&#x153;" horiz-adv-x="906" 
d="M521 214q8 -60 47 -96t103 -36q43 0 80 10t67 33l12 -98q-32 -20 -73 -29.5t-92 -9.5q-69 0 -121 25t-82 71q-59 -96 -183 -96q-59 0 -104 20.5t-75 56.5t-45 85.5t-15 108.5q0 58 15 108t45 86t75 56.5t104 20.5q60 0 106.5 -25t76.5 -71q27 42 71 69t104 27
q58 0 101.5 -20t72.5 -56t44 -86.5t15 -111.5v-20.5t-2 -21.5h-347zM757 306q-5 62 -35.5 97t-84.5 35t-82.5 -35t-33.5 -97h236zM156 259q0 -81 28.5 -129t94.5 -48q65 0 93.5 48t28.5 129t-28.5 129t-93.5 48q-66 0 -94.5 -48t-28.5 -129z" />
    <glyph glyph-name="Racute" unicode="&#x154;" horiz-adv-x="637" 
d="M576 491q0 -74 -40 -122t-105 -70l196 -299h-132l-179 282h-118v-282h-118v700h236q54 0 101.5 -13.5t83 -39.5t55.5 -65.5t20 -90.5zM456 491q0 57 -38.5 82t-110.5 25h-109v-214h109q72 0 110.5 26t38.5 81zM327 924h124v-25l-139 -145h-109z" />
    <glyph glyph-name="racute" unicode="&#x155;" horiz-adv-x="388" 
d="M371 416q-28 16 -71 16q-42 0 -71.5 -21.5t-44.5 -60.5v-350h-114v518h114v-42q20 24 53 39t75 15q19 0 37.5 -2.5t33.5 -7.5zM232 750h124v-25l-139 -145h-109z" />
    <glyph glyph-name="Rcommaaccent" unicode="&#x156;" horiz-adv-x="637" 
d="M576 491q0 -74 -40 -122t-105 -70l196 -299h-132l-179 282h-118v-282h-118v700h236q54 0 101.5 -13.5t83 -39.5t55.5 -65.5t20 -90.5zM456 491q0 57 -38.5 82t-110.5 25h-109v-214h109q72 0 110.5 26t38.5 81zM266 -101q0 60 63 60q33 0 49 -16.5t16 -54.5q0 -48 -23 -91
t-68 -70l-31 48q16 11 27.5 27.5t12.5 37.5q-22 3 -34 19t-12 40z" />
    <glyph glyph-name="rcommaaccent" unicode="&#x157;" horiz-adv-x="388" 
d="M371 416q-28 16 -71 16q-42 0 -71.5 -21.5t-44.5 -60.5v-350h-114v518h114v-42q20 24 53 39t75 15q19 0 37.5 -2.5t33.5 -7.5zM62 -101q0 60 63 60q33 0 49 -16.5t16 -54.5q0 -48 -23 -91t-68 -70l-31 48q16 11 27.5 27.5t12.5 37.5q-22 3 -34 19t-12 40z" />
    <glyph glyph-name="Rcaron" unicode="&#x158;" horiz-adv-x="637" 
d="M576 491q0 -74 -40 -122t-105 -70l196 -299h-132l-179 282h-118v-282h-118v700h236q54 0 101.5 -13.5t83 -39.5t55.5 -65.5t20 -90.5zM456 491q0 57 -38.5 82t-110.5 25h-109v-214h109q72 0 110.5 26t38.5 81zM229 754l-131 170h109l75 -84l75 84h109l-131 -170h-106z
" />
    <glyph glyph-name="rcaron" unicode="&#x159;" horiz-adv-x="388" 
d="M371 416q-28 16 -71 16q-42 0 -71.5 -21.5t-44.5 -60.5v-350h-114v518h114v-42q20 24 53 39t75 15q19 0 37.5 -2.5t33.5 -7.5zM164 580l-131 170h109l75 -84l75 84h109l-131 -170h-106z" />
    <glyph glyph-name="Sacute" unicode="&#x15a;" horiz-adv-x="553" 
d="M462 570q-39 20 -83 29t-86 9q-66 0 -94.5 -21t-28.5 -58t27 -65t95 -51q114 -39 165 -90.5t51 -132.5q0 -97 -62.5 -149.5t-194.5 -52.5q-51 0 -103 9.5t-94 32.5l10 114q42 -28 91 -40t103 -12q66 0 98 24t32 69q0 42 -29 70.5t-106 52.5q-106 34 -154.5 87.5
t-48.5 131.5q0 88 61.5 136.5t176.5 48.5q49 0 96 -8.5t87 -26.5zM326 924h124v-25l-139 -145h-109z" />
    <glyph glyph-name="sacute" unicode="&#x15b;" horiz-adv-x="475" 
d="M222 -12q-46 0 -92 10t-85 31l7 107q38 -27 81.5 -40.5t88.5 -13.5q92 0 92 62q0 26 -21.5 43t-81.5 34q-85 23 -124 62t-39 99q0 72 50.5 110t147.5 38q45 0 85.5 -8.5t72.5 -24.5l-10 -99q-29 18 -67 28t-80 10q-45 0 -63.5 -13t-18.5 -35q0 -12 4.5 -22.5t15.5 -20
t29 -17.5t46 -16q49 -14 82 -31t52.5 -37.5t27.5 -43.5t8 -50q0 -78 -51 -120t-157 -42zM269 750h124v-25l-139 -145h-109z" />
    <glyph glyph-name="Scircumflex" unicode="&#x15c;" horiz-adv-x="553" 
d="M462 570q-39 20 -83 29t-86 9q-66 0 -94.5 -21t-28.5 -58t27 -65t95 -51q114 -39 165 -90.5t51 -132.5q0 -97 -62.5 -149.5t-194.5 -52.5q-51 0 -103 9.5t-94 32.5l10 114q42 -28 91 -40t103 -12q66 0 98 24t32 69q0 42 -29 70.5t-106 52.5q-106 34 -154.5 87.5
t-48.5 131.5q0 88 61.5 136.5t176.5 48.5q49 0 96 -8.5t87 -26.5zM330 924l131 -170h-109l-75 84l-75 -84h-109l131 170h106z" />
    <glyph glyph-name="scircumflex" unicode="&#x15d;" horiz-adv-x="475" 
d="M222 -12q-46 0 -92 10t-85 31l7 107q38 -27 81.5 -40.5t88.5 -13.5q92 0 92 62q0 26 -21.5 43t-81.5 34q-85 23 -124 62t-39 99q0 72 50.5 110t147.5 38q45 0 85.5 -8.5t72.5 -24.5l-10 -99q-29 18 -67 28t-80 10q-45 0 -63.5 -13t-18.5 -35q0 -12 4.5 -22.5t15.5 -20
t29 -17.5t46 -16q49 -14 82 -31t52.5 -37.5t27.5 -43.5t8 -50q0 -78 -51 -120t-157 -42zM283 750l131 -170h-109l-75 84l-75 -84h-109l131 170h106z" />
    <glyph glyph-name="Scedilla" unicode="&#x15e;" horiz-adv-x="553" 
d="M185 -157q23 -10 61 -10q21 0 34 7.5t13 24.5q0 42 -100 42l42 81q-48 2 -95 11t-86 31l10 114q42 -28 91 -40t103 -12q66 0 98 24t32 69q0 42 -29 70.5t-106 52.5q-106 34 -154.5 87.5t-48.5 131.5q0 88 61.5 136.5t176.5 48.5q49 0 96 -8.5t87 -26.5l-9 -107
q-39 20 -83 29t-86 9q-66 0 -94.5 -21t-28.5 -58t27 -65t95 -51q114 -39 165 -90.5t51 -132.5q0 -78 -40 -127t-124 -66l-30 -55q32 -6 54 -28.5t22 -51.5q0 -47 -32 -73.5t-109 -26.5q-16 0 -32.5 1.5t-31.5 5.5v74z" />
    <glyph glyph-name="scedilla" unicode="&#x15f;" horiz-adv-x="475" 
d="M144 -157q23 -10 61 -10q21 0 34 7.5t13 24.5q0 42 -100 42l43 82q-40 2 -78.5 12t-71.5 28l7 107q38 -27 81.5 -40.5t88.5 -13.5q92 0 92 62q0 26 -21.5 43t-81.5 34q-85 23 -124 62t-39 99q0 72 50.5 110t147.5 38q45 0 85.5 -8.5t72.5 -24.5l-10 -99q-29 18 -67 28
t-80 10q-45 0 -63.5 -13t-18.5 -35q0 -12 4.5 -22.5t15.5 -20t29 -17.5t46 -16q49 -14 82 -31t52.5 -37.5t27.5 -43.5t8 -50q0 -62 -31.5 -101t-96.5 -53l-29 -54q32 -6 54 -28.5t22 -51.5q0 -47 -32 -73.5t-109 -26.5q-16 0 -32.5 1.5t-31.5 5.5v74z" />
    <glyph glyph-name="Scaron" unicode="&#x160;" horiz-adv-x="553" 
d="M462 570q-39 20 -83 29t-86 9q-66 0 -94.5 -21t-28.5 -58t27 -65t95 -51q114 -39 165 -90.5t51 -132.5q0 -97 -62.5 -149.5t-194.5 -52.5q-51 0 -103 9.5t-94 32.5l10 114q42 -28 91 -40t103 -12q66 0 98 24t32 69q0 42 -29 70.5t-106 52.5q-106 34 -154.5 87.5
t-48.5 131.5q0 88 61.5 136.5t176.5 48.5q49 0 96 -8.5t87 -26.5zM224 754l-131 170h109l75 -84l75 84h109l-131 -170h-106z" />
    <glyph glyph-name="scaron" unicode="&#x161;" horiz-adv-x="475" 
d="M222 -12q-46 0 -92 10t-85 31l7 107q38 -27 81.5 -40.5t88.5 -13.5q92 0 92 62q0 26 -21.5 43t-81.5 34q-85 23 -124 62t-39 99q0 72 50.5 110t147.5 38q45 0 85.5 -8.5t72.5 -24.5l-10 -99q-29 18 -67 28t-80 10q-45 0 -63.5 -13t-18.5 -35q0 -12 4.5 -22.5t15.5 -20
t29 -17.5t46 -16q49 -14 82 -31t52.5 -37.5t27.5 -43.5t8 -50q0 -78 -51 -120t-157 -42zM182 580l-131 170h109l75 -84l75 84h109l-131 -170h-106z" />
    <glyph glyph-name="Tcommaaccent" unicode="&#x162;" horiz-adv-x="554" 
d="M218 598h-208v102h534v-102h-208v-598l-32 -58q32 -6 54 -28.5t22 -51.5q0 -47 -32 -73.5t-109 -26.5q-16 0 -32.5 1.5t-31.5 5.5v74q23 -10 61 -10q21 0 34 7.5t13 24.5q0 42 -100 42l49 93h-14v598z" />
    <glyph glyph-name="tcommaaccent" unicode="&#x163;" horiz-adv-x="394" 
d="M147 -157q23 -10 61 -10q21 0 34 7.5t13 24.5q0 42 -100 42l48 92q-51 17 -76.5 58t-25.5 112v257h-86v92h86v155h114v-155h154v-92h-154v-225q0 -38 4.5 -61t14 -36t23.5 -17.5t34 -4.5q33 0 63 9l13 -95q-17 -4 -33 -5.5t-33 -2.5l-25 -46q32 -6 54 -28.5t22 -51.5
q0 -47 -32 -73.5t-109 -26.5q-16 0 -32.5 1.5t-31.5 5.5v74z" />
    <glyph glyph-name="Tcaron" unicode="&#x164;" horiz-adv-x="554" 
d="M218 598h-208v102h534v-102h-208v-598h-118v598zM224 754l-131 170h109l75 -84l75 84h109l-131 -170h-106z" />
    <glyph glyph-name="tcaron" unicode="&#x165;" horiz-adv-x="542" 
d="M15 518h86v155h114v-155h154v-92h-154v-225q0 -38 4.5 -61t14 -36t23.5 -17.5t34 -4.5q33 0 63 9l13 -95q-21 -5 -42 -6.5t-42 -1.5q-90 0 -136 43.5t-46 137.5v257h-86v92zM380 672q0 71 71 71q35 0 53 -18t18 -60q0 -69 -31 -118.5t-85 -77.5l-31 47q23 18 37 40.5
t18 46.5q-50 9 -50 69z" />
    <glyph glyph-name="Tbar" unicode="&#x166;" horiz-adv-x="554" 
d="M476 310h-140v-310h-118v310h-140v82h140v206h-208v102h534v-102h-208v-206h140v-82z" />
    <glyph glyph-name="tbar" unicode="&#x167;" horiz-adv-x="394" 
d="M15 518h86v155h114v-155h154v-92h-154v-90h131v-80h-131v-55q0 -38 4.5 -61t14 -36t23.5 -17.5t34 -4.5q33 0 63 9l13 -95q-21 -5 -42 -6.5t-42 -1.5q-90 0 -136 43.5t-46 137.5v87h-63v80h63v90h-86v92z" />
    <glyph glyph-name="Utilde" unicode="&#x168;" horiz-adv-x="726" 
d="M363 -12q-62 0 -114 17.5t-89.5 53.5t-58.5 90t-21 127v424h118v-417q0 -91 38.5 -141t126.5 -50t126.5 50t38.5 141v417h118v-424q0 -73 -21 -127t-58.5 -90t-89.5 -53.5t-114 -17.5zM529 909q0 -76 -27.5 -108.5t-72.5 -32.5q-38 0 -71 27q-18 14 -27.5 19t-17.5 5
q-9 0 -13.5 -9t-4.5 -40h-99q0 76 27.5 108.5t72.5 32.5q38 0 71 -27q18 -14 27.5 -19t17.5 -5q9 0 13.5 9t4.5 40h99z" />
    <glyph glyph-name="utilde" unicode="&#x169;" horiz-adv-x="593" 
d="M296 82q35 0 64.5 13t48.5 34v389h114v-518h-114v31q-24 -19 -57.5 -31t-72.5 -12q-100 0 -157 60t-57 178v292h114v-293q0 -75 28.5 -109t88.5 -34zM461 734q0 -76 -27.5 -108.5t-72.5 -32.5q-38 0 -71 27q-18 14 -27.5 19t-17.5 5q-9 0 -13.5 -9t-4.5 -40h-99
q0 76 27.5 108.5t72.5 32.5q38 0 71 -27q18 -14 27.5 -19t17.5 -5q9 0 13.5 9t4.5 40h99z" />
    <glyph glyph-name="Umacron" unicode="&#x16a;" horiz-adv-x="726" 
d="M363 -12q-62 0 -114 17.5t-89.5 53.5t-58.5 90t-21 127v424h118v-417q0 -91 38.5 -141t126.5 -50t126.5 50t38.5 141v417h118v-424q0 -73 -21 -127t-58.5 -90t-89.5 -53.5t-114 -17.5zM211 886h302v-93h-302v93z" />
    <glyph glyph-name="umacron" unicode="&#x16b;" horiz-adv-x="593" 
d="M296 82q35 0 64.5 13t48.5 34v389h114v-518h-114v31q-24 -19 -57.5 -31t-72.5 -12q-100 0 -157 60t-57 178v292h114v-293q0 -75 28.5 -109t88.5 -34zM143 711h302v-93h-302v93z" />
    <glyph glyph-name="Ubreve" unicode="&#x16c;" horiz-adv-x="726" 
d="M363 -12q-62 0 -114 17.5t-89.5 53.5t-58.5 90t-21 127v424h118v-417q0 -91 38.5 -141t126.5 -50t126.5 50t38.5 141v417h118v-424q0 -73 -21 -127t-58.5 -90t-89.5 -53.5t-114 -17.5zM363 757q-34 0 -64 9.5t-52.5 30t-36 51.5t-14.5 73h101q4 -80 66 -80t66 80h101
q-1 -42 -14.5 -73t-36 -51.5t-52.5 -30t-64 -9.5z" />
    <glyph glyph-name="ubreve" unicode="&#x16d;" horiz-adv-x="593" 
d="M296 82q35 0 64.5 13t48.5 34v389h114v-518h-114v31q-24 -19 -57.5 -31t-72.5 -12q-100 0 -157 60t-57 178v292h114v-293q0 -75 28.5 -109t88.5 -34zM294 582q-34 0 -64 9.5t-52.5 30t-36 51.5t-14.5 73h101q4 -80 66 -80t66 80h101q-1 -42 -14.5 -73t-36 -51.5
t-52.5 -30t-64 -9.5z" />
    <glyph glyph-name="Uring" unicode="&#x16e;" horiz-adv-x="726" 
d="M363 -12q-62 0 -114 17.5t-89.5 53.5t-58.5 90t-21 127v424h118v-417q0 -91 38.5 -141t126.5 -50t126.5 50t38.5 141v417h118v-424q0 -73 -21 -127t-58.5 -90t-89.5 -53.5t-114 -17.5zM251 839q0 22 8.5 42t23.5 34t35.5 22.5t44.5 8.5t44.5 -8.5t35.5 -22.5t23.5 -34
t8.5 -42q0 -23 -8.5 -42.5t-23.5 -33.5t-35.5 -22.5t-44.5 -8.5t-44.5 8.5t-35.5 22.5t-23.5 33.5t-8.5 42.5zM328 839q0 -17 10.5 -26.5t24.5 -9.5t24.5 9.5t10.5 26.5t-10.5 26.5t-24.5 9.5t-24.5 -9.5t-10.5 -26.5z" />
    <glyph glyph-name="uring" unicode="&#x16f;" horiz-adv-x="593" 
d="M296 82q35 0 64.5 13t48.5 34v389h114v-518h-114v31q-24 -19 -57.5 -31t-72.5 -12q-100 0 -157 60t-57 178v292h114v-293q0 -75 28.5 -109t88.5 -34zM182 665q0 22 8.5 42t23.5 34t35.5 22.5t44.5 8.5t44.5 -8.5t35.5 -22.5t23.5 -34t8.5 -42q0 -23 -8.5 -42.5
t-23.5 -33.5t-35.5 -22.5t-44.5 -8.5t-44.5 8.5t-35.5 22.5t-23.5 33.5t-8.5 42.5zM259 665q0 -17 10.5 -26.5t24.5 -9.5t24.5 9.5t10.5 26.5t-10.5 26.5t-24.5 9.5t-24.5 -9.5t-10.5 -26.5z" />
    <glyph glyph-name="Uhungarumlaut" unicode="&#x170;" horiz-adv-x="726" 
d="M363 -12q-62 0 -114 17.5t-89.5 53.5t-58.5 90t-21 127v424h118v-417q0 -91 38.5 -141t126.5 -50t126.5 50t38.5 141v417h118v-424q0 -73 -21 -127t-58.5 -90t-89.5 -53.5t-114 -17.5zM324 924h124v-25l-139 -145h-109zM498 924h124v-25l-139 -145h-109z" />
    <glyph glyph-name="uhungarumlaut" unicode="&#x171;" horiz-adv-x="593" 
d="M296 82q35 0 64.5 13t48.5 34v389h114v-518h-114v31q-24 -19 -57.5 -31t-72.5 -12q-100 0 -157 60t-57 178v292h114v-293q0 -75 28.5 -109t88.5 -34zM267 750h124v-25l-139 -145h-109zM441 750h124v-25l-139 -145h-109z" />
    <glyph glyph-name="Uogonek" unicode="&#x172;" horiz-adv-x="726" 
d="M646 276q0 -62 -15.5 -110.5t-43 -83.5t-66.5 -56.5t-86 -30.5q-32 -30 -45 -53.5t-13 -43.5q0 -29 35 -29q10 0 21.5 2t21.5 7v-90q-14 -4 -31.5 -5.5t-36.5 -1.5q-60 0 -89.5 26.5t-29.5 71.5q0 32 14.5 61.5t37.5 50.5q-53 5 -97.5 25.5t-76 55.5t-49 86t-17.5 118
v424h118v-417q0 -91 38.5 -141t126.5 -50t126.5 50t38.5 141v417h118v-424z" />
    <glyph glyph-name="uogonek" unicode="&#x173;" horiz-adv-x="593" 
d="M409 0v31q-24 -19 -57.5 -31t-72.5 -12q-100 0 -157 60t-57 178v292h114v-293q0 -75 28.5 -109t88.5 -34q35 0 64.5 13t48.5 34v389h114v-518q-35 -32 -49.5 -56.5t-14.5 -45.5q0 -29 35 -29q10 0 21.5 2t21.5 7v-90q-14 -4 -31.5 -5.5t-36.5 -1.5q-60 0 -89.5 26.5
t-29.5 71.5q0 36 18.5 68t44.5 53h-4z" />
    <glyph glyph-name="Wcircumflex" unicode="&#x174;" horiz-adv-x="1006" 
d="M704 139l157 561h125l-206 -700h-153l-124 544l-124 -544h-153l-206 700h125l157 -561l129 561h144zM556 924l131 -170h-109l-75 84l-75 -84h-109l131 170h106z" />
    <glyph glyph-name="wcircumflex" unicode="&#x175;" horiz-adv-x="798" 
d="M467 518l89 -389l106 389h121l-157 -518h-139l-88 394l-88 -394h-139l-157 518h121l106 -389l89 389h136zM452 750l131 -170h-109l-75 84l-75 -84h-109l131 170h106z" />
    <glyph glyph-name="Ycircumflex" unicode="&#x176;" horiz-adv-x="686" 
d="M343 388l193 312h130l-264 -423v-277h-118v277l-264 423h130zM396 924l131 -170h-109l-75 84l-75 -84h-109l131 170h106z" />
    <glyph glyph-name="ycircumflex" unicode="&#x177;" horiz-adv-x="557" 
d="M418 518h124l-276 -711h-120l74 193l-205 518h124l141 -377zM333 750l131 -170h-109l-75 84l-75 -84h-109l131 170h106z" />
    <glyph glyph-name="Ydieresis" unicode="&#x178;" horiz-adv-x="686" 
d="M343 388l193 312h130l-264 -423v-277h-118v277l-264 423h130zM179 839q0 63 63 63t63 -63t-63 -63t-63 63zM381 839q0 63 63 63t63 -63t-63 -63t-63 63z" />
    <glyph glyph-name="Zacute" unicode="&#x179;" horiz-adv-x="572" 
d="M390 598h-345v102h487v-103l-361 -495h371v-102h-512v103zM332 924h124v-25l-139 -145h-109z" />
    <glyph glyph-name="zacute" unicode="&#x17a;" horiz-adv-x="479" 
d="M25 94l282 332h-269v92h406v-93l-281 -333h291v-92h-429v94zM279 750h124v-25l-139 -145h-109z" />
    <glyph glyph-name="Zdotaccent" unicode="&#x17b;" horiz-adv-x="572" 
d="M390 598h-345v102h487v-103l-361 -495h371v-102h-512v103zM213 839q0 32 16 50t52 18t52 -18t16 -50t-16 -50t-52 -18t-52 18t-16 50z" />
    <glyph glyph-name="zdotaccent" unicode="&#x17c;" horiz-adv-x="479" 
d="M25 94l282 332h-269v92h406v-93l-281 -333h291v-92h-429v94zM166 665q0 32 16 50t52 18t52 -18t16 -50t-16 -50t-52 -18t-52 18t-16 50z" />
    <glyph glyph-name="Zcaron" unicode="&#x17d;" horiz-adv-x="572" 
d="M390 598h-345v102h487v-103l-361 -495h371v-102h-512v103zM233 754l-131 170h109l75 -84l75 84h109l-131 -170h-106z" />
    <glyph glyph-name="zcaron" unicode="&#x17e;" horiz-adv-x="479" 
d="M25 94l282 332h-269v92h406v-93l-281 -333h291v-92h-429v94zM186 580l-131 170h109l75 -84l75 84h109l-131 -170h-106z" />
    <glyph glyph-name="longs" unicode="&#x17f;" horiz-adv-x="360" 
d="M10 518h95v27q0 91 45.5 138t133.5 47q25 0 47 -2.5t39 -7.5l-11 -95q-25 11 -61 11q-38 0 -58.5 -21t-20.5 -78v-537h-114v426h-95v92z" />
    <glyph glyph-name="uni0191" unicode="&#x191;" horiz-adv-x="546" 
d="M198 -15q0 -89 -44.5 -137t-134.5 -48q-25 0 -47 2.5t-39 7.5l11 104q25 -11 61 -11q38 0 56.5 19t18.5 71v707h446v-102h-328v-185h304v-102h-304v-326z" />
    <glyph glyph-name="florin" unicode="&#x192;" horiz-adv-x="360" 
d="M219 -15q0 -91 -45.5 -138t-133.5 -47q-25 0 -47 2.5t-39 7.5l11 95q25 -11 61 -11q38 0 58.5 21t20.5 78v433h-95v92h95v27q0 91 45.5 138t133.5 47q25 0 47 -2.5t39 -7.5l-11 -95q-25 11 -61 11q-38 0 -58.5 -21t-20.5 -78v-19h135v-92h-135v-441z" />
    <glyph glyph-name="Aringacute" unicode="&#x1fa;" horiz-adv-x="658" 
d="M250 663q-33 31 -33 77q0 22 8.5 42t23.5 34t35.5 22.5t44.5 8.5t44.5 -8.5t35.5 -22.5t23.5 -34t8.5 -42q0 -46 -33 -77l245 -663h-128l-58 169h-276l-58 -169h-128zM226 271h206l-103 300zM294 740q0 -17 10.5 -26.5t24.5 -9.5t24.5 9.5t10.5 26.5t-10.5 26.5
t-24.5 9.5t-24.5 -9.5t-10.5 -26.5zM335 980h114v-19l-83 -95h-99z" />
    <glyph glyph-name="aringacute" unicode="&#x1fb;" horiz-adv-x="554" 
d="M161 665q0 22 8.5 42t23.5 34t35.5 22.5t44.5 8.5t44.5 -8.5t35.5 -22.5t23.5 -34t8.5 -42q0 -23 -8.5 -42.5t-23.5 -33.5t-35.5 -22.5t-44.5 -8.5t-44.5 8.5t-35.5 22.5t-23.5 33.5t-8.5 42.5zM238 665q0 -17 10.5 -26.5t24.5 -9.5t24.5 9.5t10.5 26.5t-10.5 26.5
t-24.5 9.5t-24.5 -9.5t-10.5 -26.5zM279 905h114v-19l-83 -95h-99zM233 -12q-41 0 -77 10.5t-63 31.5t-42.5 52.5t-15.5 73.5q0 81 60 128.5t172 47.5h108v25q0 45 -25.5 62t-85.5 17q-48 0 -92.5 -12.5t-82.5 -34.5l-11 96q34 20 85.5 32.5t105.5 12.5q57 0 98.5 -10
t68.5 -33t40 -60.5t13 -91.5v-335h-114v31q-52 -43 -142 -43zM249 82q40 0 72.5 11.5t53.5 35.5v111h-104q-66 0 -93 -22t-27 -60q0 -40 26.5 -58t71.5 -18z" />
    <glyph glyph-name="AEacute" unicode="&#x1fc;" horiz-adv-x="861" 
d="M142 0h-137l331 700h477v-102h-281v-187h256v-102h-256v-207h289v-102h-407v172h-194zM414 599l-148 -325h148v325zM612 924h124v-25l-139 -145h-109z" />
    <glyph glyph-name="aeacute" unicode="&#x1fd;" horiz-adv-x="856" 
d="M472 214q8 -60 47 -96t109 -36q39 0 74.5 10t66.5 33l12 -98q-29 -19 -69.5 -29t-88.5 -10q-70 0 -121.5 24.5t-80.5 69.5q-28 -45 -76.5 -69.5t-111.5 -24.5q-44 0 -80.5 11t-62.5 32.5t-40.5 53t-14.5 73.5q0 81 56 129t168 48h104v15q0 43 -28.5 64.5t-89.5 21.5
q-38 0 -79 -11.5t-77 -32.5l-12 98q42 18 86.5 29t90.5 11q122 0 174 -79q26 36 67.5 57.5t92.5 21.5q57 0 101 -20.5t73 -57t44 -87t15 -110.5q0 -8 -0.5 -19t-1.5 -22h-347zM232 82q45 0 79.5 21t51.5 66v74h-100q-64 0 -89 -22.5t-25 -60.5q0 -40 23 -59t60 -19zM706 306
q-5 60 -34.5 96t-83.5 36t-82.5 -36t-33.5 -96h234zM472 750h124v-25l-139 -145h-109z" />
    <glyph glyph-name="Oslashacute" unicode="&#x1fe;" horiz-adv-x="726" 
d="M363 712q42 0 77.5 -8.5t67.5 -24.5l69 121h101l-99 -173q50 -50 76 -121t26 -156q0 -76 -21.5 -142t-62 -115t-99.5 -77t-135 -28q-38 0 -71 7t-62 20l-65 -115h-101l93 163q-55 49 -83.5 123.5t-28.5 163.5q0 76 21.5 142t62 115t99.5 77t135 28zM363 608
q-93 0 -145.5 -68.5t-52.5 -189.5q0 -118 50 -185l239 420q-40 23 -91 23zM363 92q93 0 145.5 68.5t52.5 189.5q0 53 -11 96.5t-31 75.5l-236 -414q18 -8 37.5 -12t42.5 -4zM387 924h124v-25l-139 -145h-109z" />
    <glyph glyph-name="oslashacute" unicode="&#x1ff;" horiz-adv-x="592" 
d="M40 259q0 58 18 107.5t51 86t80.5 57t106.5 20.5q54 0 98 -18l67 116h96l-92 -159q42 -37 64.5 -90.5t22.5 -119.5q0 -58 -18 -107.5t-51 -86t-80.5 -57t-106.5 -20.5q-53 0 -99 17l-66 -115h-96l91 158q-42 37 -64 91t-22 120zM296 82q66 0 103 48t37 129q0 34 -7 62.5
t-20 50.5l-163 -282q24 -8 50 -8zM156 259q0 -68 26 -114l163 282q-23 9 -49 9q-66 0 -103 -48t-37 -129zM331 750h124v-25l-139 -145h-109z" />
    <glyph glyph-name="Scommaaccent" unicode="&#x218;" horiz-adv-x="553" 
d="M462 570q-39 20 -83 29t-86 9q-66 0 -94.5 -21t-28.5 -58t27 -65t95 -51q114 -39 165 -90.5t51 -132.5q0 -97 -62.5 -149.5t-194.5 -52.5q-51 0 -103 9.5t-94 32.5l10 114q42 -28 91 -40t103 -12q66 0 98 24t32 69q0 42 -29 70.5t-106 52.5q-106 34 -154.5 87.5
t-48.5 131.5q0 88 61.5 136.5t176.5 48.5q49 0 96 -8.5t87 -26.5zM223 -101q0 60 63 60q33 0 49 -16.5t16 -54.5q0 -48 -23 -91t-68 -70l-31 48q16 11 27.5 27.5t12.5 37.5q-22 3 -34 19t-12 40z" />
    <glyph glyph-name="scommaaccent" unicode="&#x219;" horiz-adv-x="475" 
d="M222 -12q-46 0 -92 10t-85 31l7 107q38 -27 81.5 -40.5t88.5 -13.5q92 0 92 62q0 26 -21.5 43t-81.5 34q-85 23 -124 62t-39 99q0 72 50.5 110t147.5 38q45 0 85.5 -8.5t72.5 -24.5l-10 -99q-29 18 -67 28t-80 10q-45 0 -63.5 -13t-18.5 -35q0 -12 4.5 -22.5t15.5 -20
t29 -17.5t46 -16q49 -14 82 -31t52.5 -37.5t27.5 -43.5t8 -50q0 -78 -51 -120t-157 -42zM181 -101q0 60 63 60q33 0 49 -16.5t16 -54.5q0 -48 -23 -91t-68 -70l-31 48q16 11 27.5 27.5t12.5 37.5q-22 3 -34 19t-12 40z" />
    <glyph glyph-name="uni021A" unicode="&#x21a;" horiz-adv-x="554" 
d="M218 598h-208v102h534v-102h-208v-598h-118v598zM213 -101q0 60 63 60q33 0 49 -16.5t16 -54.5q0 -48 -23 -91t-68 -70l-31 48q16 11 27.5 27.5t12.5 37.5q-22 3 -34 19t-12 40z" />
    <glyph glyph-name="uni021B" unicode="&#x21b;" horiz-adv-x="394" 
d="M15 518h86v155h114v-155h154v-92h-154v-225q0 -38 4.5 -61t14 -36t23.5 -17.5t34 -4.5q33 0 63 9l13 -95q-21 -5 -42 -6.5t-42 -1.5q-90 0 -136 43.5t-46 137.5v257h-86v92zM171 -101q0 60 63 60q33 0 49 -16.5t16 -54.5q0 -48 -23 -91t-68 -70l-31 48q16 11 27.5 27.5
t12.5 37.5q-22 3 -34 19t-12 40z" />
    <glyph glyph-name="dotlessj" unicode="&#x237;" horiz-adv-x="264" 
d="M80 518h114v-529q0 -91 -41.5 -140t-136.5 -49q-18 0 -37.5 3t-38.5 9l10 96q28 -14 64 -14q35 0 50.5 22.5t15.5 68.5v533z" />
    <glyph glyph-name="apostrophe" unicode="&#x2bc;" horiz-adv-x="420" 
d="M139 679q0 71 71 71q35 0 53 -18t18 -60q0 -69 -31 -118.5t-85 -77.5l-31 47q23 18 37 40.5t18 46.5q-50 9 -50 69z" />
    <glyph glyph-name="circumflex" unicode="&#x2c6;" horiz-adv-x="420" 
d="M263 730l131 -170h-109l-75 84l-75 -84h-109l131 170h106z" />
    <glyph glyph-name="caron" unicode="&#x2c7;" horiz-adv-x="420" 
d="M157 560l-131 170h109l75 -84l75 84h109l-131 -170h-106z" />
    <glyph glyph-name="uni02C9" unicode="&#x2c9;" horiz-adv-x="420" 
d="M59 692h302v-93h-302v93z" />
    <glyph glyph-name="breve" unicode="&#x2d8;" horiz-adv-x="420" 
d="M210 562q-34 0 -64 9.5t-52.5 30t-36 51.5t-14.5 73h101q4 -80 66 -80t66 80h101q-1 -42 -14.5 -73t-36 -51.5t-52.5 -30t-64 -9.5z" />
    <glyph glyph-name="dotaccent" unicode="&#x2d9;" horiz-adv-x="420" 
d="M142 645q0 32 16 50t52 18t52 -18t16 -50t-16 -50t-52 -18t-52 18t-16 50z" />
    <glyph glyph-name="ring" unicode="&#x2da;" horiz-adv-x="420" 
d="M98 645q0 22 8.5 42t23.5 34t35.5 22.5t44.5 8.5t44.5 -8.5t35.5 -22.5t23.5 -34t8.5 -42q0 -23 -8.5 -42.5t-23.5 -33.5t-35.5 -22.5t-44.5 -8.5t-44.5 8.5t-35.5 22.5t-23.5 33.5t-8.5 42.5zM175 645q0 -17 10.5 -26.5t24.5 -9.5t24.5 9.5t10.5 26.5t-10.5 26.5
t-24.5 9.5t-24.5 -9.5t-10.5 -26.5z" />
    <glyph glyph-name="ogonek" unicode="&#x2db;" horiz-adv-x="420" 
d="M295 0q-35 -32 -49.5 -56.5t-14.5 -45.5q0 -29 35 -29q10 0 21.5 2t21.5 7v-90q-14 -4 -31.5 -5.5t-36.5 -1.5q-60 0 -89.5 26.5t-29.5 71.5q0 36 18.5 68t44.5 53h110z" />
    <glyph glyph-name="tilde" unicode="&#x2dc;" horiz-adv-x="420" 
d="M376 715q0 -76 -27.5 -108.5t-72.5 -32.5q-38 0 -71 27q-18 14 -27.5 19t-17.5 5q-9 0 -13.5 -9t-4.5 -40h-99q0 76 27.5 108.5t72.5 32.5q38 0 71 -27q18 -14 27.5 -19t17.5 -5q9 0 13.5 9t4.5 40h99z" />
    <glyph glyph-name="hungarumlaut" unicode="&#x2dd;" horiz-adv-x="420" 
d="M108 730h124v-25l-139 -145h-109zM282 730h124v-25l-139 -145h-109z" />
    <glyph glyph-name="gravecomb" unicode="&#x300;" horiz-adv-x="0" 
d="M-159 560h-109l-139 145v25h124z" />
    <glyph glyph-name="acutecomb" unicode="&#x301;" horiz-adv-x="0" 
d="M-223 730h124v-25l-139 -145h-109z" />
    <glyph glyph-name="uni0302" unicode="&#x302;" horiz-adv-x="0" 
d="M-199 730l131 -170h-109l-75 84l-75 -84h-109l131 170h106z" />
    <glyph glyph-name="tildecomb" unicode="&#x303;" horiz-adv-x="0" 
d="M-88 715q0 -76 -27.5 -108.5t-72.5 -32.5q-38 0 -71 27q-18 14 -27.5 19t-17.5 5q-9 0 -13.5 -9t-4.5 -40h-99q0 76 27.5 108.5t72.5 32.5q38 0 71 -27q18 -14 27.5 -19t17.5 -5q9 0 13.5 9t4.5 40h99z" />
    <glyph glyph-name="uni0304" unicode="&#x304;" horiz-adv-x="0" 
d="M-406 692h302v-93h-302v93z" />
    <glyph glyph-name="uni0306" unicode="&#x306;" horiz-adv-x="0" 
d="M-252 562q-34 0 -64 9.5t-52.5 30t-36 51.5t-14.5 73h101q4 -80 66 -80t66 80h101q-1 -42 -14.5 -73t-36 -51.5t-52.5 -30t-64 -9.5z" />
    <glyph glyph-name="uni0307" unicode="&#x307;" horiz-adv-x="0" 
d="M-320 645q0 32 16 50t52 18t52 -18t16 -50t-16 -50t-52 -18t-52 18t-16 50z" />
    <glyph glyph-name="uni0308" unicode="&#x308;" horiz-adv-x="0" 
d="M-416 645q0 63 63 63t63 -63t-63 -63t-63 63zM-214 645q0 63 63 63t63 -63t-63 -63t-63 63z" />
    <glyph glyph-name="uni030A" unicode="&#x30a;" horiz-adv-x="0" 
d="M-364 645q0 22 8.5 42t23.5 34t35.5 22.5t44.5 8.5t44.5 -8.5t35.5 -22.5t23.5 -34t8.5 -42q0 -23 -8.5 -42.5t-23.5 -33.5t-35.5 -22.5t-44.5 -8.5t-44.5 8.5t-35.5 22.5t-23.5 33.5t-8.5 42.5zM-287 645q0 -17 10.5 -26.5t24.5 -9.5t24.5 9.5t10.5 26.5t-10.5 26.5
t-24.5 9.5t-24.5 -9.5t-10.5 -26.5z" />
    <glyph glyph-name="uni030C" unicode="&#x30c;" horiz-adv-x="0" 
d="M-305 560l-131 170h109l75 -84l75 84h109l-131 -170h-106z" />
    <glyph glyph-name="uni0327" unicode="&#x327;" horiz-adv-x="0" 
d="M-352 -157q23 -10 61 -10q21 0 34 7.5t13 24.5q0 42 -100 42l49 93h104l-32 -58q32 -6 54 -28.5t22 -51.5q0 -47 -32 -73.5t-109 -26.5q-16 0 -32.5 1.5t-31.5 5.5v74z" />
    <glyph glyph-name="tonos" unicode="&#x384;" horiz-adv-x="420" 
d="M199 730h121v-24l-96 -154h-100z" />
    <glyph glyph-name="dieresistonos" unicode="&#x385;" horiz-adv-x="420" 
d="M247 762h124v-25l-114 -113h-108zM46 550q0 63 63 63t63 -63t-63 -63t-63 63zM248 550q0 63 63 63t63 -63t-63 -63t-63 63z" />
    <glyph glyph-name="Alphatonos" unicode="&#x386;" horiz-adv-x="658" 
d="M653 0h-128l-58 169h-276l-58 -169h-128l258 700h132zM226 271h206l-103 300zM85 701h121v-24l-96 -154h-100z" />
    <glyph glyph-name="anoteleia" unicode="&#x387;" horiz-adv-x="295" 
d="M76 332q0 71 71 71t71 -71t-71 -71t-71 71z" />
    <glyph glyph-name="Epsilontonos" unicode="&#x388;" horiz-adv-x="689" 
d="M194 700h446v-102h-328v-187h304v-102h-304v-207h337v-102h-455v700zM46 701h121v-24l-96 -154h-100z" />
    <glyph glyph-name="Etatonos" unicode="&#x389;" horiz-adv-x="826" 
d="M194 700h118v-276h316v276h118v-700h-118v322h-316v-322h-118v700zM46 701h121v-24l-96 -154h-100z" />
    <glyph glyph-name="Iotatonos" unicode="&#x38a;" horiz-adv-x="397" 
d="M312 700v-700h-118v700h118zM46 701h121v-24l-96 -154h-100z" />
    <glyph glyph-name="Omicrontonos" unicode="&#x38c;" horiz-adv-x="782" 
d="M419 712q76 0 135 -28t99.5 -77t62 -115t21.5 -142t-21.5 -142t-62 -115t-99.5 -77t-135 -28t-135 28t-99.5 77t-62 115t-21.5 142t21.5 142t62 115t99.5 77t135 28zM419 92q93 0 145.5 68.5t52.5 189.5t-52.5 189.5t-145.5 68.5t-145.5 -68.5t-52.5 -189.5t52.5 -189.5
t145.5 -68.5zM46 701h121v-24l-96 -154h-100z" />
    <glyph glyph-name="Upsilontonos" unicode="&#x38e;" horiz-adv-x="845" 
d="M502 388l193 312h130l-264 -423v-277h-118v277l-264 423h130zM46 701h121v-24l-96 -154h-100z" />
    <glyph glyph-name="Omegatonos" unicode="&#x38f;" horiz-adv-x="789" 
d="M426 712q75 0 134 -26t100 -71.5t62.5 -108.5t21.5 -137q0 -87 -31.5 -154.5t-82.5 -112.5h105v-102h-263v96q76 52 114 118.5t38 154.5q0 55 -14.5 99.5t-41 75.5t-63 47.5t-79.5 16.5q-44 0 -80 -16.5t-62.5 -47.5t-41 -75.5t-14.5 -99.5q0 -88 38 -154.5t114 -118.5
v-96h-263v102h105q-51 45 -82.5 112.5t-31.5 154.5q0 74 21.5 137t62.5 108.5t100 71.5t134 26zM46 701h121v-24l-96 -154h-100z" />
    <glyph glyph-name="iotadieresistonos" unicode="&#x390;" horiz-adv-x="343" 
d="M70 518h114v-317q0 -38 4.5 -61t13.5 -36t23.5 -17.5t34.5 -4.5q37 0 60 10l13 -95q-38 -9 -85 -9q-88 0 -133 43t-45 137v350zM165 833h124v-25l-114 -113h-108zM-36 621q0 63 63 63t63 -63t-63 -63t-63 63zM166 621q0 63 63 63t63 -63t-63 -63t-63 63z" />
    <glyph glyph-name="Alpha" unicode="&#x391;" horiz-adv-x="658" 
d="M653 0h-128l-58 169h-276l-58 -169h-128l258 700h132zM226 271h206l-103 300z" />
    <glyph glyph-name="Beta" unicode="&#x392;" horiz-adv-x="635" 
d="M80 700h244q57 0 101.5 -14.5t74.5 -40t46 -60.5t16 -75q0 -45 -20 -80.5t-58 -57.5q55 -24 83 -66.5t28 -99.5q0 -99 -66.5 -152.5t-191.5 -53.5h-257v700zM477 207q0 52 -37.5 78t-118.5 26h-123v-209h123q81 0 118.5 25.5t37.5 79.5zM444 506q0 48 -35 70t-101 22
h-110v-185h110q66 0 101 22.5t35 70.5z" />
    <glyph glyph-name="Gamma" unicode="&#x393;" horiz-adv-x="538" 
d="M80 700h448v-102h-330v-598h-118v700z" />
    <glyph glyph-name="uni0394" unicode="&#x394;" horiz-adv-x="664" 
d="M5 0l270 700h114l270 -700h-654zM491 102l-159 438l-159 -438h318z" />
    <glyph glyph-name="Epsilon" unicode="&#x395;" horiz-adv-x="575" 
d="M80 700h446v-102h-328v-187h304v-102h-304v-207h337v-102h-455v700z" />
    <glyph glyph-name="Zeta" unicode="&#x396;" horiz-adv-x="572" 
d="M390 598h-345v102h487v-103l-361 -495h371v-102h-512v103z" />
    <glyph glyph-name="Eta" unicode="&#x397;" horiz-adv-x="712" 
d="M80 700h118v-276h316v276h118v-700h-118v322h-316v-322h-118v700z" />
    <glyph glyph-name="Theta" unicode="&#x398;" horiz-adv-x="726" 
d="M238 301v98h254v-98h-254zM363 712q76 0 135 -28t99.5 -77t62 -115t21.5 -142t-21.5 -142t-62 -115t-99.5 -77t-135 -28t-135 28t-99.5 77t-62 115t-21.5 142t21.5 142t62 115t99.5 77t135 28zM363 92q93 0 145.5 68.5t52.5 189.5t-52.5 189.5t-145.5 68.5t-145.5 -68.5
t-52.5 -189.5t52.5 -189.5t145.5 -68.5z" />
    <glyph glyph-name="Iota" unicode="&#x399;" horiz-adv-x="288" 
d="M203 700v-700h-118v700h118z" />
    <glyph glyph-name="Kappa" unicode="&#x39a;" horiz-adv-x="637" 
d="M607 700l-282 -328l327 -372h-153l-301 351v-351h-118v700h118v-311l267 311h142z" />
    <glyph glyph-name="Lambda" unicode="&#x39b;" horiz-adv-x="658" 
d="M653 0h-128l-196 571l-196 -571h-128l258 700h132z" />
    <glyph glyph-name="Mu" unicode="&#x39c;" horiz-adv-x="856" 
d="M383 224l-189 293v-517h-114v700h119l229 -356l229 356h119v-700h-114v517l-189 -293h-90z" />
    <glyph glyph-name="Nu" unicode="&#x39d;" horiz-adv-x="718" 
d="M80 700h128l316 -531v531h114v-700h-128l-316 531v-531h-114v700z" />
    <glyph glyph-name="Xi" unicode="&#x39e;" horiz-adv-x="568" 
d="M533 598h-498v102h498v-102zM483 302h-398v102h398v-102zM533 0h-498v102h498v-102z" />
    <glyph glyph-name="Omicron" unicode="&#x39f;" horiz-adv-x="726" 
d="M363 712q76 0 135 -28t99.5 -77t62 -115t21.5 -142t-21.5 -142t-62 -115t-99.5 -77t-135 -28t-135 28t-99.5 77t-62 115t-21.5 142t21.5 142t62 115t99.5 77t135 28zM363 92q93 0 145.5 68.5t52.5 189.5t-52.5 189.5t-145.5 68.5t-145.5 -68.5t-52.5 -189.5t52.5 -189.5
t145.5 -68.5z" />
    <glyph glyph-name="Pi" unicode="&#x3a0;" horiz-adv-x="708" 
d="M80 700h548v-700h-118v598h-312v-598h-118v700z" />
    <glyph glyph-name="Rho" unicode="&#x3a1;" horiz-adv-x="603" 
d="M568 478q0 -54 -19 -95.5t-54.5 -70t-84.5 -43t-109 -14.5h-103v-255h-118v700h221q60 0 109 -14.5t84.5 -43t54.5 -69.5t19 -95zM448 478q0 64 -39.5 92t-117.5 28h-93v-241h93q78 0 117.5 28.5t39.5 92.5z" />
    <glyph glyph-name="Sigma" unicode="&#x3a3;" horiz-adv-x="546" 
d="M229 371l-199 226v103h496v-102h-348l181 -206v-43l-184 -247h351v-102h-496v104z" />
    <glyph glyph-name="Tau" unicode="&#x3a4;" horiz-adv-x="554" 
d="M218 598h-208v102h534v-102h-208v-598h-118v598z" />
    <glyph glyph-name="Upsilon" unicode="&#x3a5;" horiz-adv-x="686" 
d="M343 388l193 312h130l-264 -423v-277h-118v277l-264 423h130z" />
    <glyph glyph-name="Phi" unicode="&#x3a6;" horiz-adv-x="728" 
d="M305 0v102q-57 6 -106 25.5t-84 51.5t-55 75t-20 96t20 96t55 75t84 51.5t106 25.5v102h118v-102q57 -6 106 -25.5t84 -51.5t55 -75t20 -96t-20 -96t-55 -75t-84 -51.5t-106 -25.5v-102h-118zM423 206q69 6 107 42t38 102t-38 102t-107 42v-288zM305 494q-69 -6 -107 -42
t-38 -102t38 -102t107 -42v288z" />
    <glyph glyph-name="Chi" unicode="&#x3a7;" horiz-adv-x="677" 
d="M24 700h136l178 -251l179 251h136l-246 -344l255 -356h-136l-188 263l-187 -263h-136l254 356z" />
    <glyph glyph-name="Psi" unicode="&#x3a8;" horiz-adv-x="706" 
d="M294 0v152q-102 15 -163 85t-61 198v265h118v-260q0 -74 24.5 -120.5t81.5 -61.5v442h118v-442q57 15 81.5 61.5t24.5 120.5v260h118v-265q0 -64 -16 -113.5t-45.5 -84.5t-70.5 -56.5t-92 -28.5v-152h-118z" />
    <glyph glyph-name="uni03A9" unicode="&#x3a9;" horiz-adv-x="726" 
d="M363 712q75 0 134 -26t100 -71.5t62.5 -108.5t21.5 -137q0 -87 -31.5 -154.5t-82.5 -112.5h105v-102h-263v96q76 52 114 118.5t38 154.5q0 55 -14.5 99.5t-41 75.5t-63 47.5t-79.5 16.5q-44 0 -80 -16.5t-62.5 -47.5t-41 -75.5t-14.5 -99.5q0 -88 38 -154.5t114 -118.5
v-96h-263v102h105q-51 45 -82.5 112.5t-31.5 154.5q0 74 21.5 137t62.5 108.5t100 71.5t134 26z" />
    <glyph glyph-name="Iotadieresis" unicode="&#x3aa;" horiz-adv-x="288" 
d="M203 700v-700h-118v700h118zM-19 839q0 63 63 63t63 -63t-63 -63t-63 63zM183 839q0 63 63 63t63 -63t-63 -63t-63 63z" />
    <glyph glyph-name="Upsilondieresis" unicode="&#x3ab;" horiz-adv-x="686" 
d="M343 388l193 312h130l-264 -423v-277h-118v277l-264 423h130zM179 839q0 63 63 63t63 -63t-63 -63t-63 63zM381 839q0 63 63 63t63 -63t-63 -63t-63 63z" />
    <glyph glyph-name="alphatonos" unicode="&#x3ac;" horiz-adv-x="625" 
d="M498 227q10 -43 19 -69.5t17 -41t15.5 -19.5t15.5 -5h35v-92h-48q-39 0 -67.5 23.5t-48.5 83.5q-26 -63 -76 -91t-105 -28q-48 0 -87.5 17.5t-68 51.5t-44 85t-15.5 117q0 60 16 110t45 86t69.5 55.5t90.5 19.5q63 0 109 -31.5t75 -100.5l37 120h111zM255 82
q21 0 39.5 7.5t36 27t34.5 52.5t34 84q-12 59 -28 95t-34.5 55.5t-38 26t-37.5 6.5q-24 0 -43.5 -13t-34 -36.5t-22 -56t-7.5 -71.5q0 -91 29 -134t72 -43zM363 750h124v-25l-139 -145h-109z" />
    <glyph glyph-name="epsilontonos" unicode="&#x3ad;" horiz-adv-x="497" 
d="M378 227q-112 0 -162 -22t-50 -61q0 -26 30 -44t99 -18q43 0 85 8t77 24l10 -100q-42 -14 -87 -20t-90 -6q-111 0 -175.5 39t-64.5 113q0 43 27 77t81 52q-46 13 -74.5 42t-28.5 77q0 69 56 105.5t171 36.5q45 0 89.5 -5.5t83.5 -16.5l-9 -102q-35 15 -78 22.5t-83 7.5
q-66 0 -90 -12t-24 -37q0 -37 55 -52.5t152 -15.5v-92zM294 750h124v-25l-139 -145h-109z" />
    <glyph glyph-name="etatonos" unicode="&#x3ae;" horiz-adv-x="593" 
d="M297 436q-35 0 -64.5 -13t-48.5 -34v-389h-114v518h114v-31q24 19 57.5 31t72.5 12q100 0 157 -60t57 -178v-485h-114v486q0 75 -28.5 109t-88.5 34zM331 750h124v-25l-139 -145h-109z" />
    <glyph glyph-name="iotatonos" unicode="&#x3af;" horiz-adv-x="343" 
d="M70 518h114v-317q0 -38 4.5 -61t13.5 -36t23.5 -17.5t34.5 -4.5q37 0 60 10l13 -95q-38 -9 -85 -9q-88 0 -133 43t-45 137v350zM184 750h124v-25l-139 -145h-109z" />
    <glyph glyph-name="upsilondieresistonos" unicode="&#x3b0;" horiz-adv-x="563" 
d="M82 361q0 42 -8.5 57t-27.5 15q-13 0 -28 -5l-8 90q13 4 28 5.5t29 1.5q67 0 98 -37t31 -122v-138q0 -75 23 -110.5t80 -35.5q108 0 108 145q0 69 -18 143.5t-56 147.5h125q32 -66 48.5 -140t16.5 -149q0 -117 -57.5 -179t-166.5 -62q-106 0 -161.5 57.5t-55.5 168.5v147
zM291 833h124v-25l-114 -113h-108zM90 621q0 63 63 63t63 -63t-63 -63t-63 63zM292 621q0 63 63 63t63 -63t-63 -63t-63 63z" />
    <glyph glyph-name="alpha" unicode="&#x3b1;" horiz-adv-x="625" 
d="M498 227q10 -43 19 -69.5t17 -41t15.5 -19.5t15.5 -5h35v-92h-48q-39 0 -67.5 23.5t-48.5 83.5q-26 -63 -76 -91t-105 -28q-48 0 -87.5 17.5t-68 51.5t-44 85t-15.5 117q0 60 16 110t45 86t69.5 55.5t90.5 19.5q63 0 109 -31.5t75 -100.5l37 120h111zM255 82
q21 0 39.5 7.5t36 27t34.5 52.5t34 84q-12 59 -28 95t-34.5 55.5t-38 26t-37.5 6.5q-24 0 -43.5 -13t-34 -36.5t-22 -56t-7.5 -71.5q0 -91 29 -134t72 -43z" />
    <glyph glyph-name="beta" unicode="&#x3b2;" horiz-adv-x="559" 
d="M239 425q72 0 105 32.5t33 95.5q0 42 -25.5 68.5t-73.5 26.5t-71 -36t-23 -99v-706h-114v691q0 121 53.5 182.5t156.5 61.5q49 0 88 -14.5t67 -39.5t43 -59t15 -74q0 -61 -26.5 -104t-75.5 -68q60 -27 94 -78t34 -117q0 -44 -13 -81t-38.5 -63.5t-64 -41t-88.5 -14.5
q-28 0 -60 6.5t-58 20.5l10 106q22 -18 49 -28.5t54 -10.5q48 0 70.5 25.5t22.5 80.5q0 29 -11.5 55.5t-33 46.5t-52 31.5t-67.5 11.5v92z" />
    <glyph glyph-name="gamma" unicode="&#x3b3;" horiz-adv-x="578" 
d="M289 -200q-30 0 -55 9.5t-43.5 26t-29 39.5t-10.5 51q0 15 3.5 32.5t12.5 41t24 53.5t39 70l-215 395h122l152 -288l152 288h122l-215 -395q24 -40 39 -70t24 -53.5t12.5 -41t3.5 -32.5q0 -28 -10.5 -51t-29 -39.5t-43.5 -26t-55 -9.5zM289 17q-28 -49 -28 -86
q0 -21 8.5 -29t19.5 -8t19.5 8t8.5 29q0 37 -28 86z" />
    <glyph glyph-name="delta" unicode="&#x3b4;" horiz-adv-x="592" 
d="M40 259q0 51 14 95.5t40 79.5t63.5 58.5t84.5 32.5l-155 117v88h402v-92h-234l193 -150q55 -43 79.5 -101.5t24.5 -127.5q0 -58 -18 -107.5t-51 -86t-80.5 -57t-106.5 -20.5t-106.5 20.5t-80.5 57t-51 86t-18 107.5zM156 259q0 -81 37 -129t103 -48t103 48t37 129
t-37 129t-103 48t-103 -48t-37 -129z" />
    <glyph glyph-name="epsilon" unicode="&#x3b5;" horiz-adv-x="497" 
d="M378 227q-112 0 -162 -22t-50 -61q0 -26 30 -44t99 -18q43 0 85 8t77 24l10 -100q-42 -14 -87 -20t-90 -6q-111 0 -175.5 39t-64.5 113q0 43 27 77t81 52q-46 13 -74.5 42t-28.5 77q0 69 56 105.5t171 36.5q45 0 89.5 -5.5t83.5 -16.5l-9 -102q-35 15 -78 22.5t-83 7.5
q-66 0 -90 -12t-24 -37q0 -37 55 -52.5t152 -15.5v-92z" />
    <glyph glyph-name="zeta" unicode="&#x3b6;" horiz-adv-x="449" 
d="M427 635q-139 -91 -205 -195.5t-66 -215.5q0 -40 21 -65t61 -42q27 -12 58.5 -21t63.5 -15q42 -8 60.5 -25t18.5 -50q0 -17 -6 -33.5t-17 -37.5l-72 -128h-123l98 170q2 4 2 6q0 5 -7 6q-42 9 -77.5 19.5t-66.5 24.5q-60 27 -95 71t-35 116q0 115 61 221t178 197h-188v92
h336v-95z" />
    <glyph glyph-name="eta" unicode="&#x3b7;" horiz-adv-x="593" 
d="M297 436q-35 0 -64.5 -13t-48.5 -34v-389h-114v518h114v-31q24 19 57.5 31t72.5 12q100 0 157 -60t57 -178v-485h-114v486q0 75 -28.5 109t-88.5 34z" />
    <glyph glyph-name="theta" unicode="&#x3b8;" horiz-adv-x="602" 
d="M40 365q0 84 16 153.5t48.5 119t81.5 77t115 27.5t115 -27.5t81.5 -77t48.5 -119t16 -153.5t-16 -153.5t-48.5 -119t-81.5 -77t-115 -27.5t-115 27.5t-81.5 77t-48.5 119t-16 153.5zM301 648q-67 0 -103 -60.5t-41 -176.5h288q-6 116 -42 176.5t-102 60.5zM301 82
q66 0 102 60t42 177h-288q5 -117 41 -177t103 -60z" />
    <glyph glyph-name="iota" unicode="&#x3b9;" horiz-adv-x="343" 
d="M70 518h114v-317q0 -38 4.5 -61t13.5 -36t23.5 -17.5t34.5 -4.5q37 0 60 10l13 -95q-38 -9 -85 -9q-88 0 -133 43t-45 137v350z" />
    <glyph glyph-name="kappa" unicode="&#x3ba;" horiz-adv-x="545" 
d="M304 270l236 -270h-142l-214 249v-249h-114v518h114v-227l148 178q26 31 52 43.5t66 12.5q19 0 38 -3t33 -9l-10 -90q-8 5 -20.5 8t-23.5 3q-14 0 -25 -7t-24 -22z" />
    <glyph glyph-name="lambda" unicode="&#x3bb;" horiz-adv-x="533" 
d="M111 730h120l297 -730h-120l-139 340l-143 -340h-121l206 482z" />
    <glyph glyph-name="uni03BC" unicode="&#x3bc;" horiz-adv-x="624" 
d="M434 44q-29 -32 -60.5 -44t-69.5 -12q-76 0 -120 47v-228h-114v711h114v-384q22 -26 53.5 -39t66.5 -13t66.5 13t53.5 39v384h114v-386q0 -30 8.5 -40t24.5 -10q8 0 17 1.5t16 6.5l10 -90q-15 -6 -35 -9t-40 -3q-42 0 -68 15t-37 41z" />
    <glyph glyph-name="nu" unicode="&#x3bd;" horiz-adv-x="548" 
d="M15 518h122l138 -389q54 75 87.5 174.5t41.5 214.5h114q-11 -147 -61.5 -280t-135.5 -238h-111z" />
    <glyph glyph-name="xi" unicode="&#x3be;" horiz-adv-x="453" 
d="M217 0q-76 26 -121.5 76.5t-45.5 135.5q0 64 34.5 115.5t91.5 80.5q-46 20 -74 58t-28 92q0 37 14 68.5t42 54.5t71 36t101 13h78v-92h-69q-36 0 -59 -6t-37 -17t-19.5 -25.5t-5.5 -31.5q0 -39 31 -64.5t91 -25.5h62v-92q-47 0 -85.5 -11.5t-65.5 -33t-42 -52t-15 -67.5
q0 -83 96 -120q26 -10 52 -16.5t52 -11.5q77 -14 77 -78q0 -30 -20 -65l-67 -114h-122l87 149q4 7 4 11q0 3 -6 5q-22 4 -49 11.5t-53 16.5z" />
    <glyph glyph-name="omicron" unicode="&#x3bf;" horiz-adv-x="592" 
d="M40 259q0 58 18 107.5t51 86t80.5 57t106.5 20.5t106.5 -20.5t80.5 -57t51 -86t18 -107.5t-18 -107.5t-51 -86t-80.5 -57t-106.5 -20.5t-106.5 20.5t-80.5 57t-51 86t-18 107.5zM156 259q0 -81 37 -129t103 -48t103 48t37 129t-37 129t-103 48t-103 -48t-37 -129z" />
    <glyph glyph-name="pi" unicode="&#x3c0;" horiz-adv-x="629" 
d="M15 518h585v-92h-131v-225q0 -38 4 -61t12 -36t19.5 -17.5t26.5 -4.5q36 0 60 10l13 -97q-23 -4 -44 -5.5t-36 -1.5q-75 0 -122 43.5t-47 136.5v258h-103q-1 -127 -21 -235t-70 -205l-110 42q51 88 68.5 187.5t18.5 210.5h-123v92z" />
    <glyph glyph-name="rho" unicode="&#x3c1;" horiz-adv-x="585" 
d="M179 129q20 -22 49.5 -34.5t62.5 -12.5q60 0 99 43.5t39 133.5q0 88 -39 132.5t-100 44.5q-55 0 -83 -34.5t-28 -91.5v-181zM179 -193h-114v488q0 114 61 174.5t172 60.5q51 0 96 -19t78.5 -54t53 -85t19.5 -113q0 -62 -18 -112t-49.5 -85.5t-74.5 -54.5t-94 -19
q-38 0 -71.5 11.5t-58.5 31.5v-224z" />
    <glyph glyph-name="sigma1" unicode="&#x3c2;" horiz-adv-x="497" 
d="M327 82q33 -3 62 -11t50.5 -23t34.5 -38t13 -56q0 -66 -50.5 -99t-140.5 -33v92q46 0 60.5 11.5t14.5 29.5q0 17 -10.5 24t-33.5 9q-66 4 -119 24t-90.5 54.5t-57.5 83t-20 109.5t20.5 111.5t57.5 85.5t88.5 54.5t113.5 19.5q42 0 81 -7t71 -23l-10 -103q-29 20 -65 29.5
t-76 9.5q-75 0 -120 -46t-45 -131q0 -84 45 -127t126 -50z" />
    <glyph glyph-name="sigma" unicode="&#x3c3;" horiz-adv-x="597" 
d="M40 253q0 56 18 104.5t51 84t80.5 56t106.5 20.5h296v-92h-107q34 -35 50.5 -79.5t16.5 -93.5q0 -56 -18 -104.5t-51 -84t-80.5 -56t-106.5 -20.5t-106.5 20.5t-80.5 56t-51 84t-18 104.5zM156 253q0 -77 37 -124t103 -47t103 47t37 124t-37 124t-103 47t-103 -47
t-37 -124z" />
    <glyph glyph-name="tau" unicode="&#x3c4;" horiz-adv-x="476" 
d="M15 518h436v-92h-169v-225q0 -38 4.5 -61t12.5 -36t20.5 -17.5t28.5 -4.5q18 0 35 2.5t29 7.5l13 -97q-21 -4 -41 -5.5t-43 -1.5q-38 0 -69.5 10.5t-54.5 33t-36 56t-13 80.5v258h-153v92z" />
    <glyph glyph-name="upsilon" unicode="&#x3c5;" horiz-adv-x="563" 
d="M82 361q0 42 -8.5 57t-27.5 15q-13 0 -28 -5l-8 90q13 4 28 5.5t29 1.5q67 0 98 -37t31 -122v-138q0 -75 23 -110.5t80 -35.5q108 0 108 145q0 69 -18 143.5t-56 147.5h125q32 -66 48.5 -140t16.5 -149q0 -117 -57.5 -179t-166.5 -62q-106 0 -161.5 57.5t-55.5 168.5v147
z" />
    <glyph glyph-name="phi" unicode="&#x3c6;" horiz-adv-x="663" 
d="M269 -193v180q-51 7 -93.5 28t-72.5 55t-46.5 80.5t-16.5 104.5q0 69 26 139.5t80 136.5l92 -59q-39 -49 -60.5 -105.5t-21.5 -116.5q0 -72 26.5 -114.5t86.5 -53.5v264q0 96 43 140t119 44q91 0 141.5 -68t50.5 -199q0 -126 -64.5 -194t-175.5 -82v-180h-114zM383 81
q124 17 124 181q0 91 -22 132.5t-54 41.5q-25 0 -36.5 -22.5t-11.5 -74.5v-258z" />
    <glyph glyph-name="chi" unicode="&#x3c7;" horiz-adv-x="549" 
d="M401 518h124l-189 -343l203 -368h-125l-140 255l-139 -255h-125l202 368l-188 343h124l126 -230z" />
    <glyph glyph-name="psi" unicode="&#x3c8;" horiz-adv-x="672" 
d="M279 -12q-103 14 -158.5 76t-55.5 168v286h114v-288q0 -63 23 -100t77 -48v436h114v-436q48 13 74 50.5t26 97.5v288h114v-286q0 -106 -55.5 -168t-158.5 -76v-181h-114v181z" />
    <glyph glyph-name="omega" unicode="&#x3c9;" horiz-adv-x="771" 
d="M534 -12q-111 0 -148 114q-21 -58 -56.5 -86t-92.5 -28q-42 0 -76 21t-59 60t-38.5 95t-13.5 127q0 58 6.5 115t23.5 120l117 -9q-17 -54 -24 -110.5t-7 -111.5q0 -115 20 -164t55 -49q44 0 66 83t22 267h114q0 -184 21.5 -267t65.5 -83q35 0 55 49t20 164q0 55 -7 111.5
t-24 110.5l117 9q17 -63 23.5 -120t6.5 -115q0 -71 -13.5 -127t-38 -95t-59 -60t-76.5 -21z" />
    <glyph glyph-name="iotadieresis" unicode="&#x3ca;" horiz-adv-x="343" 
d="M70 518h114v-317q0 -38 4.5 -61t13.5 -36t23.5 -17.5t34.5 -4.5q37 0 60 10l13 -95q-38 -9 -85 -9q-88 0 -133 43t-45 137v350zM-35 665q0 63 63 63t63 -63t-63 -63t-63 63zM167 665q0 63 63 63t63 -63t-63 -63t-63 63z" />
    <glyph glyph-name="upsilondieresis" unicode="&#x3cb;" horiz-adv-x="563" 
d="M82 361q0 42 -8.5 57t-27.5 15q-13 0 -28 -5l-8 90q13 4 28 5.5t29 1.5q67 0 98 -37t31 -122v-138q0 -75 23 -110.5t80 -35.5q108 0 108 145q0 69 -18 143.5t-56 147.5h125q32 -66 48.5 -140t16.5 -149q0 -117 -57.5 -179t-166.5 -62q-106 0 -161.5 57.5t-55.5 168.5v147
zM91 665q0 63 63 63t63 -63t-63 -63t-63 63zM293 665q0 63 63 63t63 -63t-63 -63t-63 63z" />
    <glyph glyph-name="omicrontonos" unicode="&#x3cc;" horiz-adv-x="592" 
d="M40 259q0 58 18 107.5t51 86t80.5 57t106.5 20.5t106.5 -20.5t80.5 -57t51 -86t18 -107.5t-18 -107.5t-51 -86t-80.5 -57t-106.5 -20.5t-106.5 20.5t-80.5 57t-51 86t-18 107.5zM156 259q0 -81 37 -129t103 -48t103 48t37 129t-37 129t-103 48t-103 -48t-37 -129z
M331 750h124v-25l-139 -145h-109z" />
    <glyph glyph-name="upsilontonos" unicode="&#x3cd;" horiz-adv-x="563" 
d="M82 361q0 42 -8.5 57t-27.5 15q-13 0 -28 -5l-8 90q13 4 28 5.5t29 1.5q67 0 98 -37t31 -122v-138q0 -75 23 -110.5t80 -35.5q108 0 108 145q0 69 -18 143.5t-56 147.5h125q32 -66 48.5 -140t16.5 -149q0 -117 -57.5 -179t-166.5 -62q-106 0 -161.5 57.5t-55.5 168.5v147
zM304 750h124v-25l-139 -145h-109z" />
    <glyph glyph-name="omegatonos" unicode="&#x3ce;" horiz-adv-x="771" 
d="M534 -12q-111 0 -148 114q-21 -58 -56.5 -86t-92.5 -28q-42 0 -76 21t-59 60t-38.5 95t-13.5 127q0 58 6.5 115t23.5 120l117 -9q-17 -54 -24 -110.5t-7 -111.5q0 -115 20 -164t55 -49q44 0 66 83t22 267h114q0 -184 21.5 -267t65.5 -83q35 0 55 49t20 164q0 55 -7 111.5
t-24 110.5l117 9q17 -63 23.5 -120t6.5 -115q0 -71 -13.5 -127t-38 -95t-59 -60t-76.5 -21zM433 750h124v-25l-139 -145h-109z" />
    <glyph glyph-name="uni0400" unicode="&#x400;" horiz-adv-x="575" 
d="M80 700h446v-102h-328v-187h304v-102h-304v-207h337v-102h-455v700zM389 754h-109l-139 145v25h124z" />
    <glyph glyph-name="afii10023" unicode="&#x401;" horiz-adv-x="575" 
d="M80 700h446v-102h-328v-187h304v-102h-304v-207h337v-102h-455v700zM134 839q0 63 63 63t63 -63t-63 -63t-63 63zM336 839q0 63 63 63t63 -63t-63 -63t-63 63z" />
    <glyph glyph-name="afii10051" unicode="&#x402;" horiz-adv-x="724" 
d="M219 598h-209v102h535v-102h-208v-179h106q115 0 178 -56t63 -165q0 -100 -55 -155t-149 -55q-51 0 -92 16v112q39 -24 90 -24q40 0 63 27t23 78q0 63 -28.5 91.5t-94.5 28.5h-104v-317h-118v598z" />
    <glyph glyph-name="afii10052" unicode="&#x403;" horiz-adv-x="538" 
d="M80 700h448v-102h-330v-598h-118v700zM337 924h124v-25l-139 -145h-109z" />
    <glyph glyph-name="afii10053" unicode="&#x404;" horiz-adv-x="621" 
d="M45 350q0 79 25.5 145.5t72.5 114.5t113.5 75t148.5 27q46 0 91 -8t81 -25l-10 -112q-33 21 -73.5 31t-83.5 10q-52 0 -93.5 -15t-72.5 -42.5t-50 -65.5t-26 -84h364v-102h-364q14 -97 78 -152t167 -55q43 0 82.5 10.5t75.5 34.5l10 -115q-43 -20 -86.5 -27t-85.5 -7
q-83 0 -150.5 26.5t-115 74t-73 114t-25.5 147.5z" />
    <glyph glyph-name="afii10054" unicode="&#x405;" horiz-adv-x="553" 
d="M462 570q-39 20 -83 29t-86 9q-66 0 -94.5 -21t-28.5 -58t27 -65t95 -51q114 -39 165 -90.5t51 -132.5q0 -97 -62.5 -149.5t-194.5 -52.5q-51 0 -103 9.5t-94 32.5l10 114q42 -28 91 -40t103 -12q66 0 98 24t32 69q0 42 -29 70.5t-106 52.5q-106 34 -154.5 87.5
t-48.5 131.5q0 88 61.5 136.5t176.5 48.5q49 0 96 -8.5t87 -26.5z" />
    <glyph glyph-name="afii10055" unicode="&#x406;" horiz-adv-x="288" 
d="M203 700v-700h-118v700h118z" />
    <glyph glyph-name="afii10056" unicode="&#x407;" horiz-adv-x="288" 
d="M203 700v-700h-118v700h118zM-19 839q0 63 63 63t63 -63t-63 -63t-63 63zM183 839q0 63 63 63t63 -63t-63 -63t-63 63z" />
    <glyph glyph-name="afii10057" unicode="&#x408;" horiz-adv-x="467" 
d="M269 700h118v-467q0 -124 -58 -184.5t-162 -60.5q-90 0 -157 35l10 117q64 -48 145 -48q50 0 77 32t27 109v467z" />
    <glyph glyph-name="afii10058" unicode="&#x409;" horiz-adv-x="959" 
d="M167 700h418v-280h90q53 0 98 -14t77.5 -41t50.5 -66t18 -89q0 -51 -18 -90t-50.5 -65.5t-77.5 -40.5t-98 -14h-208v598h-182v-427q0 -49 -14 -83.5t-39.5 -56.5t-61.5 -32.5t-81 -10.5q-15 0 -35.5 2t-43.5 6l9 105q22 -5 37 -7t25 -2q48 0 67 22t19 81v505zM799 210
q0 57 -35.5 82.5t-101.5 25.5h-77v-216h77q66 0 101.5 25t35.5 83z" />
    <glyph glyph-name="afii10059" unicode="&#x40a;" horiz-adv-x="992" 
d="M618 700v-280h90q53 0 98 -14t77.5 -41t50.5 -66t18 -89q0 -51 -18 -90t-50.5 -65.5t-77.5 -40.5t-98 -14h-208v319h-302v-319h-118v700h118v-279h302v279h118zM832 210q0 57 -36 82.5t-102 25.5h-76v-216h76q66 0 102 25t36 83z" />
    <glyph glyph-name="afii10060" unicode="&#x40b;" horiz-adv-x="793" 
d="M473 364q-39 0 -76 -12t-62 -32v-320h-114v598h-211v102h536v-102h-211v-162q31 14 69.5 23t77.5 9q55 0 100 -13.5t77.5 -43t50.5 -75t18 -109.5v-227h-118v220q0 81 -34 112.5t-103 31.5z" />
    <glyph glyph-name="afii10061" unicode="&#x40c;" horiz-adv-x="637" 
d="M607 700l-282 -328l327 -372h-153l-301 351v-351h-118v700h118v-311l267 311h142zM349 924h124v-25l-139 -145h-109z" />
    <glyph glyph-name="uni040D" unicode="&#x40d;" horiz-adv-x="718" 
d="M638 0h-114v531l-316 -531h-128v700h114v-531l315 531h129v-700zM424 754h-109l-139 145v25h124z" />
    <glyph glyph-name="afii10062" unicode="&#x40e;" horiz-adv-x="613" 
d="M473 700h125l-324 -700h-124l101 219l-236 481h125l170 -353zM296 757q-34 0 -64 9.5t-52.5 30t-36 51.5t-14.5 73h101q4 -80 66 -80t66 80h101q-1 -42 -14.5 -73t-36 -51.5t-52.5 -30t-64 -9.5z" />
    <glyph glyph-name="afii10145" unicode="&#x40f;" horiz-adv-x="708" 
d="M510 102v598h118v-700h-215v-164h-118v164h-215v700h118v-598h312z" />
    <glyph glyph-name="afii10017" unicode="&#x410;" horiz-adv-x="658" 
d="M653 0h-128l-58 169h-276l-58 -169h-128l258 700h132zM226 271h206l-103 300z" />
    <glyph glyph-name="afii10018" unicode="&#x411;" horiz-adv-x="588" 
d="M497 700v-102h-300v-149h102q56 0 101.5 -16.5t77 -46t48.5 -71t17 -91.5t-17 -91t-48.5 -70.5t-77 -46t-101.5 -16.5h-219v700h417zM424 224q0 60 -34 91.5t-103 31.5h-90v-245h90q69 0 103 32t34 90z" />
    <glyph glyph-name="afii10019" unicode="&#x412;" horiz-adv-x="635" 
d="M80 700h244q57 0 101.5 -14.5t74.5 -40t46 -60.5t16 -75q0 -45 -20 -80.5t-58 -57.5q55 -24 83 -66.5t28 -99.5q0 -99 -66.5 -152.5t-191.5 -53.5h-257v700zM477 207q0 52 -37.5 78t-118.5 26h-123v-209h123q81 0 118.5 25.5t37.5 79.5zM444 506q0 48 -35 70t-101 22
h-110v-185h110q66 0 101 22.5t35 70.5z" />
    <glyph glyph-name="afii10020" unicode="&#x413;" horiz-adv-x="538" 
d="M80 700h448v-102h-330v-598h-118v700z" />
    <glyph glyph-name="afii10021" unicode="&#x414;" horiz-adv-x="630" 
d="M610 -100h-118v100h-364v-100h-118v202h53q72 124 114.5 274t47.5 324h313v-598h72v-202zM420 102v496h-84q-22 -262 -137 -496h221z" />
    <glyph glyph-name="afii10022" unicode="&#x415;" horiz-adv-x="575" 
d="M80 700h446v-102h-328v-187h304v-102h-304v-207h337v-102h-455v700z" />
    <glyph glyph-name="afii10024" unicode="&#x416;" horiz-adv-x="850" 
d="M169 700l197 -307v307h118v-307l197 307h127l-207 -326l254 -374h-135l-236 351v-351h-118v351l-236 -351h-135l254 374l-207 326h127z" />
    <glyph glyph-name="afii10025" unicode="&#x417;" horiz-adv-x="552" 
d="M139 416q54 0 98.5 7t76.5 21t49.5 34t17.5 47q0 83 -149 83q-86 0 -171 -46l-12 116q40 16 90.5 25t101.5 9q58 0 105.5 -12.5t82 -35.5t53.5 -56t19 -73q0 -63 -32.5 -104.5t-92.5 -64.5q63 -23 97 -67t34 -113q0 -47 -21.5 -84t-58.5 -62.5t-86.5 -38.5t-104.5 -13
q-49 0 -99.5 7t-101.5 27l9 114q51 -24 96.5 -34t90.5 -10q32 0 60.5 6t49.5 18.5t33.5 31t12.5 44.5q0 32 -19 55t-52 38t-78.5 22t-98.5 7v102z" />
    <glyph glyph-name="afii10026" unicode="&#x418;" horiz-adv-x="718" 
d="M638 0h-114v531l-316 -531h-128v700h114v-531l315 531h129v-700z" />
    <glyph glyph-name="afii10027" unicode="&#x419;" horiz-adv-x="718" 
d="M638 0h-114v531l-316 -531h-128v700h114v-531l315 531h129v-700zM364 757q-34 0 -64 9.5t-52.5 30t-36 51.5t-14.5 73h101q4 -80 66 -80t66 80h101q-1 -42 -14.5 -73t-36 -51.5t-52.5 -30t-64 -9.5z" />
    <glyph glyph-name="afii10028" unicode="&#x41a;" horiz-adv-x="637" 
d="M607 700l-282 -328l327 -372h-153l-301 351v-351h-118v700h118v-311l267 311h142z" />
    <glyph glyph-name="afii10029" unicode="&#x41b;" horiz-adv-x="706" 
d="M288 171q0 -98 -53 -140.5t-143 -42.5q-21 0 -41.5 2t-40.5 6l10 104q34 -8 64 -8q48 0 67 23t19 82v503h456v-700h-118v598h-220v-427z" />
    <glyph glyph-name="afii10030" unicode="&#x41c;" horiz-adv-x="856" 
d="M383 224l-189 293v-517h-114v700h119l229 -356l229 356h119v-700h-114v517l-189 -293h-90z" />
    <glyph glyph-name="afii10031" unicode="&#x41d;" horiz-adv-x="712" 
d="M80 700h118v-276h316v276h118v-700h-118v322h-316v-322h-118v700z" />
    <glyph glyph-name="afii10032" unicode="&#x41e;" horiz-adv-x="726" 
d="M363 712q76 0 135 -28t99.5 -77t62 -115t21.5 -142t-21.5 -142t-62 -115t-99.5 -77t-135 -28t-135 28t-99.5 77t-62 115t-21.5 142t21.5 142t62 115t99.5 77t135 28zM363 92q93 0 145.5 68.5t52.5 189.5t-52.5 189.5t-145.5 68.5t-145.5 -68.5t-52.5 -189.5t52.5 -189.5
t145.5 -68.5z" />
    <glyph glyph-name="afii10033" unicode="&#x41f;" horiz-adv-x="708" 
d="M80 700h548v-700h-118v598h-312v-598h-118v700z" />
    <glyph glyph-name="afii10034" unicode="&#x420;" horiz-adv-x="603" 
d="M568 478q0 -54 -19 -95.5t-54.5 -70t-84.5 -43t-109 -14.5h-103v-255h-118v700h221q60 0 109 -14.5t84.5 -43t54.5 -69.5t19 -95zM448 478q0 64 -39.5 92t-117.5 28h-93v-241h93q78 0 117.5 28.5t39.5 92.5z" />
    <glyph glyph-name="afii10035" unicode="&#x421;" horiz-adv-x="621" 
d="M45 350q0 79 25.5 145.5t72.5 114.5t113.5 75t148.5 27q46 0 91 -8t81 -25l-10 -112q-33 21 -73.5 31t-83.5 10q-59 0 -104.5 -19t-76.5 -53.5t-47.5 -82t-16.5 -103.5q0 -60 17 -107.5t49.5 -81t78.5 -51.5t103 -18q43 0 82.5 10.5t75.5 34.5l10 -115q-43 -20 -86.5 -27
t-85.5 -7q-83 0 -150.5 26.5t-115 74t-73 114t-25.5 147.5z" />
    <glyph glyph-name="afii10036" unicode="&#x422;" horiz-adv-x="554" 
d="M218 598h-208v102h534v-102h-208v-598h-118v598z" />
    <glyph glyph-name="afii10037" unicode="&#x423;" horiz-adv-x="613" 
d="M473 700h125l-324 -700h-124l101 219l-236 481h125l170 -353z" />
    <glyph glyph-name="afii10038" unicode="&#x424;" horiz-adv-x="728" 
d="M305 0v102q-57 6 -106 25.5t-84 51.5t-55 75t-20 96t20 96t55 75t84 51.5t106 25.5v102h118v-102q57 -6 106 -25.5t84 -51.5t55 -75t20 -96t-20 -96t-55 -75t-84 -51.5t-106 -25.5v-102h-118zM423 206q69 6 107 42t38 102t-38 102t-107 42v-288zM305 494q-69 -6 -107 -42
t-38 -102t38 -102t107 -42v288z" />
    <glyph glyph-name="afii10039" unicode="&#x425;" horiz-adv-x="677" 
d="M24 700h136l178 -251l179 251h136l-246 -344l255 -356h-136l-188 263l-187 -263h-136l254 356z" />
    <glyph glyph-name="afii10040" unicode="&#x426;" horiz-adv-x="733" 
d="M510 102v598h118v-597h85v-213h-114v110h-519v700h118v-598h312z" />
    <glyph glyph-name="afii10041" unicode="&#x427;" horiz-adv-x="665" 
d="M306 295q45 0 88 14.5t73 40.5v350h118v-700h-118v237q-35 -20 -79 -32t-92 -12q-109 0 -167.5 60t-58.5 181v266h118v-261q0 -76 26 -110t92 -34z" />
    <glyph glyph-name="afii10042" unicode="&#x428;" horiz-adv-x="838" 
d="M360 102v598h118v-598h162v598h118v-700h-678v700h118v-598h162z" />
    <glyph glyph-name="afii10043" unicode="&#x429;" horiz-adv-x="863" 
d="M360 102v598h118v-598h162v598h118v-597h85v-213h-114v110h-649v700h118v-598h162z" />
    <glyph glyph-name="afii10044" unicode="&#x42a;" horiz-adv-x="677" 
d="M284 700v-251h109q56 0 101.5 -16.5t77 -46t48.5 -71t17 -91.5t-17 -91t-48.5 -70.5t-77 -46t-101.5 -16.5h-227v598h-156v102h274zM517 224q0 60 -34 91.5t-103 31.5h-96v-245h96q69 0 103 32t34 90z" />
    <glyph glyph-name="afii10045" unicode="&#x42b;" horiz-adv-x="802" 
d="M198 700v-251h110q56 0 101 -16.5t76.5 -46t48.5 -71t17 -91.5t-17 -91t-48.5 -70.5t-76.5 -46t-101 -16.5h-228v700h118zM431 224q0 60 -33.5 91.5t-103.5 31.5h-96v-245h96q70 0 103.5 32t33.5 90zM722 700v-700h-118v700h118z" />
    <glyph glyph-name="afii10046" unicode="&#x42c;" horiz-adv-x="591" 
d="M198 700v-251h110q56 0 101 -16.5t76.5 -46t48.5 -71t17 -91.5t-17 -91t-48.5 -70.5t-76.5 -46t-101 -16.5h-228v700h118zM431 224q0 60 -33.5 91.5t-103.5 31.5h-96v-245h96q70 0 103.5 32t33.5 90z" />
    <glyph glyph-name="afii10047" unicode="&#x42d;" horiz-adv-x="621" 
d="M576 350q0 -81 -25.5 -147.5t-73 -114t-115 -74t-150.5 -26.5q-42 0 -85.5 7t-86.5 27l10 115q36 -24 75.5 -34.5t82.5 -10.5q103 0 166.5 55t77.5 152h-363v102h363q-7 46 -26 84t-50 65.5t-72.5 42.5t-92.5 15q-43 0 -83.5 -10t-73.5 -31l-10 112q36 17 81 25t91 8
q82 0 148.5 -27t113.5 -75t72.5 -114.5t25.5 -145.5z" />
    <glyph glyph-name="afii10048" unicode="&#x42e;" horiz-adv-x="845" 
d="M198 700v-301h76q4 67 22.5 124t51.5 99t80 66t108 24q66 0 115.5 -28t82.5 -76.5t49.5 -115t16.5 -142.5q0 -77 -16.5 -143t-49.5 -114.5t-82.5 -76.5t-115.5 -28q-60 0 -107 23.5t-80 65.5t-52 99t-23 125h-76v-301h-118v700h118zM392 350q0 -123 35.5 -190.5
t108.5 -67.5q72 0 108 67.5t36 190.5t-36 190.5t-108 67.5q-73 0 -108.5 -67.5t-35.5 -190.5z" />
    <glyph glyph-name="afii10049" unicode="&#x42f;" horiz-adv-x="637" 
d="M61 491q0 51 20 90.5t55.5 65.5t83 39.5t101.5 13.5h236v-700h-118v282h-118l-179 -282h-132l195 299q-65 22 -104.5 70t-39.5 122zM181 491q0 -55 38.5 -81t110.5 -26h109v214h-109q-72 0 -110.5 -25t-38.5 -82z" />
    <glyph glyph-name="afii10065" unicode="&#x430;" horiz-adv-x="554" 
d="M233 -12q-41 0 -77 10.5t-63 31.5t-42.5 52.5t-15.5 73.5q0 81 60 128.5t172 47.5h108v25q0 45 -25.5 62t-85.5 17q-48 0 -92.5 -12.5t-82.5 -34.5l-11 96q34 20 85.5 32.5t105.5 12.5q57 0 98.5 -10t68.5 -33t40 -60.5t13 -91.5v-335h-114v31q-52 -43 -142 -43zM249 82
q40 0 72.5 11.5t53.5 35.5v111h-104q-66 0 -93 -22t-27 -60q0 -40 26.5 -58t71.5 -18z" />
    <glyph glyph-name="afii10066" unicode="&#x431;" horiz-adv-x="565" 
d="M294 497q51 0 93.5 -17t73 -49.5t47.5 -79.5t17 -108t-18 -108.5t-49 -79.5t-73 -49t-91 -17q-62 0 -109.5 23.5t-79.5 66.5t-48.5 104.5t-16.5 137.5q0 96 23.5 168t78 122t144 79t221.5 40l8 -98q-87 -6 -149.5 -20.5t-104.5 -37t-65 -53.5t-30 -70q21 21 55 33.5
t73 12.5zM285 403q-42 0 -75.5 -20t-56.5 -49v-12q0 -66 10.5 -111.5t29 -74t44.5 -41t57 -12.5q55 0 86 42.5t31 117.5q0 73 -31.5 116.5t-94.5 43.5z" />
    <glyph glyph-name="afii10067" unicode="&#x432;" horiz-adv-x="532" 
d="M70 0v518h165q115 0 173 -33.5t58 -103.5q0 -69 -66 -105q42 -16 67 -48t25 -75q0 -75 -60 -114t-184 -39h-178zM350 371q0 32 -30.5 43.5t-97.5 11.5h-44v-111h44q67 0 97.5 12t30.5 44zM376 158q0 34 -33 49.5t-112 15.5h-53v-131h53q79 0 112 16t33 50z" />
    <glyph glyph-name="afii10068" unicode="&#x433;" horiz-adv-x="451" 
d="M184 426v-426h-114v518h371v-92h-257z" />
    <glyph glyph-name="afii10069" unicode="&#x434;" horiz-adv-x="570" 
d="M550 -100h-114v100h-312v-100h-114v192h49q57 94 91 198.5t42 227.5h286v-426h72v-192zM364 92v334h-69q-11 -84 -40 -171.5t-69 -162.5h178z" />
    <glyph glyph-name="afii10070" unicode="&#x435;" horiz-adv-x="555" 
d="M159 214q5 -64 43.5 -98t113.5 -34q45 0 82.5 10t69.5 33l11 -99q-33 -20 -77.5 -29t-90.5 -9q-69 0 -120 20.5t-84.5 56.5t-50 86t-16.5 109q0 61 17 110.5t48 85t75 55t99 19.5q58 0 103 -20.5t75.5 -56.5t46.5 -86.5t16 -110.5q0 -11 -0.5 -21.5t-1.5 -20.5h-359z
M401 306q-6 63 -37 96.5t-85 33.5t-84.5 -33.5t-35.5 -96.5h242z" />
    <glyph glyph-name="afii10072" unicode="&#x436;" horiz-adv-x="768" 
d="M441 518v-230l170 230h132l-187 -248l207 -270h-134l-188 251v-251h-114v251l-188 -251h-134l207 270l-187 248h132l170 -230v230h114z" />
    <glyph glyph-name="afii10073" unicode="&#x437;" horiz-adv-x="497" 
d="M119 319q97 0 152 15.5t55 52.5q0 25 -24 37t-90 12q-40 0 -83 -7.5t-78 -22.5l-9 102q39 11 83.5 16.5t89.5 5.5q115 0 171 -36.5t56 -105.5q0 -48 -28.5 -77t-74.5 -42q54 -18 81 -52t27 -77q0 -74 -64.5 -113t-175.5 -39q-45 0 -90 6t-87 20l10 100q35 -16 77 -24
t85 -8q69 0 99 18t30 44q0 39 -50 61t-162 22v92z" />
    <glyph glyph-name="afii10074" unicode="&#x438;" horiz-adv-x="612" 
d="M428 0v351l-241 -351h-117v518h114v-351l241 351h117v-518h-114z" />
    <glyph glyph-name="afii10075" unicode="&#x439;" horiz-adv-x="612" 
d="M428 0v351l-241 -351h-117v518h114v-351l241 351h117v-518h-114zM306 582q-34 0 -64 9.5t-52.5 30t-36 51.5t-14.5 73h101q4 -80 66 -80t66 80h101q-1 -42 -14.5 -73t-36 -51.5t-52.5 -30t-64 -9.5z" />
    <glyph glyph-name="afii10076" unicode="&#x43a;" horiz-adv-x="545" 
d="M184 518v-228l197 228h141l-216 -248l234 -270h-142l-214 249v-249h-114v518h114z" />
    <glyph glyph-name="afii10077" unicode="&#x43b;" horiz-adv-x="597" 
d="M280 173q0 -94 -48 -139.5t-139 -45.5q-20 0 -42.5 2t-40.5 6l10 95q12 -4 28.5 -6.5t32.5 -2.5q22 0 38.5 5t26.5 18t15 35t5 56v322h361v-518h-114v424h-133v-251z" />
    <glyph glyph-name="afii10078" unicode="&#x43c;" horiz-adv-x="702" 
d="M319 165l-135 183v-348h-114v518h108l173 -239l173 239h108v-518h-114v348l-135 -183h-64z" />
    <glyph glyph-name="afii10079" unicode="&#x43d;" horiz-adv-x="594" 
d="M410 327v191h114v-518h-114v235h-226v-235h-114v518h114v-191h226z" />
    <glyph glyph-name="afii10080" unicode="&#x43e;" horiz-adv-x="592" 
d="M40 259q0 58 18 107.5t51 86t80.5 57t106.5 20.5t106.5 -20.5t80.5 -57t51 -86t18 -107.5t-18 -107.5t-51 -86t-80.5 -57t-106.5 -20.5t-106.5 20.5t-80.5 57t-51 86t-18 107.5zM156 259q0 -81 37 -129t103 -48t103 48t37 129t-37 129t-103 48t-103 -48t-37 -129z" />
    <glyph glyph-name="afii10081" unicode="&#x43f;" horiz-adv-x="574" 
d="M184 426v-426h-114v518h434v-518h-114v426h-206z" />
    <glyph glyph-name="afii10082" unicode="&#x440;" horiz-adv-x="590" 
d="M184 487q25 20 57.5 31.5t72.5 11.5q51 0 94 -19t74.5 -54.5t49.5 -85.5t18 -112t-18 -112t-49.5 -85.5t-74.5 -54.5t-94 -19q-40 0 -72.5 11.5t-57.5 31.5v-224h-114v711h114v-31zM184 129q20 -22 49.5 -34.5t62.5 -12.5q60 0 99 43.5t39 133.5t-39 133.5t-99 43.5
q-33 0 -62.5 -12.5t-49.5 -34.5v-260z" />
    <glyph glyph-name="afii10083" unicode="&#x441;" horiz-adv-x="512" 
d="M156 259q0 -84 48 -130.5t129 -46.5q82 0 134 37l10 -98q-29 -17 -68.5 -25t-81.5 -8q-67 0 -120 19t-90 54t-57 85.5t-20 112.5t19.5 112t55.5 85.5t87 54.5t114 19q42 0 83 -7.5t73 -24.5l-10 -97q-29 19 -64.5 27t-75.5 8q-36 0 -66 -12t-52.5 -34.5t-35 -55.5
t-12.5 -75z" />
    <glyph glyph-name="afii10084" unicode="&#x442;" horiz-adv-x="493" 
d="M189 426h-179v92h473v-92h-180v-426h-114v426z" />
    <glyph glyph-name="afii10085" unicode="&#x443;" horiz-adv-x="557" 
d="M418 518h124l-276 -711h-120l74 193l-205 518h124l141 -377z" />
    <glyph glyph-name="afii10086" unicode="&#x444;" horiz-adv-x="926" 
d="M520 -193h-114v224q-25 -20 -58.5 -31.5t-71.5 -11.5q-51 0 -94.5 19t-75 54.5t-49 85.5t-17.5 112t17.5 112t49 85.5t75 54.5t94.5 19q38 0 71.5 -11.5t58.5 -31.5v243h114v-243q25 20 58.5 31.5t71.5 11.5q51 0 94 -19t74.5 -54.5t49.5 -85.5t18 -112t-18 -112
t-49.5 -85.5t-74.5 -54.5t-94 -19q-38 0 -71.5 11.5t-58.5 31.5v-224zM406 389q-20 22 -49.5 34.5t-62.5 12.5q-60 0 -99 -43.5t-39 -133.5t39 -133.5t99 -43.5q33 0 62.5 12.5t49.5 34.5v260zM520 129q20 -22 49.5 -34.5t62.5 -12.5q60 0 99 43.5t39 133.5t-39 133.5
t-99 43.5q-33 0 -62.5 -12.5t-49.5 -34.5v-260z" />
    <glyph glyph-name="afii10087" unicode="&#x445;" horiz-adv-x="528" 
d="M376 518h129l-174 -250l187 -268h-129l-125 182l-125 -182h-129l186 268l-173 250h129l112 -164z" />
    <glyph glyph-name="afii10088" unicode="&#x446;" horiz-adv-x="603" 
d="M390 92v426h114v-426h79v-196h-108v104h-405v518h114v-426h206z" />
    <glyph glyph-name="afii10089" unicode="&#x447;" horiz-adv-x="553" 
d="M266 264q65 0 103 38v216h114v-518h-114v197q-23 -14 -53.5 -20.5t-62.5 -6.5q-93 0 -145.5 59t-52.5 179v110h114v-112q0 -75 21.5 -108.5t75.5 -33.5z" />
    <glyph glyph-name="afii10090" unicode="&#x448;" horiz-adv-x="711" 
d="M527 92v426h114v-518h-571v518h114v-426h115v426h114v-426h114z" />
    <glyph glyph-name="afii10091" unicode="&#x449;" horiz-adv-x="739" 
d="M527 92v426h114v-426h78v-196h-108v104h-541v518h114v-426h115v426h114v-426h114z" />
    <glyph glyph-name="afii10092" unicode="&#x44a;" horiz-adv-x="620" 
d="M590 171q0 -89 -67.5 -130t-190.5 -41h-189v426h-138v92h251v-176h76q123 0 190.5 -40.5t67.5 -130.5zM474 171q0 42 -31.5 60.5t-111.5 18.5h-74v-158h74q80 0 111.5 18.5t31.5 60.5z" />
    <glyph glyph-name="afii10093" unicode="&#x44b;" horiz-adv-x="769" 
d="M401 171q0 42 -31.5 60.5t-111.5 18.5h-74v-158h74q80 0 111.5 18.5t31.5 60.5zM585 518h114v-518h-114v518zM517 171q0 -90 -67.5 -130.5t-190.5 -40.5h-189v518h113v-176h76q123 0 190.5 -40.5t67.5 -130.5z" />
    <glyph glyph-name="afii10094" unicode="&#x44c;" horiz-adv-x="547" 
d="M401 171q0 42 -31.5 60.5t-111.5 18.5h-74v-158h74q80 0 111.5 18.5t31.5 60.5zM517 171q0 -90 -67.5 -130.5t-190.5 -40.5h-189v518h113v-176h76q123 0 190.5 -40.5t67.5 -130.5z" />
    <glyph glyph-name="afii10095" unicode="&#x44d;" horiz-adv-x="512" 
d="M75 305h277q-12 63 -55 97t-106 34q-40 0 -76 -9.5t-65 -29.5l-10 103q32 16 71 23t81 7q62 0 113.5 -19.5t88.5 -54.5t57.5 -85.5t20.5 -111.5q0 -62 -20 -112t-57.5 -85t-90.5 -54.5t-119 -19.5q-87 0 -150 33l10 103q26 -21 62 -31.5t78 -10.5q69 0 112 34t55 97h-277
v92z" />
    <glyph glyph-name="afii10096" unicode="&#x44e;" horiz-adv-x="730" 
d="M70 518h114v-213h50q6 48 24.5 89t47.5 71t68 47t87 17q53 0 95.5 -20.5t72 -56.5t45.5 -85.5t16 -107.5q0 -59 -16 -108.5t-45.5 -85.5t-72 -56t-95.5 -20q-49 0 -88.5 16t-69 45.5t-47 70.5t-22.5 92h-50v-213h-114v518zM349 259q0 -81 29 -128.5t83 -47.5t83.5 47.5
t29.5 128.5t-29.5 128.5t-83.5 47.5t-83 -47.5t-29 -128.5z" />
    <glyph glyph-name="afii10097" unicode="&#x44f;" horiz-adv-x="554" 
d="M58 361q0 36 14.5 65t41.5 49.5t65.5 31.5t85.5 11h219v-518h-114v205h-95l-132 -205h-133l147 223q-48 18 -73.5 53.5t-25.5 84.5zM370 296v130h-100q-54 0 -76 -18t-22 -47t22 -47t76 -18h100z" />
    <glyph glyph-name="uni0450" unicode="&#x450;" horiz-adv-x="555" 
d="M159 214q5 -64 43.5 -98t113.5 -34q45 0 82.5 10t69.5 33l11 -99q-33 -20 -77.5 -29t-90.5 -9q-69 0 -120 20.5t-84.5 56.5t-50 86t-16.5 109q0 61 17 110.5t48 85t75 55t99 19.5q58 0 103 -20.5t75.5 -56.5t46.5 -86.5t16 -110.5q0 -11 -0.5 -21.5t-1.5 -20.5h-359z
M401 306q-6 63 -37 96.5t-85 33.5t-84.5 -33.5t-35.5 -96.5h242zM372 580h-109l-139 145v25h124z" />
    <glyph glyph-name="afii10071" unicode="&#x451;" horiz-adv-x="555" 
d="M159 214q5 -64 43.5 -98t113.5 -34q45 0 82.5 10t69.5 33l11 -99q-33 -20 -77.5 -29t-90.5 -9q-69 0 -120 20.5t-84.5 56.5t-50 86t-16.5 109q0 61 17 110.5t48 85t75 55t99 19.5q58 0 103 -20.5t75.5 -56.5t46.5 -86.5t16 -110.5q0 -11 -0.5 -21.5t-1.5 -20.5h-359z
M401 306q-6 63 -37 96.5t-85 33.5t-84.5 -33.5t-35.5 -96.5h242zM115 665q0 63 63 63t63 -63t-63 -63t-63 63zM317 665q0 63 63 63t63 -63t-63 -63t-63 63z" />
    <glyph glyph-name="afii10099" unicode="&#x452;" horiz-adv-x="598" 
d="M419 293q0 75 -28.5 109t-88.5 34q-35 0 -64.5 -13t-48.5 -34v-389h-114v588h-70v78h70v64h114v-64h182v-78h-182v-101q24 19 57.5 31t72.5 12q100 0 157 -60t57 -178v-302q0 -103 -40 -146.5t-127 -43.5q-40 0 -79 11l9 95q31 -12 67 -12q27 0 41.5 18t14.5 69v312z" />
    <glyph glyph-name="afii10100" unicode="&#x453;" horiz-adv-x="451" 
d="M184 426v-426h-114v518h371v-92h-257zM286 750h124v-25l-139 -145h-109z" />
    <glyph glyph-name="afii10101" unicode="&#x454;" horiz-adv-x="512" 
d="M437 305v-92h-277q11 -63 54.5 -97t112.5 -34q42 0 78 10.5t62 31.5l10 -103q-63 -33 -150 -33q-66 0 -119 19.5t-90.5 54.5t-57.5 85t-20 112q0 61 20.5 111.5t57.5 85.5t88.5 54.5t113.5 19.5q42 0 81 -7t71 -23l-10 -103q-29 20 -65 29.5t-76 9.5q-64 0 -106.5 -34
t-54.5 -97h277z" />
    <glyph glyph-name="afii10102" unicode="&#x455;" horiz-adv-x="475" 
d="M222 -12q-46 0 -92 10t-85 31l7 107q38 -27 81.5 -40.5t88.5 -13.5q92 0 92 62q0 26 -21.5 43t-81.5 34q-85 23 -124 62t-39 99q0 72 50.5 110t147.5 38q45 0 85.5 -8.5t72.5 -24.5l-10 -99q-29 18 -67 28t-80 10q-45 0 -63.5 -13t-18.5 -35q0 -12 4.5 -22.5t15.5 -20
t29 -17.5t46 -16q49 -14 82 -31t52.5 -37.5t27.5 -43.5t8 -50q0 -78 -51 -120t-157 -42z" />
    <glyph glyph-name="afii10103" unicode="&#x456;" horiz-adv-x="264" 
d="M75 518h114v-518h-114v518zM64 662q0 32 16 50t52 18t52 -18t16 -50t-16 -50t-52 -18t-52 18t-16 50z" />
    <glyph glyph-name="afii10104" unicode="&#x457;" horiz-adv-x="264" 
d="M75 518h114v-518h-114v518zM-31 665q0 63 63 63t63 -63t-63 -63t-63 63zM171 665q0 63 63 63t63 -63t-63 -63t-63 63z" />
    <glyph glyph-name="afii10105" unicode="&#x458;" horiz-adv-x="264" 
d="M80 518h114v-529q0 -91 -41.5 -140t-136.5 -49q-18 0 -37.5 3t-38.5 9l10 96q28 -14 64 -14q35 0 50.5 22.5t15.5 68.5v533zM69 662q0 32 16 50t52 18t52 -18t16 -50t-16 -50t-52 -18t-52 18t-16 50z" />
    <glyph glyph-name="afii10106" unicode="&#x459;" horiz-adv-x="819" 
d="M404 0v428h-129v-255q0 -94 -49.5 -139.5t-137.5 -45.5q-15 0 -37.5 2t-45.5 6l10 95q20 -5 35 -7t26 -2q22 0 38.5 5t26.5 18t15 35t5 56v322h357v-188h13q124 0 191 -39t67 -126t-67 -126t-191 -39h-127zM519 92h16q76 0 107 17t31 56t-31 56t-107 17h-16v-146z" />
    <glyph glyph-name="afii10107" unicode="&#x45a;" horiz-adv-x="800" 
d="M499 518v-188h13q124 0 191 -39t67 -126t-67 -126t-191 -39h-127v238h-201v-238h-114v518h114v-188h201v188h114zM500 92h16q76 0 107 17t31 56t-31 56t-107 17h-16v-146z" />
    <glyph glyph-name="afii10108" unicode="&#x45b;" horiz-adv-x="598" 
d="M302 436q-35 0 -64.5 -13t-48.5 -34v-389h-114v588h-70v78h70v64h114v-64h182v-78h-182v-101q24 19 57.5 31t72.5 12q100 0 157 -60t57 -178v-292h-114v293q0 75 -28.5 109t-88.5 34z" />
    <glyph glyph-name="afii10109" unicode="&#x45c;" horiz-adv-x="545" 
d="M184 518v-228l197 228h141l-216 -248l234 -270h-142l-214 249v-249h-114v518h114zM312 750h124v-25l-139 -145h-109z" />
    <glyph glyph-name="uni045D" unicode="&#x45d;" horiz-adv-x="612" 
d="M428 0v351l-241 -351h-117v518h114v-351l241 351h117v-518h-114zM388 580h-109l-139 145v25h124z" />
    <glyph glyph-name="afii10110" unicode="&#x45e;" horiz-adv-x="557" 
d="M418 518h124l-276 -711h-120l74 193l-205 518h124l141 -377zM265 582q-34 0 -64 9.5t-52.5 30t-36 51.5t-14.5 73h101q4 -80 66 -80t66 80h101q-1 -42 -14.5 -73t-36 -51.5t-52.5 -30t-64 -9.5z" />
    <glyph glyph-name="afii10193" unicode="&#x45f;" horiz-adv-x="574" 
d="M504 0h-163v-104h-108v104h-163v518h114v-426h206v426h114v-518z" />
    <glyph glyph-name="afii10050" unicode="&#x490;" horiz-adv-x="538" 
d="M80 700h330v123h118v-225h-330v-598h-118v700z" />
    <glyph glyph-name="afii10098" unicode="&#x491;" horiz-adv-x="448" 
d="M184 426v-426h-114v518h254v132h114v-224h-254z" />
    <glyph glyph-name="Wgrave" unicode="&#x1e80;" horiz-adv-x="1006" 
d="M704 139l157 561h125l-206 -700h-153l-124 544l-124 -544h-153l-206 700h125l157 -561l129 561h144zM565 754h-109l-139 145v25h124z" />
    <glyph glyph-name="wgrave" unicode="&#x1e81;" horiz-adv-x="798" 
d="M467 518l89 -389l106 389h121l-157 -518h-139l-88 394l-88 -394h-139l-157 518h121l106 -389l89 389h136zM458 580h-109l-139 145v25h124z" />
    <glyph glyph-name="Wacute" unicode="&#x1e82;" horiz-adv-x="1006" 
d="M704 139l157 561h125l-206 -700h-153l-124 544l-124 -544h-153l-206 700h125l157 -561l129 561h144zM555 924h124v-25l-139 -145h-109z" />
    <glyph glyph-name="wacute" unicode="&#x1e83;" horiz-adv-x="798" 
d="M467 518l89 -389l106 389h121l-157 -518h-139l-88 394l-88 -394h-139l-157 518h121l106 -389l89 389h136zM464 750h124v-25l-139 -145h-109z" />
    <glyph glyph-name="Wdieresis" unicode="&#x1e84;" horiz-adv-x="1006" 
d="M704 139l157 561h125l-206 -700h-153l-124 544l-124 -544h-153l-206 700h125l157 -561l129 561h144zM339 839q0 63 63 63t63 -63t-63 -63t-63 63zM541 839q0 63 63 63t63 -63t-63 -63t-63 63z" />
    <glyph glyph-name="wdieresis" unicode="&#x1e85;" horiz-adv-x="798" 
d="M467 518l89 -389l106 389h121l-157 -518h-139l-88 394l-88 -394h-139l-157 518h121l106 -389l89 389h136zM235 665q0 63 63 63t63 -63t-63 -63t-63 63zM437 665q0 63 63 63t63 -63t-63 -63t-63 63z" />
    <glyph glyph-name="Ygrave" unicode="&#x1ef2;" horiz-adv-x="686" 
d="M343 388l193 312h130l-264 -423v-277h-118v277l-264 423h130zM417 754h-109l-139 145v25h124z" />
    <glyph glyph-name="ygrave" unicode="&#x1ef3;" horiz-adv-x="557" 
d="M418 518h124l-276 -711h-120l74 193l-205 518h124l141 -377zM342 580h-109l-139 145v25h124z" />
    <glyph glyph-name="uni2010" unicode="&#x2010;" horiz-adv-x="406" 
d="M60 278v108h286v-108h-286z" />
    <glyph glyph-name="figuredash" unicode="&#x2012;" horiz-adv-x="590" 
d="M40 283v98h510v-98h-510z" />
    <glyph glyph-name="endash" unicode="&#x2013;" horiz-adv-x="500" 
d="M0 283v98h500v-98h-500z" />
    <glyph glyph-name="emdash" unicode="&#x2014;" 
d="M0 283v98h1000v-98h-1000z" />
    <glyph glyph-name="afii00208" unicode="&#x2015;" 
d="M100 283v98h800v-98h-800z" />
    <glyph glyph-name="uni2016" unicode="&#x2016;" horiz-adv-x="462" 
d="M100 749h98v-879h-98v879zM265 749h97v-879h-97v879z" />
    <glyph glyph-name="underscoredbl" unicode="&#x2017;" horiz-adv-x="600" 
d="M50 -137h500v-78h-500v78zM50 -25h500v-78h-500v78z" />
    <glyph glyph-name="quoteleft" unicode="&#x2018;" horiz-adv-x="295" 
d="M219.01 569.007q0 -70.9912 -70.9922 -70.9912q-34.9951 0 -52.9932 17.998t-17.998 59.9922q0 68.9922 30.9961 118.486q30.9971 49.4941 84.9902 77.4902l30.9961 -46.9941q-22.9971 -17.998 -36.9951 -40.4951q-13.999 -22.4971 -17.998 -46.4941
q49.9941 -8.99902 49.9941 -68.9922z" />
    <glyph glyph-name="quoteright" unicode="&#x2019;" horiz-adv-x="295" 
d="M76 701q0 71 71 71q35 0 53 -18t18 -60q0 -69 -31 -118.5t-85 -77.5l-31 47q23 18 37 40.5t18 46.5q-50 9 -50 69z" />
    <glyph glyph-name="quotesinglbase" unicode="&#x201a;" horiz-adv-x="295" 
d="M76 59q0 71 71 71q35 0 53 -18t18 -60q0 -69 -31 -118.5t-85 -77.5l-31 47q23 18 37 40.5t18 46.5q-50 9 -50 69z" />
    <glyph glyph-name="quotereversed" unicode="&#x201b;" horiz-adv-x="295" 
d="M219 701q0 -60 -50 -69q7 -49 55 -87l-31 -47q-54 28 -85 77.5t-31 118.5q0 42 18 60t53 18q71 0 71 -71z" />
    <glyph glyph-name="quotedblleft" unicode="&#x201c;" horiz-adv-x="475" 
d="M219.01 569.007q0 -70.9912 -70.9922 -70.9912q-34.9951 0 -52.9932 17.998t-17.998 59.9922q0 68.9922 30.9961 118.486q30.9971 49.4941 84.9902 77.4902l30.9961 -46.9941q-22.9971 -17.998 -36.9951 -40.4951q-13.999 -22.4971 -17.998 -46.4941
q49.9941 -8.99902 49.9941 -68.9922zM399.01 569.007q0 -70.9912 -70.9922 -70.9912q-34.9951 0 -52.9932 17.998t-17.998 59.9922q0 68.9922 30.9961 118.486q30.9971 49.4941 84.9902 77.4902l30.9961 -46.9941q-22.9971 -17.998 -36.9951 -40.4951
q-13.999 -22.4971 -17.998 -46.4941q49.9941 -8.99902 49.9941 -68.9922z" />
    <glyph glyph-name="quotedblright" unicode="&#x201d;" horiz-adv-x="475" 
d="M256 701q0 71 71 71q35 0 53 -18t18 -60q0 -69 -31 -118.5t-85 -77.5l-31 47q23 18 37 40.5t18 46.5q-50 9 -50 69zM76 701q0 71 71 71q35 0 53 -18t18 -60q0 -69 -31 -118.5t-85 -77.5l-31 47q23 18 37 40.5t18 46.5q-50 9 -50 69z" />
    <glyph glyph-name="quotedblbase" unicode="&#x201e;" horiz-adv-x="475" 
d="M256 59q0 71 71 71q35 0 53 -18t18 -60q0 -69 -31 -118.5t-85 -77.5l-31 47q23 18 37 40.5t18 46.5q-50 9 -50 69zM76 59q0 71 71 71q35 0 53 -18t18 -60q0 -69 -31 -118.5t-85 -77.5l-31 47q23 18 37 40.5t18 46.5q-50 9 -50 69z" />
    <glyph glyph-name="uni201F" unicode="&#x201f;" horiz-adv-x="475" 
d="M219 701q0 -60 -50 -69q7 -49 55 -87l-31 -47q-54 28 -85 77.5t-31 118.5q0 42 18 60t53 18q71 0 71 -71zM399 701q0 -60 -50 -69q7 -49 55 -87l-31 -47q-54 28 -85 77.5t-31 118.5q0 42 18 60t53 18q71 0 71 -71z" />
    <glyph glyph-name="dagger" unicode="&#x2020;" horiz-adv-x="584" 
d="M504 488h-155v-619h-114v619h-155v92h155v168h114v-168h155v-92z" />
    <glyph glyph-name="daggerdbl" unicode="&#x2021;" horiz-adv-x="584" 
d="M504 37h-155v-168h-114v168h-155v92h155v359h-155v92h155v168h114v-168h155v-92h-155v-359h155v-92z" />
    <glyph glyph-name="bullet" unicode="&#x2022;" horiz-adv-x="460" 
d="M100 332q0 63 33 98t97 35t97 -35t33 -98t-33 -98t-97 -35t-97 35t-33 98z" />
    <glyph glyph-name="onedotenleader" unicode="&#x2024;" horiz-adv-x="295" 
d="M76 59q0 71 71 71t71 -71t-71 -71t-71 71z" />
    <glyph glyph-name="twodotenleader" unicode="&#x2025;" horiz-adv-x="590" 
d="M76 59q0 71 71 71t71 -71t-71 -71t-71 71zM371 59q0 71 71 71t71 -71t-71 -71t-71 71z" />
    <glyph glyph-name="ellipsis" unicode="&#x2026;" horiz-adv-x="885" 
d="M76 59q0 71 71 71t71 -71t-71 -71t-71 71zM371 59q0 71 71 71t71 -71t-71 -71t-71 71zM666 59q0 71 71 71t71 -71t-71 -71t-71 71z" />
    <glyph glyph-name="perthousand" unicode="&#x2030;" horiz-adv-x="1009" 
d="M513 700h98l-434 -700h-98zM30 527q0 81 40.5 130.5t110.5 49.5t110.5 -49.5t40.5 -130.5t-40.5 -130.5t-110.5 -49.5t-110.5 49.5t-40.5 130.5zM141 527q0 -45 10 -64.5t30 -19.5t30 19.5t10 64.5t-10 64.5t-30 19.5t-30 -19.5t-10 -64.5zM358 171q0 81 40.5 130.5
t110.5 49.5t110.5 -49.5t40.5 -130.5t-40.5 -130.5t-110.5 -49.5t-110.5 49.5t-40.5 130.5zM469 171q0 -45 10 -64.5t30 -19.5t30 19.5t10 64.5t-10 64.5t-30 19.5t-30 -19.5t-10 -64.5zM677 171q0 81 40.5 130.5t110.5 49.5t110.5 -49.5t40.5 -130.5t-40.5 -130.5
t-110.5 -49.5t-110.5 49.5t-40.5 130.5zM788 171q0 -45 10 -64.5t30 -19.5t30 19.5t10 64.5t-10 64.5t-30 19.5t-30 -19.5t-10 -64.5z" />
    <glyph glyph-name="minute" unicode="&#x2032;" horiz-adv-x="338" 
d="M138 700h125v-43l-95 -230h-93z" />
    <glyph glyph-name="second" unicode="&#x2033;" horiz-adv-x="538" 
d="M143 700h125v-43l-95 -230h-93zM333 700h125v-43l-95 -230h-93z" />
    <glyph glyph-name="guilsinglleft" unicode="&#x2039;" horiz-adv-x="352" 
d="M70 335l222 205v-114l-125 -114l125 -114v-114l-222 205v46z" />
    <glyph glyph-name="guilsinglright" unicode="&#x203a;" horiz-adv-x="352" 
d="M282 289l-222 -205v114l125 114l-125 114v114l222 -205v-46z" />
    <glyph glyph-name="exclamdbl" unicode="&#x203c;" horiz-adv-x="499" 
d="M89 507v193h124v-193l-24 -325h-76zM80 59q0 71 71 71t71 -71t-71 -71t-71 71zM286 507v193h124v-193l-24 -325h-76zM277 59q0 71 71 71t71 -71t-71 -71t-71 71z" />
    <glyph glyph-name="uni203E" unicode="&#x203e;" horiz-adv-x="420" 
d="M59 692h302v-93h-302v93z" />
    <glyph glyph-name="fraction" unicode="&#x2044;" horiz-adv-x="470" 
d="M87 -15h-97l394 730h96z" />
    <glyph glyph-name="zerosuperior" horiz-adv-x="400" 
d="M21 469q0 51 11 94.5t33.5 76t56.5 51t79 18.5t78.5 -18.5t56 -51t33.5 -76t11 -94.5t-11 -95t-33.5 -76t-56 -50.5t-78.5 -18.5t-79 18.5t-56.5 50.5t-33.5 76t-11 95zM121 469q0 -72 20 -112t60 -40q39 0 59 40t20 112q0 70 -20 111t-59 41q-40 0 -60 -41t-20 -111z
" />
    <glyph glyph-name="uni2071" unicode="&#x2071;" horiz-adv-x="400" 
d="M152 556h100v-320h-100v320zM146 650q0 56 54 56t54 -56t-54 -56t-54 56z" />
    <glyph glyph-name="foursuperior" horiz-adv-x="400" 
d="M15 330v79l211 292h95v-285h53v-86h-53v-94h-100v94h-206zM122 416h99v137z" />
    <glyph glyph-name="fivesuperior" horiz-adv-x="400" 
d="M64 701h280v-86h-184v-80q10 2 20 3t20 1q34 0 63 -9.5t50.5 -28t33.5 -47t12 -65.5q0 -72 -48.5 -116.5t-132.5 -44.5q-33 0 -66 6t-64 20l8 97q25 -18 56 -26.5t60 -8.5q42 0 64 20.5t22 54.5t-21 48t-69 14q-25 0 -53.5 -6.5t-50.5 -17.5v272z" />
    <glyph glyph-name="sixsuperior" horiz-adv-x="400" 
d="M210 228q-85 0 -130.5 55t-45.5 160q0 75 14.5 126t41.5 82t64.5 44.5t82.5 13.5q31 0 60.5 -7t50.5 -20l-10 -96q-43 35 -99 35q-48 0 -71.5 -24.5t-27.5 -72.5q14 13 37.5 20.5t50.5 7.5q67 0 108 -44.5t41 -119.5q0 -36 -12 -65.5t-33.5 -50.5t-52.5 -32.5t-69 -11.5z
M138 405q0 -42 20 -65.5t52 -23.5q29 0 47 19t18 51q0 38 -17.5 58t-46.5 20q-23 0 -41 -8.5t-30 -22.5q-2 -8 -2 -14.5v-13.5z" />
    <glyph glyph-name="sevensuperior" horiz-adv-x="400" 
d="M183 236h-110l165 379h-198v86h310v-77z" />
    <glyph glyph-name="eightsuperior" horiz-adv-x="400" 
d="M144 582q0 -17 12.5 -32t46.5 -28q26 14 36 29t10 32q0 16 -14 27t-39 11t-38.5 -11.5t-13.5 -27.5zM267 365q0 22 -19.5 41t-61.5 32q-31 -14 -41.5 -33.5t-10.5 -39.5t17.5 -34t48.5 -14t49 14t18 34zM200 228q-38 0 -68.5 10t-53 28.5t-34.5 44t-12 56.5q0 33 18 64.5
t54 50.5q-29 17 -45 43t-16 56t11.5 53.5t32 40t48.5 25.5t61 9t61.5 -9t49.5 -25.5t32.5 -40.5t11.5 -53t-16 -55t-48 -43q43 -20 62 -50t19 -66q0 -31 -12.5 -56.5t-34.5 -44t-53 -28.5t-68 -10z" />
    <glyph glyph-name="ninesuperior" horiz-adv-x="400" 
d="M190 709q85 0 130.5 -55t45.5 -160q0 -75 -14.5 -126t-41.5 -82t-64.5 -44.5t-82.5 -13.5q-31 0 -60.5 7t-50.5 20l10 96q43 -35 99 -35q48 0 71.5 24.5t27.5 72.5q-14 -13 -37.5 -20.5t-50.5 -7.5q-67 0 -108 44.5t-41 119.5q0 36 12 65.5t33.5 50.5t52.5 32.5t69 11.5z
M262 532q0 42 -20 65.5t-52 23.5q-29 0 -47 -19t-18 -51q0 -38 17.5 -58t46.5 -20q23 0 41 8.5t30 22.5q2 8 2 14.5v13.5z" />
    <glyph glyph-name="uni207A" unicode="&#x207a;" horiz-adv-x="400" 
d="M151 429h-120v84h120v119h98v-119h120v-84h-120v-119h-98v119z" />
    <glyph glyph-name="uni207B" unicode="&#x207b;" horiz-adv-x="400" 
d="M31 429v84h338v-84h-338z" />
    <glyph glyph-name="uni207C" unicode="&#x207c;" horiz-adv-x="400" 
d="M31 494v84h338v-84h-338zM31 364v84h338v-84h-338z" />
    <glyph glyph-name="uni207D" unicode="&#x207d;" horiz-adv-x="400" 
d="M114 469q0 82 28 154t79 136h86q-48 -67 -74 -140.5t-26 -149.5q0 -78 26 -150.5t74 -141.5h-86q-51 64 -79 135.5t-28 156.5z" />
    <glyph glyph-name="uni207E" unicode="&#x207e;" horiz-adv-x="400" 
d="M286 469q0 -85 -28 -156.5t-79 -135.5h-86q48 69 74 141.5t26 150.5q0 76 -26 149.5t-74 140.5h86q51 -64 79 -136t28 -154z" />
    <glyph glyph-name="uni207F" unicode="&#x207f;" horiz-adv-x="400" 
d="M204 497q-43 0 -65 -30v-231h-100v340h100v-22q13 12 33 20.5t47 8.5q63 0 102.5 -39t39.5 -117v-191h-99v174q0 48 -15 67.5t-43 19.5z" />
    <glyph glyph-name="zeroinferior" horiz-adv-x="400" 
d="M21 107q0 51 11 94.5t33.5 76t56.5 51t79 18.5t78.5 -18.5t56 -51t33.5 -76t11 -94.5t-11 -95t-33.5 -76t-56 -50.5t-78.5 -18.5t-79 18.5t-56.5 50.5t-33.5 76t-11 95zM121 107q0 -72 20 -112t60 -40q39 0 59 40t20 112q0 70 -20 111t-59 41q-40 0 -60 -41t-20 -111z
" />
    <glyph glyph-name="oneinferior" horiz-adv-x="400" 
d="M98 161l-50 79l135 99h83v-466h-100v337z" />
    <glyph glyph-name="twoinferior" horiz-adv-x="400" 
d="M35 -127v75q37 30 75.5 67t70.5 74q59 68 59 120q0 24 -18 36.5t-47 12.5q-30 0 -63 -11t-56 -28l-6 93q26 15 61 24.5t71 9.5q72 0 116 -34.5t44 -103.5q0 -41 -18 -79t-61 -87q-21 -24 -43 -44.5l-43 -38.5h168v-86h-310z" />
    <glyph glyph-name="threeinferior" horiz-adv-x="400" 
d="M94 158q75 0 109.5 15t34.5 43q0 20 -16 31t-51 11q-24 0 -55 -7.5t-61 -26.5l-9 92q26 14 62 22t71 8q76 0 118.5 -33.5t42.5 -90.5q0 -33 -17.5 -61t-54.5 -44q35 -14 56.5 -43.5t21.5 -67.5q0 -69 -47.5 -105t-128.5 -36q-32 0 -67 6.5t-65 19.5l9 100
q27 -20 58.5 -29t61.5 -9q38 0 57.5 14t19.5 39q0 35 -37.5 50.5t-112.5 15.5v86z" />
    <glyph glyph-name="fourinferior" horiz-adv-x="400" 
d="M15 -32v79l211 292h95v-285h53v-86h-53v-94h-100v94h-206zM122 54h99v137z" />
    <glyph glyph-name="fiveinferior" horiz-adv-x="400" 
d="M64 339h280v-86h-184v-80q10 2 20 3t20 1q34 0 63 -9.5t50.5 -28t33.5 -47t12 -65.5q0 -72 -48.5 -116.5t-132.5 -44.5q-33 0 -66 6t-64 20l8 97q25 -18 56 -26.5t60 -8.5q42 0 64 20.5t22 54.5t-21 48t-69 14q-25 0 -53.5 -6.5t-50.5 -17.5v272z" />
    <glyph glyph-name="sixinferior" horiz-adv-x="400" 
d="M210 -134q-85 0 -130.5 55t-45.5 160q0 75 14.5 126t41.5 82t64.5 44.5t82.5 13.5q31 0 60.5 -7t50.5 -20l-10 -96q-43 35 -99 35q-48 0 -71.5 -24.5t-27.5 -72.5q14 13 37.5 20.5t50.5 7.5q67 0 108 -44.5t41 -119.5q0 -36 -12 -65.5t-33.5 -50.5t-52.5 -32.5t-69 -11.5
zM138 43q0 -42 20 -65.5t52 -23.5q29 0 47 19t18 51q0 38 -17.5 58t-46.5 20q-23 0 -41 -8.5t-30 -22.5q-2 -8 -2 -14.5v-13.5z" />
    <glyph glyph-name="seveninferior" horiz-adv-x="400" 
d="M183 -126h-110l165 379h-198v86h310v-77z" />
    <glyph glyph-name="eightinferior" horiz-adv-x="400" 
d="M144 220q0 -17 12.5 -32t46.5 -28q26 14 36 29t10 32q0 16 -14 27t-39 11t-38.5 -11.5t-13.5 -27.5zM267 3q0 22 -19.5 41t-61.5 32q-31 -14 -41.5 -33.5t-10.5 -39.5t17.5 -34t48.5 -14t49 14t18 34zM200 -134q-38 0 -68.5 10t-53 28.5t-34.5 44t-12 56.5q0 33 18 64.5
t54 50.5q-29 17 -45 43t-16 56t11.5 53.5t32 40t48.5 25.5t61 9t61.5 -9t49.5 -25.5t32.5 -40.5t11.5 -53t-16 -55t-48 -43q43 -20 62 -50t19 -66q0 -31 -12.5 -56.5t-34.5 -44t-53 -28.5t-68 -10z" />
    <glyph glyph-name="nineinferior" horiz-adv-x="400" 
d="M190 347q85 0 130.5 -55t45.5 -160q0 -75 -14.5 -126t-41.5 -82t-64.5 -44.5t-82.5 -13.5q-31 0 -60.5 7t-50.5 20l10 96q43 -35 99 -35q48 0 71.5 24.5t27.5 72.5q-14 -13 -37.5 -20.5t-50.5 -7.5q-67 0 -108 44.5t-41 119.5q0 36 12 65.5t33.5 50.5t52.5 32.5t69 11.5z
M262 170q0 42 -20 65.5t-52 23.5q-29 0 -47 -19t-18 -51q0 -38 17.5 -58t46.5 -20q23 0 41 8.5t30 22.5q2 8 2 14.5v13.5z" />
    <glyph glyph-name="uni208A" unicode="&#x208a;" horiz-adv-x="400" 
d="M151 67h-120v84h120v119h98v-119h120v-84h-120v-119h-98v119z" />
    <glyph glyph-name="uni208B" unicode="&#x208b;" horiz-adv-x="400" 
d="M31 67v84h338v-84h-338z" />
    <glyph glyph-name="uni208C" unicode="&#x208c;" horiz-adv-x="400" 
d="M31 132v84h338v-84h-338zM31 2v84h338v-84h-338z" />
    <glyph glyph-name="uni208D" unicode="&#x208d;" horiz-adv-x="400" 
d="M114 107q0 82 28 154t79 136h86q-48 -67 -74 -140.5t-26 -149.5q0 -78 26 -150.5t74 -141.5h-86q-51 64 -79 135.5t-28 156.5z" />
    <glyph glyph-name="uni208E" unicode="&#x208e;" horiz-adv-x="400" 
d="M286 107q0 -85 -28 -156.5t-79 -135.5h-86q48 69 74 141.5t26 150.5q0 76 -26 149.5t-74 140.5h86q51 -64 79 -136t28 -154z" />
    <glyph glyph-name="uni2090" unicode="&#x2090;" horiz-adv-x="400" 
d="M166 -135q-58 0 -96 32t-38 84q0 60 43.5 91t124.5 31h65q-2 24 -18.5 34.5t-56.5 10.5q-29 0 -61 -7.5t-56 -21.5l-8 84q24 13 60 20t71 7q87 0 124.5 -34t37.5 -110v-213h-93v21q-17 -15 -42.5 -22t-56.5 -7zM182 -53q26 0 47 7.5t36 24.5v42h-63q-42 0 -58 -10.5
t-16 -28.5q0 -17 15 -26t39 -9z" />
    <glyph glyph-name="uni2091" unicode="&#x2091;" horiz-adv-x="400" 
d="M133 8q6 -34 31 -47.5t54 -13.5q32 0 61 8t55 30l8 -87q-28 -18 -59.5 -25.5t-66.5 -7.5q-88 0 -135.5 49t-47.5 134q0 44 12.5 78t34.5 57t53 35t68 12q78 0 122.5 -48.5t44.5 -135.5v-17t-2 -21h-233zM199 148q-27 0 -44.5 -14.5t-22.5 -44.5h133q-5 30 -22.5 44.5
t-43.5 14.5z" />
    <glyph glyph-name="uni2092" unicode="&#x2092;" horiz-adv-x="400" 
d="M21 47q0 40 12.5 73.5t35.5 58t56 38t75 13.5t75 -13.5t56 -38t35.5 -58t12.5 -73.5t-12.5 -73.5t-35.5 -58t-56 -38t-75 -13.5t-75 13.5t-56 38t-35.5 58t-12.5 73.5zM122 47q0 -45 21.5 -73t56.5 -28t56.5 28t21.5 73t-21.5 73t-56.5 28t-56.5 -28t-21.5 -73z" />
    <glyph glyph-name="uni2093" unicode="&#x2093;" horiz-adv-x="400" 
d="M265 222h113l-121 -170l130 -179h-117l-71 99l-70 -99h-116l129 179l-121 170h113l65 -91z" />
    <glyph glyph-name="uni2094" unicode="&#x2094;" horiz-adv-x="400" 
d="M268 87q-6 34 -31 47.5t-54 13.5q-32 0 -61 -8t-55 -30l-8 87q28 18 59.5 25.5t66.5 7.5q88 0 135.5 -49t47.5 -134q0 -44 -12.5 -78t-34.5 -57t-53 -35t-68 -12q-78 0 -122.5 48.5t-44.5 135.5v17t2 21h233zM202 -53q27 0 44.5 14.5t22.5 44.5h-133q5 -30 22.5 -44.5
t43.5 -14.5z" />
    <glyph glyph-name="uni20A0" unicode="&#x20a0;" horiz-adv-x="783" 
d="M40 459q0 58 20 105t54.5 80t82 50.5t101.5 17.5q32 0 66.5 -6t63.5 -17l-7 -108q-30 15 -61.5 22t-57.5 7q-67 0 -106.5 -39t-39.5 -112t39.5 -112t106.5 -39q21 0 45.5 4.5t49.5 13.5v165h340v-100h-226v-90h209v-100h-209v-101h232v-100h-346v219q-24 -7 -49.5 -10
t-49.5 -3q-54 0 -101.5 17.5t-82 50.5t-54.5 79.5t-20 105.5z" />
    <glyph glyph-name="colonmonetary" unicode="&#x20a1;" horiz-adv-x="621" 
d="M434 788l-20 -77q25 0 49 -3l21 80h72l-24 -92q27 -8 45 -17l-10 -112q-28 18 -62 27l-130 -500q8 -1 18 -1.5t20 -0.5q43 0 82.5 10.5t75.5 34.5l10 -115q-43 -20 -86.5 -27t-85.5 -7q-16 0 -32.5 1t-27.5 3l-16 -61h-72l19 75q-11 3 -22.5 8l-22.5 10l-24 -93h-70
l34 130q-63 48 -96.5 121.5t-33.5 167.5q0 71 20.5 132t59.5 108t94 77t124 40l21 81h70zM165 350q0 -96 43 -160l105 401q-72 -26 -110 -90t-38 -151zM437 607q-24 3 -50 0l-123 -473q17 -14 43 -24z" />
    <glyph glyph-name="uni20A2" unicode="&#x20a2;" horiz-adv-x="626" 
d="M565 379q-28 16 -71 16q-38 0 -64.5 -21.5t-41.5 -60.5v-221h25q43 0 82.5 10.5t75.5 34.5l10 -115q-43 -20 -86.5 -27t-85.5 -7q-83 0 -150.5 26.5t-115 74t-73 114t-25.5 147.5q0 79 25.5 145.5t72.5 114.5t113.5 75t148.5 27q46 0 91 -8t81 -25l-10 -112
q-33 21 -73.5 31t-83.5 10q-59 0 -104.5 -19t-76.5 -53.5t-47.5 -82t-16.5 -103.5q0 -78 28.5 -134.5t80.5 -88.5v354h114v-42q20 24 50 39t68 15q18 0 37.5 -2t33.5 -7z" />
    <glyph glyph-name="franc" unicode="&#x20a3;" horiz-adv-x="546" 
d="M20 263v68h60v65h-60v68h60v236h446v-102h-328v-134h265v-68h-265v-65h265v-68h-265v-263h-118v263h-60z" />
    <glyph glyph-name="lira" unicode="&#x20a4;" horiz-adv-x="555" 
d="M48 432h82v32q0 130 59 189t174 59q42 0 85 -8.5t74 -25.5l-9 -108q-31 20 -68 29t-75 9q-30 0 -52.5 -6.5t-37.5 -23.5t-22.5 -46t-7.5 -74v-26h194v-68h-194v-66h195v-68h-195v-128h275v-102h-495v102h100v128h-82v68h82v66h-82v68z" />
    <glyph glyph-name="uni20A6" unicode="&#x20a6;" horiz-adv-x="718" 
d="M20 249v68h60v66h-60v68h60v249h129l147 -249h168v249h114v-249h60v-68h-60v-66h60v-68h-60v-249h-128l-148 249h-168v-249h-114v249h-60zM194 317h127l-39 66h-88v-66zM436 317h88v66h-127zM194 451h47l-47 80v-80zM524 169v80h-48z" />
    <glyph glyph-name="peseta" unicode="&#x20a7;" horiz-adv-x="1077" 
d="M689 -12q-79 0 -123.5 43t-44.5 137v258h-51q-18 -83 -88.5 -128.5t-174.5 -45.5h-9v-252h-118v700h127q53 0 98.5 -12t80 -35.5t56.5 -57.5t30 -77h49v155h114v-155h168q33 12 79 12q35 0 69.5 -8.5t59.5 -25.5l-9 -101q-49 41 -119 41q-62 0 -62 -49q0 -25 17 -42.5
t60 -33.5q71 -26 105 -62.5t34 -98.5q0 -78 -49.5 -120t-131.5 -42h-167zM635 158q0 -42 14.5 -60t48.5 -18h158q36 0 53 17t17 47q0 28 -15 46t-58 32q-69 23 -106 62t-37 97q0 22 5 45h-80v-268zM355 477q0 63 -37.5 92t-112.5 29h-7v-244h7q75 0 112.5 30t37.5 93z" />
    <glyph glyph-name="uni20A8" unicode="&#x20a8;" horiz-adv-x="988" 
d="M544 491q0 -74 -40 -122t-106 -70l177 -299h-132l-161 282h-91v-282h-111v700h204q54 0 101.5 -13.5t83 -39.5t55.5 -65.5t20 -90.5zM740 -12q-48 0 -95 13.5t-82 39.5l8 113q35 -35 81 -53.5t88 -18.5q92 0 92 62q0 26 -21.5 43t-81.5 34q-85 23 -124 62t-39 99
q0 72 53 110t147 38q43 0 81 -8t75 -25l-10 -106q-33 24 -67.5 34.5t-79.5 10.5t-63.5 -13t-18.5 -35q0 -12 4.5 -22.5t15.5 -20t29 -17.5t46 -16q49 -14 82 -31t52.5 -37.5t27.5 -43.5t8 -50q0 -78 -54 -120t-154 -42zM424 491q0 57 -38.5 82t-110.5 25h-84v-214h84
q72 0 110.5 26t38.5 81z" />
    <glyph glyph-name="uni20A9" unicode="&#x20a9;" horiz-adv-x="1006" 
d="M21 365v68h77l-78 267h125l75 -267h148l63 267h144l62 -267h149l75 267h125l-78 -267h76v-68h-96l-17 -58h113v-68h-133l-70 -239h-153l-56 239h-139l-55 -239h-153l-70 239h-134v68h114l-17 58h-97zM667 307h83l17 58h-114zM255 307h84l13 58h-113zM449 307h108l-14 58
h-80zM478 433h49l-24 106zM301 144l22 95h-49zM705 144l26 95h-48z" />
    <glyph glyph-name="afii57636" unicode="&#x20aa;" horiz-adv-x="878" 
d="M80 700h263q118 0 186.5 -71t68.5 -215v-162h-118v151q0 60 -9 97.5t-26.5 59t-43 29.5t-58.5 8h-145v-597h-118v700zM798 0h-263q-118 0 -186.5 71t-68.5 215v162h118v-151q0 -60 9 -97.5t26.5 -59.5t43 -30t58.5 -8h145v598h118v-700z" />
    <glyph glyph-name="dong" unicode="&#x20ab;" horiz-adv-x="608" 
d="M598 568h-70v-568h-118v31q-25 -20 -57.5 -31.5t-72.5 -11.5q-53 0 -97 18.5t-76 52.5t-49.5 82.5t-17.5 107.5t17.5 107.5t49.5 82.5t76 52.5t97 18.5q40 0 72.5 -11.5t57.5 -31.5v101h-178v68h178v64h118v-64h70v-68zM410 361q-20 22 -49.5 34.5t-62.5 12.5
q-60 0 -99 -40.5t-39 -118.5t39 -118.5t99 -40.5q33 0 62.5 12.5t49.5 34.5v224zM510 -157h-371v78h371v-78z" />
    <glyph glyph-name="Euro" unicode="&#x20ac;" horiz-adv-x="620" 
d="M20 254v68h50q-2 29 0 56h-50v68h59q13 60 41.5 109t70.5 84t96 54t117 19q46 0 89 -7.5t83 -24.5l-10 -113q-33 22 -73 31.5t-85 9.5q-81 0 -134 -44t-73 -118h317l-19 -68h-309q-3 -28 0 -56h292l-21 -68h-260q21 -77 75.5 -119.5t135.5 -42.5q39 0 78.5 9.5t78.5 35.5
l11 -115q-39 -18 -82 -26t-91 -8q-64 0 -118.5 19t-97 53.5t-71 83.5t-41.5 110h-59z" />
    <glyph glyph-name="afii61248" unicode="&#x2105;" horiz-adv-x="1022" 
d="M353 -15h-97l394 730h96zM570 217q0 48 15 89.5t42.5 72t66.5 47.5t87 17t87 -17t66.5 -47.5t42.5 -72t15 -89.5t-15 -89.5t-42.5 -72t-66.5 -47.5t-87 -17t-87 17t-66.5 47.5t-42.5 72t-15 89.5zM678 217q0 -64 28.5 -100.5t74.5 -36.5t74.5 36.5t28.5 100.5
t-28.5 100.5t-74.5 36.5t-74.5 -36.5t-28.5 -100.5zM30 486q0 52 17 93.5t47.5 71t72 45.5t91.5 16q35 0 69.5 -7t63.5 -20l-10 -97q-50 35 -121 35q-52 0 -87 -35.5t-35 -101.5t35 -101.5t87 -35.5q71 0 121 35l10 -97q-29 -13 -63.5 -20t-69.5 -7q-50 0 -91.5 16t-72 45.5
t-47.5 71t-17 93.5z" />
    <glyph glyph-name="uni2109" unicode="&#x2109;" horiz-adv-x="821" 
d="M355 700h446v-102h-328v-185h304v-102h-304v-311h-118v700zM11 574q0 29 11 54.5t30.5 44t46 29t56.5 10.5t56 -10.5t45.5 -29t31 -44t11.5 -54.5t-11.5 -54.5t-31 -44t-45.5 -29t-56 -10.5t-56.5 10.5t-46 29t-30.5 44t-11 54.5zM99 574q0 -27 16 -42.5t40 -15.5
t40 15.5t16 42.5t-16 42.5t-40 15.5t-40 -15.5t-16 -42.5z" />
    <glyph glyph-name="afii61289" unicode="&#x2113;" horiz-adv-x="508" 
d="M202 399q0 -57 4 -104t15 -85q60 51 84 121.5t24 152.5q0 39 -3.5 63.5t-9.5 38t-14.5 18t-18.5 4.5q-35 0 -58 -54.5t-23 -154.5zM82 392q0 78 15.5 137.5t43 100t65.5 61.5t84 21q76 0 117.5 -62t41.5 -167q0 -51 -9.5 -101.5t-30.5 -98t-55 -90.5t-83 -79
q21 -24 53 -24q18 0 33 15.5t26 57.5l85 -69q-40 -106 -142 -106q-48 0 -85 19t-66 53q-22 -9 -46 -17t-50 -14l-39 99q23 5 43.5 11t39.5 14q-20 54 -30.5 114.5t-10.5 124.5z" />
    <glyph glyph-name="afii61352" unicode="&#x2116;" horiz-adv-x="952" 
d="M80 700h135l147 -472v472h116v-700h-136l-146 472v-472h-116v700zM912 0h-395v90h395v-90zM529 320q0 46 12.5 84t36.5 65.5t59 42.5t80 15q43 0 77 -15t58 -42.5t36.5 -65.5t12.5 -84t-12.5 -84t-36.5 -65.5t-58 -42.5t-77 -15q-45 0 -80 15t-59 42.5t-36.5 65.5
t-12.5 84zM641 320q0 -57 19.5 -85t54.5 -28t54.5 28t19.5 85t-19.5 85t-54.5 28t-54.5 -28t-19.5 -85z" />
    <glyph glyph-name="uni2117" unicode="&#x2117;" horiz-adv-x="830" 
d="M502 411q0 32 -15.5 51t-57.5 19h-56v-140h56q42 0 57.5 19.5t15.5 50.5zM596 411q0 -69 -44 -108t-119 -39h-60v-134h-93v427h153q75 0 119 -38.5t44 -107.5zM53 350q0 75 28.5 141t77.5 115t115 77.5t141 28.5t141 -28.5t115 -77.5t77.5 -115t28.5 -141t-28.5 -141
t-77.5 -115t-115 -77.5t-141 -28.5t-141 28.5t-115 77.5t-77.5 115t-28.5 141zM109 350q0 -65 24 -121.5t65.5 -98.5t97.5 -66t119 -24t119 24t97.5 66t65.5 98.5t24 121.5q0 64 -24 120.5t-65.5 98.5t-97.5 66.5t-119 24.5t-119 -24.5t-97.5 -66.5t-65.5 -98.5t-24 -120.5z
" />
    <glyph glyph-name="uni2120" unicode="&#x2120;" horiz-adv-x="691" 
d="M134 508q-54 17 -74 41.5t-20 61.5q0 42 30 67.5t93 25.5q25 0 51.5 -5t48.5 -16l-5 -78q-20 16 -41.5 22.5t-45.5 6.5q-43 0 -43 -19q0 -11 14 -21.5t49 -21.5q50 -16 68.5 -42t18.5 -64q0 -48 -32.5 -74.5t-98.5 -26.5q-28 0 -54.5 5.5t-50.5 18.5l8 83
q18 -17 43.5 -27t49.5 -10q26 0 36.5 8t10.5 21q0 12 -10 22.5t-46 21.5zM442 466l-51 88v-185h-86v331h80l88 -147l88 147h80v-331h-86v185l-51 -88h-62z" />
    <glyph glyph-name="uni2121" unicode="&#x2121;" horiz-adv-x="934" 
d="M158 598h-148v102h414v-102h-148v-598h-118v598zM433 215q4 -66 35.5 -99.5t86.5 -33.5q34 0 60.5 11.5t49.5 39.5l13 -110q-26 -17 -59.5 -26t-68.5 -9q-58 0 -101 21t-71.5 57.5t-42.5 86t-14 107.5q0 60 14 110t40 85.5t61.5 55t79.5 19.5q46 0 82.5 -20t61.5 -56.5
t38.5 -87t13.5 -110.5q0 -8 -0.5 -20t-1.5 -21h-277zM600 307q-2 63 -24 96t-60 33t-59.5 -33t-23.5 -96h167zM755 730h109v-730h-109v730z" />
    <glyph glyph-name="trademark" unicode="&#x2122;" horiz-adv-x="689" 
d="M100 630h-90v70h266v-70h-90v-261h-86v261zM440 466l-51 88v-185h-86v331h80l88 -147l88 147h80v-331h-86v185l-51 -88h-62z" />
    <glyph glyph-name="Omega" unicode="&#x2126;" horiz-adv-x="726" 
d="M363 712q75 0 134 -26t100 -71.5t62.5 -108.5t21.5 -137q0 -87 -31.5 -154.5t-82.5 -112.5h105v-102h-263v96q76 52 114 118.5t38 154.5q0 55 -14.5 99.5t-41 75.5t-63 47.5t-79.5 16.5q-44 0 -80 -16.5t-62.5 -47.5t-41 -75.5t-14.5 -99.5q0 -88 38 -154.5t114 -118.5
v-96h-263v102h105q-51 45 -82.5 112.5t-31.5 154.5q0 74 21.5 137t62.5 108.5t100 71.5t134 26z" />
    <glyph glyph-name="estimated" unicode="&#x212e;" horiz-adv-x="747" 
d="M407 53q66 0 124.5 17t109.5 52l16 -73q-57 -30 -122.5 -45.5t-129.5 -15.5q-93 0 -160.5 27t-112 75t-66 114.5t-21.5 145.5q0 74 22 140t65 115.5t105 78t143 28.5q77 0 137 -28.5t101 -78t62.5 -116.5t21.5 -143v-32h-484v-200q30 -30 79.5 -45.5t109.5 -15.5z
M534 591q-28 26 -69 40.5t-89 14.5t-89 -14.5t-69 -40.5v-211h316v211z" />
    <glyph glyph-name="onethird" unicode="&#x2153;" horiz-adv-x="960" 
d="M291 -15h-97l394 730h96zM98 523l-50 79l135 99h83v-466h-100v337zM663 286q75 0 109.5 15t34.5 43q0 20 -16 31t-51 11q-24 0 -55 -7.5t-61 -26.5l-9 92q26 14 62 22t71 8q76 0 118.5 -33.5t42.5 -90.5q0 -33 -17.5 -61t-54.5 -44q35 -14 56.5 -43.5t21.5 -67.5
q0 -69 -47.5 -105t-128.5 -36q-32 0 -67 6.5t-65 19.5l9 100q27 -20 58.5 -29t61.5 -9q38 0 57.5 14t19.5 39q0 35 -37.5 50.5t-112.5 15.5v86z" />
    <glyph glyph-name="twothirds" unicode="&#x2154;" horiz-adv-x="960" 
d="M330 -15h-97l394 730h96zM663 286q75 0 109.5 15t34.5 43q0 20 -16 31t-51 11q-24 0 -55 -7.5t-61 -26.5l-9 92q26 14 62 22t71 8q76 0 118.5 -33.5t42.5 -90.5q0 -33 -17.5 -61t-54.5 -44q35 -14 56.5 -43.5t21.5 -67.5q0 -69 -47.5 -105t-128.5 -36q-32 0 -67 6.5
t-65 19.5l9 100q27 -20 58.5 -29t61.5 -9q38 0 57.5 14t19.5 39q0 35 -37.5 50.5t-112.5 15.5v86zM35 235v75q37 30 75.5 67t70.5 74q59 68 59 120q0 24 -18 36.5t-47 12.5q-30 0 -63 -11t-56 -28l-6 93q26 15 61 24.5t71 9.5q72 0 116 -34.5t44 -103.5q0 -41 -18 -79
t-61 -87q-21 -24 -43 -44.5l-43 -38.5h168v-86h-310z" />
    <glyph glyph-name="onefifth" unicode="&#x2155;" horiz-adv-x="960" 
d="M98 523l-50 79l135 99h83v-466h-100v337zM291 -15h-97l394 730h96zM621 466h280v-86h-184v-80q10 2 20 3t20 1q34 0 63 -9.5t50.5 -28t33.5 -47t12 -65.5q0 -72 -48.5 -116.5t-132.5 -44.5q-33 0 -66 6t-64 20l8 97q25 -18 56 -26.5t60 -8.5q42 0 64 20.5t22 54.5t-21 48
t-69 14q-25 0 -53.5 -6.5t-50.5 -17.5v272z" />
    <glyph glyph-name="twofifths" unicode="&#x2156;" horiz-adv-x="960" 
d="M327 -15h-97l394 730h96zM35 235v75q37 30 75.5 67t70.5 74q59 68 59 120q0 24 -18 36.5t-47 12.5q-30 0 -63 -11t-56 -28l-6 93q26 15 61 24.5t71 9.5q72 0 116 -34.5t44 -103.5q0 -41 -18 -79t-61 -87q-21 -24 -43 -44.5l-43 -38.5h168v-86h-310zM621 466h280v-86h-184
v-80q10 2 20 3t20 1q34 0 63 -9.5t50.5 -28t33.5 -47t12 -65.5q0 -72 -48.5 -116.5t-132.5 -44.5q-33 0 -66 6t-64 20l8 97q25 -18 56 -26.5t60 -8.5q42 0 64 20.5t22 54.5t-21 48t-69 14q-25 0 -53.5 -6.5t-50.5 -17.5v272z" />
    <glyph glyph-name="threefifths" unicode="&#x2157;" horiz-adv-x="960" 
d="M313 -15h-97l394 730h96zM94 520q75 0 109.5 15t34.5 43q0 20 -16 31t-51 11q-24 0 -55 -7.5t-61 -26.5l-9 92q26 14 62 22t71 8q76 0 118.5 -33.5t42.5 -90.5q0 -33 -17.5 -61t-54.5 -44q35 -14 56.5 -43.5t21.5 -67.5q0 -69 -47.5 -105t-128.5 -36q-32 0 -67 6.5
t-65 19.5l9 100q27 -20 58.5 -29t61.5 -9q38 0 57.5 14t19.5 39q0 35 -37.5 50.5t-112.5 15.5v86zM621 466h280v-86h-184v-80q10 2 20 3t20 1q34 0 63 -9.5t50.5 -28t33.5 -47t12 -65.5q0 -72 -48.5 -116.5t-132.5 -44.5q-33 0 -66 6t-64 20l8 97q25 -18 56 -26.5t60 -8.5
q42 0 64 20.5t22 54.5t-21 48t-69 14q-25 0 -53.5 -6.5t-50.5 -17.5v272z" />
    <glyph glyph-name="fourfifths" unicode="&#x2158;" horiz-adv-x="960" 
d="M323 -15h-97l394 730h96zM15 330v79l211 292h95v-285h53v-86h-53v-94h-100v94h-206zM122 416h99v137zM621 466h280v-86h-184v-80q10 2 20 3t20 1q34 0 63 -9.5t50.5 -28t33.5 -47t12 -65.5q0 -72 -48.5 -116.5t-132.5 -44.5q-33 0 -66 6t-64 20l8 97q25 -18 56 -26.5
t60 -8.5q42 0 64 20.5t22 54.5t-21 48t-69 14q-25 0 -53.5 -6.5t-50.5 -17.5v272z" />
    <glyph glyph-name="onesixth" unicode="&#x2159;" horiz-adv-x="960" 
d="M298 -15h-97l394 730h96zM98 523l-50 79l135 99h83v-466h-100v337zM754 -7q-85 0 -130.5 55t-45.5 160q0 75 14.5 126t41.5 82t64.5 44.5t82.5 13.5q31 0 60.5 -7t50.5 -20l-10 -96q-43 35 -99 35q-48 0 -71.5 -24.5t-27.5 -72.5q14 13 37.5 20.5t50.5 7.5
q67 0 108 -44.5t41 -119.5q0 -36 -12 -65.5t-33.5 -50.5t-52.5 -32.5t-69 -11.5zM682 170q0 -42 20 -65.5t52 -23.5q29 0 47 19t18 51q0 38 -17.5 58t-46.5 20q-23 0 -41 -8.5t-30 -22.5q-2 -8 -2 -14.5v-13.5z" />
    <glyph glyph-name="fivesixths" unicode="&#x215a;" horiz-adv-x="960" 
d="M325 -15h-97l394 730h96zM64 701h280v-86h-184v-80q10 2 20 3t20 1q34 0 63 -9.5t50.5 -28t33.5 -47t12 -65.5q0 -72 -48.5 -116.5t-132.5 -44.5q-33 0 -66 6t-64 20l8 97q25 -18 56 -26.5t60 -8.5q42 0 64 20.5t22 54.5t-21 48t-69 14q-25 0 -53.5 -6.5t-50.5 -17.5v272
zM754 -7q-85 0 -130.5 55t-45.5 160q0 75 14.5 126t41.5 82t64.5 44.5t82.5 13.5q31 0 60.5 -7t50.5 -20l-10 -96q-43 35 -99 35q-48 0 -71.5 -24.5t-27.5 -72.5q14 13 37.5 20.5t50.5 7.5q67 0 108 -44.5t41 -119.5q0 -36 -12 -65.5t-33.5 -50.5t-52.5 -32.5t-69 -11.5z
M682 170q0 -42 20 -65.5t52 -23.5q29 0 47 19t18 51q0 38 -17.5 58t-46.5 20q-23 0 -41 -8.5t-30 -22.5q-2 -8 -2 -14.5v-13.5z" />
    <glyph glyph-name="oneeighth" unicode="&#x215b;" horiz-adv-x="960" 
d="M298 -15h-97l394 730h96zM98 523l-50 79l135 99h83v-466h-100v337zM693 347q0 -17 12.5 -32t46.5 -28q26 14 36 29t10 32q0 16 -14 27t-39 11t-38.5 -11.5t-13.5 -27.5zM816 130q0 22 -19.5 41t-61.5 32q-31 -14 -41.5 -33.5t-10.5 -39.5t17.5 -34t48.5 -14t49 14t18 34z
M749 -7q-38 0 -68.5 10t-53 28.5t-34.5 44t-12 56.5q0 33 18 64.5t54 50.5q-29 17 -45 43t-16 56t11.5 53.5t32 40t48.5 25.5t61 9t61.5 -9t49.5 -25.5t32.5 -40.5t11.5 -53t-16 -55t-48 -43q43 -20 62 -50t19 -66q0 -31 -12.5 -56.5t-34.5 -44t-53 -28.5t-68 -10z" />
    <glyph glyph-name="threeeighths" unicode="&#x215c;" horiz-adv-x="960" 
d="M323 -15h-97l394 730h96zM94 520q75 0 109.5 15t34.5 43q0 20 -16 31t-51 11q-24 0 -55 -7.5t-61 -26.5l-9 92q26 14 62 22t71 8q76 0 118.5 -33.5t42.5 -90.5q0 -33 -17.5 -61t-54.5 -44q35 -14 56.5 -43.5t21.5 -67.5q0 -69 -47.5 -105t-128.5 -36q-32 0 -67 6.5
t-65 19.5l9 100q27 -20 58.5 -29t61.5 -9q38 0 57.5 14t19.5 39q0 35 -37.5 50.5t-112.5 15.5v86zM693 347q0 -17 12.5 -32t46.5 -28q26 14 36 29t10 32q0 16 -14 27t-39 11t-38.5 -11.5t-13.5 -27.5zM816 130q0 22 -19.5 41t-61.5 32q-31 -14 -41.5 -33.5t-10.5 -39.5
t17.5 -34t48.5 -14t49 14t18 34zM749 -7q-38 0 -68.5 10t-53 28.5t-34.5 44t-12 56.5q0 33 18 64.5t54 50.5q-29 17 -45 43t-16 56t11.5 53.5t32 40t48.5 25.5t61 9t61.5 -9t49.5 -25.5t32.5 -40.5t11.5 -53t-16 -55t-48 -43q43 -20 62 -50t19 -66q0 -31 -12.5 -56.5
t-34.5 -44t-53 -28.5t-68 -10z" />
    <glyph glyph-name="fiveeighths" unicode="&#x215d;" horiz-adv-x="960" 
d="M321 -15h-97l394 730h96zM64 701h280v-86h-184v-80q10 2 20 3t20 1q34 0 63 -9.5t50.5 -28t33.5 -47t12 -65.5q0 -72 -48.5 -116.5t-132.5 -44.5q-33 0 -66 6t-64 20l8 97q25 -18 56 -26.5t60 -8.5q42 0 64 20.5t22 54.5t-21 48t-69 14q-25 0 -53.5 -6.5t-50.5 -17.5v272
zM693 347q0 -17 12.5 -32t46.5 -28q26 14 36 29t10 32q0 16 -14 27t-39 11t-38.5 -11.5t-13.5 -27.5zM816 130q0 22 -19.5 41t-61.5 32q-31 -14 -41.5 -33.5t-10.5 -39.5t17.5 -34t48.5 -14t49 14t18 34zM749 -7q-38 0 -68.5 10t-53 28.5t-34.5 44t-12 56.5q0 33 18 64.5
t54 50.5q-29 17 -45 43t-16 56t11.5 53.5t32 40t48.5 25.5t61 9t61.5 -9t49.5 -25.5t32.5 -40.5t11.5 -53t-16 -55t-48 -43q43 -20 62 -50t19 -66q0 -31 -12.5 -56.5t-34.5 -44t-53 -28.5t-68 -10z" />
    <glyph glyph-name="seveneighths" unicode="&#x215e;" horiz-adv-x="960" 
d="M270 -15h-97l394 730h96zM183 236h-110l165 379h-198v86h310v-77zM693 347q0 -17 12.5 -32t46.5 -28q26 14 36 29t10 32q0 16 -14 27t-39 11t-38.5 -11.5t-13.5 -27.5zM816 130q0 22 -19.5 41t-61.5 32q-31 -14 -41.5 -33.5t-10.5 -39.5t17.5 -34t48.5 -14t49 14t18 34z
M749 -7q-38 0 -68.5 10t-53 28.5t-34.5 44t-12 56.5q0 33 18 64.5t54 50.5q-29 17 -45 43t-16 56t11.5 53.5t32 40t48.5 25.5t61 9t61.5 -9t49.5 -25.5t32.5 -40.5t11.5 -53t-16 -55t-48 -43q43 -20 62 -50t19 -66q0 -31 -12.5 -56.5t-34.5 -44t-53 -28.5t-68 -10z" />
    <glyph glyph-name="uni215F" unicode="&#x215f;" horiz-adv-x="960" 
d="M301 -15h-97l394 730h96zM98 523l-50 79l135 99h83v-466h-100v337z" />
    <glyph glyph-name="arrowleft" unicode="&#x2190;" horiz-adv-x="860" 
d="M824 289h-586l57 -181l-259 224l259 224l-57 -181h586v-86z" />
    <glyph glyph-name="arrowup" unicode="&#x2191;" horiz-adv-x="860" 
d="M387 -38v586l-181 -57l224 259l224 -259l-181 57v-586h-86z" />
    <glyph glyph-name="arrowright" unicode="&#x2192;" horiz-adv-x="860" 
d="M36 375h586l-57 181l259 -224l-259 -224l57 181h-586v86z" />
    <glyph glyph-name="arrowdown" unicode="&#x2193;" horiz-adv-x="860" 
d="M473 750v-586l181 57l-224 -259l-224 259l181 -57v586h86z" />
    <glyph glyph-name="arrowboth" unicode="&#x2194;" horiz-adv-x="860" 
d="M295 108l-259 224l259 224l-57 -181h384l-57 181l259 -224l-259 -224l57 181h-384z" />
    <glyph glyph-name="arrowupdn" unicode="&#x2195;" horiz-adv-x="860" 
d="M473 548v-384l181 57l-224 -259l-224 259l181 -57v384l-181 -57l224 259l224 -259z" />
    <glyph glyph-name="arrowupdnbse" unicode="&#x21a8;" horiz-adv-x="860" 
d="M473 548v-384l181 57l-195 -225h174v-84h-406v84h173l-194 225l181 -57v384l-181 -57l224 259l224 -259z" />
    <glyph glyph-name="partialdiff" unicode="&#x2202;" horiz-adv-x="598" 
d="M320 488q79 0 120 -41q0 45 -9.5 75.5t-26.5 49.5t-40 27.5t-51 8.5q-35 0 -69 -9t-60 -25l-9 105q29 16 67.5 24.5t80.5 8.5q108 0 171.5 -71.5t63.5 -203.5q0 -102 -24 -185t-67.5 -141.5t-103 -90.5t-131.5 -32q-42 0 -77.5 12t-61 37t-39.5 61.5t-14 86.5
q0 58 23 112.5t61.5 97t89 68t106.5 25.5zM322 384q-32 0 -61 -16.5t-51.5 -44.5t-36 -65t-13.5 -77q0 -52 18 -70.5t55 -18.5q39 0 74 21t61.5 55t42.5 76.5t18 86.5q-15 26 -43 39.5t-64 13.5z" />
    <glyph glyph-name="Delta" unicode="&#x2206;" horiz-adv-x="664" 
d="M5 0l270 700h114l270 -700h-654zM491 102l-159 438l-159 -438h318z" />
    <glyph glyph-name="product" unicode="&#x220f;" horiz-adv-x="698" 
d="M80 740h538v-851h-118v749h-302v-749h-118v851z" />
    <glyph glyph-name="summation" unicode="&#x2211;" horiz-adv-x="615" 
d="M249 332l-209 305v103h545v-102h-413l197 -285v-43l-200 -319h416v-102h-545v104z" />
    <glyph glyph-name="minus" unicode="&#x2212;" horiz-adv-x="620" 
d="M60 283v98h500v-98h-500z" />
    <glyph glyph-name="uni2215" unicode="&#x2215;" horiz-adv-x="474" 
d="M121 -15h-121l354 730h120z" />
    <glyph glyph-name="uni2219" unicode="&#x2219;" horiz-adv-x="295" 
d="M76 332q0 71 71 71t71 -71t-71 -71t-71 71z" />
    <glyph glyph-name="radical" unicode="&#x221a;" horiz-adv-x="717" 
d="M230 380l112 -276l139 666h96l-159 -770h-131l-122 299h-65v81h130z" />
    <glyph glyph-name="infinity" unicode="&#x221e;" horiz-adv-x="775" 
d="M558 474q72 0 114.5 -39.5t42.5 -105.5t-42.5 -105.5t-114.5 -39.5q-42 0 -83 17t-88 64q-47 -47 -87.5 -64t-82.5 -17q-72 0 -114.5 39.5t-42.5 105.5t42.5 105.5t114.5 39.5q42 0 82.5 -17.5t87.5 -64.5q47 47 88 64.5t83 17.5zM551 269q29 0 45 17t16 43t-16 43
t-45 17t-52.5 -13.5t-54.5 -47.5q31 -34 54.5 -46.5t52.5 -12.5zM224 389q-29 0 -45 -17t-16 -43t16 -43t45 -17t52.5 13t54.5 47q-32 34 -55 47t-52 13z" />
    <glyph glyph-name="orthogonal" unicode="&#x221f;" horiz-adv-x="652" 
d="M632 0h-532v575h114v-483h418v-92z" />
    <glyph glyph-name="intersection" unicode="&#x2229;" horiz-adv-x="777" 
d="M388 617q75 0 129.5 -26t90 -72t52.5 -109.5t17 -139.5v-270h-114v266q0 66 -12.5 114.5t-35.5 80t-55 47t-72 15.5q-79 0 -126.5 -62.5t-47.5 -194.5v-266h-114v270q0 76 17 139.5t52.5 109.5t89.5 72t129 26z" />
    <glyph glyph-name="integral" unicode="&#x222b;" horiz-adv-x="577" 
d="M343 -34q0 -186 -179 -186q-32 0 -84 11l12 97q40 -14 66 -14q42 0 59 21.5t17 78.5v595q0 186 179 186q32 0 84 -11l-12 -97q-40 14 -66 14q-42 0 -59 -21.5t-17 -78.5v-595z" />
    <glyph glyph-name="approxequal" unicode="&#x2248;" horiz-adv-x="620" 
d="M560 520q0 -93 -39.5 -135t-108.5 -42q-32 0 -60.5 10t-54.5 30q-33 24 -52 33.5t-33 9.5q-19 0 -28 -16.5t-11 -64.5h-113q0 93 39.5 135t108.5 42q32 0 60.5 -10t54.5 -30q33 -24 52 -33.5t33 -9.5q19 0 28 16.5t11 64.5h113zM560 320q0 -93 -39.5 -135t-108.5 -42
q-32 0 -60.5 10t-54.5 30q-33 24 -52 33.5t-33 9.5q-19 0 -28 -16.5t-11 -64.5h-113q0 93 39.5 135t108.5 42q32 0 60.5 -10t54.5 -30q33 -24 52 -33.5t33 -9.5q19 0 28 16.5t11 64.5h113z" />
    <glyph glyph-name="notequal" unicode="&#x2260;" horiz-adv-x="620" 
d="M60 172v98h154l82 124h-236v98h301l103 155h109l-103 -155h90v-98h-155l-82 -124h237v-98h-302l-102 -155h-109l102 155h-89z" />
    <glyph glyph-name="equivalence" unicode="&#x2261;" horiz-adv-x="620" 
d="M60 459v98h500v-98h-500zM60 107v98h500v-98h-500zM60 283v98h500v-98h-500z" />
    <glyph glyph-name="lessequal" unicode="&#x2264;" horiz-adv-x="620" 
d="M60 26v98h500v-98h-500zM60 448l500 195v-112l-361 -135l361 -135v-112l-500 195v104z" />
    <glyph glyph-name="greaterequal" unicode="&#x2265;" horiz-adv-x="620" 
d="M60 26v98h500v-98h-500zM560 344l-500 -195v112l361 135l-361 135v112l500 -195v-104z" />
    <glyph glyph-name="house" unicode="&#x2302;" horiz-adv-x="718" 
d="M504 92v199l-145 165l-145 -165v-199h290zM100 0v328l259 291l259 -291v-328h-518z" />
    <glyph glyph-name="revlogicalnot" unicode="&#x2310;" horiz-adv-x="620" 
d="M565 364h-395v-205h-105v291h500v-86z" />
    <glyph glyph-name="uni2318" unicode="&#x2318;" horiz-adv-x="921" 
d="M306 459v37q0 31 -11.5 49t-37.5 18q-22 0 -35.5 -14t-13.5 -37q0 -30 18 -41.5t47 -11.5h33zM619 273h35q35 0 65.5 -8t53 -25t35.5 -43.5t13 -62.5q0 -30 -10.5 -55.5t-31 -44t-49.5 -29.5t-65 -11q-76 0 -116 42t-40 111v36h-97v-36q0 -69 -40 -111t-116 -42
q-36 0 -65 11t-49.5 29.5t-31 44t-10.5 55.5q0 36 13 62.5t35.5 43.5t53 25t65.5 8h35v100h-35q-35 0 -65.5 8t-53 25t-35.5 43.5t-13 62.5q0 30 10.5 55.5t31 44t49.5 29.5t65 11q76 0 116 -42t40 -111v-36h97v36q0 69 40 111t116 42q36 0 65 -11t49.5 -29.5t31 -44
t10.5 -55.5q0 -36 -13 -62.5t-35.5 -43.5t-53 -25t-65.5 -8h-35v-100zM648 459q29 0 47 11.5t18 41.5q0 23 -13.5 37t-35.5 14q-26 0 -37.5 -18t-11.5 -49v-37h33zM273 187q-29 0 -47 -11.5t-18 -41.5q0 -23 13.5 -37t35.5 -14q26 0 37.5 18t11.5 49v37h-33zM412 373v-100
h97v100h-97zM615 187v-37q0 -31 11.5 -49t37.5 -18q22 0 35.5 14t13.5 37q0 30 -18 41.5t-47 11.5h-33z" />
    <glyph glyph-name="integraltp" unicode="&#x2320;" horiz-adv-x="721" 
d="M308 0v167q0 75 4.5 159.5t20.5 178.5q8 45 22 82.5t35.5 65.5t51.5 43.5t69 15.5q45 0 71.5 -23t26.5 -59q0 -31 -18.5 -49t-50.5 -18q-35 0 -52 20t-17 49q0 4 2 10q-15 0 -24.5 -20t-14.5 -69t-6.5 -132t-1.5 -209v-212h-118z" />
    <glyph glyph-name="integralbt" unicode="&#x2321;" horiz-adv-x="721" 
d="M426 999v-167q0 -75 -4.5 -159.5t-20.5 -178.5q-8 -45 -22 -82.5t-35.5 -65.5t-51.5 -43.5t-69 -15.5q-45 0 -71.5 23t-26.5 59q0 31 18.5 49t50.5 18q35 0 52 -20t17 -49q0 -4 -2 -10q15 0 24.5 20t14.5 69t6.5 132t1.5 209v212h118z" />
    <glyph glyph-name="SF100000" unicode="&#x2500;" 
d="M1000 270h-1000v60h1000v-60zM1000 270h-1000v60h1000v-60z" />
    <glyph glyph-name="SF110000" unicode="&#x2502;" 
d="M530 910v-1220h-60v1220h60z" />
    <glyph glyph-name="SF010000" unicode="&#x250c;" 
d="M470 330h530v-60h-470v-580h-60v640z" />
    <glyph glyph-name="SF030000" unicode="&#x2510;" 
d="M530 -310h-60v580h-470v60h530v-640z" />
    <glyph glyph-name="SF020000" unicode="&#x2514;" 
d="M470 910h60v-580h470v-60h-530v640z" />
    <glyph glyph-name="SF040000" unicode="&#x2518;" 
d="M530 270h-530v60h470v580h60v-640z" />
    <glyph glyph-name="SF080000" unicode="&#x251c;" 
d="M530 910v-580h470v-60h-470v-580h-60v1220h60z" />
    <glyph glyph-name="SF090000" unicode="&#x2524;" 
d="M530 -310h-60v580h-470v60h470v580h60v-1220z" />
    <glyph glyph-name="SF060000" unicode="&#x252c;" 
d="M1000 270h-470v-580h-60v580h-470v60h1000v-60z" />
    <glyph glyph-name="SF070000" unicode="&#x2534;" 
d="M0 270v60h470v580h60v-580h470v-60h-1000z" />
    <glyph glyph-name="SF050000" unicode="&#x253c;" 
d="M530 910v-580h470v-60h-470v-580h-60v580h-470v60h470v580h60z" />
    <glyph glyph-name="SF430000" unicode="&#x2550;" 
d="M0 390h1000v-60h-1000v60zM0 270h1000v-60h-1000v60z" />
    <glyph glyph-name="SF240000" unicode="&#x2551;" 
d="M410 910h60v-1220h-60v1220zM530 910h60v-1220h-60v1220z" />
    <glyph glyph-name="SF510000" unicode="&#x2552;" 
d="M1000 330h-470v-60h470v-60h-470v-520h-60v700h530v-60z" />
    <glyph glyph-name="SF520000" unicode="&#x2553;" 
d="M470 -310h-60v640h590v-60h-410v-580h-60v580h-60v-580z" />
    <glyph glyph-name="SF390000" unicode="&#x2554;" 
d="M1000 330h-530v-640h-60v700h590v-60zM1000 210h-410v-520h-60v580h470v-60z" />
    <glyph glyph-name="SF220000" unicode="&#x2555;" 
d="M0 390h530v-700h-60v520h-470v60h470v60h-470v60z" />
    <glyph glyph-name="SF210000" unicode="&#x2556;" 
d="M530 270h-60v-580h-60v580h-410v60h590v-640h-60v580z" />
    <glyph glyph-name="SF250000" unicode="&#x2557;" 
d="M0 390h590v-700h-60v640h-530v60zM0 270h470v-580h-60v520h-410v60z" />
    <glyph glyph-name="SF500000" unicode="&#x2558;" 
d="M1000 210h-530v700h60v-520h470v-60h-470v-60h470v-60z" />
    <glyph glyph-name="SF490000" unicode="&#x2559;" 
d="M410 910h60v-580h60v580h60v-580h410v-60h-590v640z" />
    <glyph glyph-name="SF380000" unicode="&#x255a;" 
d="M410 910h60v-640h530v-60h-590v700zM530 910h60v-520h410v-60h-470v580z" />
    <glyph glyph-name="SF280000" unicode="&#x255b;" 
d="M0 270h471v60h-471v60h470v520h60v-700h-530v60z" />
    <glyph glyph-name="SF270000" unicode="&#x255c;" 
d="M590 270h-590v60h410v580h60v-580h60v580h60v-640z" />
    <glyph glyph-name="SF260000" unicode="&#x255d;" 
d="M470 330h-470v60h410v520h60v-580zM590 210h-590v60h530v640h60v-700z" />
    <glyph glyph-name="SF360000" unicode="&#x255e;" 
d="M470 910h60v-520h470v-60h-470v-60h470v-60h-470v-520h-60v1220z" />
    <glyph glyph-name="SF370000" unicode="&#x255f;" 
d="M1000 270h-410v-580h-60v1220h60v-580h410v-60zM470 -310h-60v1220h60v-1220z" />
    <glyph glyph-name="SF420000" unicode="&#x2560;" 
d="M410 910h60v-1220h-60v1220zM530 270h470v-60h-410v-520h-60v580zM530 910h60v-520h410v-60h-470v580z" />
    <glyph glyph-name="SF190000" unicode="&#x2561;" 
d="M530 -310h-60v520h-470v60h470v60h-470v60h470v520h60v-1220z" />
    <glyph glyph-name="SF200000" unicode="&#x2562;" 
d="M0 330h410v580h60v-1220h-60v580h-410v60zM530 910h60v-1220h-60v1220z" />
    <glyph glyph-name="SF230000" unicode="&#x2563;" 
d="M530 910h60v-1220h-60v1220zM0 270h470v-580h-60v520h-410v60zM0 390h410v520h60v-580h-470v60z" />
    <glyph glyph-name="SF470000" unicode="&#x2564;" 
d="M0 270h1000v-60h-470v-520h-60v520h-470v60zM0 390h1000v-60h-1000v60z" />
    <glyph glyph-name="SF480000" unicode="&#x2565;" 
d="M0 330h1000v-60h-410v-580h-60v580h-60v-580h-60v580h-410v60z" />
    <glyph glyph-name="SF410000" unicode="&#x2566;" 
d="M0 390h1000v-60h-1000v60zM0 270h470v-580h-60v520h-410v60zM530 270h470v-60h-410v-520h-60v580z" />
    <glyph glyph-name="SF450000" unicode="&#x2567;" 
d="M0 390h470v520h60v-520h470v-60h-1000v60zM0 270h1000v-60h-1000v60z" />
    <glyph glyph-name="SF460000" unicode="&#x2568;" 
d="M0 330h410v580h60v-580h60v580h60v-580h410v-60h-1000v60z" />
    <glyph glyph-name="SF400000" unicode="&#x2569;" 
d="M0 270h1000v-60h-1000v60zM0 390h410v520h60v-580h-470v60zM530 910h60v-520h410v-60h-470v580z" />
    <glyph glyph-name="SF540000" unicode="&#x256a;" 
d="M0 390h470v520h60v-520h470v-60h-470v-60h470v-60h-470v-520h-60v520h-470v60h470v60h-470v60z" />
    <glyph glyph-name="SF530000" unicode="&#x256b;" 
d="M0 330h410v580h60v-580h60v580h60v-580h410v-60h-410v-580h-60v580h-60v-580h-60v580h-410v60z" />
    <glyph glyph-name="SF440000" unicode="&#x256c;" 
d="M0 270h470v-580h-60v520h-410v60zM530 270h470v-60h-410v-520h-60v580zM0 390h410v520h60v-580h-470v60zM530 910h60v-520h410v-60h-470v580z" />
    <glyph glyph-name="uni256D" unicode="&#x256d;" 
d="M470 -310v447q0 50 6.5 86.5t24 60t48 35t78.5 11.5h373v-60h-373q-58 0 -77.5 -34.5t-19.5 -98.5v-447h-60z" />
    <glyph glyph-name="uni256E" unicode="&#x256e;" 
d="M470 -310v447q0 64 -19.5 98.5t-77.5 34.5h-373v60h373q48 0 79 -11.5t48 -35t23.5 -60t6.5 -86.5v-447h-60z" />
    <glyph glyph-name="uni256F" unicode="&#x256f;" 
d="M530 910v-445q0 -50 -6.5 -86.5t-23.5 -60.5t-47.5 -36t-78.5 -12h-374v60h374q29 0 47.5 9t29.5 26t15 42t4 58v445h60z" />
    <glyph glyph-name="uni2570" unicode="&#x2570;" 
d="M530 910v-445q0 -65 19.5 -100t77.5 -35h373v-60h-373q-48 0 -78.5 12t-48 36t-24 60.5t-6.5 86.5v445h60z" />
    <glyph glyph-name="uni2571" unicode="&#x2571;" 
d="M922 905h78l-922 -1210h-78z" />
    <glyph glyph-name="uni2572" unicode="&#x2572;" 
d="M1000 -305h-78l-922 1210h78z" />
    <glyph glyph-name="uni2573" unicode="&#x2573;" 
d="M461 300l-461 605h78l422 -554l422 554h78l-461 -605l461 -605h-78l-422 554l-422 -554h-78z" />
    <glyph glyph-name="uni2574" unicode="&#x2574;" 
d="M500 330v-60h-500v60h500z" />
    <glyph glyph-name="uni2575" unicode="&#x2575;" 
d="M530 300h-60v610h60v-610z" />
    <glyph glyph-name="uni2576" unicode="&#x2576;" 
d="M1000 330v-60h-500v60h500z" />
    <glyph glyph-name="uni2577" unicode="&#x2577;" 
d="M530 -310h-60v610h60v-610z" />
    <glyph glyph-name="uni2578" unicode="&#x2578;" 
d="M500 367v-134h-500v134h500z" />
    <glyph glyph-name="uni2579" unicode="&#x2579;" 
d="M567 300h-134v610h134v-610z" />
    <glyph glyph-name="uni257A" unicode="&#x257a;" 
d="M1000 367v-134h-500v134h500z" />
    <glyph glyph-name="uni257B" unicode="&#x257b;" 
d="M567 -310h-134v610h134v-610z" />
    <glyph glyph-name="uni257C" unicode="&#x257c;" 
d="M1000 367v-134h-500v37h-500v60h500v37h500z" />
    <glyph glyph-name="uni257D" unicode="&#x257d;" 
d="M567 -310h-134v610h37v610h60v-610h37v-610z" />
    <glyph glyph-name="uni257E" unicode="&#x257e;" 
d="M500 367v-37h500v-60h-500v-37h-500v134h500z" />
    <glyph glyph-name="uni257F" unicode="&#x257f;" 
d="M567 300h-37v-610h-60v610h-37v610h134v-610z" />
    <glyph glyph-name="upblock" unicode="&#x2580;" 
d="M0 300v500h1000v-500h-1000z" />
    <glyph glyph-name="dnblock" unicode="&#x2584;" 
d="M0 -200v500h1000v-500h-1000z" />
    <glyph glyph-name="block" unicode="&#x2588;" 
d="M0 -200v1000h1000v-1000h-1000z" />
    <glyph glyph-name="lfblock" unicode="&#x258c;" 
d="M0 800h500v-1000h-500v1000z" />
    <glyph glyph-name="rtblock" unicode="&#x2590;" 
d="M500 800h500v-1000h-500v1000z" />
    <glyph glyph-name="ltshade" unicode="&#x2591;" 
d="M15 474h51v-51h-51v51zM117 474h51v-51h-51v51zM219 474h51v-51h-51v51zM321 474h51v-51h-51v51zM423 474h51v-51h-51v51zM15 372h51v-51h-51v51zM117 372h51v-51h-51v51zM219 372h51v-51h-51v51zM321 372h51v-51h-51v51zM423 372h51v-51h-51v51zM15 270h51v-51h-51v51z
M117 270h51v-51h-51v51zM219 270h51v-51h-51v51zM321 270h51v-51h-51v51zM423 270h51v-51h-51v51zM525 474h51v-51h-51v51zM627 474h51v-51h-51v51zM729 474h51v-51h-51v51zM831 474h51v-51h-51v51zM933 474h51v-51h-51v51zM525 372h51v-51h-51v51zM627 372h51v-51h-51v51z
M729 372h51v-51h-51v51zM831 372h51v-51h-51v51zM933 372h51v-51h-51v51zM525 270h51v-51h-51v51zM627 270h51v-51h-51v51zM729 270h51v-51h-51v51zM831 270h51v-51h-51v51zM933 270h51v-51h-51v51zM15 780h51v-51h-51v51zM117 780h51v-51h-51v51zM219 780h51v-51h-51v51z
M321 780h51v-51h-51v51zM423 780h51v-51h-51v51zM15 678h51v-51h-51v51zM117 678h51v-51h-51v51zM219 678h51v-51h-51v51zM321 678h51v-51h-51v51zM423 678h51v-51h-51v51zM15 576h51v-51h-51v51zM117 576h51v-51h-51v51zM219 576h51v-51h-51v51zM321 576h51v-51h-51v51z
M423 576h51v-51h-51v51zM525 780h51v-51h-51v51zM627 780h51v-51h-51v51zM729 780h51v-51h-51v51zM831 780h51v-51h-51v51zM933 780h51v-51h-51v51zM525 678h51v-51h-51v51zM627 678h51v-51h-51v51zM729 678h51v-51h-51v51zM831 678h51v-51h-51v51zM933 678h51v-51h-51v51z
M525 576h51v-51h-51v51zM627 576h51v-51h-51v51zM729 576h51v-51h-51v51zM831 576h51v-51h-51v51zM933 576h51v-51h-51v51zM15 -138h51v-51h-51v51zM117 -138h51v-51h-51v51zM219 -138h51v-51h-51v51zM321 -138h51v-51h-51v51zM423 -138h51v-51h-51v51zM525 -138h51v-51h-51
v51zM627 -138h51v-51h-51v51zM729 -138h51v-51h-51v51zM831 -138h51v-51h-51v51zM933 -138h51v-51h-51v51zM15 168h51v-51h-51v51zM117 168h51v-51h-51v51zM219 168h51v-51h-51v51zM321 168h51v-51h-51v51zM423 168h51v-51h-51v51zM15 66h51v-51h-51v51zM117 66h51v-51h-51
v51zM219 66h51v-51h-51v51zM321 66h51v-51h-51v51zM423 66h51v-51h-51v51zM15 -36h51v-51h-51v51zM117 -36h51v-51h-51v51zM219 -36h51v-51h-51v51zM321 -36h51v-51h-51v51zM423 -36h51v-51h-51v51zM525 168h51v-51h-51v51zM627 168h51v-51h-51v51zM729 168h51v-51h-51v51z
M831 168h51v-51h-51v51zM933 168h51v-51h-51v51zM525 66h51v-51h-51v51zM627 66h51v-51h-51v51zM729 66h51v-51h-51v51zM831 66h51v-51h-51v51zM933 66h51v-51h-51v51zM525 -36h51v-51h-51v51zM627 -36h51v-51h-51v51zM729 -36h51v-51h-51v51zM831 -36h51v-51h-51v51z
M933 -36h51v-51h-51v51z" />
    <glyph glyph-name="shade" unicode="&#x2592;" 
d="M66 423h51v-51h51v-51h51v-51h51v-51h51v-51h51v-51h51v-51h51v-51h51v-51h51v-51h51v-51h51v-51h-51v51h-51v51h-51v51h-51v51h-51v51h-51v51h-51v51h-51v51h-51v51h-51v51h-51v51h-51v51h-51v51h51v-51zM168 423h51v-51h51v-51h51v-51h51v-51h51v-51h51v-51h51v-51h51
v-51h51v-51h51v-51h51v-51h51v-51h-51v51h-51v51h-51v51h-51v51h-51v51h-51v51h-51v51h-51v51h-51v51h-51v51h-51v51h-51v51h-51v51h51v-51zM270 423h51v-51h51v-51h51v-51h51v-51h51v-51h51v-51h51v-51h51v-51h51v-51h51v-51h51v-51h51v-51h-51v51h-51v51h-51v51h-51v51
h-51v51h-51v51h-51v51h-51v51h-51v51h-51v51h-51v51h-51v51h-51v51h51v-51zM372 423h51v-51h51v-51h51v-51h51v-51h51v-51h51v-51h51v-51h51v-51h51v-51h51v-51h51v-51h51v-51h-51v51h-51v51h-51v51h-51v51h-51v51h-51v51h-51v51h-51v51h-51v51h-51v51h-51v51h-51v51h-51v51
h51v-51zM474 423h51v-51h51v-51h51v-51h51v-51h51v-51h51v-51h51v-51h51v-51h51v-51h51v-51h-51v51h-51v51h-51v51h-51v51h-51v51h-51v51h-51v51h-51v51h-51v51h-51v51h-51v51h51v-51zM66 321h51v-51h51v-51h51v-51h51v-51h51v-51h51v-51h51v-51h51v-51h51v-51h51v-51h-51
v51h-51v51h-51v51h-51v51h-51v51h-51v51h-51v51h-51v51h-51v51h-51v51h-51v51h51v-51zM66 219h51v-51h51v-51h51v-51h51v-51h51v-51h51v-51h51v-51h51v-51h-51v51h-51v51h-51v51h-51v51h-51v51h-51v51h-51v51h-51v51h-51v51h51v-51zM576 423h51v-51h51v-51h51v-51h51v-51h51
v-51h51v-51h51v-51h51v-51h-51v51h-51v51h-51v51h-51v51h-51v51h-51v51h-51v51h-51v51h-51v51h51v-51zM678 423h51v-51h51v-51h51v-51h51v-51h51v-51h51v-51h-51v51h-51v51h-51v51h-51v51h-51v51h-51v51h-51v51h51v-51zM15 168h51v-51h51v-51h51v-51h51v-51h51v-51h51v-51
h-51v51h-51v51h-51v51h-51v51h-51v51h-51v51zM423 780h51v-51h51v-51h51v-51h51v-51h51v-51h51v-51h-51v51h-51v51h-51v51h-51v51h-51v51h-51v51zM117 780h51v-51h51v-51h51v-51h51v-51h51v-51h51v-51h-51v51h-51v51h-51v51h-51v51h-51v51h-51v51zM525 780h51v-51h51v-51h51
v-51h51v-51h51v-51h51v-51h-51v51h-51v51h-51v51h-51v51h-51v51h-51v51zM627 780h51v-51h51v-51h51v-51h51v-51h51v-51h51v-51h-51v51h-51v51h-51v51h-51v51h-51v51h-51v51zM219 780h51v-51h51v-51h51v-51h51v-51h51v-51h51v-51h-51v51h-51v51h-51v51h-51v51h-51v51h-51v51z
M15 780h51v-51h51v-51h51v-51h51v-51h51v-51h51v-51h-51v51h-51v51h-51v51h-51v51h-51v51h-51v51zM321 780h51v-51h51v-51h51v-51h51v-51h51v-51h51v-51h-51v51h-51v51h-51v51h-51v51h-51v51h-51v51zM780 423h51v-51h51v-51h51v-51h51v-51h-51v51h-51v51h-51v51h-51v51h-51
v51h51v-51zM780 729h51v-51h51v-51h51v-51h51v-51h-51v51h-51v51h-51v51h-51v51h-51v51h51v-51zM15 678h51v-51h51v-51h51v-51h51v-51h-51v51h-51v51h-51v51h-51v51zM15 66h51v-51h51v-51h51v-51h51v-51h-51v51h-51v51h-51v51h-51v51zM882 729h51v-51h51v-51h-51v51h-51v51
h-51v51h51v-51zM882 423h51v-51h51v-51h-51v51h-51v51h-51v51h51v-51zM15 -36h51v-51h51v-51h-51v51h-51v51zM15 576h51v-51h51v-51h-51v51h-51v51zM321 -138h51v-51h-51v51zM117 -138h51v-51h-51v51zM15 -138h51v-51h-51v51zM219 -138h51v-51h-51v51zM933 474h51v-51h-51
v51zM933 780h51v-51h-51v51z" />
    </font>
</defs>
</svg>
